
<svg width="163px" height="86px" viewBox="-15 -11 163 86" version="1.1" xmlns="http://www.w3.org/2000/svg" xmlns:xlink="http://www.w3.org/1999/xlink">
    <!-- Generator: Sketch 40.3 (33839) - http://www.bohemiancoding.com/sketch -->
    <desc>Created with Sketch.</desc>
    <defs>
        <rect id="path-1" x="0" y="0" width="133" height="56" rx="2"></rect>
        <filter x="-50%" y="-50%" width="200%" height="200%" filterUnits="objectBoundingBox" id="filter-2">
            <feOffset dx="0" dy="2" in="SourceAlpha" result="shadowOffsetOuter1"></feOffset>
            <feGaussianBlur stdDeviation="5" in="shadowOffsetOuter1" result="shadowBlurOuter1"></feGaussianBlur>
            <feColorMatrix values="0 0 0 0 0   0 0 0 0 0   0 0 0 0 0  0 0 0 0.12 0" type="matrix" in="shadowBlurOuter1" result="shadowMatrixOuter1"></feColorMatrix>
            <feOffset dx="0" dy="2" in="SourceAlpha" result="shadowOffsetOuter2"></feOffset>
            <feGaussianBlur stdDeviation="2.5" in="shadowOffsetOuter2" result="shadowBlurOuter2"></feGaussianBlur>
            <feColorMatrix values="0 0 0 0 0   0 0 0 0 0   0 0 0 0 0  0 0 0 0.16 0" type="matrix" in="shadowBlurOuter2" result="shadowMatrixOuter2"></feColorMatrix>
            <feMerge>
                <feMergeNode in="shadowMatrixOuter1"></feMergeNode>
                <feMergeNode in="shadowMatrixOuter2"></feMergeNode>
            </feMerge>
        </filter>
    </defs>
    <g id="Rectangle-8-Copy-8" stroke="none" fill="none">
        <use fill="black" fill-opacity="1" filter="url(#filter-2)" xlink:href="#path-1"></use>
        <use fill="#F05D61" fill-rule="evenodd" xlink:href="#path-1"></use>
    </g>
    <path d="M41.076,30.608 C41.076,29.072 40.164,28.208 38.804,27.824 C39.892,27.376 40.548,26.592 40.548,25.424 C40.548,23.632 39.3,22.4 36.66,22.4 L33.764,22.4 L33.764,34 L36.628,34 C39.396,34 41.076,32.928 41.076,30.608 L41.076,30.608 Z M38.98,25.472 C38.98,26.608 38.116,27.264 36.516,27.264 L35.332,27.264 L35.332,23.776 L36.628,23.776 C38.276,23.776 38.98,24.416 38.98,25.472 L38.98,25.472 Z M39.492,30.64 C39.492,31.968 38.484,32.64 36.756,32.64 L35.332,32.64 L35.332,28.576 L36.692,28.576 C38.5,28.576 39.492,29.312 39.492,30.64 L39.492,30.64 Z M52.628,29.536 L52.628,22.4 L51.028,22.4 L51.028,29.456 C51.028,31.552 49.988,32.752 47.924,32.752 C45.844,32.752 44.884,31.424 44.884,29.408 L44.884,22.4 L43.268,22.4 L43.268,29.616 C43.268,32.448 45.012,34.224 47.924,34.224 C50.836,34.224 52.628,32.464 52.628,29.536 L52.628,29.536 Z M64.068,23.872 L63.844,22.4 L54.676,22.4 L54.676,23.872 L58.516,23.872 L58.516,34 L60.132,34 L60.132,23.872 L64.068,23.872 Z M74.644,23.872 L74.42,22.4 L65.252,22.4 L65.252,23.872 L69.092,23.872 L69.092,34 L70.708,34 L70.708,23.872 L74.644,23.872 Z M87.316,28.192 C87.316,24.608 85.172,22.192 81.78,22.192 C78.404,22.192 76.228,24.624 76.228,28.224 C76.228,31.808 78.372,34.224 81.748,34.224 C85.14,34.224 87.316,31.76 87.316,28.192 L87.316,28.192 Z M85.668,28.208 C85.668,30.976 84.18,32.752 81.764,32.752 C79.38,32.752 77.876,30.976 77.876,28.208 C77.876,25.424 79.364,23.664 81.764,23.664 C84.164,23.664 85.668,25.424 85.668,28.208 L85.668,28.208 Z M99.236,34 L99.236,22.4 L97.764,22.4 L97.764,31.056 L91.316,22.4 L89.892,22.4 L89.892,34 L91.364,34 L91.364,25.024 L98.036,34 L99.236,34 Z" id="BUTTON-Copy-7" stroke="none" fill="#F7F7F7" fill-rule="evenodd"></path>
</svg>
