
<svg width="139px" height="150px" viewBox="57 603 139 150" version="1.1" xmlns="http://www.w3.org/2000/svg" xmlns:xlink="http://www.w3.org/1999/xlink">
    <!-- Generator: Sketch 40.3 (33839) - http://www.bohemiancoding.com/sketch -->
    <desc>Created with Sketch.</desc>
    <defs>
        <rect id="path-1" x="0" y="0" width="84" height="24" rx="2"></rect>
        <filter x="-50%" y="-50%" width="200%" height="200%" filterUnits="objectBoundingBox" id="filter-2">
            <feOffset dx="0" dy="2" in="SourceAlpha" result="shadowOffsetOuter1"></feOffset>
            <feGaussianBlur stdDeviation="1.5" in="shadowOffsetOuter1" result="shadowBlurOuter1"></feGaussianBlur>
            <feColorMatrix values="0 0 0 0 0   0 0 0 0 0   0 0 0 0 0  0 0 0 0.23 0" type="matrix" in="shadowBlurOuter1"></feColorMatrix>
        </filter>
        <rect id="path-3" x="7.10542736e-15" y="0" width="108" height="32" rx="2"></rect>
        <filter x="-50%" y="-50%" width="200%" height="200%" filterUnits="objectBoundingBox" id="filter-4">
            <feOffset dx="0" dy="2" in="SourceAlpha" result="shadowOffsetOuter1"></feOffset>
            <feGaussianBlur stdDeviation="1.5" in="shadowOffsetOuter1" result="shadowBlurOuter1"></feGaussianBlur>
            <feColorMatrix values="0 0 0 0 0   0 0 0 0 0   0 0 0 0 0  0 0 0 0.23 0" type="matrix" in="shadowBlurOuter1"></feColorMatrix>
        </filter>
        <rect id="path-5" x="0" y="0" width="133" height="56" rx="2"></rect>
        <filter x="-50%" y="-50%" width="200%" height="200%" filterUnits="objectBoundingBox" id="filter-6">
            <feOffset dx="0" dy="2" in="SourceAlpha" result="shadowOffsetOuter1"></feOffset>
            <feGaussianBlur stdDeviation="1.5" in="shadowOffsetOuter1" result="shadowBlurOuter1"></feGaussianBlur>
            <feColorMatrix values="0 0 0 0 0   0 0 0 0 0   0 0 0 0 0  0 0 0 0.23 0" type="matrix" in="shadowBlurOuter1"></feColorMatrix>
        </filter>
    </defs>
    <g id="Group-10" stroke="none" stroke-width="1" fill="none" fill-rule="evenodd" transform="translate(60.000000, 604.000000)">
        <g id="Rectangle-8">
            <use fill="black" fill-opacity="1" filter="url(#filter-2)" xlink:href="#path-1"></use>
            <use fill="#FFFFFF" fill-rule="evenodd" xlink:href="#path-1"></use>
        </g>
        <path d="M22.932,13.456 C22.932,12.304 22.248,11.656 21.228,11.368 C22.044,11.032 22.536,10.444 22.536,9.568 C22.536,8.224 21.6,7.3 19.62,7.3 L17.448,7.3 L17.448,16 L19.596,16 C21.672,16 22.932,15.196 22.932,13.456 L22.932,13.456 Z M21.36,9.604 C21.36,10.456 20.712,10.948 19.512,10.948 L18.624,10.948 L18.624,8.332 L19.596,8.332 C20.832,8.332 21.36,8.812 21.36,9.604 L21.36,9.604 Z M21.744,13.48 C21.744,14.476 20.988,14.98 19.692,14.98 L18.624,14.98 L18.624,11.932 L19.644,11.932 C21,11.932 21.744,12.484 21.744,13.48 L21.744,13.48 Z M31.596,12.652 L31.596,7.3 L30.396,7.3 L30.396,12.592 C30.396,14.164 29.616,15.064 28.068,15.064 C26.508,15.064 25.788,14.068 25.788,12.556 L25.788,7.3 L24.576,7.3 L24.576,12.712 C24.576,14.836 25.884,16.168 28.068,16.168 C30.252,16.168 31.596,14.848 31.596,12.652 L31.596,12.652 Z M40.176,8.404 L40.008,7.3 L33.132,7.3 L33.132,8.404 L36.012,8.404 L36.012,16 L37.224,16 L37.224,8.404 L40.176,8.404 Z M48.108,8.404 L47.94,7.3 L41.064,7.3 L41.064,8.404 L43.944,8.404 L43.944,16 L45.156,16 L45.156,8.404 L48.108,8.404 Z M57.612,11.644 C57.612,8.956 56.004,7.144 53.46,7.144 C50.928,7.144 49.296,8.968 49.296,11.668 C49.296,14.356 50.904,16.168 53.436,16.168 C55.98,16.168 57.612,14.32 57.612,11.644 L57.612,11.644 Z M56.376,11.656 C56.376,13.732 55.26,15.064 53.448,15.064 C51.66,15.064 50.532,13.732 50.532,11.656 C50.532,9.568 51.648,8.248 53.448,8.248 C55.248,8.248 56.376,9.568 56.376,11.656 L56.376,11.656 Z M66.552,16 L66.552,7.3 L65.448,7.3 L65.448,13.792 L60.612,7.3 L59.544,7.3 L59.544,16 L60.648,16 L60.648,9.268 L65.652,16 L66.552,16 Z" id="BUTTON-Copy" fill="#303030"></path>
    </g>
    <g id="Group-11" stroke="none" stroke-width="1" fill="none" fill-rule="evenodd" transform="translate(60.000000, 644.000000)">
        <g id="Rectangle-8-Copy-11">
            <use fill="black" fill-opacity="1" filter="url(#filter-4)" xlink:href="#path-3"></use>
            <use fill="#FFFFFF" fill-rule="evenodd" xlink:href="#path-3"></use>
        </g>
        <path d="M31.754,18.032 C31.754,16.688 30.956,15.932 29.766,15.596 C30.718,15.204 31.292,14.518 31.292,13.496 C31.292,11.928 30.2,10.85 27.89,10.85 L25.356,10.85 L25.356,21 L27.862,21 C30.284,21 31.754,20.062 31.754,18.032 L31.754,18.032 Z M29.92,13.538 C29.92,14.532 29.164,15.106 27.764,15.106 L26.728,15.106 L26.728,12.054 L27.862,12.054 C29.304,12.054 29.92,12.614 29.92,13.538 L29.92,13.538 Z M30.368,18.06 C30.368,19.222 29.486,19.81 27.974,19.81 L26.728,19.81 L26.728,16.254 L27.918,16.254 C29.5,16.254 30.368,16.898 30.368,18.06 L30.368,18.06 Z M41.862,17.094 L41.862,10.85 L40.462,10.85 L40.462,17.024 C40.462,18.858 39.552,19.908 37.746,19.908 C35.926,19.908 35.086,18.746 35.086,16.982 L35.086,10.85 L33.672,10.85 L33.672,17.164 C33.672,19.642 35.198,21.196 37.746,21.196 C40.294,21.196 41.862,19.656 41.862,17.094 L41.862,17.094 Z M51.872,12.138 L51.676,10.85 L43.654,10.85 L43.654,12.138 L47.014,12.138 L47.014,21 L48.428,21 L48.428,12.138 L51.872,12.138 Z M61.126,12.138 L60.93,10.85 L52.908,10.85 L52.908,12.138 L56.268,12.138 L56.268,21 L57.682,21 L57.682,12.138 L61.126,12.138 Z M72.214,15.918 C72.214,12.782 70.338,10.668 67.37,10.668 C64.416,10.668 62.512,12.796 62.512,15.946 C62.512,19.082 64.388,21.196 67.342,21.196 C70.31,21.196 72.214,19.04 72.214,15.918 L72.214,15.918 Z M70.772,15.932 C70.772,18.354 69.47,19.908 67.356,19.908 C65.27,19.908 63.954,18.354 63.954,15.932 C63.954,13.496 65.256,11.956 67.356,11.956 C69.456,11.956 70.772,13.496 70.772,15.932 L70.772,15.932 Z M82.644,21 L82.644,10.85 L81.356,10.85 L81.356,18.424 L75.714,10.85 L74.468,10.85 L74.468,21 L75.756,21 L75.756,13.146 L81.594,21 L82.644,21 Z" id="BUTTON-Copy-12" fill="#303030"></path>
    </g>
    <g id="Group-12" stroke="none" stroke-width="1" fill="none" fill-rule="evenodd" transform="translate(60.000000, 692.000000)">
        <g id="Rectangle-8-Copy-12">
            <use fill="black" fill-opacity="1" filter="url(#filter-6)" xlink:href="#path-5"></use>
            <use fill="#FFFFFF" fill-rule="evenodd" xlink:href="#path-5"></use>
        </g>
        <path d="M41.076,30.608 C41.076,29.072 40.164,28.208 38.804,27.824 C39.892,27.376 40.548,26.592 40.548,25.424 C40.548,23.632 39.3,22.4 36.66,22.4 L33.764,22.4 L33.764,34 L36.628,34 C39.396,34 41.076,32.928 41.076,30.608 L41.076,30.608 Z M38.98,25.472 C38.98,26.608 38.116,27.264 36.516,27.264 L35.332,27.264 L35.332,23.776 L36.628,23.776 C38.276,23.776 38.98,24.416 38.98,25.472 L38.98,25.472 Z M39.492,30.64 C39.492,31.968 38.484,32.64 36.756,32.64 L35.332,32.64 L35.332,28.576 L36.692,28.576 C38.5,28.576 39.492,29.312 39.492,30.64 L39.492,30.64 Z M52.628,29.536 L52.628,22.4 L51.028,22.4 L51.028,29.456 C51.028,31.552 49.988,32.752 47.924,32.752 C45.844,32.752 44.884,31.424 44.884,29.408 L44.884,22.4 L43.268,22.4 L43.268,29.616 C43.268,32.448 45.012,34.224 47.924,34.224 C50.836,34.224 52.628,32.464 52.628,29.536 L52.628,29.536 Z M64.068,23.872 L63.844,22.4 L54.676,22.4 L54.676,23.872 L58.516,23.872 L58.516,34 L60.132,34 L60.132,23.872 L64.068,23.872 Z M74.644,23.872 L74.42,22.4 L65.252,22.4 L65.252,23.872 L69.092,23.872 L69.092,34 L70.708,34 L70.708,23.872 L74.644,23.872 Z M87.316,28.192 C87.316,24.608 85.172,22.192 81.78,22.192 C78.404,22.192 76.228,24.624 76.228,28.224 C76.228,31.808 78.372,34.224 81.748,34.224 C85.14,34.224 87.316,31.76 87.316,28.192 L87.316,28.192 Z M85.668,28.208 C85.668,30.976 84.18,32.752 81.764,32.752 C79.38,32.752 77.876,30.976 77.876,28.208 C77.876,25.424 79.364,23.664 81.764,23.664 C84.164,23.664 85.668,25.424 85.668,28.208 L85.668,28.208 Z M99.236,34 L99.236,22.4 L97.764,22.4 L97.764,31.056 L91.316,22.4 L89.892,22.4 L89.892,34 L91.364,34 L91.364,25.024 L98.036,34 L99.236,34 Z" id="BUTTON-Copy-13" fill="#303030"></path>
    </g>
</svg>
