
<svg width="471px" height="86px" viewBox="981 1550 471 86" version="1.1" xmlns="http://www.w3.org/2000/svg" xmlns:xlink="http://www.w3.org/1999/xlink">
    <!-- Generator: Sketch 40.3 (33839) - http://www.bohemiancoding.com/sketch -->
    <desc>Created with Sketch.</desc>
    <defs>
        <rect id="path-1" x="0" y="0" width="107" height="56" rx="2"></rect>
        <filter x="-50%" y="-50%" width="200%" height="200%" filterUnits="objectBoundingBox" id="filter-2">
            <feOffset dx="0" dy="2" in="SourceAlpha" result="shadowOffsetOuter1"></feOffset>
            <feGaussianBlur stdDeviation="5" in="shadowOffsetOuter1" result="shadowBlurOuter1"></feGaussianBlur>
            <feColorMatrix values="0 0 0 0 0   0 0 0 0 0   0 0 0 0 0  0 0 0 0.12 0" type="matrix" in="shadowBlurOuter1" result="shadowMatrixOuter1"></feColorMatrix>
            <feOffset dx="0" dy="2" in="SourceAlpha" result="shadowOffsetOuter2"></feOffset>
            <feGaussianBlur stdDeviation="2.5" in="shadowOffsetOuter2" result="shadowBlurOuter2"></feGaussianBlur>
            <feColorMatrix values="0 0 0 0 0   0 0 0 0 0   0 0 0 0 0  0 0 0 0.16 0" type="matrix" in="shadowBlurOuter2" result="shadowMatrixOuter2"></feColorMatrix>
            <feMerge>
                <feMergeNode in="shadowMatrixOuter1"></feMergeNode>
                <feMergeNode in="shadowMatrixOuter2"></feMergeNode>
            </feMerge>
        </filter>
        <rect id="path-3" x="0" y="0" width="157" height="56" rx="2"></rect>
        <filter x="-50%" y="-50%" width="200%" height="200%" filterUnits="objectBoundingBox" id="filter-4">
            <feOffset dx="0" dy="2" in="SourceAlpha" result="shadowOffsetOuter1"></feOffset>
            <feGaussianBlur stdDeviation="5" in="shadowOffsetOuter1" result="shadowBlurOuter1"></feGaussianBlur>
            <feColorMatrix values="0 0 0 0 0   0 0 0 0 0   0 0 0 0 0  0 0 0 0.12 0" type="matrix" in="shadowBlurOuter1" result="shadowMatrixOuter1"></feColorMatrix>
            <feOffset dx="0" dy="2" in="SourceAlpha" result="shadowOffsetOuter2"></feOffset>
            <feGaussianBlur stdDeviation="2.5" in="shadowOffsetOuter2" result="shadowBlurOuter2"></feGaussianBlur>
            <feColorMatrix values="0 0 0 0 0   0 0 0 0 0   0 0 0 0 0  0 0 0 0.16 0" type="matrix" in="shadowBlurOuter2" result="shadowMatrixOuter2"></feColorMatrix>
            <feMerge>
                <feMergeNode in="shadowMatrixOuter1"></feMergeNode>
                <feMergeNode in="shadowMatrixOuter2"></feMergeNode>
            </feMerge>
        </filter>
    </defs>
    <g id="Group-6" stroke="none" stroke-width="1" fill="none" fill-rule="evenodd" transform="translate(996.000000, 1561.000000)">
        <g id="Rectangle-8-Copy-8">
            <use fill="black" fill-opacity="1" filter="url(#filter-2)" xlink:href="#path-1"></use>
            <use fill="#F05D61" fill-rule="evenodd" xlink:href="#path-1"></use>
        </g>
        <path d="M40.572,30.864 C40.572,29.12 39.756,28.352 37.436,27.328 C35.596,26.512 35.132,26.096 35.132,25.216 C35.132,24.368 35.756,23.664 37.132,23.664 C38.108,23.664 39.004,24.048 39.676,24.528 L39.932,22.928 C39.228,22.544 38.364,22.272 37.196,22.272 C35.02,22.272 33.548,23.472 33.548,25.344 C33.548,27.008 34.396,27.728 36.668,28.72 C38.492,29.504 38.988,29.936 38.988,30.992 C38.988,32.112 38.076,32.736 36.812,32.736 C35.596,32.736 34.46,32.272 33.66,31.744 L33.42,33.376 C34.3,33.84 35.468,34.128 36.764,34.128 C39.02,34.128 40.572,32.864 40.572,30.864 L40.572,30.864 Z M42.076,34 L43.74,34 L45.084,30.544 L50.06,30.544 L51.468,34.112 L53.052,33.776 L48.396,22.352 L46.796,22.352 L42.076,34 Z M47.564,24.24 L49.5,29.12 L45.628,29.12 L47.564,24.24 Z M65.02,22.4 L63.292,22.4 L59.612,31.888 L55.868,22.288 L54.236,22.624 L58.86,34.08 L60.332,34.08 L65.02,22.4 Z M73.788,34 L73.788,32.528 L68.748,32.528 L68.748,28.672 L72.78,28.672 L72.54,27.2 L68.748,27.2 L68.748,23.872 L73.628,23.872 L73.628,22.4 L67.148,22.4 L67.148,34 L73.788,34 Z" id="BUTTON-Copy-7" fill="#F7F7F7"></path>
    </g>
    <g id="btn--large--CTA-Copy-6" opacity="0.5" stroke="none" stroke-width="1" fill="none" fill-rule="evenodd" transform="translate(1135.000000, 1561.000000)">
        <g id="Group-6">
            <g id="Rectangle-8-Copy-8">
                <use fill="black" fill-opacity="1" filter="url(#filter-4)" xlink:href="#path-3"></use>
                <use fill="#F05D61" fill-rule="evenodd" xlink:href="#path-3"></use>
            </g>
            <path d="M56.98,30.864 C56.98,29.12 56.164,28.352 53.844,27.328 C52.004,26.512 51.54,26.096 51.54,25.216 C51.54,24.368 52.164,23.664 53.54,23.664 C54.516,23.664 55.412,24.048 56.084,24.528 L56.34,22.928 C55.636,22.544 54.772,22.272 53.604,22.272 C51.428,22.272 49.956,23.472 49.956,25.344 C49.956,27.008 50.804,27.728 53.076,28.72 C54.9,29.504 55.396,29.936 55.396,30.992 C55.396,32.112 54.484,32.736 53.22,32.736 C52.004,32.736 50.868,32.272 50.068,31.744 L49.828,33.376 C50.708,33.84 51.876,34.128 53.172,34.128 C55.428,34.128 56.98,32.864 56.98,30.864 L56.98,30.864 Z M58.484,34 L60.148,34 L61.492,30.544 L66.468,30.544 L67.876,34.112 L69.46,33.776 L64.804,22.352 L63.204,22.352 L58.484,34 Z M63.972,24.24 L65.908,29.12 L62.036,29.12 L63.972,24.24 Z M81.428,22.4 L79.7,22.4 L76.02,31.888 L72.276,22.288 L70.644,22.624 L75.268,34.08 L76.74,34.08 L81.428,22.4 Z M85.252,34 L85.252,22.4 L83.652,22.4 L83.652,34 L85.252,34 Z M97.78,34 L97.78,22.4 L96.308,22.4 L96.308,31.056 L89.86,22.4 L88.436,22.4 L88.436,34 L89.908,34 L89.908,25.024 L96.58,34 L97.78,34 Z M110.26,33.088 L110.26,27.648 L105.668,27.648 L105.892,29.12 L108.676,29.12 L108.676,32.176 C107.972,32.544 107.252,32.736 106.196,32.736 C103.444,32.736 102.004,30.976 102.004,28.208 C102.004,25.424 103.412,23.664 106.052,23.664 C107.46,23.664 108.58,24.144 109.476,24.816 L109.732,23.184 C108.788,22.576 107.668,22.192 106.068,22.192 C102.484,22.192 100.356,24.624 100.356,28.224 C100.356,31.808 102.404,34.224 106.196,34.224 C107.796,34.224 109.22,33.728 110.26,33.088 L110.26,33.088 Z M114.66,34 L114.66,31.888 L112.9,31.888 L112.9,34 L114.66,34 Z M118.996,34 L118.996,31.888 L117.236,31.888 L117.236,34 L118.996,34 Z M123.332,34 L123.332,31.888 L121.572,31.888 L121.572,34 L123.332,34 Z" id="BUTTON-Copy-7" fill="#F7F7F7"></path>
        </g>
    </g>
    <path d="M1161.53587,1597.34391 C1156.69683,1596.35013 1153.96588,1591.92911 1154.88751,1587.37315 C1155.80976,1582.81781 1160.15187,1579.98883 1164.67424,1580.91793 C1169.19598,1581.84641 1172.10287,1586.11134 1171.11703,1590.98633 L1174.74616,1591.73135 C1176.10237,1585.02863 1171.88804,1578.59082 1165.35451,1577.24941 C1158.82097,1575.90737 1152.57694,1580.11321 1151.2448,1586.69529 C1149.91328,1593.27737 1154.14243,1599.63371 1160.79634,1601 L1161.53587,1597.34391 Z" id="Fill-1-Copy" stroke="none" fill="#FFFFFF" fill-rule="evenodd"></path>
    <g id="Saved-button-Copy" stroke="none" stroke-width="1" fill="none" fill-rule="evenodd" transform="translate(1324.000000, 1561.000000)">
        <g id="btn--large--flat-copy">
            <rect id="Rectangle-8-Copy-14" fill-opacity="0" fill="#000000" x="0" y="0" width="128" height="56" rx="2"></rect>
            <path d="M52.432,30.864 C52.432,29.12 51.616,28.352 49.296,27.328 C47.456,26.512 46.992,26.096 46.992,25.216 C46.992,24.368 47.616,23.664 48.992,23.664 C49.968,23.664 50.864,24.048 51.536,24.528 L51.792,22.928 C51.088,22.544 50.224,22.272 49.056,22.272 C46.88,22.272 45.408,23.472 45.408,25.344 C45.408,27.008 46.256,27.728 48.528,28.72 C50.352,29.504 50.848,29.936 50.848,30.992 C50.848,32.112 49.936,32.736 48.672,32.736 C47.456,32.736 46.32,32.272 45.52,31.744 L45.28,33.376 C46.16,33.84 47.328,34.128 48.624,34.128 C50.88,34.128 52.432,32.864 52.432,30.864 L52.432,30.864 Z M53.936,34 L55.6,34 L56.944,30.544 L61.92,30.544 L63.328,34.112 L64.912,33.776 L60.256,22.352 L58.656,22.352 L53.936,34 Z M59.424,24.24 L61.36,29.12 L57.488,29.12 L59.424,24.24 Z M76.88,22.4 L75.152,22.4 L71.472,31.888 L67.728,22.288 L66.096,22.624 L70.72,34.08 L72.192,34.08 L76.88,22.4 Z M85.648,34 L85.648,32.528 L80.608,32.528 L80.608,28.672 L84.64,28.672 L84.4,27.2 L80.608,27.2 L80.608,23.872 L85.488,23.872 L85.488,22.4 L79.008,22.4 L79.008,34 L85.648,34 Z M97.792,28.192 C97.792,24.8 95.632,22.4 91.456,22.4 L87.984,22.4 L87.984,34 L91.376,34 C95.504,34 97.792,31.632 97.792,28.192 L97.792,28.192 Z M96.128,28.208 C96.128,31.152 94.368,32.544 91.456,32.544 L89.584,32.544 L89.584,23.856 L91.504,23.856 C94.288,23.856 96.128,25.312 96.128,28.208 L96.128,28.208 Z M102.208,22.4 L100.384,22.4 L100.8,30.544 L101.776,30.32 L102.208,22.4 Z M102.144,34 L102.144,31.984 L100.432,31.984 L100.432,34 L102.144,34 Z" id="SAVED!" fill="#00A19A"></path>
        </g>
        <g id="ic_check" transform="translate(16.000000, 16.000000)">
            <g id="Icon-24px">
                <polygon id="Shape" points="0 0 24 0 24 24 0 24"></polygon>
                <polygon id="Shape" fill="#00A19A" points="9 16.17 4.83 12 3.41 13.41 9 19 21 7 19.59 5.59"></polygon>
            </g>
        </g>
    </g>
</svg>
