
<svg width="798px" height="205px" viewBox="23 22 798 205" version="1.1" xmlns="http://www.w3.org/2000/svg" xmlns:xlink="http://www.w3.org/1999/xlink">
    <!-- Generator: Sketch 40.3 (33839) - http://www.bohemiancoding.com/sketch -->
    <desc>Created with Sketch.</desc>
    <defs></defs>
    <polygon id="#F4F4F4" stroke="none" fill-opacity="0.1" fill="#000000" fill-rule="evenodd" points="641 22 821 22 821 152 641 152"></polygon>
    <polygon id="#96908C" stroke="none" fill-opacity="0.25" fill="#000000" fill-rule="evenodd" points="435 22 615 22 615 152 435 152"></polygon>
    <polygon id="#F2F1EF" stroke="none" fill-opacity="0.5" fill="#000000" fill-rule="evenodd" points="229 22 409 22 409 152 229 152"></polygon>
    <polygon id="#F2F1EF-Copy" stroke="none" fill-opacity="0.75" fill="#000000" fill-rule="evenodd" points="23 22 203 22 203 152 23 152"></polygon>
    <path d="M236.644,170.074 C236.644,168.716 235.818,167.946 234.572,167.61 C235.538,167.218 236.168,166.476 236.168,165.398 C236.168,163.886 235.09,162.85 232.906,162.85 L230.47,162.85 L230.47,173 L232.892,173 C235.16,173 236.644,172.02 236.644,170.074 L236.644,170.074 Z M235.118,165.44 C235.118,166.49 234.334,167.246 232.836,167.246 L231.506,167.246 L231.506,163.774 L232.878,163.774 C234.39,163.774 235.118,164.404 235.118,165.44 L235.118,165.44 Z M235.58,170.13 C235.58,171.376 234.586,172.09 232.976,172.09 L231.506,172.09 L231.506,168.128 L232.92,168.128 C234.572,168.128 235.58,168.772 235.58,170.13 L235.58,170.13 Z M239.948,173 L239.948,161.744 L238.912,161.926 L238.912,173 L239.948,173 Z M247.158,171.152 C246.402,171.838 245.478,172.272 244.652,172.272 C243.84,172.272 243.252,171.852 243.252,171.068 C243.252,170.06 244.12,169.374 247.158,169.066 L247.158,171.152 Z M248.194,173 L248.194,167.708 C248.194,166.182 247.326,165.426 245.632,165.426 C244.54,165.426 243.658,165.692 242.762,166.07 L242.902,166.994 C243.756,166.602 244.652,166.35 245.548,166.35 C246.542,166.35 247.158,166.77 247.158,167.764 L247.158,168.254 C243.658,168.576 242.202,169.388 242.202,171.138 C242.202,172.44 243.182,173.154 244.512,173.154 C245.604,173.154 246.5,172.65 247.228,172.006 L247.41,173 L248.194,173 Z M256.384,172.314 L256.244,171.362 C255.446,172.006 254.69,172.244 253.878,172.244 C252.408,172.244 251.372,171.152 251.372,169.29 C251.372,167.386 252.394,166.336 253.822,166.336 C254.704,166.336 255.418,166.644 256.146,167.218 L256.314,166.182 C255.712,165.748 254.872,165.426 253.836,165.426 C251.862,165.426 250.294,166.798 250.294,169.29 C250.294,171.754 251.806,173.154 253.78,173.154 C254.83,173.154 255.67,172.86 256.384,172.314 L256.384,172.314 Z M264.518,172.902 L260.64,168.884 L264.266,165.58 L262.908,165.58 L259.52,168.772 L259.52,161.744 L258.484,161.926 L258.484,173 L259.52,173 L259.52,169.066 L263.37,173.112 L264.518,172.902 Z M269.852,169.08 L269.852,168.03 L265.89,168.03 L265.89,169.08 L269.852,169.08 Z M278.308,169.934 C278.308,168.128 277.006,166.966 274.934,166.966 C274.164,166.966 273.618,167.106 273.17,167.26 L273.422,163.97 L277.916,163.97 L277.776,163.06 L272.554,163.06 L272.204,168.072 L272.89,168.24 C273.422,168.03 273.982,167.862 274.836,167.862 C276.39,167.862 277.258,168.688 277.258,169.99 C277.258,171.502 276.054,172.286 274.64,172.286 C273.52,172.286 272.666,171.95 271.896,171.46 L271.742,172.454 C272.456,172.874 273.366,173.182 274.598,173.182 C276.642,173.182 278.308,171.978 278.308,169.934 L278.308,169.934 Z M287.73,168.03 C287.73,164.852 286.274,162.878 283.95,162.878 C281.612,162.878 280.142,164.866 280.142,168.044 C280.142,171.208 281.598,173.196 283.936,173.196 C286.274,173.196 287.73,171.194 287.73,168.03 L287.73,168.03 Z M286.68,168.03 C286.68,170.62 285.714,172.286 283.95,172.286 C282.172,172.286 281.192,170.62 281.192,168.03 C281.192,165.44 282.172,163.774 283.95,163.774 C285.714,163.774 286.68,165.44 286.68,168.03 L286.68,168.03 Z" id="Black-50" stroke="none" fill="#303030" fill-rule="evenodd"></path>
    <path d="M30.644,170.074 C30.644,168.716 29.818,167.946 28.572,167.61 C29.538,167.218 30.168,166.476 30.168,165.398 C30.168,163.886 29.09,162.85 26.906,162.85 L24.47,162.85 L24.47,173 L26.892,173 C29.16,173 30.644,172.02 30.644,170.074 L30.644,170.074 Z M29.118,165.44 C29.118,166.49 28.334,167.246 26.836,167.246 L25.506,167.246 L25.506,163.774 L26.878,163.774 C28.39,163.774 29.118,164.404 29.118,165.44 L29.118,165.44 Z M29.58,170.13 C29.58,171.376 28.586,172.09 26.976,172.09 L25.506,172.09 L25.506,168.128 L26.92,168.128 C28.572,168.128 29.58,168.772 29.58,170.13 L29.58,170.13 Z M33.948,173 L33.948,161.744 L32.912,161.926 L32.912,173 L33.948,173 Z M41.158,171.152 C40.402,171.838 39.478,172.272 38.652,172.272 C37.84,172.272 37.252,171.852 37.252,171.068 C37.252,170.06 38.12,169.374 41.158,169.066 L41.158,171.152 Z M42.194,173 L42.194,167.708 C42.194,166.182 41.326,165.426 39.632,165.426 C38.54,165.426 37.658,165.692 36.762,166.07 L36.902,166.994 C37.756,166.602 38.652,166.35 39.548,166.35 C40.542,166.35 41.158,166.77 41.158,167.764 L41.158,168.254 C37.658,168.576 36.202,169.388 36.202,171.138 C36.202,172.44 37.182,173.154 38.512,173.154 C39.604,173.154 40.5,172.65 41.228,172.006 L41.41,173 L42.194,173 Z M50.384,172.314 L50.244,171.362 C49.446,172.006 48.69,172.244 47.878,172.244 C46.408,172.244 45.372,171.152 45.372,169.29 C45.372,167.386 46.394,166.336 47.822,166.336 C48.704,166.336 49.418,166.644 50.146,167.218 L50.314,166.182 C49.712,165.748 48.872,165.426 47.836,165.426 C45.862,165.426 44.294,166.798 44.294,169.29 C44.294,171.754 45.806,173.154 47.78,173.154 C48.83,173.154 49.67,172.86 50.384,172.314 L50.384,172.314 Z M58.518,172.902 L54.64,168.884 L58.266,165.58 L56.908,165.58 L53.52,168.772 L53.52,161.744 L52.484,161.926 L52.484,173 L53.52,173 L53.52,169.066 L57.37,173.112 L58.518,172.902 Z M63.852,169.08 L63.852,168.03 L59.89,168.03 L59.89,169.08 L63.852,169.08 Z M72.266,163.83 L72.266,163.06 L65.658,163.06 L65.798,163.984 L71.118,163.984 L67.002,172.874 L67.996,173.098 L72.266,163.83 Z M80.554,169.934 C80.554,168.128 79.252,166.966 77.18,166.966 C76.41,166.966 75.864,167.106 75.416,167.26 L75.668,163.97 L80.162,163.97 L80.022,163.06 L74.8,163.06 L74.45,168.072 L75.136,168.24 C75.668,168.03 76.228,167.862 77.082,167.862 C78.636,167.862 79.504,168.688 79.504,169.99 C79.504,171.502 78.3,172.286 76.886,172.286 C75.766,172.286 74.912,171.95 74.142,171.46 L73.988,172.454 C74.702,172.874 75.612,173.182 76.844,173.182 C78.888,173.182 80.554,171.978 80.554,169.934 L80.554,169.934 Z" id="Black-75" stroke="none" fill="#303030" fill-rule="evenodd"></path>
    <path d="M442.644,170.074 C442.644,168.716 441.818,167.946 440.572,167.61 C441.538,167.218 442.168,166.476 442.168,165.398 C442.168,163.886 441.09,162.85 438.906,162.85 L436.47,162.85 L436.47,173 L438.892,173 C441.16,173 442.644,172.02 442.644,170.074 L442.644,170.074 Z M441.118,165.44 C441.118,166.49 440.334,167.246 438.836,167.246 L437.506,167.246 L437.506,163.774 L438.878,163.774 C440.39,163.774 441.118,164.404 441.118,165.44 L441.118,165.44 Z M441.58,170.13 C441.58,171.376 440.586,172.09 438.976,172.09 L437.506,172.09 L437.506,168.128 L438.92,168.128 C440.572,168.128 441.58,168.772 441.58,170.13 L441.58,170.13 Z M445.948,173 L445.948,161.744 L444.912,161.926 L444.912,173 L445.948,173 Z M453.158,171.152 C452.402,171.838 451.478,172.272 450.652,172.272 C449.84,172.272 449.252,171.852 449.252,171.068 C449.252,170.06 450.12,169.374 453.158,169.066 L453.158,171.152 Z M454.194,173 L454.194,167.708 C454.194,166.182 453.326,165.426 451.632,165.426 C450.54,165.426 449.658,165.692 448.762,166.07 L448.902,166.994 C449.756,166.602 450.652,166.35 451.548,166.35 C452.542,166.35 453.158,166.77 453.158,167.764 L453.158,168.254 C449.658,168.576 448.202,169.388 448.202,171.138 C448.202,172.44 449.182,173.154 450.512,173.154 C451.604,173.154 452.5,172.65 453.228,172.006 L453.41,173 L454.194,173 Z M462.384,172.314 L462.244,171.362 C461.446,172.006 460.69,172.244 459.878,172.244 C458.408,172.244 457.372,171.152 457.372,169.29 C457.372,167.386 458.394,166.336 459.822,166.336 C460.704,166.336 461.418,166.644 462.146,167.218 L462.314,166.182 C461.712,165.748 460.872,165.426 459.836,165.426 C457.862,165.426 456.294,166.798 456.294,169.29 C456.294,171.754 457.806,173.154 459.78,173.154 C460.83,173.154 461.67,172.86 462.384,172.314 L462.384,172.314 Z M470.518,172.902 L466.64,168.884 L470.266,165.58 L468.908,165.58 L465.52,168.772 L465.52,161.744 L464.484,161.926 L464.484,173 L465.52,173 L465.52,169.066 L469.37,173.112 L470.518,172.902 Z M475.852,169.08 L475.852,168.03 L471.89,168.03 L471.89,169.08 L475.852,169.08 Z M484.238,173 L484.112,172.104 L479.1,172.104 L482.278,168.926 C483.538,167.652 484.07,166.812 484.07,165.594 C484.07,163.956 482.936,162.878 481.018,162.878 C479.758,162.878 478.764,163.354 477.994,163.97 L478.148,164.992 C478.96,164.306 479.898,163.802 480.962,163.802 C482.25,163.802 483.006,164.46 483.006,165.65 C483.006,166.574 482.628,167.246 481.522,168.352 L477.728,172.244 L477.728,173 L484.238,173 Z M492.596,169.934 C492.596,168.128 491.294,166.966 489.222,166.966 C488.452,166.966 487.906,167.106 487.458,167.26 L487.71,163.97 L492.204,163.97 L492.064,163.06 L486.842,163.06 L486.492,168.072 L487.178,168.24 C487.71,168.03 488.27,167.862 489.124,167.862 C490.678,167.862 491.546,168.688 491.546,169.99 C491.546,171.502 490.342,172.286 488.928,172.286 C487.808,172.286 486.954,171.95 486.184,171.46 L486.03,172.454 C486.744,172.874 487.654,173.182 488.886,173.182 C490.93,173.182 492.596,171.978 492.596,169.934 L492.596,169.934 Z" id="Black-25" stroke="none" fill="#303030" fill-rule="evenodd"></path>
    <path d="M233.5,194.348 L233.356,193.508 C232.264,193.532 231.496,194.228 231.004,194.948 L230.788,193.64 L230.14,193.64 L230.14,200 L231.028,200 L231.028,196.016 C231.472,195.164 232.408,194.408 233.5,194.348 L233.5,194.348 Z M238.78,195.668 C238.78,196.52 238.168,197.18 237.184,197.18 C236.212,197.18 235.612,196.52 235.612,195.692 C235.612,194.828 236.212,194.18 237.172,194.18 C238.12,194.18 238.78,194.828 238.78,195.668 L238.78,195.668 Z M240.412,200.504 C240.412,199.568 239.608,199.16 238.144,198.896 L237.652,198.8 C236.44,198.584 236.164,198.5 236.164,198.236 C236.164,198.092 236.308,197.936 236.596,197.792 C236.788,197.828 236.992,197.84 237.196,197.84 C238.504,197.84 239.656,197.024 239.656,195.68 C239.656,195.248 239.524,194.876 239.308,194.552 L240.628,194.408 L240.484,193.544 L238.828,194.048 C238.384,193.7 237.808,193.508 237.172,193.508 C235.888,193.508 234.724,194.336 234.724,195.68 C234.724,196.556 235.216,197.228 235.948,197.576 C235.504,197.828 235.276,198.092 235.276,198.404 C235.276,198.656 235.432,198.884 235.768,199.088 C234.772,199.568 234.256,200.132 234.256,200.768 C234.256,201.86 235.576,202.412 237.268,202.412 C238.984,202.412 240.412,201.74 240.412,200.504 L240.412,200.504 Z M237.304,199.532 L237.928,199.64 C239.116,199.856 239.548,200.132 239.548,200.624 C239.548,201.248 238.672,201.74 237.328,201.74 C236.032,201.74 235.144,201.368 235.144,200.708 C235.144,200.204 235.576,199.76 236.5,199.364 C236.752,199.424 236.968,199.472 237.304,199.532 L237.304,199.532 Z M247.732,196.64 C247.732,194.516 246.52,193.508 245.068,193.508 C244.156,193.508 243.508,193.976 243.028,194.468 L243.028,190.352 L242.14,190.508 L242.14,199.664 C242.86,199.916 243.616,200.084 244.528,200.084 C246.352,200.084 247.732,198.956 247.732,196.64 L247.732,196.64 Z M246.82,196.676 C246.82,198.5 245.884,199.316 244.576,199.316 C243.892,199.316 243.448,199.208 243.028,199.052 L243.028,195.416 C243.628,194.744 244.24,194.312 244.984,194.312 C246.052,194.312 246.82,195.14 246.82,196.676 L246.82,196.676 Z M253.432,198.416 C252.784,199.004 251.992,199.376 251.284,199.376 C250.588,199.376 250.084,199.016 250.084,198.344 C250.084,197.48 250.828,196.892 253.432,196.628 L253.432,198.416 Z M254.32,200 L254.32,195.464 C254.32,194.156 253.576,193.508 252.124,193.508 C251.188,193.508 250.432,193.736 249.664,194.06 L249.784,194.852 C250.516,194.516 251.284,194.3 252.052,194.3 C252.904,194.3 253.432,194.66 253.432,195.512 L253.432,195.932 C250.432,196.208 249.184,196.904 249.184,198.404 C249.184,199.52 250.024,200.132 251.164,200.132 C252.1,200.132 252.868,199.7 253.492,199.148 L253.648,200 L254.32,200 Z M260.308,201.092 C258.412,199.472 257.38,197.804 257.38,195.836 C257.38,193.772 258.28,192.308 260.128,191.072 L259.972,190.232 C257.68,191.636 256.432,193.448 256.432,195.824 C256.432,198.092 257.62,199.76 259.408,201.284 L260.308,201.092 Z M268.3,195.74 C268.3,193.016 267.052,191.324 265.06,191.324 C263.056,191.324 261.796,193.028 261.796,195.752 C261.796,198.464 263.044,200.168 265.048,200.168 C267.052,200.168 268.3,198.452 268.3,195.74 L268.3,195.74 Z M267.4,195.74 C267.4,197.96 266.572,199.388 265.06,199.388 C263.536,199.388 262.696,197.96 262.696,195.74 C262.696,193.52 263.536,192.092 265.06,192.092 C266.572,192.092 267.4,193.52 267.4,195.74 L267.4,195.74 Z M271.456,198.68 L270.364,198.68 L269.632,201.668 L270.124,201.788 L271.456,198.68 Z M282.76,195.74 C282.76,193.016 281.512,191.324 279.52,191.324 C277.516,191.324 276.256,193.028 276.256,195.752 C276.256,198.464 277.504,200.168 279.508,200.168 C281.512,200.168 282.76,198.452 282.76,195.74 L282.76,195.74 Z M281.86,195.74 C281.86,197.96 281.032,199.388 279.52,199.388 C277.996,199.388 277.156,197.96 277.156,195.74 C277.156,193.52 277.996,192.092 279.52,192.092 C281.032,192.092 281.86,193.52 281.86,195.74 L281.86,195.74 Z M285.916,198.68 L284.824,198.68 L284.092,201.668 L284.584,201.788 L285.916,198.68 Z M297.22,195.74 C297.22,193.016 295.972,191.324 293.98,191.324 C291.976,191.324 290.716,193.028 290.716,195.752 C290.716,198.464 291.964,200.168 293.968,200.168 C295.972,200.168 297.22,198.452 297.22,195.74 L297.22,195.74 Z M296.32,195.74 C296.32,197.96 295.492,199.388 293.98,199.388 C292.456,199.388 291.616,197.96 291.616,195.74 C291.616,193.52 292.456,192.092 293.98,192.092 C295.492,192.092 296.32,193.52 296.32,195.74 L296.32,195.74 Z M300.376,198.68 L299.284,198.68 L298.552,201.668 L299.044,201.788 L300.376,198.68 Z M311.68,195.74 C311.68,193.016 310.432,191.324 308.44,191.324 C306.436,191.324 305.176,193.028 305.176,195.752 C305.176,198.464 306.424,200.168 308.428,200.168 C310.432,200.168 311.68,198.452 311.68,195.74 L311.68,195.74 Z M310.78,195.74 C310.78,197.96 309.952,199.388 308.44,199.388 C306.916,199.388 306.076,197.96 306.076,195.74 C306.076,193.52 306.916,192.092 308.44,192.092 C309.952,192.092 310.78,193.52 310.78,195.74 L310.78,195.74 Z M314.608,200 L314.608,198.68 L313.552,198.68 L313.552,200 L314.608,200 Z M322,197.372 C322,195.824 320.884,194.828 319.108,194.828 C318.448,194.828 317.98,194.948 317.596,195.08 L317.812,192.26 L321.664,192.26 L321.544,191.48 L317.068,191.48 L316.768,195.776 L317.356,195.92 C317.812,195.74 318.292,195.596 319.024,195.596 C320.356,195.596 321.1,196.304 321.1,197.42 C321.1,198.716 320.068,199.388 318.856,199.388 C317.896,199.388 317.164,199.1 316.504,198.68 L316.372,199.532 C316.984,199.892 317.764,200.156 318.82,200.156 C320.572,200.156 322,199.124 322,197.372 L322,197.372 Z M323.404,190.484 C325.3,192.092 326.332,193.772 326.332,195.728 C326.332,197.804 325.444,199.268 323.584,200.504 L323.74,201.344 C326.032,199.928 327.28,198.128 327.28,195.752 C327.28,193.484 326.092,191.816 324.304,190.292 L323.404,190.484 Z" id="rgba(0,-0,-0,-0.5)" stroke="none" fill="#303030" fill-rule="evenodd"></path>
    <path d="M27.5,194.348 L27.356,193.508 C26.264,193.532 25.496,194.228 25.004,194.948 L24.788,193.64 L24.14,193.64 L24.14,200 L25.028,200 L25.028,196.016 C25.472,195.164 26.408,194.408 27.5,194.348 L27.5,194.348 Z M32.78,195.668 C32.78,196.52 32.168,197.18 31.184,197.18 C30.212,197.18 29.612,196.52 29.612,195.692 C29.612,194.828 30.212,194.18 31.172,194.18 C32.12,194.18 32.78,194.828 32.78,195.668 L32.78,195.668 Z M34.412,200.504 C34.412,199.568 33.608,199.16 32.144,198.896 L31.652,198.8 C30.44,198.584 30.164,198.5 30.164,198.236 C30.164,198.092 30.308,197.936 30.596,197.792 C30.788,197.828 30.992,197.84 31.196,197.84 C32.504,197.84 33.656,197.024 33.656,195.68 C33.656,195.248 33.524,194.876 33.308,194.552 L34.628,194.408 L34.484,193.544 L32.828,194.048 C32.384,193.7 31.808,193.508 31.172,193.508 C29.888,193.508 28.724,194.336 28.724,195.68 C28.724,196.556 29.216,197.228 29.948,197.576 C29.504,197.828 29.276,198.092 29.276,198.404 C29.276,198.656 29.432,198.884 29.768,199.088 C28.772,199.568 28.256,200.132 28.256,200.768 C28.256,201.86 29.576,202.412 31.268,202.412 C32.984,202.412 34.412,201.74 34.412,200.504 L34.412,200.504 Z M31.304,199.532 L31.928,199.64 C33.116,199.856 33.548,200.132 33.548,200.624 C33.548,201.248 32.672,201.74 31.328,201.74 C30.032,201.74 29.144,201.368 29.144,200.708 C29.144,200.204 29.576,199.76 30.5,199.364 C30.752,199.424 30.968,199.472 31.304,199.532 L31.304,199.532 Z M41.732,196.64 C41.732,194.516 40.52,193.508 39.068,193.508 C38.156,193.508 37.508,193.976 37.028,194.468 L37.028,190.352 L36.14,190.508 L36.14,199.664 C36.86,199.916 37.616,200.084 38.528,200.084 C40.352,200.084 41.732,198.956 41.732,196.64 L41.732,196.64 Z M40.82,196.676 C40.82,198.5 39.884,199.316 38.576,199.316 C37.892,199.316 37.448,199.208 37.028,199.052 L37.028,195.416 C37.628,194.744 38.24,194.312 38.984,194.312 C40.052,194.312 40.82,195.14 40.82,196.676 L40.82,196.676 Z M47.432,198.416 C46.784,199.004 45.992,199.376 45.284,199.376 C44.588,199.376 44.084,199.016 44.084,198.344 C44.084,197.48 44.828,196.892 47.432,196.628 L47.432,198.416 Z M48.32,200 L48.32,195.464 C48.32,194.156 47.576,193.508 46.124,193.508 C45.188,193.508 44.432,193.736 43.664,194.06 L43.784,194.852 C44.516,194.516 45.284,194.3 46.052,194.3 C46.904,194.3 47.432,194.66 47.432,195.512 L47.432,195.932 C44.432,196.208 43.184,196.904 43.184,198.404 C43.184,199.52 44.024,200.132 45.164,200.132 C46.1,200.132 46.868,199.7 47.492,199.148 L47.648,200 L48.32,200 Z M54.308,201.092 C52.412,199.472 51.38,197.804 51.38,195.836 C51.38,193.772 52.28,192.308 54.128,191.072 L53.972,190.232 C51.68,191.636 50.432,193.448 50.432,195.824 C50.432,198.092 51.62,199.76 53.408,201.284 L54.308,201.092 Z M62.3,195.74 C62.3,193.016 61.052,191.324 59.06,191.324 C57.056,191.324 55.796,193.028 55.796,195.752 C55.796,198.464 57.044,200.168 59.048,200.168 C61.052,200.168 62.3,198.452 62.3,195.74 L62.3,195.74 Z M61.4,195.74 C61.4,197.96 60.572,199.388 59.06,199.388 C57.536,199.388 56.696,197.96 56.696,195.74 C56.696,193.52 57.536,192.092 59.06,192.092 C60.572,192.092 61.4,193.52 61.4,195.74 L61.4,195.74 Z M65.456,198.68 L64.364,198.68 L63.632,201.668 L64.124,201.788 L65.456,198.68 Z M76.76,195.74 C76.76,193.016 75.512,191.324 73.52,191.324 C71.516,191.324 70.256,193.028 70.256,195.752 C70.256,198.464 71.504,200.168 73.508,200.168 C75.512,200.168 76.76,198.452 76.76,195.74 L76.76,195.74 Z M75.86,195.74 C75.86,197.96 75.032,199.388 73.52,199.388 C71.996,199.388 71.156,197.96 71.156,195.74 C71.156,193.52 71.996,192.092 73.52,192.092 C75.032,192.092 75.86,193.52 75.86,195.74 L75.86,195.74 Z M79.916,198.68 L78.824,198.68 L78.092,201.668 L78.584,201.788 L79.916,198.68 Z M91.22,195.74 C91.22,193.016 89.972,191.324 87.98,191.324 C85.976,191.324 84.716,193.028 84.716,195.752 C84.716,198.464 85.964,200.168 87.968,200.168 C89.972,200.168 91.22,198.452 91.22,195.74 L91.22,195.74 Z M90.32,195.74 C90.32,197.96 89.492,199.388 87.98,199.388 C86.456,199.388 85.616,197.96 85.616,195.74 C85.616,193.52 86.456,192.092 87.98,192.092 C89.492,192.092 90.32,193.52 90.32,195.74 L90.32,195.74 Z M94.376,198.68 L93.284,198.68 L92.552,201.668 L93.044,201.788 L94.376,198.68 Z M105.68,195.74 C105.68,193.016 104.432,191.324 102.44,191.324 C100.436,191.324 99.176,193.028 99.176,195.752 C99.176,198.464 100.424,200.168 102.428,200.168 C104.432,200.168 105.68,198.452 105.68,195.74 L105.68,195.74 Z M104.78,195.74 C104.78,197.96 103.952,199.388 102.44,199.388 C100.916,199.388 100.076,197.96 100.076,195.74 C100.076,193.52 100.916,192.092 102.44,192.092 C103.952,192.092 104.78,193.52 104.78,195.74 L104.78,195.74 Z M108.608,200 L108.608,198.68 L107.552,198.68 L107.552,200 L108.608,200 Z M115.964,192.14 L115.964,191.48 L110.3,191.48 L110.42,192.272 L114.98,192.272 L111.452,199.892 L112.304,200.084 L115.964,192.14 Z M123.068,197.372 C123.068,195.824 121.952,194.828 120.176,194.828 C119.516,194.828 119.048,194.948 118.664,195.08 L118.88,192.26 L122.732,192.26 L122.612,191.48 L118.136,191.48 L117.836,195.776 L118.424,195.92 C118.88,195.74 119.36,195.596 120.092,195.596 C121.424,195.596 122.168,196.304 122.168,197.42 C122.168,198.716 121.136,199.388 119.924,199.388 C118.964,199.388 118.232,199.1 117.572,198.68 L117.44,199.532 C118.052,199.892 118.832,200.156 119.888,200.156 C121.64,200.156 123.068,199.124 123.068,197.372 L123.068,197.372 Z M124.472,190.484 C126.368,192.092 127.4,193.772 127.4,195.728 C127.4,197.804 126.512,199.268 124.652,200.504 L124.808,201.344 C127.1,199.928 128.348,198.128 128.348,195.752 C128.348,193.484 127.16,191.816 125.372,190.292 L124.472,190.484 Z" id="rgba(0,-0,-0,-0.75)" stroke="none" fill="#303030" fill-rule="evenodd"></path>
    <path d="M439.5,194.348 L439.356,193.508 C438.264,193.532 437.496,194.228 437.004,194.948 L436.788,193.64 L436.14,193.64 L436.14,200 L437.028,200 L437.028,196.016 C437.472,195.164 438.408,194.408 439.5,194.348 L439.5,194.348 Z M444.78,195.668 C444.78,196.52 444.168,197.18 443.184,197.18 C442.212,197.18 441.612,196.52 441.612,195.692 C441.612,194.828 442.212,194.18 443.172,194.18 C444.12,194.18 444.78,194.828 444.78,195.668 L444.78,195.668 Z M446.412,200.504 C446.412,199.568 445.608,199.16 444.144,198.896 L443.652,198.8 C442.44,198.584 442.164,198.5 442.164,198.236 C442.164,198.092 442.308,197.936 442.596,197.792 C442.788,197.828 442.992,197.84 443.196,197.84 C444.504,197.84 445.656,197.024 445.656,195.68 C445.656,195.248 445.524,194.876 445.308,194.552 L446.628,194.408 L446.484,193.544 L444.828,194.048 C444.384,193.7 443.808,193.508 443.172,193.508 C441.888,193.508 440.724,194.336 440.724,195.68 C440.724,196.556 441.216,197.228 441.948,197.576 C441.504,197.828 441.276,198.092 441.276,198.404 C441.276,198.656 441.432,198.884 441.768,199.088 C440.772,199.568 440.256,200.132 440.256,200.768 C440.256,201.86 441.576,202.412 443.268,202.412 C444.984,202.412 446.412,201.74 446.412,200.504 L446.412,200.504 Z M443.304,199.532 L443.928,199.64 C445.116,199.856 445.548,200.132 445.548,200.624 C445.548,201.248 444.672,201.74 443.328,201.74 C442.032,201.74 441.144,201.368 441.144,200.708 C441.144,200.204 441.576,199.76 442.5,199.364 C442.752,199.424 442.968,199.472 443.304,199.532 L443.304,199.532 Z M453.732,196.64 C453.732,194.516 452.52,193.508 451.068,193.508 C450.156,193.508 449.508,193.976 449.028,194.468 L449.028,190.352 L448.14,190.508 L448.14,199.664 C448.86,199.916 449.616,200.084 450.528,200.084 C452.352,200.084 453.732,198.956 453.732,196.64 L453.732,196.64 Z M452.82,196.676 C452.82,198.5 451.884,199.316 450.576,199.316 C449.892,199.316 449.448,199.208 449.028,199.052 L449.028,195.416 C449.628,194.744 450.24,194.312 450.984,194.312 C452.052,194.312 452.82,195.14 452.82,196.676 L452.82,196.676 Z M459.432,198.416 C458.784,199.004 457.992,199.376 457.284,199.376 C456.588,199.376 456.084,199.016 456.084,198.344 C456.084,197.48 456.828,196.892 459.432,196.628 L459.432,198.416 Z M460.32,200 L460.32,195.464 C460.32,194.156 459.576,193.508 458.124,193.508 C457.188,193.508 456.432,193.736 455.664,194.06 L455.784,194.852 C456.516,194.516 457.284,194.3 458.052,194.3 C458.904,194.3 459.432,194.66 459.432,195.512 L459.432,195.932 C456.432,196.208 455.184,196.904 455.184,198.404 C455.184,199.52 456.024,200.132 457.164,200.132 C458.1,200.132 458.868,199.7 459.492,199.148 L459.648,200 L460.32,200 Z M466.308,201.092 C464.412,199.472 463.38,197.804 463.38,195.836 C463.38,193.772 464.28,192.308 466.128,191.072 L465.972,190.232 C463.68,191.636 462.432,193.448 462.432,195.824 C462.432,198.092 463.62,199.76 465.408,201.284 L466.308,201.092 Z M474.3,195.74 C474.3,193.016 473.052,191.324 471.06,191.324 C469.056,191.324 467.796,193.028 467.796,195.752 C467.796,198.464 469.044,200.168 471.048,200.168 C473.052,200.168 474.3,198.452 474.3,195.74 L474.3,195.74 Z M473.4,195.74 C473.4,197.96 472.572,199.388 471.06,199.388 C469.536,199.388 468.696,197.96 468.696,195.74 C468.696,193.52 469.536,192.092 471.06,192.092 C472.572,192.092 473.4,193.52 473.4,195.74 L473.4,195.74 Z M477.456,198.68 L476.364,198.68 L475.632,201.668 L476.124,201.788 L477.456,198.68 Z M488.76,195.74 C488.76,193.016 487.512,191.324 485.52,191.324 C483.516,191.324 482.256,193.028 482.256,195.752 C482.256,198.464 483.504,200.168 485.508,200.168 C487.512,200.168 488.76,198.452 488.76,195.74 L488.76,195.74 Z M487.86,195.74 C487.86,197.96 487.032,199.388 485.52,199.388 C483.996,199.388 483.156,197.96 483.156,195.74 C483.156,193.52 483.996,192.092 485.52,192.092 C487.032,192.092 487.86,193.52 487.86,195.74 L487.86,195.74 Z M491.916,198.68 L490.824,198.68 L490.092,201.668 L490.584,201.788 L491.916,198.68 Z M503.22,195.74 C503.22,193.016 501.972,191.324 499.98,191.324 C497.976,191.324 496.716,193.028 496.716,195.752 C496.716,198.464 497.964,200.168 499.968,200.168 C501.972,200.168 503.22,198.452 503.22,195.74 L503.22,195.74 Z M502.32,195.74 C502.32,197.96 501.492,199.388 499.98,199.388 C498.456,199.388 497.616,197.96 497.616,195.74 C497.616,193.52 498.456,192.092 499.98,192.092 C501.492,192.092 502.32,193.52 502.32,195.74 L502.32,195.74 Z M506.376,198.68 L505.284,198.68 L504.552,201.668 L505.044,201.788 L506.376,198.68 Z M517.68,195.74 C517.68,193.016 516.432,191.324 514.44,191.324 C512.436,191.324 511.176,193.028 511.176,195.752 C511.176,198.464 512.424,200.168 514.428,200.168 C516.432,200.168 517.68,198.452 517.68,195.74 L517.68,195.74 Z M516.78,195.74 C516.78,197.96 515.952,199.388 514.44,199.388 C512.916,199.388 512.076,197.96 512.076,195.74 C512.076,193.52 512.916,192.092 514.44,192.092 C515.952,192.092 516.78,193.52 516.78,195.74 L516.78,195.74 Z M520.608,200 L520.608,198.68 L519.552,198.68 L519.552,200 L520.608,200 Z M527.94,200 L527.832,199.232 L523.536,199.232 L526.26,196.508 C527.34,195.416 527.796,194.696 527.796,193.652 C527.796,192.248 526.824,191.324 525.18,191.324 C524.1,191.324 523.248,191.732 522.588,192.26 L522.72,193.136 C523.416,192.548 524.22,192.116 525.132,192.116 C526.236,192.116 526.884,192.68 526.884,193.7 C526.884,194.492 526.56,195.068 525.612,196.016 L522.36,199.352 L522.36,200 L527.94,200 Z M535.104,197.372 C535.104,195.824 533.988,194.828 532.212,194.828 C531.552,194.828 531.084,194.948 530.7,195.08 L530.916,192.26 L534.768,192.26 L534.648,191.48 L530.172,191.48 L529.872,195.776 L530.46,195.92 C530.916,195.74 531.396,195.596 532.128,195.596 C533.46,195.596 534.204,196.304 534.204,197.42 C534.204,198.716 533.172,199.388 531.96,199.388 C531,199.388 530.268,199.1 529.608,198.68 L529.476,199.532 C530.088,199.892 530.868,200.156 531.924,200.156 C533.676,200.156 535.104,199.124 535.104,197.372 L535.104,197.372 Z M536.508,190.484 C538.404,192.092 539.436,193.772 539.436,195.728 C539.436,197.804 538.548,199.268 536.688,200.504 L536.844,201.344 C539.136,199.928 540.384,198.128 540.384,195.752 C540.384,193.484 539.196,191.816 537.408,190.292 L536.508,190.484 Z" id="rgba(0,-0,-0,-0.25)" stroke="none" fill="#303030" fill-rule="evenodd"></path>
    <path d="M233.5,218.348 L233.356,217.508 C232.264,217.532 231.496,218.228 231.004,218.948 L230.788,217.64 L230.14,217.64 L230.14,224 L231.028,224 L231.028,220.016 C231.472,219.164 232.408,218.408 233.5,218.348 L233.5,218.348 Z M240.556,220.82 C240.556,218.72 239.272,217.508 237.568,217.508 C235.9,217.508 234.604,218.72 234.604,220.82 C234.604,222.92 235.876,224.132 237.568,224.132 C239.248,224.132 240.556,222.92 240.556,220.82 L240.556,220.82 Z M239.644,220.82 C239.644,222.416 238.816,223.376 237.568,223.376 C236.356,223.376 235.528,222.368 235.528,220.82 C235.528,219.236 236.332,218.264 237.568,218.264 C238.804,218.264 239.644,219.272 239.644,220.82 L239.644,220.82 Z M243.4,224 L243.4,214.352 L242.512,214.508 L242.512,224 L243.4,224 Z M250.828,223.232 L250.696,222.428 C250.024,222.98 249.244,223.364 248.38,223.364 C247.036,223.364 246.28,222.452 246.256,220.88 L250.84,220.88 L250.84,220.688 C250.84,218.924 249.964,217.508 248.176,217.508 C246.544,217.508 245.344,218.78 245.344,220.808 C245.344,223.004 246.592,224.132 248.32,224.132 C249.328,224.132 250.18,223.772 250.828,223.232 L250.828,223.232 Z M248.164,218.216 C249.244,218.216 249.844,219.032 249.928,220.184 L246.292,220.184 C246.46,218.912 247.18,218.216 248.164,218.216 L248.164,218.216 Z M253.732,218.96 L253.732,217.64 L252.676,217.64 L252.676,218.96 L253.732,218.96 Z M253.732,224 L253.732,222.68 L252.676,222.68 L252.676,224 L253.732,224 Z M268.936,224 L268.216,215.3 L267.112,215.3 L263.992,222.836 L260.884,215.3 L259.768,215.3 L259.036,224 L259.9,224 L260.488,216.596 L263.608,224.048 L264.34,224.048 L267.46,216.596 L268.048,224 L268.936,224 Z M276.64,220.82 C276.64,218.72 275.356,217.508 273.652,217.508 C271.984,217.508 270.688,218.72 270.688,220.82 C270.688,222.92 271.96,224.132 273.652,224.132 C275.332,224.132 276.64,222.92 276.64,220.82 L276.64,220.82 Z M275.728,220.82 C275.728,222.416 274.9,223.376 273.652,223.376 C272.44,223.376 271.612,222.368 271.612,220.82 C271.612,219.236 272.416,218.264 273.652,218.264 C274.888,218.264 275.728,219.272 275.728,220.82 L275.728,220.82 Z M282.844,222.188 C282.244,222.884 281.632,223.328 280.852,223.328 C279.796,223.328 279.016,222.5 279.016,220.964 C279.016,219.176 279.952,218.312 281.14,218.312 C281.824,218.312 282.328,218.444 282.844,218.696 L282.844,222.188 Z M283.744,224 L283.744,214.352 L282.844,214.508 L282.844,217.868 C282.364,217.676 281.788,217.556 281.116,217.556 C279.52,217.556 278.104,218.684 278.104,221 C278.104,223.136 279.328,224.132 280.768,224.132 C281.728,224.132 282.388,223.652 282.892,223.076 L283.06,224 L283.744,224 Z M289.828,222.416 C289.18,223.004 288.388,223.376 287.68,223.376 C286.984,223.376 286.48,223.016 286.48,222.344 C286.48,221.48 287.224,220.892 289.828,220.628 L289.828,222.416 Z M290.716,224 L290.716,219.464 C290.716,218.156 289.972,217.508 288.52,217.508 C287.584,217.508 286.828,217.736 286.06,218.06 L286.18,218.852 C286.912,218.516 287.68,218.3 288.448,218.3 C289.3,218.3 289.828,218.66 289.828,219.512 L289.828,219.932 C286.828,220.208 285.58,220.904 285.58,222.404 C285.58,223.52 286.42,224.132 287.56,224.132 C288.496,224.132 289.264,223.7 289.888,223.148 L290.044,224 L290.716,224 Z M293.92,224 L293.92,214.352 L293.032,214.508 L293.032,224 L293.92,224 Z M304.852,221.492 C304.852,220.328 304.144,219.668 303.076,219.38 C303.904,219.044 304.444,218.408 304.444,217.484 C304.444,216.188 303.52,215.3 301.648,215.3 L299.56,215.3 L299.56,224 L301.636,224 C303.58,224 304.852,223.16 304.852,221.492 L304.852,221.492 Z M303.544,217.52 C303.544,218.42 302.872,219.068 301.588,219.068 L300.448,219.068 L300.448,216.092 L301.624,216.092 C302.92,216.092 303.544,216.632 303.544,217.52 L303.544,217.52 Z M303.94,221.54 C303.94,222.608 303.088,223.22 301.708,223.22 L300.448,223.22 L300.448,219.824 L301.66,219.824 C303.076,219.824 303.94,220.376 303.94,221.54 L303.94,221.54 Z M313.624,223.292 L313.624,219.416 L310.42,219.416 L310.552,220.244 L312.724,220.244 L312.724,222.8 C312.136,223.148 311.512,223.34 310.672,223.34 C308.548,223.34 307.336,221.876 307.336,219.656 C307.336,217.424 308.548,215.96 310.552,215.96 C311.596,215.96 312.424,216.308 313.096,216.824 L313.252,215.9 C312.556,215.432 311.692,215.144 310.576,215.144 C308.044,215.144 306.4,216.992 306.4,219.668 C306.4,222.332 307.984,224.168 310.648,224.168 C311.824,224.168 312.796,223.808 313.624,223.292 L313.624,223.292 Z" id="role:-Modal-BG" stroke="none" fill="#303030" fill-rule="evenodd"></path>
    <path d="M27.5,218.348 L27.356,217.508 C26.264,217.532 25.496,218.228 25.004,218.948 L24.788,217.64 L24.14,217.64 L24.14,224 L25.028,224 L25.028,220.016 C25.472,219.164 26.408,218.408 27.5,218.348 L27.5,218.348 Z M34.556,220.82 C34.556,218.72 33.272,217.508 31.568,217.508 C29.9,217.508 28.604,218.72 28.604,220.82 C28.604,222.92 29.876,224.132 31.568,224.132 C33.248,224.132 34.556,222.92 34.556,220.82 L34.556,220.82 Z M33.644,220.82 C33.644,222.416 32.816,223.376 31.568,223.376 C30.356,223.376 29.528,222.368 29.528,220.82 C29.528,219.236 30.332,218.264 31.568,218.264 C32.804,218.264 33.644,219.272 33.644,220.82 L33.644,220.82 Z M37.4,224 L37.4,214.352 L36.512,214.508 L36.512,224 L37.4,224 Z M44.828,223.232 L44.696,222.428 C44.024,222.98 43.244,223.364 42.38,223.364 C41.036,223.364 40.28,222.452 40.256,220.88 L44.84,220.88 L44.84,220.688 C44.84,218.924 43.964,217.508 42.176,217.508 C40.544,217.508 39.344,218.78 39.344,220.808 C39.344,223.004 40.592,224.132 42.32,224.132 C43.328,224.132 44.18,223.772 44.828,223.232 L44.828,223.232 Z M42.164,218.216 C43.244,218.216 43.844,219.032 43.928,220.184 L40.292,220.184 C40.46,218.912 41.18,218.216 42.164,218.216 L42.164,218.216 Z M47.732,218.96 L47.732,217.64 L46.676,217.64 L46.676,218.96 L47.732,218.96 Z M47.732,224 L47.732,222.68 L46.676,222.68 L46.676,224 L47.732,224 Z M59.264,216.14 L59.132,215.3 L52.472,215.3 L52.472,216.14 L55.388,216.14 L55.388,224 L56.288,224 L56.288,216.14 L59.264,216.14 Z M66.356,220.82 C66.356,218.72 65.072,217.508 63.368,217.508 C61.7,217.508 60.404,218.72 60.404,220.82 C60.404,222.92 61.676,224.132 63.368,224.132 C65.048,224.132 66.356,222.92 66.356,220.82 L66.356,220.82 Z M65.444,220.82 C65.444,222.416 64.616,223.376 63.368,223.376 C62.156,223.376 61.328,222.368 61.328,220.82 C61.328,219.236 62.132,218.264 63.368,218.264 C64.604,218.264 65.444,219.272 65.444,220.82 L65.444,220.82 Z M72.032,222.416 C71.384,223.004 70.592,223.376 69.884,223.376 C69.188,223.376 68.684,223.016 68.684,222.344 C68.684,221.48 69.428,220.892 72.032,220.628 L72.032,222.416 Z M72.92,224 L72.92,219.464 C72.92,218.156 72.176,217.508 70.724,217.508 C69.788,217.508 69.032,217.736 68.264,218.06 L68.384,218.852 C69.116,218.516 69.884,218.3 70.652,218.3 C71.504,218.3 72.032,218.66 72.032,219.512 L72.032,219.932 C69.032,220.208 67.784,220.904 67.784,222.404 C67.784,223.52 68.624,224.132 69.764,224.132 C70.7,224.132 71.468,223.7 72.092,223.148 L72.248,224 L72.92,224 Z M79.508,222.272 C79.508,221.144 78.752,220.664 77.192,220.268 C76.064,219.98 75.704,219.716 75.704,219.2 C75.704,218.672 76.136,218.288 77.048,218.288 C77.708,218.288 78.38,218.48 78.968,218.792 L79.112,217.94 C78.548,217.676 77.852,217.508 77.084,217.508 C75.716,217.508 74.84,218.24 74.84,219.224 C74.84,220.28 75.476,220.736 76.928,221.108 C78.26,221.432 78.644,221.72 78.644,222.344 C78.644,222.992 78.068,223.352 77.132,223.352 C76.256,223.352 75.452,223.052 74.828,222.68 L74.684,223.532 C75.26,223.844 76.172,224.12 77.048,224.12 C78.56,224.12 79.508,223.436 79.508,222.272 L79.508,222.272 Z M84.272,224 L84.152,223.256 C83.996,223.292 83.744,223.316 83.528,223.316 C82.808,223.316 82.532,223.04 82.532,222.392 L82.532,218.396 L84.188,218.396 L84.08,217.64 L82.532,217.64 L82.532,215.288 L81.656,215.444 L81.656,217.64 L80.636,217.64 L80.636,218.396 L81.656,218.396 L81.656,222.548 C81.656,223.724 82.328,224.108 83.36,224.108 C83.756,224.108 84.092,224.048 84.272,224 L84.272,224 Z M95.012,214.808 L94.208,214.64 L87.608,225.5 L88.412,225.668 L95.012,214.808 Z M104.564,221.708 C104.564,220.424 103.88,219.8 102.2,219.092 C100.808,218.492 100.376,218.132 100.376,217.352 C100.376,216.608 100.964,216.008 102.032,216.008 C102.776,216.008 103.412,216.248 103.928,216.572 L104.06,215.672 C103.58,215.396 102.92,215.204 102.056,215.204 C100.568,215.204 99.464,216.092 99.464,217.412 C99.464,218.636 100.088,219.188 101.828,219.92 C103.196,220.508 103.652,220.916 103.652,221.768 C103.652,222.728 102.848,223.304 101.792,223.304 C100.868,223.304 100.04,222.98 99.476,222.632 L99.344,223.556 C99.956,223.868 100.784,224.096 101.756,224.096 C103.34,224.096 104.564,223.196 104.564,221.708 L104.564,221.708 Z M111.644,224 L111.644,219.452 C111.644,218.24 110.984,217.508 109.664,217.508 C108.764,217.508 108.02,217.964 107.288,218.576 L107.132,217.64 L106.448,217.64 L106.448,224 L107.336,224 L107.336,219.404 C108.068,218.72 108.788,218.312 109.496,218.312 C110.348,218.312 110.744,218.804 110.744,219.62 L110.744,224 L111.644,224 Z M117.668,222.416 C117.02,223.004 116.228,223.376 115.52,223.376 C114.824,223.376 114.32,223.016 114.32,222.344 C114.32,221.48 115.064,220.892 117.668,220.628 L117.668,222.416 Z M118.556,224 L118.556,219.464 C118.556,218.156 117.812,217.508 116.36,217.508 C115.424,217.508 114.668,217.736 113.9,218.06 L114.02,218.852 C114.752,218.516 115.52,218.3 116.288,218.3 C117.14,218.3 117.668,218.66 117.668,219.512 L117.668,219.932 C114.668,220.208 113.42,220.904 113.42,222.404 C113.42,223.52 114.26,224.132 115.4,224.132 C116.336,224.132 117.104,223.7 117.728,223.148 L117.884,224 L118.556,224 Z M125.576,223.412 L125.456,222.596 C124.772,223.148 124.124,223.352 123.428,223.352 C122.168,223.352 121.28,222.416 121.28,220.82 C121.28,219.188 122.156,218.288 123.38,218.288 C124.136,218.288 124.748,218.552 125.372,219.044 L125.516,218.156 C125,217.784 124.28,217.508 123.392,217.508 C121.7,217.508 120.356,218.684 120.356,220.82 C120.356,222.932 121.652,224.132 123.344,224.132 C124.244,224.132 124.964,223.88 125.576,223.412 L125.576,223.412 Z M132.548,223.916 L129.224,220.472 L132.332,217.64 L131.168,217.64 L128.264,220.376 L128.264,214.352 L127.376,214.508 L127.376,224 L128.264,224 L128.264,220.628 L131.564,224.096 L132.548,223.916 Z M139.556,220.64 C139.556,218.516 138.344,217.508 136.892,217.508 C135.98,217.508 135.332,217.976 134.852,218.468 L134.852,214.352 L133.964,214.508 L133.964,223.664 C134.684,223.916 135.44,224.084 136.352,224.084 C138.176,224.084 139.556,222.956 139.556,220.64 L139.556,220.64 Z M138.644,220.676 C138.644,222.5 137.708,223.316 136.4,223.316 C135.716,223.316 135.272,223.208 134.852,223.052 L134.852,219.416 C135.452,218.744 136.064,218.312 136.808,218.312 C137.876,218.312 138.644,219.14 138.644,220.676 L138.644,220.676 Z M145.256,222.416 C144.608,223.004 143.816,223.376 143.108,223.376 C142.412,223.376 141.908,223.016 141.908,222.344 C141.908,221.48 142.652,220.892 145.256,220.628 L145.256,222.416 Z M146.144,224 L146.144,219.464 C146.144,218.156 145.4,217.508 143.948,217.508 C143.012,217.508 142.256,217.736 141.488,218.06 L141.608,218.852 C142.34,218.516 143.108,218.3 143.876,218.3 C144.728,218.3 145.256,218.66 145.256,219.512 L145.256,219.932 C142.256,220.208 141.008,220.904 141.008,222.404 C141.008,223.52 141.848,224.132 142.988,224.132 C143.924,224.132 144.692,223.7 145.316,223.148 L145.472,224 L146.144,224 Z M151.724,218.348 L151.58,217.508 C150.488,217.532 149.72,218.228 149.228,218.948 L149.012,217.64 L148.364,217.64 L148.364,224 L149.252,224 L149.252,220.016 C149.696,219.164 150.632,218.408 151.724,218.348 L151.724,218.348 Z" id="role:-Toast-/-Snackb" stroke="none" fill="#303030" fill-rule="evenodd"></path>
    <path d="M439.5,218.348 L439.356,217.508 C438.264,217.532 437.496,218.228 437.004,218.948 L436.788,217.64 L436.14,217.64 L436.14,224 L437.028,224 L437.028,220.016 C437.472,219.164 438.408,218.408 439.5,218.348 L439.5,218.348 Z M446.556,220.82 C446.556,218.72 445.272,217.508 443.568,217.508 C441.9,217.508 440.604,218.72 440.604,220.82 C440.604,222.92 441.876,224.132 443.568,224.132 C445.248,224.132 446.556,222.92 446.556,220.82 L446.556,220.82 Z M445.644,220.82 C445.644,222.416 444.816,223.376 443.568,223.376 C442.356,223.376 441.528,222.368 441.528,220.82 C441.528,219.236 442.332,218.264 443.568,218.264 C444.804,218.264 445.644,219.272 445.644,220.82 L445.644,220.82 Z M449.4,224 L449.4,214.352 L448.512,214.508 L448.512,224 L449.4,224 Z M456.828,223.232 L456.696,222.428 C456.024,222.98 455.244,223.364 454.38,223.364 C453.036,223.364 452.28,222.452 452.256,220.88 L456.84,220.88 L456.84,220.688 C456.84,218.924 455.964,217.508 454.176,217.508 C452.544,217.508 451.344,218.78 451.344,220.808 C451.344,223.004 452.592,224.132 454.32,224.132 C455.328,224.132 456.18,223.772 456.828,223.232 L456.828,223.232 Z M454.164,218.216 C455.244,218.216 455.844,219.032 455.928,220.184 L452.292,220.184 C452.46,218.912 453.18,218.216 454.164,218.216 L454.164,218.216 Z M459.732,218.96 L459.732,217.64 L458.676,217.64 L458.676,218.96 L459.732,218.96 Z M459.732,224 L459.732,222.68 L458.676,222.68 L458.676,224 L459.732,224 Z M471.696,223.292 L471.564,222.44 C470.832,222.968 469.956,223.328 468.972,223.328 C467.016,223.328 465.768,221.852 465.768,219.644 C465.768,217.448 467.004,215.96 468.996,215.96 C469.92,215.96 470.7,216.308 471.396,216.8 L471.552,215.876 C470.868,215.42 470.028,215.144 469.008,215.144 C466.512,215.144 464.832,216.992 464.832,219.668 C464.832,222.344 466.488,224.168 468.936,224.168 C470.016,224.168 471.012,223.796 471.696,223.292 L471.696,223.292 Z M477.408,222.416 C476.76,223.004 475.968,223.376 475.26,223.376 C474.564,223.376 474.06,223.016 474.06,222.344 C474.06,221.48 474.804,220.892 477.408,220.628 L477.408,222.416 Z M478.296,224 L478.296,219.464 C478.296,218.156 477.552,217.508 476.1,217.508 C475.164,217.508 474.408,217.736 473.64,218.06 L473.76,218.852 C474.492,218.516 475.26,218.3 476.028,218.3 C476.88,218.3 477.408,218.66 477.408,219.512 L477.408,219.932 C474.408,220.208 473.16,220.904 473.16,222.404 C473.16,223.52 474,224.132 475.14,224.132 C476.076,224.132 476.844,223.7 477.468,223.148 L477.624,224 L478.296,224 Z M481.5,224 L481.5,214.352 L480.612,214.508 L480.612,224 L481.5,224 Z M488.928,223.232 L488.796,222.428 C488.124,222.98 487.344,223.364 486.48,223.364 C485.136,223.364 484.38,222.452 484.356,220.88 L488.94,220.88 L488.94,220.688 C488.94,218.924 488.064,217.508 486.276,217.508 C484.644,217.508 483.444,218.78 483.444,220.808 C483.444,223.004 484.692,224.132 486.42,224.132 C487.428,224.132 488.28,223.772 488.928,223.232 L488.928,223.232 Z M486.264,218.216 C487.344,218.216 487.944,219.032 488.028,220.184 L484.392,220.184 C484.56,218.912 485.28,218.216 486.264,218.216 L486.264,218.216 Z M496.008,224 L496.008,219.452 C496.008,218.24 495.348,217.508 494.028,217.508 C493.128,217.508 492.384,217.964 491.652,218.576 L491.496,217.64 L490.812,217.64 L490.812,224 L491.7,224 L491.7,219.404 C492.432,218.72 493.152,218.312 493.86,218.312 C494.712,218.312 495.108,218.804 495.108,219.62 L495.108,224 L496.008,224 Z M502.56,222.188 C501.96,222.884 501.348,223.328 500.568,223.328 C499.512,223.328 498.732,222.5 498.732,220.964 C498.732,219.176 499.668,218.312 500.856,218.312 C501.54,218.312 502.044,218.444 502.56,218.696 L502.56,222.188 Z M503.46,224 L503.46,214.352 L502.56,214.508 L502.56,217.868 C502.08,217.676 501.504,217.556 500.832,217.556 C499.236,217.556 497.82,218.684 497.82,221 C497.82,223.136 499.044,224.132 500.484,224.132 C501.444,224.132 502.104,223.652 502.608,223.076 L502.776,224 L503.46,224 Z M509.544,222.416 C508.896,223.004 508.104,223.376 507.396,223.376 C506.7,223.376 506.196,223.016 506.196,222.344 C506.196,221.48 506.94,220.892 509.544,220.628 L509.544,222.416 Z M510.432,224 L510.432,219.464 C510.432,218.156 509.688,217.508 508.236,217.508 C507.3,217.508 506.544,217.736 505.776,218.06 L505.896,218.852 C506.628,218.516 507.396,218.3 508.164,218.3 C509.016,218.3 509.544,218.66 509.544,219.512 L509.544,219.932 C506.544,220.208 505.296,220.904 505.296,222.404 C505.296,223.52 506.136,224.132 507.276,224.132 C508.212,224.132 508.98,223.7 509.604,223.148 L509.76,224 L510.432,224 Z M516.012,218.348 L515.868,217.508 C514.776,217.532 514.008,218.228 513.516,218.948 L513.3,217.64 L512.652,217.64 L512.652,224 L513.54,224 L513.54,220.016 C513.984,219.164 514.92,218.408 516.012,218.348 L516.012,218.348 Z M529.32,217.64 L528.42,217.64 L526.764,222.86 L525.096,217.616 L524.316,217.616 L522.648,222.86 L520.92,217.544 L520.044,217.7 L522.252,224.048 L523.02,224.048 L524.676,218.852 L526.344,224.048 L527.124,224.048 L529.32,217.64 Z M532.152,215.48 C532.152,215.132 531.864,214.844 531.504,214.844 C531.144,214.844 530.844,215.132 530.844,215.48 C530.844,215.828 531.144,216.128 531.504,216.128 C531.864,216.128 532.152,215.828 532.152,215.48 L532.152,215.48 Z M531.948,224 L531.948,217.64 L531.06,217.64 L531.06,224 L531.948,224 Z M538.656,222.188 C538.056,222.884 537.444,223.328 536.664,223.328 C535.608,223.328 534.828,222.5 534.828,220.964 C534.828,219.176 535.764,218.312 536.952,218.312 C537.636,218.312 538.14,218.444 538.656,218.696 L538.656,222.188 Z M539.556,224 L539.556,214.352 L538.656,214.508 L538.656,217.868 C538.176,217.676 537.6,217.556 536.928,217.556 C535.332,217.556 533.916,218.684 533.916,221 C533.916,223.136 535.14,224.132 536.58,224.132 C537.54,224.132 538.2,223.652 538.704,223.076 L538.872,224 L539.556,224 Z M545.58,219.668 C545.58,220.52 544.968,221.18 543.984,221.18 C543.012,221.18 542.412,220.52 542.412,219.692 C542.412,218.828 543.012,218.18 543.972,218.18 C544.92,218.18 545.58,218.828 545.58,219.668 L545.58,219.668 Z M547.212,224.504 C547.212,223.568 546.408,223.16 544.944,222.896 L544.452,222.8 C543.24,222.584 542.964,222.5 542.964,222.236 C542.964,222.092 543.108,221.936 543.396,221.792 C543.588,221.828 543.792,221.84 543.996,221.84 C545.304,221.84 546.456,221.024 546.456,219.68 C546.456,219.248 546.324,218.876 546.108,218.552 L547.428,218.408 L547.284,217.544 L545.628,218.048 C545.184,217.7 544.608,217.508 543.972,217.508 C542.688,217.508 541.524,218.336 541.524,219.68 C541.524,220.556 542.016,221.228 542.748,221.576 C542.304,221.828 542.076,222.092 542.076,222.404 C542.076,222.656 542.232,222.884 542.568,223.088 C541.572,223.568 541.056,224.132 541.056,224.768 C541.056,225.86 542.376,226.412 544.068,226.412 C545.784,226.412 547.212,225.74 547.212,224.504 L547.212,224.504 Z M544.104,223.532 L544.728,223.64 C545.916,223.856 546.348,224.132 546.348,224.624 C546.348,225.248 545.472,225.74 544.128,225.74 C542.832,225.74 541.944,225.368 541.944,224.708 C541.944,224.204 542.376,223.76 543.3,223.364 C543.552,223.424 543.768,223.472 544.104,223.532 L544.104,223.532 Z M554.004,223.232 L553.872,222.428 C553.2,222.98 552.42,223.364 551.556,223.364 C550.212,223.364 549.456,222.452 549.432,220.88 L554.016,220.88 L554.016,220.688 C554.016,218.924 553.14,217.508 551.352,217.508 C549.72,217.508 548.52,218.78 548.52,220.808 C548.52,223.004 549.768,224.132 551.496,224.132 C552.504,224.132 553.356,223.772 554.004,223.232 L554.004,223.232 Z M551.34,218.216 C552.42,218.216 553.02,219.032 553.104,220.184 L549.468,220.184 C549.636,218.912 550.356,218.216 551.34,218.216 L551.34,218.216 Z M558.816,224 L558.696,223.256 C558.54,223.292 558.288,223.316 558.072,223.316 C557.352,223.316 557.076,223.04 557.076,222.392 L557.076,218.396 L558.732,218.396 L558.624,217.64 L557.076,217.64 L557.076,215.288 L556.2,215.444 L556.2,217.64 L555.18,217.64 L555.18,218.396 L556.2,218.396 L556.2,222.548 C556.2,223.724 556.872,224.108 557.904,224.108 C558.3,224.108 558.636,224.048 558.816,224 L558.816,224 Z M569.148,221.492 C569.148,220.328 568.44,219.668 567.372,219.38 C568.2,219.044 568.74,218.408 568.74,217.484 C568.74,216.188 567.816,215.3 565.944,215.3 L563.856,215.3 L563.856,224 L565.932,224 C567.876,224 569.148,223.16 569.148,221.492 L569.148,221.492 Z M567.84,217.52 C567.84,218.42 567.168,219.068 565.884,219.068 L564.744,219.068 L564.744,216.092 L565.92,216.092 C567.216,216.092 567.84,216.632 567.84,217.52 L567.84,217.52 Z M568.236,221.54 C568.236,222.608 567.384,223.22 566.004,223.22 L564.744,223.22 L564.744,219.824 L565.956,219.824 C567.372,219.824 568.236,220.376 568.236,221.54 L568.236,221.54 Z M577.92,223.292 L577.92,219.416 L574.716,219.416 L574.848,220.244 L577.02,220.244 L577.02,222.8 C576.432,223.148 575.808,223.34 574.968,223.34 C572.844,223.34 571.632,221.876 571.632,219.656 C571.632,217.424 572.844,215.96 574.848,215.96 C575.892,215.96 576.72,216.308 577.392,216.824 L577.548,215.9 C576.852,215.432 575.988,215.144 574.872,215.144 C572.34,215.144 570.696,216.992 570.696,219.668 C570.696,222.332 572.28,224.168 574.944,224.168 C576.12,224.168 577.092,223.808 577.92,223.292 L577.92,223.292 Z" id="role:-Calendar-widge" stroke="none" fill="#303030" fill-rule="evenodd"></path>
    <path d="M648.644,170.074 C648.644,168.716 647.818,167.946 646.572,167.61 C647.538,167.218 648.168,166.476 648.168,165.398 C648.168,163.886 647.09,162.85 644.906,162.85 L642.47,162.85 L642.47,173 L644.892,173 C647.16,173 648.644,172.02 648.644,170.074 L648.644,170.074 Z M647.118,165.44 C647.118,166.49 646.334,167.246 644.836,167.246 L643.506,167.246 L643.506,163.774 L644.878,163.774 C646.39,163.774 647.118,164.404 647.118,165.44 L647.118,165.44 Z M647.58,170.13 C647.58,171.376 646.586,172.09 644.976,172.09 L643.506,172.09 L643.506,168.128 L644.92,168.128 C646.572,168.128 647.58,168.772 647.58,170.13 L647.58,170.13 Z M651.948,173 L651.948,161.744 L650.912,161.926 L650.912,173 L651.948,173 Z M659.158,171.152 C658.402,171.838 657.478,172.272 656.652,172.272 C655.84,172.272 655.252,171.852 655.252,171.068 C655.252,170.06 656.12,169.374 659.158,169.066 L659.158,171.152 Z M660.194,173 L660.194,167.708 C660.194,166.182 659.326,165.426 657.632,165.426 C656.54,165.426 655.658,165.692 654.762,166.07 L654.902,166.994 C655.756,166.602 656.652,166.35 657.548,166.35 C658.542,166.35 659.158,166.77 659.158,167.764 L659.158,168.254 C655.658,168.576 654.202,169.388 654.202,171.138 C654.202,172.44 655.182,173.154 656.512,173.154 C657.604,173.154 658.5,172.65 659.228,172.006 L659.41,173 L660.194,173 Z M668.384,172.314 L668.244,171.362 C667.446,172.006 666.69,172.244 665.878,172.244 C664.408,172.244 663.372,171.152 663.372,169.29 C663.372,167.386 664.394,166.336 665.822,166.336 C666.704,166.336 667.418,166.644 668.146,167.218 L668.314,166.182 C667.712,165.748 666.872,165.426 665.836,165.426 C663.862,165.426 662.294,166.798 662.294,169.29 C662.294,171.754 663.806,173.154 665.78,173.154 C666.83,173.154 667.67,172.86 668.384,172.314 L668.384,172.314 Z M676.518,172.902 L672.64,168.884 L676.266,165.58 L674.908,165.58 L671.52,168.772 L671.52,161.744 L670.484,161.926 L670.484,173 L671.52,173 L671.52,169.066 L675.37,173.112 L676.518,172.902 Z M681.852,169.08 L681.852,168.03 L677.89,168.03 L677.89,169.08 L681.852,169.08 Z M686.766,173 L686.766,163.018 L685.94,163.018 L683.406,164.138 L683.532,164.964 L685.758,164.124 L685.758,173 L686.766,173 Z M697,168.03 C697,164.852 695.544,162.878 693.22,162.878 C690.882,162.878 689.412,164.866 689.412,168.044 C689.412,171.208 690.868,173.196 693.206,173.196 C695.544,173.196 697,171.194 697,168.03 L697,168.03 Z M695.95,168.03 C695.95,170.62 694.984,172.286 693.22,172.286 C691.442,172.286 690.462,170.62 690.462,168.03 C690.462,165.44 691.442,163.774 693.22,163.774 C694.984,163.774 695.95,165.44 695.95,168.03 L695.95,168.03 Z" id="Black-10" stroke="none" fill="#303030" fill-rule="evenodd"></path>
    <path d="M645.5,194.348 L645.356,193.508 C644.264,193.532 643.496,194.228 643.004,194.948 L642.788,193.64 L642.14,193.64 L642.14,200 L643.028,200 L643.028,196.016 C643.472,195.164 644.408,194.408 645.5,194.348 L645.5,194.348 Z M650.78,195.668 C650.78,196.52 650.168,197.18 649.184,197.18 C648.212,197.18 647.612,196.52 647.612,195.692 C647.612,194.828 648.212,194.18 649.172,194.18 C650.12,194.18 650.78,194.828 650.78,195.668 L650.78,195.668 Z M652.412,200.504 C652.412,199.568 651.608,199.16 650.144,198.896 L649.652,198.8 C648.44,198.584 648.164,198.5 648.164,198.236 C648.164,198.092 648.308,197.936 648.596,197.792 C648.788,197.828 648.992,197.84 649.196,197.84 C650.504,197.84 651.656,197.024 651.656,195.68 C651.656,195.248 651.524,194.876 651.308,194.552 L652.628,194.408 L652.484,193.544 L650.828,194.048 C650.384,193.7 649.808,193.508 649.172,193.508 C647.888,193.508 646.724,194.336 646.724,195.68 C646.724,196.556 647.216,197.228 647.948,197.576 C647.504,197.828 647.276,198.092 647.276,198.404 C647.276,198.656 647.432,198.884 647.768,199.088 C646.772,199.568 646.256,200.132 646.256,200.768 C646.256,201.86 647.576,202.412 649.268,202.412 C650.984,202.412 652.412,201.74 652.412,200.504 L652.412,200.504 Z M649.304,199.532 L649.928,199.64 C651.116,199.856 651.548,200.132 651.548,200.624 C651.548,201.248 650.672,201.74 649.328,201.74 C648.032,201.74 647.144,201.368 647.144,200.708 C647.144,200.204 647.576,199.76 648.5,199.364 C648.752,199.424 648.968,199.472 649.304,199.532 L649.304,199.532 Z M659.732,196.64 C659.732,194.516 658.52,193.508 657.068,193.508 C656.156,193.508 655.508,193.976 655.028,194.468 L655.028,190.352 L654.14,190.508 L654.14,199.664 C654.86,199.916 655.616,200.084 656.528,200.084 C658.352,200.084 659.732,198.956 659.732,196.64 L659.732,196.64 Z M658.82,196.676 C658.82,198.5 657.884,199.316 656.576,199.316 C655.892,199.316 655.448,199.208 655.028,199.052 L655.028,195.416 C655.628,194.744 656.24,194.312 656.984,194.312 C658.052,194.312 658.82,195.14 658.82,196.676 L658.82,196.676 Z M665.432,198.416 C664.784,199.004 663.992,199.376 663.284,199.376 C662.588,199.376 662.084,199.016 662.084,198.344 C662.084,197.48 662.828,196.892 665.432,196.628 L665.432,198.416 Z M666.32,200 L666.32,195.464 C666.32,194.156 665.576,193.508 664.124,193.508 C663.188,193.508 662.432,193.736 661.664,194.06 L661.784,194.852 C662.516,194.516 663.284,194.3 664.052,194.3 C664.904,194.3 665.432,194.66 665.432,195.512 L665.432,195.932 C662.432,196.208 661.184,196.904 661.184,198.404 C661.184,199.52 662.024,200.132 663.164,200.132 C664.1,200.132 664.868,199.7 665.492,199.148 L665.648,200 L666.32,200 Z M672.308,201.092 C670.412,199.472 669.38,197.804 669.38,195.836 C669.38,193.772 670.28,192.308 672.128,191.072 L671.972,190.232 C669.68,191.636 668.432,193.448 668.432,195.824 C668.432,198.092 669.62,199.76 671.408,201.284 L672.308,201.092 Z M680.3,195.74 C680.3,193.016 679.052,191.324 677.06,191.324 C675.056,191.324 673.796,193.028 673.796,195.752 C673.796,198.464 675.044,200.168 677.048,200.168 C679.052,200.168 680.3,198.452 680.3,195.74 L680.3,195.74 Z M679.4,195.74 C679.4,197.96 678.572,199.388 677.06,199.388 C675.536,199.388 674.696,197.96 674.696,195.74 C674.696,193.52 675.536,192.092 677.06,192.092 C678.572,192.092 679.4,193.52 679.4,195.74 L679.4,195.74 Z M683.456,198.68 L682.364,198.68 L681.632,201.668 L682.124,201.788 L683.456,198.68 Z M694.76,195.74 C694.76,193.016 693.512,191.324 691.52,191.324 C689.516,191.324 688.256,193.028 688.256,195.752 C688.256,198.464 689.504,200.168 691.508,200.168 C693.512,200.168 694.76,198.452 694.76,195.74 L694.76,195.74 Z M693.86,195.74 C693.86,197.96 693.032,199.388 691.52,199.388 C689.996,199.388 689.156,197.96 689.156,195.74 C689.156,193.52 689.996,192.092 691.52,192.092 C693.032,192.092 693.86,193.52 693.86,195.74 L693.86,195.74 Z M697.916,198.68 L696.824,198.68 L696.092,201.668 L696.584,201.788 L697.916,198.68 Z M709.22,195.74 C709.22,193.016 707.972,191.324 705.98,191.324 C703.976,191.324 702.716,193.028 702.716,195.752 C702.716,198.464 703.964,200.168 705.968,200.168 C707.972,200.168 709.22,198.452 709.22,195.74 L709.22,195.74 Z M708.32,195.74 C708.32,197.96 707.492,199.388 705.98,199.388 C704.456,199.388 703.616,197.96 703.616,195.74 C703.616,193.52 704.456,192.092 705.98,192.092 C707.492,192.092 708.32,193.52 708.32,195.74 L708.32,195.74 Z M712.376,198.68 L711.284,198.68 L710.552,201.668 L711.044,201.788 L712.376,198.68 Z M723.68,195.74 C723.68,193.016 722.432,191.324 720.44,191.324 C718.436,191.324 717.176,193.028 717.176,195.752 C717.176,198.464 718.424,200.168 720.428,200.168 C722.432,200.168 723.68,198.452 723.68,195.74 L723.68,195.74 Z M722.78,195.74 C722.78,197.96 721.952,199.388 720.44,199.388 C718.916,199.388 718.076,197.96 718.076,195.74 C718.076,193.52 718.916,192.092 720.44,192.092 C721.952,192.092 722.78,193.52 722.78,195.74 L722.78,195.74 Z M726.608,200 L726.608,198.68 L725.552,198.68 L725.552,200 L726.608,200 Z M730.964,200 L730.964,191.444 L730.256,191.444 L728.084,192.404 L728.192,193.112 L730.1,192.392 L730.1,200 L730.964,200 Z M733.064,190.484 C734.96,192.092 735.992,193.772 735.992,195.728 C735.992,197.804 735.104,199.268 733.244,200.504 L733.4,201.344 C735.692,199.928 736.94,198.128 736.94,195.752 C736.94,193.484 735.752,191.816 733.964,190.292 L733.064,190.484 Z" id="rgba(0,-0,-0,-0.1)" stroke="none" fill="#303030" fill-rule="evenodd"></path>
    <path d="M645.5,218.348 L645.356,217.508 C644.264,217.532 643.496,218.228 643.004,218.948 L642.788,217.64 L642.14,217.64 L642.14,224 L643.028,224 L643.028,220.016 C643.472,219.164 644.408,218.408 645.5,218.348 L645.5,218.348 Z M652.556,220.82 C652.556,218.72 651.272,217.508 649.568,217.508 C647.9,217.508 646.604,218.72 646.604,220.82 C646.604,222.92 647.876,224.132 649.568,224.132 C651.248,224.132 652.556,222.92 652.556,220.82 L652.556,220.82 Z M651.644,220.82 C651.644,222.416 650.816,223.376 649.568,223.376 C648.356,223.376 647.528,222.368 647.528,220.82 C647.528,219.236 648.332,218.264 649.568,218.264 C650.804,218.264 651.644,219.272 651.644,220.82 L651.644,220.82 Z M655.4,224 L655.4,214.352 L654.512,214.508 L654.512,224 L655.4,224 Z M662.828,223.232 L662.696,222.428 C662.024,222.98 661.244,223.364 660.38,223.364 C659.036,223.364 658.28,222.452 658.256,220.88 L662.84,220.88 L662.84,220.688 C662.84,218.924 661.964,217.508 660.176,217.508 C658.544,217.508 657.344,218.78 657.344,220.808 C657.344,223.004 658.592,224.132 660.32,224.132 C661.328,224.132 662.18,223.772 662.828,223.232 L662.828,223.232 Z M660.164,218.216 C661.244,218.216 661.844,219.032 661.928,220.184 L658.292,220.184 C658.46,218.912 659.18,218.216 660.164,218.216 L660.164,218.216 Z M665.732,218.96 L665.732,217.64 L664.676,217.64 L664.676,218.96 L665.732,218.96 Z M665.732,224 L665.732,222.68 L664.676,222.68 L664.676,224 L665.732,224 Z M676.172,217.64 L675.248,217.64 L673.328,222.956 L671.372,217.556 L670.472,217.724 L672.884,224.06 L673.736,224.06 L676.172,217.64 Z M682.856,223.232 L682.724,222.428 C682.052,222.98 681.272,223.364 680.408,223.364 C679.064,223.364 678.308,222.452 678.284,220.88 L682.868,220.88 L682.868,220.688 C682.868,218.924 681.992,217.508 680.204,217.508 C678.572,217.508 677.372,218.78 677.372,220.808 C677.372,223.004 678.62,224.132 680.348,224.132 C681.356,224.132 682.208,223.772 682.856,223.232 L682.856,223.232 Z M680.192,218.216 C681.272,218.216 681.872,219.032 681.956,220.184 L678.32,220.184 C678.488,218.912 679.208,218.216 680.192,218.216 L680.192,218.216 Z M688.1,218.348 L687.956,217.508 C686.864,217.532 686.096,218.228 685.604,218.948 L685.388,217.64 L684.74,217.64 L684.74,224 L685.628,224 L685.628,220.016 C686.072,219.164 687.008,218.408 688.1,218.348 L688.1,218.348 Z M693.992,222.272 C693.992,221.144 693.236,220.664 691.676,220.268 C690.548,219.98 690.188,219.716 690.188,219.2 C690.188,218.672 690.62,218.288 691.532,218.288 C692.192,218.288 692.864,218.48 693.452,218.792 L693.596,217.94 C693.032,217.676 692.336,217.508 691.568,217.508 C690.2,217.508 689.324,218.24 689.324,219.224 C689.324,220.28 689.96,220.736 691.412,221.108 C692.744,221.432 693.128,221.72 693.128,222.344 C693.128,222.992 692.552,223.352 691.616,223.352 C690.74,223.352 689.936,223.052 689.312,222.68 L689.168,223.532 C689.744,223.844 690.656,224.12 691.532,224.12 C693.044,224.12 693.992,223.436 693.992,222.272 L693.992,222.272 Z M699.644,222.416 C698.996,223.004 698.204,223.376 697.496,223.376 C696.8,223.376 696.296,223.016 696.296,222.344 C696.296,221.48 697.04,220.892 699.644,220.628 L699.644,222.416 Z M700.532,224 L700.532,219.464 C700.532,218.156 699.788,217.508 698.336,217.508 C697.4,217.508 696.644,217.736 695.876,218.06 L695.996,218.852 C696.728,218.516 697.496,218.3 698.264,218.3 C699.116,218.3 699.644,218.66 699.644,219.512 L699.644,219.932 C696.644,220.208 695.396,220.904 695.396,222.404 C695.396,223.52 696.236,224.132 697.376,224.132 C698.312,224.132 699.08,223.7 699.704,223.148 L699.86,224 L700.532,224 Z M705.68,224 L705.56,223.256 C705.404,223.292 705.152,223.316 704.936,223.316 C704.216,223.316 703.94,223.04 703.94,222.392 L703.94,218.396 L705.596,218.396 L705.488,217.64 L703.94,217.64 L703.94,215.288 L703.064,215.444 L703.064,217.64 L702.044,217.64 L702.044,218.396 L703.064,218.396 L703.064,222.548 C703.064,223.724 703.736,224.108 704.768,224.108 C705.164,224.108 705.5,224.048 705.68,224 L705.68,224 Z M708.632,215.48 C708.632,215.132 708.344,214.844 707.984,214.844 C707.624,214.844 707.324,215.132 707.324,215.48 C707.324,215.828 707.624,216.128 707.984,216.128 C708.344,216.128 708.632,215.828 708.632,215.48 L708.632,215.48 Z M708.428,224 L708.428,217.64 L707.54,217.64 L707.54,224 L708.428,224 Z M711.776,224 L711.776,214.352 L710.888,214.508 L710.888,224 L711.776,224 Z M719.204,223.232 L719.072,222.428 C718.4,222.98 717.62,223.364 716.756,223.364 C715.412,223.364 714.656,222.452 714.632,220.88 L719.216,220.88 L719.216,220.688 C719.216,218.924 718.34,217.508 716.552,217.508 C714.92,217.508 713.72,218.78 713.72,220.808 C713.72,223.004 714.968,224.132 716.696,224.132 C717.704,224.132 718.556,223.772 719.204,223.232 L719.204,223.232 Z M716.54,218.216 C717.62,218.216 718.22,219.032 718.304,220.184 L714.668,220.184 C714.836,218.912 715.556,218.216 716.54,218.216 L716.54,218.216 Z M728.06,222.416 C727.412,223.004 726.62,223.376 725.912,223.376 C725.216,223.376 724.712,223.016 724.712,222.344 C724.712,221.48 725.456,220.892 728.06,220.628 L728.06,222.416 Z M728.948,224 L728.948,219.464 C728.948,218.156 728.204,217.508 726.752,217.508 C725.816,217.508 725.06,217.736 724.292,218.06 L724.412,218.852 C725.144,218.516 725.912,218.3 726.68,218.3 C727.532,218.3 728.06,218.66 728.06,219.512 L728.06,219.932 C725.06,220.208 723.812,220.904 723.812,222.404 C723.812,223.52 724.652,224.132 725.792,224.132 C726.728,224.132 727.496,223.7 728.12,223.148 L728.276,224 L728.948,224 Z M735.968,223.412 L735.848,222.596 C735.164,223.148 734.516,223.352 733.82,223.352 C732.56,223.352 731.672,222.416 731.672,220.82 C731.672,219.188 732.548,218.288 733.772,218.288 C734.528,218.288 735.14,218.552 735.764,219.044 L735.908,218.156 C735.392,217.784 734.672,217.508 733.784,217.508 C732.092,217.508 730.748,218.684 730.748,220.82 C730.748,222.932 732.044,224.132 733.736,224.132 C734.636,224.132 735.356,223.88 735.968,223.412 L735.968,223.412 Z M742.568,223.412 L742.448,222.596 C741.764,223.148 741.116,223.352 740.42,223.352 C739.16,223.352 738.272,222.416 738.272,220.82 C738.272,219.188 739.148,218.288 740.372,218.288 C741.128,218.288 741.74,218.552 742.364,219.044 L742.508,218.156 C741.992,217.784 741.272,217.508 740.384,217.508 C738.692,217.508 737.348,218.684 737.348,220.82 C737.348,222.932 738.644,224.132 740.336,224.132 C741.236,224.132 741.956,223.88 742.568,223.412 L742.568,223.412 Z M749.432,223.232 L749.3,222.428 C748.628,222.98 747.848,223.364 746.984,223.364 C745.64,223.364 744.884,222.452 744.86,220.88 L749.444,220.88 L749.444,220.688 C749.444,218.924 748.568,217.508 746.78,217.508 C745.148,217.508 743.948,218.78 743.948,220.808 C743.948,223.004 745.196,224.132 746.924,224.132 C747.932,224.132 748.784,223.772 749.432,223.232 L749.432,223.232 Z M746.768,218.216 C747.848,218.216 748.448,219.032 748.532,220.184 L744.896,220.184 C745.064,218.912 745.784,218.216 746.768,218.216 L746.768,218.216 Z M756.512,224 L756.512,219.452 C756.512,218.24 755.852,217.508 754.532,217.508 C753.632,217.508 752.888,217.964 752.156,218.576 L752,217.64 L751.316,217.64 L751.316,224 L752.204,224 L752.204,219.404 C752.936,218.72 753.656,218.312 754.364,218.312 C755.216,218.312 755.612,218.804 755.612,219.62 L755.612,224 L756.512,224 Z M761.648,224 L761.528,223.256 C761.372,223.292 761.12,223.316 760.904,223.316 C760.184,223.316 759.908,223.04 759.908,222.392 L759.908,218.396 L761.564,218.396 L761.456,217.64 L759.908,217.64 L759.908,215.288 L759.032,215.444 L759.032,217.64 L758.012,217.64 L758.012,218.396 L759.032,218.396 L759.032,222.548 C759.032,223.724 759.704,224.108 760.736,224.108 C761.132,224.108 761.468,224.048 761.648,224 L761.648,224 Z" id="role:-versatile-acce" stroke="none" fill="#303030" fill-rule="evenodd"></path>
</svg>
