
<svg width="592px" height="498px" viewBox="23 29 592 498" version="1.1" xmlns="http://www.w3.org/2000/svg" xmlns:xlink="http://www.w3.org/1999/xlink">
    <!-- Generator: Sketch 40.3 (33839) - http://www.bohemiancoding.com/sketch -->
    <desc>Created with Sketch.</desc>
    <defs></defs>
    <polygon id="#F2F1EF" stroke="none" fill="#00BCD4" fill-rule="evenodd" points="23 29 203 29 203 159 23 159"></polygon>
    <path d="M31.988,179.174 L31.834,178.18 C30.98,178.796 29.958,179.216 28.81,179.216 C26.528,179.216 25.072,177.494 25.072,174.918 C25.072,172.356 26.514,170.62 28.838,170.62 C29.916,170.62 30.826,171.026 31.638,171.6 L31.82,170.522 C31.022,169.99 30.042,169.668 28.852,169.668 C25.94,169.668 23.98,171.824 23.98,174.946 C23.98,178.068 25.912,180.196 28.768,180.196 C30.028,180.196 31.19,179.762 31.988,179.174 L31.988,179.174 Z M40.248,172.58 L39.17,172.58 L36.874,178.782 L34.48,172.482 L33.43,172.678 L36.356,180.042 L36.034,180.812 C35.712,181.624 35.32,181.904 34.662,181.904 C34.438,181.904 34.228,181.876 34.06,181.848 L34.214,182.772 C34.34,182.8 34.48,182.814 34.676,182.814 C35.754,182.814 36.426,182.394 36.972,180.966 L40.248,172.58 Z M46.576,178.152 C45.82,178.838 44.896,179.272 44.07,179.272 C43.258,179.272 42.67,178.852 42.67,178.068 C42.67,177.06 43.538,176.374 46.576,176.066 L46.576,178.152 Z M47.612,180 L47.612,174.708 C47.612,173.182 46.744,172.426 45.05,172.426 C43.958,172.426 43.076,172.692 42.18,173.07 L42.32,173.994 C43.174,173.602 44.07,173.35 44.966,173.35 C45.96,173.35 46.576,173.77 46.576,174.764 L46.576,175.254 C43.076,175.576 41.62,176.388 41.62,178.138 C41.62,179.44 42.6,180.154 43.93,180.154 C45.022,180.154 45.918,179.65 46.646,179.006 L46.828,180 L47.612,180 Z M56.264,180 L56.264,174.694 C56.264,173.28 55.494,172.426 53.954,172.426 C52.904,172.426 52.036,172.958 51.182,173.672 L51,172.58 L50.202,172.58 L50.202,180 L51.238,180 L51.238,174.638 C52.092,173.84 52.932,173.364 53.758,173.364 C54.752,173.364 55.214,173.938 55.214,174.89 L55.214,180 L56.264,180 Z" id="Cyan" stroke="none" fill="#303030" fill-rule="evenodd"></path>
    <path d="M26.288,201.48 L28.712,201.48 L28.304,204 L25.868,204 L26.288,201.48 Z M29.9,198.54 L29.228,198.396 L28.832,200.736 L26.408,200.736 L26.78,198.456 L26.084,198.456 L25.7,200.736 L23.888,200.736 L24.008,201.48 L25.58,201.48 L25.172,204 L23.624,204 L23.624,204.744 L25.052,204.744 L24.692,206.94 L25.364,207.084 L25.736,204.744 L28.172,204.744 L27.8,207.024 L28.496,207.024 L28.868,204.744 L30.692,204.744 L30.572,204 L29,204 L29.408,201.48 L30.956,201.48 L30.956,200.736 L29.54,200.736 L29.9,198.54 Z M37.388,199.14 L37.388,198.3 L32.852,198.3 L32.852,207 L33.752,207 L33.752,203.004 L36.788,203.004 L36.656,202.176 L33.752,202.176 L33.752,199.14 L37.388,199.14 Z M45.272,202.74 C45.272,200.016 44.024,198.324 42.032,198.324 C40.028,198.324 38.768,200.028 38.768,202.752 C38.768,205.464 40.016,207.168 42.02,207.168 C44.024,207.168 45.272,205.452 45.272,202.74 L45.272,202.74 Z M44.372,202.74 C44.372,204.96 43.544,206.388 42.032,206.388 C40.508,206.388 39.668,204.96 39.668,202.74 C39.668,200.52 40.508,199.092 42.032,199.092 C43.544,199.092 44.372,200.52 44.372,202.74 L44.372,202.74 Z M52.448,204.372 C52.448,202.824 51.332,201.828 49.556,201.828 C48.896,201.828 48.428,201.948 48.044,202.08 L48.26,199.26 L52.112,199.26 L51.992,198.48 L47.516,198.48 L47.216,202.776 L47.804,202.92 C48.26,202.74 48.74,202.596 49.472,202.596 C50.804,202.596 51.548,203.304 51.548,204.42 C51.548,205.716 50.516,206.388 49.304,206.388 C48.344,206.388 47.612,206.1 46.952,205.68 L46.82,206.532 C47.432,206.892 48.212,207.156 49.268,207.156 C51.02,207.156 52.448,206.124 52.448,204.372 L52.448,204.372 Z M61.616,202.644 C61.616,200.064 59.924,198.3 56.912,198.3 L54.452,198.3 L54.452,207 L56.864,207 C59.792,207 61.616,205.296 61.616,202.644 L61.616,202.644 Z M60.68,202.656 C60.68,205.008 59.216,206.184 56.924,206.184 L55.352,206.184 L55.352,199.128 L56.924,199.128 C59.168,199.128 60.68,200.34 60.68,202.656 L60.68,202.656 Z M68.048,199.104 L67.928,198.312 C65.168,199.044 63.308,200.664 63.308,203.556 C63.308,205.824 64.616,207.168 66.428,207.168 C68.096,207.168 69.332,206.052 69.332,204.408 C69.332,202.848 68.276,201.852 66.632,201.852 C65.756,201.852 64.964,202.14 64.244,202.62 C64.568,200.712 65.996,199.644 68.048,199.104 L68.048,199.104 Z M66.476,202.632 C67.796,202.632 68.432,203.364 68.432,204.444 C68.432,205.644 67.64,206.4 66.452,206.4 C65.108,206.4 64.172,205.224 64.172,203.508 L64.172,203.484 C64.856,202.968 65.624,202.632 66.476,202.632 L66.476,202.632 Z M73.328,207 L73.328,198.444 L72.62,198.444 L70.448,199.404 L70.556,200.112 L72.464,199.392 L72.464,207 L73.328,207 Z" id="#F05D61" stroke="none" fill="#303030" fill-rule="evenodd"></path>
    <path d="M27.5,225.348 L27.356,224.508 C26.264,224.532 25.496,225.228 25.004,225.948 L24.788,224.64 L24.14,224.64 L24.14,231 L25.028,231 L25.028,227.016 C25.472,226.164 26.408,225.408 27.5,225.348 L27.5,225.348 Z M32.78,226.668 C32.78,227.52 32.168,228.18 31.184,228.18 C30.212,228.18 29.612,227.52 29.612,226.692 C29.612,225.828 30.212,225.18 31.172,225.18 C32.12,225.18 32.78,225.828 32.78,226.668 L32.78,226.668 Z M34.412,231.504 C34.412,230.568 33.608,230.16 32.144,229.896 L31.652,229.8 C30.44,229.584 30.164,229.5 30.164,229.236 C30.164,229.092 30.308,228.936 30.596,228.792 C30.788,228.828 30.992,228.84 31.196,228.84 C32.504,228.84 33.656,228.024 33.656,226.68 C33.656,226.248 33.524,225.876 33.308,225.552 L34.628,225.408 L34.484,224.544 L32.828,225.048 C32.384,224.7 31.808,224.508 31.172,224.508 C29.888,224.508 28.724,225.336 28.724,226.68 C28.724,227.556 29.216,228.228 29.948,228.576 C29.504,228.828 29.276,229.092 29.276,229.404 C29.276,229.656 29.432,229.884 29.768,230.088 C28.772,230.568 28.256,231.132 28.256,231.768 C28.256,232.86 29.576,233.412 31.268,233.412 C32.984,233.412 34.412,232.74 34.412,231.504 L34.412,231.504 Z M31.304,230.532 L31.928,230.64 C33.116,230.856 33.548,231.132 33.548,231.624 C33.548,232.248 32.672,232.74 31.328,232.74 C30.032,232.74 29.144,232.368 29.144,231.708 C29.144,231.204 29.576,230.76 30.5,230.364 C30.752,230.424 30.968,230.472 31.304,230.532 L31.304,230.532 Z M41.732,227.64 C41.732,225.516 40.52,224.508 39.068,224.508 C38.156,224.508 37.508,224.976 37.028,225.468 L37.028,221.352 L36.14,221.508 L36.14,230.664 C36.86,230.916 37.616,231.084 38.528,231.084 C40.352,231.084 41.732,229.956 41.732,227.64 L41.732,227.64 Z M40.82,227.676 C40.82,229.5 39.884,230.316 38.576,230.316 C37.892,230.316 37.448,230.208 37.028,230.052 L37.028,226.416 C37.628,225.744 38.24,225.312 38.984,225.312 C40.052,225.312 40.82,226.14 40.82,227.676 L40.82,227.676 Z M47.432,229.416 C46.784,230.004 45.992,230.376 45.284,230.376 C44.588,230.376 44.084,230.016 44.084,229.344 C44.084,228.48 44.828,227.892 47.432,227.628 L47.432,229.416 Z M48.32,231 L48.32,226.464 C48.32,225.156 47.576,224.508 46.124,224.508 C45.188,224.508 44.432,224.736 43.664,225.06 L43.784,225.852 C44.516,225.516 45.284,225.3 46.052,225.3 C46.904,225.3 47.432,225.66 47.432,226.512 L47.432,226.932 C44.432,227.208 43.184,227.904 43.184,229.404 C43.184,230.52 44.024,231.132 45.164,231.132 C46.1,231.132 46.868,230.7 47.492,230.148 L47.648,231 L48.32,231 Z M54.308,232.092 C52.412,230.472 51.38,228.804 51.38,226.836 C51.38,224.772 52.28,223.308 54.128,222.072 L53.972,221.232 C51.68,222.636 50.432,224.448 50.432,226.824 C50.432,229.092 51.62,230.76 53.408,232.284 L54.308,232.092 Z M61.256,231 L61.148,230.232 L56.852,230.232 L59.576,227.508 C60.656,226.416 61.112,225.696 61.112,224.652 C61.112,223.248 60.14,222.324 58.496,222.324 C57.416,222.324 56.564,222.732 55.904,223.26 L56.036,224.136 C56.732,223.548 57.536,223.116 58.448,223.116 C59.552,223.116 60.2,223.68 60.2,224.7 C60.2,225.492 59.876,226.068 58.928,227.016 L55.676,230.352 L55.676,231 L61.256,231 Z M69.464,228.996 L69.464,228.264 L68,228.264 L68,222.444 L66.944,222.444 L62.648,228.372 L62.648,228.996 L67.184,228.996 L67.184,231 L68,231 L68,228.996 L69.464,228.996 Z M67.184,228.264 L63.62,228.264 L67.184,223.416 L67.184,228.264 Z M77.264,226.74 C77.264,224.016 76.016,222.324 74.024,222.324 C72.02,222.324 70.76,224.028 70.76,226.752 C70.76,229.464 72.008,231.168 74.012,231.168 C76.016,231.168 77.264,229.452 77.264,226.74 L77.264,226.74 Z M76.364,226.74 C76.364,228.96 75.536,230.388 74.024,230.388 C72.5,230.388 71.66,228.96 71.66,226.74 C71.66,224.52 72.5,223.092 74.024,223.092 C75.536,223.092 76.364,224.52 76.364,226.74 L76.364,226.74 Z M80.42,229.68 L79.328,229.68 L78.596,232.668 L79.088,232.788 L80.42,229.68 Z M86.216,230.376 L86.348,231.18 C89.204,230.52 91.088,228.816 91.088,225.924 C91.088,223.668 89.816,222.324 87.98,222.324 C86.24,222.324 85.076,223.512 85.076,225.108 C85.076,226.728 86.144,227.736 87.776,227.736 C88.64,227.736 89.42,227.46 90.128,227.004 C89.744,228.876 88.304,229.932 86.216,230.376 L86.216,230.376 Z M87.92,226.956 C86.624,226.956 85.964,226.212 85.964,225.072 C85.964,223.86 86.732,223.08 87.968,223.08 C89.3,223.08 90.236,224.232 90.236,225.984 L90.236,226.128 C89.552,226.644 88.748,226.956 87.92,226.956 L87.92,226.956 Z M98.06,228.696 C98.06,227.496 97.352,226.812 96.2,226.5 C97.136,226.2 97.892,225.588 97.892,224.484 C97.892,223.332 97.052,222.324 95.252,222.324 C94.184,222.324 93.392,222.624 92.708,223.104 L92.828,223.932 C93.5,223.44 94.28,223.104 95.204,223.104 C96.38,223.104 96.992,223.704 96.992,224.52 C96.992,225.516 96.2,226.116 94.676,226.116 L94.088,226.116 L94.196,226.92 L94.592,226.92 C96.368,226.92 97.16,227.604 97.16,228.708 C97.16,229.728 96.368,230.376 95.096,230.376 C94.16,230.376 93.476,230.124 92.72,229.632 L92.564,230.496 C93.212,230.892 94.1,231.168 95.06,231.168 C96.836,231.168 98.06,230.148 98.06,228.696 L98.06,228.696 Z M101.216,229.68 L100.124,229.68 L99.392,232.668 L99.884,232.788 L101.216,229.68 Z M107.012,230.376 L107.144,231.18 C110,230.52 111.884,228.816 111.884,225.924 C111.884,223.668 110.612,222.324 108.776,222.324 C107.036,222.324 105.872,223.512 105.872,225.108 C105.872,226.728 106.94,227.736 108.572,227.736 C109.436,227.736 110.216,227.46 110.924,227.004 C110.54,228.876 109.1,229.932 107.012,230.376 L107.012,230.376 Z M108.716,226.956 C107.42,226.956 106.76,226.212 106.76,225.072 C106.76,223.86 107.528,223.08 108.764,223.08 C110.096,223.08 111.032,224.232 111.032,225.984 L111.032,226.128 C110.348,226.644 109.544,226.956 108.716,226.956 L108.716,226.956 Z M119.048,223.14 L119.048,222.48 L113.384,222.48 L113.504,223.272 L118.064,223.272 L114.536,230.892 L115.388,231.084 L119.048,223.14 Z M122.132,229.68 L121.04,229.68 L120.308,232.668 L120.8,232.788 L122.132,229.68 Z M129.416,231 L129.416,222.444 L128.708,222.444 L126.536,223.404 L126.644,224.112 L128.552,223.392 L128.552,231 L129.416,231 Z M138.188,226.74 C138.188,224.016 136.94,222.324 134.948,222.324 C132.944,222.324 131.684,224.028 131.684,226.752 C131.684,229.464 132.932,231.168 134.936,231.168 C136.94,231.168 138.188,229.452 138.188,226.74 L138.188,226.74 Z M137.288,226.74 C137.288,228.96 136.46,230.388 134.948,230.388 C133.424,230.388 132.584,228.96 132.584,226.74 C132.584,224.52 133.424,223.092 134.948,223.092 C136.46,223.092 137.288,224.52 137.288,226.74 L137.288,226.74 Z M146.348,226.74 C146.348,224.016 145.1,222.324 143.108,222.324 C141.104,222.324 139.844,224.028 139.844,226.752 C139.844,229.464 141.092,231.168 143.096,231.168 C145.1,231.168 146.348,229.452 146.348,226.74 L146.348,226.74 Z M145.448,226.74 C145.448,228.96 144.62,230.388 143.108,230.388 C141.584,230.388 140.744,228.96 140.744,226.74 C140.744,224.52 141.584,223.092 143.108,223.092 C144.62,223.092 145.448,224.52 145.448,226.74 L145.448,226.74 Z M147.836,221.484 C149.732,223.092 150.764,224.772 150.764,226.728 C150.764,228.804 149.876,230.268 148.016,231.504 L148.172,232.344 C150.464,230.928 151.712,229.128 151.712,226.752 C151.712,224.484 150.524,222.816 148.736,221.292 L147.836,221.484 Z" id="rgba(240,-93,-97,-10" stroke="none" fill="#303030" fill-rule="evenodd"></path>
    <path d="M27.5,249.348 L27.356,248.508 C26.264,248.532 25.496,249.228 25.004,249.948 L24.788,248.64 L24.14,248.64 L24.14,255 L25.028,255 L25.028,251.016 C25.472,250.164 26.408,249.408 27.5,249.348 L27.5,249.348 Z M34.556,251.82 C34.556,249.72 33.272,248.508 31.568,248.508 C29.9,248.508 28.604,249.72 28.604,251.82 C28.604,253.92 29.876,255.132 31.568,255.132 C33.248,255.132 34.556,253.92 34.556,251.82 L34.556,251.82 Z M33.644,251.82 C33.644,253.416 32.816,254.376 31.568,254.376 C30.356,254.376 29.528,253.368 29.528,251.82 C29.528,250.236 30.332,249.264 31.568,249.264 C32.804,249.264 33.644,250.272 33.644,251.82 L33.644,251.82 Z M37.4,255 L37.4,245.352 L36.512,245.508 L36.512,255 L37.4,255 Z M44.828,254.232 L44.696,253.428 C44.024,253.98 43.244,254.364 42.38,254.364 C41.036,254.364 40.28,253.452 40.256,251.88 L44.84,251.88 L44.84,251.688 C44.84,249.924 43.964,248.508 42.176,248.508 C40.544,248.508 39.344,249.78 39.344,251.808 C39.344,254.004 40.592,255.132 42.32,255.132 C43.328,255.132 44.18,254.772 44.828,254.232 L44.828,254.232 Z M42.164,249.216 C43.244,249.216 43.844,250.032 43.928,251.184 L40.292,251.184 C40.46,249.912 41.18,249.216 42.164,249.216 L42.164,249.216 Z M47.732,249.96 L47.732,248.64 L46.676,248.64 L46.676,249.96 L47.732,249.96 Z M47.732,255 L47.732,253.68 L46.676,253.68 L46.676,255 L47.732,255 Z" id="role:" stroke="none" fill="#303030" fill-rule="evenodd"></path>
    <polygon id="#F2F1EF" stroke="none" fill="#FF7137" fill-rule="evenodd" points="23 300 203 300 203 430 23 430"></polygon>
    <path d="M32.828,445.918 C32.828,442.908 30.854,440.85 27.34,440.85 L24.47,440.85 L24.47,451 L27.284,451 C30.7,451 32.828,449.012 32.828,445.918 L32.828,445.918 Z M31.736,445.932 C31.736,448.676 30.028,450.048 27.354,450.048 L25.52,450.048 L25.52,441.816 L27.354,441.816 C29.972,441.816 31.736,443.23 31.736,445.932 L31.736,445.932 Z M41.06,450.104 L40.906,449.166 C40.122,449.81 39.212,450.258 38.204,450.258 C36.636,450.258 35.754,449.194 35.726,447.36 L41.074,447.36 L41.074,447.136 C41.074,445.078 40.052,443.426 37.966,443.426 C36.062,443.426 34.662,444.91 34.662,447.276 C34.662,449.838 36.118,451.154 38.134,451.154 C39.31,451.154 40.304,450.734 41.06,450.104 L41.06,450.104 Z M37.952,444.252 C39.212,444.252 39.912,445.204 40.01,446.548 L35.768,446.548 C35.964,445.064 36.804,444.252 37.952,444.252 L37.952,444.252 Z M49.166,450.104 L49.012,449.166 C48.228,449.81 47.318,450.258 46.31,450.258 C44.742,450.258 43.86,449.194 43.832,447.36 L49.18,447.36 L49.18,447.136 C49.18,445.078 48.158,443.426 46.072,443.426 C44.168,443.426 42.768,444.91 42.768,447.276 C42.768,449.838 44.224,451.154 46.24,451.154 C47.416,451.154 48.41,450.734 49.166,450.104 L49.166,450.104 Z M46.058,444.252 C47.318,444.252 48.018,445.204 48.116,446.548 L43.874,446.548 C44.07,445.064 44.91,444.252 46.058,444.252 L46.058,444.252 Z M56.866,447.122 C56.866,449.194 55.788,450.202 54.374,450.202 C53.59,450.202 53.002,450.062 52.4,449.768 L52.4,445.694 C53.114,444.868 53.814,444.364 54.724,444.364 C55.97,444.364 56.866,445.33 56.866,447.122 L56.866,447.122 Z M57.944,447.08 C57.944,444.602 56.516,443.426 54.822,443.426 C53.702,443.426 52.946,443.986 52.344,444.658 L52.162,443.58 L51.364,443.58 L51.364,453.87 L52.4,453.702 L52.4,450.734 C52.96,450.958 53.646,451.098 54.416,451.098 C56.292,451.098 57.944,449.782 57.944,447.08 L57.944,447.08 Z M73.008,445.918 C73.008,442.81 71.076,440.668 68.248,440.668 C65.42,440.668 63.46,442.824 63.46,445.946 C63.46,449.04 65.392,451.196 68.22,451.196 C71.048,451.196 73.008,449.026 73.008,445.918 L73.008,445.918 Z M71.902,445.932 C71.902,448.508 70.46,450.23 68.234,450.23 C66.022,450.23 64.552,448.508 64.552,445.918 C64.552,443.356 66.008,441.62 68.22,441.62 C70.446,441.62 71.902,443.356 71.902,445.932 L71.902,445.932 Z M79.224,444.406 L79.056,443.426 C77.782,443.454 76.886,444.266 76.312,445.106 L76.06,443.58 L75.304,443.58 L75.304,451 L76.34,451 L76.34,446.352 C76.858,445.358 77.95,444.476 79.224,444.406 L79.224,444.406 Z M85.454,449.152 C84.698,449.838 83.774,450.272 82.948,450.272 C82.136,450.272 81.548,449.852 81.548,449.068 C81.548,448.06 82.416,447.374 85.454,447.066 L85.454,449.152 Z M86.49,451 L86.49,445.708 C86.49,444.182 85.622,443.426 83.928,443.426 C82.836,443.426 81.954,443.692 81.058,444.07 L81.198,444.994 C82.052,444.602 82.948,444.35 83.844,444.35 C84.838,444.35 85.454,444.77 85.454,445.764 L85.454,446.254 C81.954,446.576 80.498,447.388 80.498,449.138 C80.498,450.44 81.478,451.154 82.808,451.154 C83.9,451.154 84.796,450.65 85.524,450.006 L85.706,451 L86.49,451 Z M95.142,451 L95.142,445.694 C95.142,444.28 94.372,443.426 92.832,443.426 C91.782,443.426 90.914,443.958 90.06,444.672 L89.878,443.58 L89.08,443.58 L89.08,451 L90.116,451 L90.116,445.638 C90.97,444.84 91.81,444.364 92.636,444.364 C93.63,444.364 94.092,444.938 94.092,445.89 L94.092,451 L95.142,451 Z M102.1,445.946 C102.1,446.94 101.386,447.71 100.238,447.71 C99.104,447.71 98.404,446.94 98.404,445.974 C98.404,444.966 99.104,444.21 100.224,444.21 C101.33,444.21 102.1,444.966 102.1,445.946 L102.1,445.946 Z M104.004,451.588 C104.004,450.496 103.066,450.02 101.358,449.712 L100.784,449.6 C99.37,449.348 99.048,449.25 99.048,448.942 C99.048,448.774 99.216,448.592 99.552,448.424 C99.776,448.466 100.014,448.48 100.252,448.48 C101.778,448.48 103.122,447.528 103.122,445.96 C103.122,445.456 102.968,445.022 102.716,444.644 L104.256,444.476 L104.088,443.468 L102.156,444.056 C101.638,443.65 100.966,443.426 100.224,443.426 C98.726,443.426 97.368,444.392 97.368,445.96 C97.368,446.982 97.942,447.766 98.796,448.172 C98.278,448.466 98.012,448.774 98.012,449.138 C98.012,449.432 98.194,449.698 98.586,449.936 C97.424,450.496 96.822,451.154 96.822,451.896 C96.822,453.17 98.362,453.814 100.336,453.814 C102.338,453.814 104.004,453.03 104.004,451.588 L104.004,451.588 Z M100.378,450.454 L101.106,450.58 C102.492,450.832 102.996,451.154 102.996,451.728 C102.996,452.456 101.974,453.03 100.406,453.03 C98.894,453.03 97.858,452.596 97.858,451.826 C97.858,451.238 98.362,450.72 99.44,450.258 C99.734,450.328 99.986,450.384 100.378,450.454 L100.378,450.454 Z M111.928,450.104 L111.774,449.166 C110.99,449.81 110.08,450.258 109.072,450.258 C107.504,450.258 106.622,449.194 106.594,447.36 L111.942,447.36 L111.942,447.136 C111.942,445.078 110.92,443.426 108.834,443.426 C106.93,443.426 105.53,444.91 105.53,447.276 C105.53,449.838 106.986,451.154 109.002,451.154 C110.178,451.154 111.172,450.734 111.928,450.104 L111.928,450.104 Z M108.82,444.252 C110.08,444.252 110.78,445.204 110.878,446.548 L106.636,446.548 C106.832,445.064 107.672,444.252 108.82,444.252 L108.82,444.252 Z" id="Deep-Orange" stroke="none" fill="#303030" fill-rule="evenodd"></path>
    <path d="M26.288,472.48 L28.712,472.48 L28.304,475 L25.868,475 L26.288,472.48 Z M29.9,469.54 L29.228,469.396 L28.832,471.736 L26.408,471.736 L26.78,469.456 L26.084,469.456 L25.7,471.736 L23.888,471.736 L24.008,472.48 L25.58,472.48 L25.172,475 L23.624,475 L23.624,475.744 L25.052,475.744 L24.692,477.94 L25.364,478.084 L25.736,475.744 L28.172,475.744 L27.8,478.024 L28.496,478.024 L28.868,475.744 L30.692,475.744 L30.572,475 L29,475 L29.408,472.48 L30.956,472.48 L30.956,471.736 L29.54,471.736 L29.9,469.54 Z M37.388,470.14 L37.388,469.3 L32.852,469.3 L32.852,478 L33.752,478 L33.752,474.004 L36.788,474.004 L36.656,473.176 L33.752,473.176 L33.752,470.14 L37.388,470.14 Z M43.736,470.14 L43.736,469.3 L39.2,469.3 L39.2,478 L40.1,478 L40.1,474.004 L43.136,474.004 L43.004,473.176 L40.1,473.176 L40.1,470.14 L43.736,470.14 Z M51.992,477.292 L51.86,476.44 C51.128,476.968 50.252,477.328 49.268,477.328 C47.312,477.328 46.064,475.852 46.064,473.644 C46.064,471.448 47.3,469.96 49.292,469.96 C50.216,469.96 50.996,470.308 51.692,470.8 L51.848,469.876 C51.164,469.42 50.324,469.144 49.304,469.144 C46.808,469.144 45.128,470.992 45.128,473.668 C45.128,476.344 46.784,478.168 49.232,478.168 C50.312,478.168 51.308,477.796 51.992,477.292 L51.992,477.292 Z M61.172,473.644 C61.172,471.064 59.48,469.3 56.468,469.3 L54.008,469.3 L54.008,478 L56.42,478 C59.348,478 61.172,476.296 61.172,473.644 L61.172,473.644 Z M60.236,473.656 C60.236,476.008 58.772,477.184 56.48,477.184 L54.908,477.184 L54.908,470.128 L56.48,470.128 C58.724,470.128 60.236,471.34 60.236,473.656 L60.236,473.656 Z M70.448,473.644 C70.448,471.064 68.756,469.3 65.744,469.3 L63.284,469.3 L63.284,478 L65.696,478 C68.624,478 70.448,476.296 70.448,473.644 L70.448,473.644 Z M69.512,473.656 C69.512,476.008 68.048,477.184 65.756,477.184 L64.184,477.184 L64.184,470.128 L65.756,470.128 C68,470.128 69.512,471.34 69.512,473.656 L69.512,473.656 Z M77.588,478 L77.48,477.232 L73.184,477.232 L75.908,474.508 C76.988,473.416 77.444,472.696 77.444,471.652 C77.444,470.248 76.472,469.324 74.828,469.324 C73.748,469.324 72.896,469.732 72.236,470.26 L72.368,471.136 C73.064,470.548 73.868,470.116 74.78,470.116 C75.884,470.116 76.532,470.68 76.532,471.7 C76.532,472.492 76.208,473.068 75.26,474.016 L72.008,477.352 L72.008,478 L77.588,478 Z" id="#FFCDD2" stroke="none" fill="#303030" fill-rule="evenodd"></path>
    <path d="M27.5,496.348 L27.356,495.508 C26.264,495.532 25.496,496.228 25.004,496.948 L24.788,495.64 L24.14,495.64 L24.14,502 L25.028,502 L25.028,498.016 C25.472,497.164 26.408,496.408 27.5,496.348 L27.5,496.348 Z M32.78,497.668 C32.78,498.52 32.168,499.18 31.184,499.18 C30.212,499.18 29.612,498.52 29.612,497.692 C29.612,496.828 30.212,496.18 31.172,496.18 C32.12,496.18 32.78,496.828 32.78,497.668 L32.78,497.668 Z M34.412,502.504 C34.412,501.568 33.608,501.16 32.144,500.896 L31.652,500.8 C30.44,500.584 30.164,500.5 30.164,500.236 C30.164,500.092 30.308,499.936 30.596,499.792 C30.788,499.828 30.992,499.84 31.196,499.84 C32.504,499.84 33.656,499.024 33.656,497.68 C33.656,497.248 33.524,496.876 33.308,496.552 L34.628,496.408 L34.484,495.544 L32.828,496.048 C32.384,495.7 31.808,495.508 31.172,495.508 C29.888,495.508 28.724,496.336 28.724,497.68 C28.724,498.556 29.216,499.228 29.948,499.576 C29.504,499.828 29.276,500.092 29.276,500.404 C29.276,500.656 29.432,500.884 29.768,501.088 C28.772,501.568 28.256,502.132 28.256,502.768 C28.256,503.86 29.576,504.412 31.268,504.412 C32.984,504.412 34.412,503.74 34.412,502.504 L34.412,502.504 Z M31.304,501.532 L31.928,501.64 C33.116,501.856 33.548,502.132 33.548,502.624 C33.548,503.248 32.672,503.74 31.328,503.74 C30.032,503.74 29.144,503.368 29.144,502.708 C29.144,502.204 29.576,501.76 30.5,501.364 C30.752,501.424 30.968,501.472 31.304,501.532 L31.304,501.532 Z M41.732,498.64 C41.732,496.516 40.52,495.508 39.068,495.508 C38.156,495.508 37.508,495.976 37.028,496.468 L37.028,492.352 L36.14,492.508 L36.14,501.664 C36.86,501.916 37.616,502.084 38.528,502.084 C40.352,502.084 41.732,500.956 41.732,498.64 L41.732,498.64 Z M40.82,498.676 C40.82,500.5 39.884,501.316 38.576,501.316 C37.892,501.316 37.448,501.208 37.028,501.052 L37.028,497.416 C37.628,496.744 38.24,496.312 38.984,496.312 C40.052,496.312 40.82,497.14 40.82,498.676 L40.82,498.676 Z M47.432,500.416 C46.784,501.004 45.992,501.376 45.284,501.376 C44.588,501.376 44.084,501.016 44.084,500.344 C44.084,499.48 44.828,498.892 47.432,498.628 L47.432,500.416 Z M48.32,502 L48.32,497.464 C48.32,496.156 47.576,495.508 46.124,495.508 C45.188,495.508 44.432,495.736 43.664,496.06 L43.784,496.852 C44.516,496.516 45.284,496.3 46.052,496.3 C46.904,496.3 47.432,496.66 47.432,497.512 L47.432,497.932 C44.432,498.208 43.184,498.904 43.184,500.404 C43.184,501.52 44.024,502.132 45.164,502.132 C46.1,502.132 46.868,501.7 47.492,501.148 L47.648,502 L48.32,502 Z M54.308,503.092 C52.412,501.472 51.38,499.804 51.38,497.836 C51.38,495.772 52.28,494.308 54.128,493.072 L53.972,492.232 C51.68,493.636 50.432,495.448 50.432,497.824 C50.432,500.092 51.62,501.76 53.408,503.284 L54.308,503.092 Z M61.256,502 L61.148,501.232 L56.852,501.232 L59.576,498.508 C60.656,497.416 61.112,496.696 61.112,495.652 C61.112,494.248 60.14,493.324 58.496,493.324 C57.416,493.324 56.564,493.732 55.904,494.26 L56.036,495.136 C56.732,494.548 57.536,494.116 58.448,494.116 C59.552,494.116 60.2,494.68 60.2,495.7 C60.2,496.492 59.876,497.068 58.928,498.016 L55.676,501.352 L55.676,502 L61.256,502 Z M68.42,499.372 C68.42,497.824 67.304,496.828 65.528,496.828 C64.868,496.828 64.4,496.948 64.016,497.08 L64.232,494.26 L68.084,494.26 L67.964,493.48 L63.488,493.48 L63.188,497.776 L63.776,497.92 C64.232,497.74 64.712,497.596 65.444,497.596 C66.776,497.596 67.52,498.304 67.52,499.42 C67.52,500.716 66.488,501.388 65.276,501.388 C64.316,501.388 63.584,501.1 62.924,500.68 L62.792,501.532 C63.404,501.892 64.184,502.156 65.24,502.156 C66.992,502.156 68.42,501.124 68.42,499.372 L68.42,499.372 Z M75.512,499.372 C75.512,497.824 74.396,496.828 72.62,496.828 C71.96,496.828 71.492,496.948 71.108,497.08 L71.324,494.26 L75.176,494.26 L75.056,493.48 L70.58,493.48 L70.28,497.776 L70.868,497.92 C71.324,497.74 71.804,497.596 72.536,497.596 C73.868,497.596 74.612,498.304 74.612,499.42 C74.612,500.716 73.58,501.388 72.368,501.388 C71.408,501.388 70.676,501.1 70.016,500.68 L69.884,501.532 C70.496,501.892 71.276,502.156 72.332,502.156 C74.084,502.156 75.512,501.124 75.512,499.372 L75.512,499.372 Z M78.584,500.68 L77.492,500.68 L76.76,503.668 L77.252,503.788 L78.584,500.68 Z M88.844,502 L88.736,501.232 L84.44,501.232 L87.164,498.508 C88.244,497.416 88.7,496.696 88.7,495.652 C88.7,494.248 87.728,493.324 86.084,493.324 C85.004,493.324 84.152,493.732 83.492,494.26 L83.624,495.136 C84.32,494.548 85.124,494.116 86.036,494.116 C87.14,494.116 87.788,494.68 87.788,495.7 C87.788,496.492 87.464,497.068 86.516,498.016 L83.264,501.352 L83.264,502 L88.844,502 Z M96.992,497.74 C96.992,495.016 95.744,493.324 93.752,493.324 C91.748,493.324 90.488,495.028 90.488,497.752 C90.488,500.464 91.736,502.168 93.74,502.168 C95.744,502.168 96.992,500.452 96.992,497.74 L96.992,497.74 Z M96.092,497.74 C96.092,499.96 95.264,501.388 93.752,501.388 C92.228,501.388 91.388,499.96 91.388,497.74 C91.388,495.52 92.228,494.092 93.752,494.092 C95.264,494.092 96.092,495.52 96.092,497.74 L96.092,497.74 Z M104.168,499.372 C104.168,497.824 103.052,496.828 101.276,496.828 C100.616,496.828 100.148,496.948 99.764,497.08 L99.98,494.26 L103.832,494.26 L103.712,493.48 L99.236,493.48 L98.936,497.776 L99.524,497.92 C99.98,497.74 100.46,497.596 101.192,497.596 C102.524,497.596 103.268,498.304 103.268,499.42 C103.268,500.716 102.236,501.388 101.024,501.388 C100.064,501.388 99.332,501.1 98.672,500.68 L98.54,501.532 C99.152,501.892 99.932,502.156 100.988,502.156 C102.74,502.156 104.168,501.124 104.168,499.372 L104.168,499.372 Z M107.24,500.68 L106.148,500.68 L105.416,503.668 L105.908,503.788 L107.24,500.68 Z M117.5,502 L117.392,501.232 L113.096,501.232 L115.82,498.508 C116.9,497.416 117.356,496.696 117.356,495.652 C117.356,494.248 116.384,493.324 114.74,493.324 C113.66,493.324 112.808,493.732 112.148,494.26 L112.28,495.136 C112.976,494.548 113.78,494.116 114.692,494.116 C115.796,494.116 116.444,494.68 116.444,495.7 C116.444,496.492 116.12,497.068 115.172,498.016 L111.92,501.352 L111.92,502 L117.5,502 Z M121.628,502 L121.628,493.444 L120.92,493.444 L118.748,494.404 L118.856,495.112 L120.764,494.392 L120.764,502 L121.628,502 Z M130.4,497.74 C130.4,495.016 129.152,493.324 127.16,493.324 C125.156,493.324 123.896,495.028 123.896,497.752 C123.896,500.464 125.144,502.168 127.148,502.168 C129.152,502.168 130.4,500.452 130.4,497.74 L130.4,497.74 Z M129.5,497.74 C129.5,499.96 128.672,501.388 127.16,501.388 C125.636,501.388 124.796,499.96 124.796,497.74 C124.796,495.52 125.636,494.092 127.16,494.092 C128.672,494.092 129.5,495.52 129.5,497.74 L129.5,497.74 Z M133.556,500.68 L132.464,500.68 L131.732,503.668 L132.224,503.788 L133.556,500.68 Z M140.84,502 L140.84,493.444 L140.132,493.444 L137.96,494.404 L138.068,495.112 L139.976,494.392 L139.976,502 L140.84,502 Z M149.612,497.74 C149.612,495.016 148.364,493.324 146.372,493.324 C144.368,493.324 143.108,495.028 143.108,497.752 C143.108,500.464 144.356,502.168 146.36,502.168 C148.364,502.168 149.612,500.452 149.612,497.74 L149.612,497.74 Z M148.712,497.74 C148.712,499.96 147.884,501.388 146.372,501.388 C144.848,501.388 144.008,499.96 144.008,497.74 C144.008,495.52 144.848,494.092 146.372,494.092 C147.884,494.092 148.712,495.52 148.712,497.74 L148.712,497.74 Z M157.772,497.74 C157.772,495.016 156.524,493.324 154.532,493.324 C152.528,493.324 151.268,495.028 151.268,497.752 C151.268,500.464 152.516,502.168 154.52,502.168 C156.524,502.168 157.772,500.452 157.772,497.74 L157.772,497.74 Z M156.872,497.74 C156.872,499.96 156.044,501.388 154.532,501.388 C153.008,501.388 152.168,499.96 152.168,497.74 C152.168,495.52 153.008,494.092 154.532,494.092 C156.044,494.092 156.872,495.52 156.872,497.74 L156.872,497.74 Z M159.26,492.484 C161.156,494.092 162.188,495.772 162.188,497.728 C162.188,499.804 161.3,501.268 159.44,502.504 L159.596,503.344 C161.888,501.928 163.136,500.128 163.136,497.752 C163.136,495.484 161.948,493.816 160.16,492.292 L159.26,492.484 Z" id="rgba(255,-205,-210," stroke="none" fill="#303030" fill-rule="evenodd"></path>
    <path d="M27.5,520.348 L27.356,519.508 C26.264,519.532 25.496,520.228 25.004,520.948 L24.788,519.64 L24.14,519.64 L24.14,526 L25.028,526 L25.028,522.016 C25.472,521.164 26.408,520.408 27.5,520.348 L27.5,520.348 Z M34.556,522.82 C34.556,520.72 33.272,519.508 31.568,519.508 C29.9,519.508 28.604,520.72 28.604,522.82 C28.604,524.92 29.876,526.132 31.568,526.132 C33.248,526.132 34.556,524.92 34.556,522.82 L34.556,522.82 Z M33.644,522.82 C33.644,524.416 32.816,525.376 31.568,525.376 C30.356,525.376 29.528,524.368 29.528,522.82 C29.528,521.236 30.332,520.264 31.568,520.264 C32.804,520.264 33.644,521.272 33.644,522.82 L33.644,522.82 Z M37.4,526 L37.4,516.352 L36.512,516.508 L36.512,526 L37.4,526 Z M44.828,525.232 L44.696,524.428 C44.024,524.98 43.244,525.364 42.38,525.364 C41.036,525.364 40.28,524.452 40.256,522.88 L44.84,522.88 L44.84,522.688 C44.84,520.924 43.964,519.508 42.176,519.508 C40.544,519.508 39.344,520.78 39.344,522.808 C39.344,525.004 40.592,526.132 42.32,526.132 C43.328,526.132 44.18,525.772 44.828,525.232 L44.828,525.232 Z M42.164,520.216 C43.244,520.216 43.844,521.032 43.928,522.184 L40.292,522.184 C40.46,520.912 41.18,520.216 42.164,520.216 L42.164,520.216 Z M47.732,520.96 L47.732,519.64 L46.676,519.64 L46.676,520.96 L47.732,520.96 Z M47.732,526 L47.732,524.68 L46.676,524.68 L46.676,526 L47.732,526 Z" id="role:" stroke="none" fill="#303030" fill-rule="evenodd"></path>
    <polygon id="#96908C" stroke="none" fill="#F23C79" fill-rule="evenodd" points="229 29 409 29 409 159 229 159"></polygon>
    <path d="M236.532,172.72 C236.532,170.886 235.216,169.85 233.06,169.85 L230.47,169.85 L230.47,180 L231.52,180 L231.52,175.744 L232.822,175.744 C234.992,175.744 236.532,174.722 236.532,172.72 L236.532,172.72 Z M235.454,172.762 C235.454,174.134 234.488,174.806 232.878,174.806 L231.52,174.806 L231.52,170.788 L233.004,170.788 C234.6,170.788 235.454,171.46 235.454,172.762 L235.454,172.762 Z M239.948,170.06 C239.948,169.654 239.612,169.318 239.192,169.318 C238.772,169.318 238.422,169.654 238.422,170.06 C238.422,170.466 238.772,170.816 239.192,170.816 C239.612,170.816 239.948,170.466 239.948,170.06 L239.948,170.06 Z M239.71,180 L239.71,172.58 L238.674,172.58 L238.674,180 L239.71,180 Z M248.53,180 L248.53,174.694 C248.53,173.28 247.76,172.426 246.22,172.426 C245.17,172.426 244.302,172.958 243.448,173.672 L243.266,172.58 L242.468,172.58 L242.468,180 L243.504,180 L243.504,174.638 C244.358,173.84 245.198,173.364 246.024,173.364 C247.018,173.364 247.48,173.938 247.48,174.89 L247.48,180 L248.53,180 Z M257.14,179.902 L253.262,175.884 L256.888,172.58 L255.53,172.58 L252.142,175.772 L252.142,168.744 L251.106,168.926 L251.106,180 L252.142,180 L252.142,176.066 L255.992,180.112 L257.14,179.902 Z" id="Pink" stroke="none" fill="#303030" fill-rule="evenodd"></path>
    <path d="M232.288,201.48 L234.712,201.48 L234.304,204 L231.868,204 L232.288,201.48 Z M235.9,198.54 L235.228,198.396 L234.832,200.736 L232.408,200.736 L232.78,198.456 L232.084,198.456 L231.7,200.736 L229.888,200.736 L230.008,201.48 L231.58,201.48 L231.172,204 L229.624,204 L229.624,204.744 L231.052,204.744 L230.692,206.94 L231.364,207.084 L231.736,204.744 L234.172,204.744 L233.8,207.024 L234.496,207.024 L234.868,204.744 L236.692,204.744 L236.572,204 L235,204 L235.408,201.48 L236.956,201.48 L236.956,200.736 L235.54,200.736 L235.9,198.54 Z M244.924,202.74 C244.924,200.016 243.676,198.324 241.684,198.324 C239.68,198.324 238.42,200.028 238.42,202.752 C238.42,205.464 239.668,207.168 241.672,207.168 C243.676,207.168 244.924,205.452 244.924,202.74 L244.924,202.74 Z M244.024,202.74 C244.024,204.96 243.196,206.388 241.684,206.388 C240.16,206.388 239.32,204.96 239.32,202.74 C239.32,200.52 240.16,199.092 241.684,199.092 C243.196,199.092 244.024,200.52 244.024,202.74 L244.024,202.74 Z M253.084,202.74 C253.084,200.016 251.836,198.324 249.844,198.324 C247.84,198.324 246.58,200.028 246.58,202.752 C246.58,205.464 247.828,207.168 249.832,207.168 C251.836,207.168 253.084,205.452 253.084,202.74 L253.084,202.74 Z M252.184,202.74 C252.184,204.96 251.356,206.388 249.844,206.388 C248.32,206.388 247.48,204.96 247.48,202.74 C247.48,200.52 248.32,199.092 249.844,199.092 C251.356,199.092 252.184,200.52 252.184,202.74 L252.184,202.74 Z M254.464,207 L255.412,207 L256.516,204.216 L260.452,204.216 L261.616,207.084 L262.516,206.892 L258.964,198.264 L258.028,198.264 L254.464,207 Z M258.484,199.308 L260.128,203.412 L256.828,203.412 L258.484,199.308 Z M266.38,207 L266.38,198.444 L265.672,198.444 L263.5,199.404 L263.608,200.112 L265.516,199.392 L265.516,207 L266.38,207 Z M269.644,206.376 L269.776,207.18 C272.632,206.52 274.516,204.816 274.516,201.924 C274.516,199.668 273.244,198.324 271.408,198.324 C269.668,198.324 268.504,199.512 268.504,201.108 C268.504,202.728 269.572,203.736 271.204,203.736 C272.068,203.736 272.848,203.46 273.556,203.004 C273.172,204.876 271.732,205.932 269.644,206.376 L269.644,206.376 Z M271.348,202.956 C270.052,202.956 269.392,202.212 269.392,201.072 C269.392,199.86 270.16,199.08 271.396,199.08 C272.728,199.08 273.664,200.232 273.664,201.984 L273.664,202.128 C272.98,202.644 272.176,202.956 271.348,202.956 L271.348,202.956 Z M275.92,207 L276.868,207 L277.972,204.216 L281.908,204.216 L283.072,207.084 L283.972,206.892 L280.42,198.264 L279.484,198.264 L275.92,207 Z M279.94,199.308 L281.584,203.412 L278.284,203.412 L279.94,199.308 Z" id="#00A19A" stroke="none" fill="#303030" fill-rule="evenodd"></path>
    <path d="M233.5,225.348 L233.356,224.508 C232.264,224.532 231.496,225.228 231.004,225.948 L230.788,224.64 L230.14,224.64 L230.14,231 L231.028,231 L231.028,227.016 C231.472,226.164 232.408,225.408 233.5,225.348 L233.5,225.348 Z M238.78,226.668 C238.78,227.52 238.168,228.18 237.184,228.18 C236.212,228.18 235.612,227.52 235.612,226.692 C235.612,225.828 236.212,225.18 237.172,225.18 C238.12,225.18 238.78,225.828 238.78,226.668 L238.78,226.668 Z M240.412,231.504 C240.412,230.568 239.608,230.16 238.144,229.896 L237.652,229.8 C236.44,229.584 236.164,229.5 236.164,229.236 C236.164,229.092 236.308,228.936 236.596,228.792 C236.788,228.828 236.992,228.84 237.196,228.84 C238.504,228.84 239.656,228.024 239.656,226.68 C239.656,226.248 239.524,225.876 239.308,225.552 L240.628,225.408 L240.484,224.544 L238.828,225.048 C238.384,224.7 237.808,224.508 237.172,224.508 C235.888,224.508 234.724,225.336 234.724,226.68 C234.724,227.556 235.216,228.228 235.948,228.576 C235.504,228.828 235.276,229.092 235.276,229.404 C235.276,229.656 235.432,229.884 235.768,230.088 C234.772,230.568 234.256,231.132 234.256,231.768 C234.256,232.86 235.576,233.412 237.268,233.412 C238.984,233.412 240.412,232.74 240.412,231.504 L240.412,231.504 Z M237.304,230.532 L237.928,230.64 C239.116,230.856 239.548,231.132 239.548,231.624 C239.548,232.248 238.672,232.74 237.328,232.74 C236.032,232.74 235.144,232.368 235.144,231.708 C235.144,231.204 235.576,230.76 236.5,230.364 C236.752,230.424 236.968,230.472 237.304,230.532 L237.304,230.532 Z M247.732,227.64 C247.732,225.516 246.52,224.508 245.068,224.508 C244.156,224.508 243.508,224.976 243.028,225.468 L243.028,221.352 L242.14,221.508 L242.14,230.664 C242.86,230.916 243.616,231.084 244.528,231.084 C246.352,231.084 247.732,229.956 247.732,227.64 L247.732,227.64 Z M246.82,227.676 C246.82,229.5 245.884,230.316 244.576,230.316 C243.892,230.316 243.448,230.208 243.028,230.052 L243.028,226.416 C243.628,225.744 244.24,225.312 244.984,225.312 C246.052,225.312 246.82,226.14 246.82,227.676 L246.82,227.676 Z M253.432,229.416 C252.784,230.004 251.992,230.376 251.284,230.376 C250.588,230.376 250.084,230.016 250.084,229.344 C250.084,228.48 250.828,227.892 253.432,227.628 L253.432,229.416 Z M254.32,231 L254.32,226.464 C254.32,225.156 253.576,224.508 252.124,224.508 C251.188,224.508 250.432,224.736 249.664,225.06 L249.784,225.852 C250.516,225.516 251.284,225.3 252.052,225.3 C252.904,225.3 253.432,225.66 253.432,226.512 L253.432,226.932 C250.432,227.208 249.184,227.904 249.184,229.404 C249.184,230.52 250.024,231.132 251.164,231.132 C252.1,231.132 252.868,230.7 253.492,230.148 L253.648,231 L254.32,231 Z M260.308,232.092 C258.412,230.472 257.38,228.804 257.38,226.836 C257.38,224.772 258.28,223.308 260.128,222.072 L259.972,221.232 C257.68,222.636 256.432,224.448 256.432,226.824 C256.432,229.092 257.62,230.76 259.408,232.284 L260.308,232.092 Z M268.3,226.74 C268.3,224.016 267.052,222.324 265.06,222.324 C263.056,222.324 261.796,224.028 261.796,226.752 C261.796,229.464 263.044,231.168 265.048,231.168 C267.052,231.168 268.3,229.452 268.3,226.74 L268.3,226.74 Z M267.4,226.74 C267.4,228.96 266.572,230.388 265.06,230.388 C263.536,230.388 262.696,228.96 262.696,226.74 C262.696,224.52 263.536,223.092 265.06,223.092 C266.572,223.092 267.4,224.52 267.4,226.74 L267.4,226.74 Z M271.456,229.68 L270.364,229.68 L269.632,232.668 L270.124,232.788 L271.456,229.68 Z M278.74,231 L278.74,222.444 L278.032,222.444 L275.86,223.404 L275.968,224.112 L277.876,223.392 L277.876,231 L278.74,231 Z M285.76,223.104 L285.64,222.312 C282.88,223.044 281.02,224.664 281.02,227.556 C281.02,229.824 282.328,231.168 284.14,231.168 C285.808,231.168 287.044,230.052 287.044,228.408 C287.044,226.848 285.988,225.852 284.344,225.852 C283.468,225.852 282.676,226.14 281.956,226.62 C282.28,224.712 283.708,223.644 285.76,223.104 L285.76,223.104 Z M284.188,226.632 C285.508,226.632 286.144,227.364 286.144,228.444 C286.144,229.644 285.352,230.4 284.164,230.4 C282.82,230.4 281.884,229.224 281.884,227.508 L281.884,227.484 C282.568,226.968 283.336,226.632 284.188,226.632 L284.188,226.632 Z M291.04,231 L291.04,222.444 L290.332,222.444 L288.16,223.404 L288.268,224.112 L290.176,223.392 L290.176,231 L291.04,231 Z M294.808,229.68 L293.716,229.68 L292.984,232.668 L293.476,232.788 L294.808,229.68 Z M302.092,231 L302.092,222.444 L301.384,222.444 L299.212,223.404 L299.32,224.112 L301.228,223.392 L301.228,231 L302.092,231 Z M309.88,228.372 C309.88,226.824 308.764,225.828 306.988,225.828 C306.328,225.828 305.86,225.948 305.476,226.08 L305.692,223.26 L309.544,223.26 L309.424,222.48 L304.948,222.48 L304.648,226.776 L305.236,226.92 C305.692,226.74 306.172,226.596 306.904,226.596 C308.236,226.596 308.98,227.304 308.98,228.42 C308.98,229.716 307.948,230.388 306.736,230.388 C305.776,230.388 305.044,230.1 304.384,229.68 L304.252,230.532 C304.864,230.892 305.644,231.156 306.7,231.156 C308.452,231.156 309.88,230.124 309.88,228.372 L309.88,228.372 Z M318.016,228.996 L318.016,228.264 L316.552,228.264 L316.552,222.444 L315.496,222.444 L311.2,228.372 L311.2,228.996 L315.736,228.996 L315.736,231 L316.552,231 L316.552,228.996 L318.016,228.996 Z M315.736,228.264 L312.172,228.264 L315.736,223.416 L315.736,228.264 Z M320.812,229.68 L319.72,229.68 L318.988,232.668 L319.48,232.788 L320.812,229.68 Z M328.096,231 L328.096,222.444 L327.388,222.444 L325.216,223.404 L325.324,224.112 L327.232,223.392 L327.232,231 L328.096,231 Z M336.868,226.74 C336.868,224.016 335.62,222.324 333.628,222.324 C331.624,222.324 330.364,224.028 330.364,226.752 C330.364,229.464 331.612,231.168 333.616,231.168 C335.62,231.168 336.868,229.452 336.868,226.74 L336.868,226.74 Z M335.968,226.74 C335.968,228.96 335.14,230.388 333.628,230.388 C332.104,230.388 331.264,228.96 331.264,226.74 C331.264,224.52 332.104,223.092 333.628,223.092 C335.14,223.092 335.968,224.52 335.968,226.74 L335.968,226.74 Z M345.028,226.74 C345.028,224.016 343.78,222.324 341.788,222.324 C339.784,222.324 338.524,224.028 338.524,226.752 C338.524,229.464 339.772,231.168 341.776,231.168 C343.78,231.168 345.028,229.452 345.028,226.74 L345.028,226.74 Z M344.128,226.74 C344.128,228.96 343.3,230.388 341.788,230.388 C340.264,230.388 339.424,228.96 339.424,226.74 C339.424,224.52 340.264,223.092 341.788,223.092 C343.3,223.092 344.128,224.52 344.128,226.74 L344.128,226.74 Z M346.516,221.484 C348.412,223.092 349.444,224.772 349.444,226.728 C349.444,228.804 348.556,230.268 346.696,231.504 L346.852,232.344 C349.144,230.928 350.392,229.128 350.392,226.752 C350.392,224.484 349.204,222.816 347.416,221.292 L346.516,221.484 Z" id="rgba(0,-161,-154,-10" stroke="none" fill="#303030" fill-rule="evenodd"></path>
    <path d="M234.5,249.348 L234.356,248.508 C233.264,248.532 232.496,249.228 232.004,249.948 L231.788,248.64 L231.14,248.64 L231.14,255 L232.028,255 L232.028,251.016 C232.472,250.164 233.408,249.408 234.5,249.348 L234.5,249.348 Z M241.556,251.82 C241.556,249.72 240.272,248.508 238.568,248.508 C236.9,248.508 235.604,249.72 235.604,251.82 C235.604,253.92 236.876,255.132 238.568,255.132 C240.248,255.132 241.556,253.92 241.556,251.82 L241.556,251.82 Z M240.644,251.82 C240.644,253.416 239.816,254.376 238.568,254.376 C237.356,254.376 236.528,253.368 236.528,251.82 C236.528,250.236 237.332,249.264 238.568,249.264 C239.804,249.264 240.644,250.272 240.644,251.82 L240.644,251.82 Z M244.4,255 L244.4,245.352 L243.512,245.508 L243.512,255 L244.4,255 Z M251.828,254.232 L251.696,253.428 C251.024,253.98 250.244,254.364 249.38,254.364 C248.036,254.364 247.28,253.452 247.256,251.88 L251.84,251.88 L251.84,251.688 C251.84,249.924 250.964,248.508 249.176,248.508 C247.544,248.508 246.344,249.78 246.344,251.808 C246.344,254.004 247.592,255.132 249.32,255.132 C250.328,255.132 251.18,254.772 251.828,254.232 L251.828,254.232 Z M249.164,249.216 C250.244,249.216 250.844,250.032 250.928,251.184 L247.292,251.184 C247.46,249.912 248.18,249.216 249.164,249.216 L249.164,249.216 Z M254.732,249.96 L254.732,248.64 L253.676,248.64 L253.676,249.96 L254.732,249.96 Z M254.732,255 L254.732,253.68 L253.676,253.68 L253.676,255 L254.732,255 Z" id="role:" stroke="none" fill="#303030" fill-rule="evenodd"></path>
    <polygon id="#96908C" stroke="none" fill="#BFCD00" fill-rule="evenodd" points="229 300 409 300 409 430 229 430"></polygon>
    <path d="M235.734,451 L235.58,450.02 L231.52,450.02 L231.52,440.85 L230.47,440.85 L230.47,451 L235.734,451 Z M238.954,441.06 C238.954,440.654 238.618,440.318 238.198,440.318 C237.778,440.318 237.428,440.654 237.428,441.06 C237.428,441.466 237.778,441.816 238.198,441.816 C238.618,441.816 238.954,441.466 238.954,441.06 L238.954,441.06 Z M238.716,451 L238.716,443.58 L237.68,443.58 L237.68,451 L238.716,451 Z M252.366,451 L252.366,445.68 C252.366,444.266 251.652,443.426 250.112,443.426 C249.048,443.426 248.152,443.972 247.298,444.714 C247.018,443.888 246.36,443.426 245.184,443.426 C244.148,443.426 243.294,443.958 242.454,444.658 L242.272,443.58 L241.474,443.58 L241.474,451 L242.51,451 L242.51,445.61 C243.364,444.84 244.176,444.364 244.974,444.364 C245.982,444.364 246.402,444.938 246.402,445.89 L246.402,451 L247.438,451 L247.438,445.624 C248.292,444.84 249.104,444.364 249.902,444.364 C250.896,444.364 251.316,444.938 251.316,445.89 L251.316,451 L252.366,451 Z M260.85,450.104 L260.696,449.166 C259.912,449.81 259.002,450.258 257.994,450.258 C256.426,450.258 255.544,449.194 255.516,447.36 L260.864,447.36 L260.864,447.136 C260.864,445.078 259.842,443.426 257.756,443.426 C255.852,443.426 254.452,444.91 254.452,447.276 C254.452,449.838 255.908,451.154 257.924,451.154 C259.1,451.154 260.094,450.734 260.85,450.104 L260.85,450.104 Z M257.742,444.252 C259.002,444.252 259.702,445.204 259.8,446.548 L255.558,446.548 C255.754,445.064 256.594,444.252 257.742,444.252 L257.742,444.252 Z" id="Lime" stroke="none" fill="#303030" fill-rule="evenodd"></path>
    <path d="M232.288,472.48 L234.712,472.48 L234.304,475 L231.868,475 L232.288,472.48 Z M235.9,469.54 L235.228,469.396 L234.832,471.736 L232.408,471.736 L232.78,469.456 L232.084,469.456 L231.7,471.736 L229.888,471.736 L230.008,472.48 L231.58,472.48 L231.172,475 L229.624,475 L229.624,475.744 L231.052,475.744 L230.692,477.94 L231.364,478.084 L231.736,475.744 L234.172,475.744 L233.8,478.024 L234.496,478.024 L234.868,475.744 L236.692,475.744 L236.572,475 L235,475 L235.408,472.48 L236.956,472.48 L236.956,471.736 L235.54,471.736 L235.9,469.54 Z M244.144,475.492 C244.144,474.328 243.436,473.668 242.368,473.38 C243.196,473.044 243.736,472.408 243.736,471.484 C243.736,470.188 242.812,469.3 240.94,469.3 L238.852,469.3 L238.852,478 L240.928,478 C242.872,478 244.144,477.16 244.144,475.492 L244.144,475.492 Z M242.836,471.52 C242.836,472.42 242.164,473.068 240.88,473.068 L239.74,473.068 L239.74,470.092 L240.916,470.092 C242.212,470.092 242.836,470.632 242.836,471.52 L242.836,471.52 Z M243.232,475.54 C243.232,476.608 242.38,477.22 241,477.22 L239.74,477.22 L239.74,473.824 L240.952,473.824 C242.368,473.824 243.232,474.376 243.232,475.54 L243.232,475.54 Z M251.14,478 L251.032,477.232 L246.736,477.232 L249.46,474.508 C250.54,473.416 250.996,472.696 250.996,471.652 C250.996,470.248 250.024,469.324 248.38,469.324 C247.3,469.324 246.448,469.732 245.788,470.26 L245.92,471.136 C246.616,470.548 247.42,470.116 248.332,470.116 C249.436,470.116 250.084,470.68 250.084,471.7 C250.084,472.492 249.76,473.068 248.812,474.016 L245.56,477.352 L245.56,478 L251.14,478 Z M260.38,473.644 C260.38,471.064 258.688,469.3 255.676,469.3 L253.216,469.3 L253.216,478 L255.628,478 C258.556,478 260.38,476.296 260.38,473.644 L260.38,473.644 Z M259.444,473.656 C259.444,476.008 257.98,477.184 255.688,477.184 L254.116,477.184 L254.116,470.128 L255.688,470.128 C257.932,470.128 259.444,471.34 259.444,473.656 L259.444,473.656 Z M267.028,470.14 L267.028,469.3 L262.492,469.3 L262.492,478 L263.392,478 L263.392,474.004 L266.428,474.004 L266.296,473.176 L263.392,473.176 L263.392,470.14 L267.028,470.14 Z M276.004,473.644 C276.004,471.064 274.312,469.3 271.3,469.3 L268.84,469.3 L268.84,478 L271.252,478 C274.18,478 276.004,476.296 276.004,473.644 L276.004,473.644 Z M275.068,473.656 C275.068,476.008 273.604,477.184 271.312,477.184 L269.74,477.184 L269.74,470.128 L271.312,470.128 C273.556,470.128 275.068,471.34 275.068,473.656 L275.068,473.656 Z M283.408,475.492 C283.408,474.328 282.7,473.668 281.632,473.38 C282.46,473.044 283,472.408 283,471.484 C283,470.188 282.076,469.3 280.204,469.3 L278.116,469.3 L278.116,478 L280.192,478 C282.136,478 283.408,477.16 283.408,475.492 L283.408,475.492 Z M282.1,471.52 C282.1,472.42 281.428,473.068 280.144,473.068 L279.004,473.068 L279.004,470.092 L280.18,470.092 C281.476,470.092 282.1,470.632 282.1,471.52 L282.1,471.52 Z M282.496,475.54 C282.496,476.608 281.644,477.22 280.264,477.22 L279.004,477.22 L279.004,473.824 L280.216,473.824 C281.632,473.824 282.496,474.376 282.496,475.54 L282.496,475.54 Z" id="#B2DFDB" stroke="none" fill="#303030" fill-rule="evenodd"></path>
    <path d="M233.5,496.348 L233.356,495.508 C232.264,495.532 231.496,496.228 231.004,496.948 L230.788,495.64 L230.14,495.64 L230.14,502 L231.028,502 L231.028,498.016 C231.472,497.164 232.408,496.408 233.5,496.348 L233.5,496.348 Z M238.78,497.668 C238.78,498.52 238.168,499.18 237.184,499.18 C236.212,499.18 235.612,498.52 235.612,497.692 C235.612,496.828 236.212,496.18 237.172,496.18 C238.12,496.18 238.78,496.828 238.78,497.668 L238.78,497.668 Z M240.412,502.504 C240.412,501.568 239.608,501.16 238.144,500.896 L237.652,500.8 C236.44,500.584 236.164,500.5 236.164,500.236 C236.164,500.092 236.308,499.936 236.596,499.792 C236.788,499.828 236.992,499.84 237.196,499.84 C238.504,499.84 239.656,499.024 239.656,497.68 C239.656,497.248 239.524,496.876 239.308,496.552 L240.628,496.408 L240.484,495.544 L238.828,496.048 C238.384,495.7 237.808,495.508 237.172,495.508 C235.888,495.508 234.724,496.336 234.724,497.68 C234.724,498.556 235.216,499.228 235.948,499.576 C235.504,499.828 235.276,500.092 235.276,500.404 C235.276,500.656 235.432,500.884 235.768,501.088 C234.772,501.568 234.256,502.132 234.256,502.768 C234.256,503.86 235.576,504.412 237.268,504.412 C238.984,504.412 240.412,503.74 240.412,502.504 L240.412,502.504 Z M237.304,501.532 L237.928,501.64 C239.116,501.856 239.548,502.132 239.548,502.624 C239.548,503.248 238.672,503.74 237.328,503.74 C236.032,503.74 235.144,503.368 235.144,502.708 C235.144,502.204 235.576,501.76 236.5,501.364 C236.752,501.424 236.968,501.472 237.304,501.532 L237.304,501.532 Z M247.732,498.64 C247.732,496.516 246.52,495.508 245.068,495.508 C244.156,495.508 243.508,495.976 243.028,496.468 L243.028,492.352 L242.14,492.508 L242.14,501.664 C242.86,501.916 243.616,502.084 244.528,502.084 C246.352,502.084 247.732,500.956 247.732,498.64 L247.732,498.64 Z M246.82,498.676 C246.82,500.5 245.884,501.316 244.576,501.316 C243.892,501.316 243.448,501.208 243.028,501.052 L243.028,497.416 C243.628,496.744 244.24,496.312 244.984,496.312 C246.052,496.312 246.82,497.14 246.82,498.676 L246.82,498.676 Z M253.432,500.416 C252.784,501.004 251.992,501.376 251.284,501.376 C250.588,501.376 250.084,501.016 250.084,500.344 C250.084,499.48 250.828,498.892 253.432,498.628 L253.432,500.416 Z M254.32,502 L254.32,497.464 C254.32,496.156 253.576,495.508 252.124,495.508 C251.188,495.508 250.432,495.736 249.664,496.06 L249.784,496.852 C250.516,496.516 251.284,496.3 252.052,496.3 C252.904,496.3 253.432,496.66 253.432,497.512 L253.432,497.932 C250.432,498.208 249.184,498.904 249.184,500.404 C249.184,501.52 250.024,502.132 251.164,502.132 C252.1,502.132 252.868,501.7 253.492,501.148 L253.648,502 L254.32,502 Z M260.308,503.092 C258.412,501.472 257.38,499.804 257.38,497.836 C257.38,495.772 258.28,494.308 260.128,493.072 L259.972,492.232 C257.68,493.636 256.432,495.448 256.432,497.824 C256.432,500.092 257.62,501.76 259.408,503.284 L260.308,503.092 Z M264.28,502 L264.28,493.444 L263.572,493.444 L261.4,494.404 L261.508,495.112 L263.416,494.392 L263.416,502 L264.28,502 Z M272.032,494.14 L272.032,493.48 L266.368,493.48 L266.488,494.272 L271.048,494.272 L267.52,501.892 L268.372,502.084 L272.032,494.14 Z M273.58,499.852 C273.58,501.124 274.708,502.168 276.58,502.168 C278.332,502.168 279.58,501.136 279.58,499.84 C279.58,498.676 278.884,498.016 277.72,497.536 C278.608,497.056 279.292,496.396 279.292,495.424 C279.292,494.236 278.272,493.324 276.64,493.324 C275.056,493.324 273.916,494.236 273.916,495.448 C273.916,496.432 274.48,497.068 275.452,497.512 C274.312,498.052 273.58,498.82 273.58,499.852 L273.58,499.852 Z M274.792,495.436 C274.792,494.716 275.452,494.044 276.616,494.044 C277.708,494.044 278.416,494.656 278.416,495.472 C278.416,496.204 277.828,496.828 276.916,497.248 C275.296,496.708 274.792,496.264 274.792,495.436 L274.792,495.436 Z M274.456,499.804 C274.456,498.952 275.176,498.244 276.268,497.812 C278.128,498.436 278.704,498.892 278.704,499.816 C278.704,500.764 277.78,501.436 276.604,501.436 C275.344,501.436 274.456,500.764 274.456,499.804 L274.456,499.804 Z M282.688,500.68 L281.596,500.68 L280.864,503.668 L281.356,503.788 L282.688,500.68 Z M292.948,502 L292.84,501.232 L288.544,501.232 L291.268,498.508 C292.348,497.416 292.804,496.696 292.804,495.652 C292.804,494.248 291.832,493.324 290.188,493.324 C289.108,493.324 288.256,493.732 287.596,494.26 L287.728,495.136 C288.424,494.548 289.228,494.116 290.14,494.116 C291.244,494.116 291.892,494.68 291.892,495.7 C291.892,496.492 291.568,497.068 290.62,498.016 L287.368,501.352 L287.368,502 L292.948,502 Z M300.052,502 L299.944,501.232 L295.648,501.232 L298.372,498.508 C299.452,497.416 299.908,496.696 299.908,495.652 C299.908,494.248 298.936,493.324 297.292,493.324 C296.212,493.324 295.36,493.732 294.7,494.26 L294.832,495.136 C295.528,494.548 296.332,494.116 297.244,494.116 C298.348,494.116 298.996,494.68 298.996,495.7 C298.996,496.492 298.672,497.068 297.724,498.016 L294.472,501.352 L294.472,502 L300.052,502 Z M306.988,499.696 C306.988,498.496 306.28,497.812 305.128,497.5 C306.064,497.2 306.82,496.588 306.82,495.484 C306.82,494.332 305.98,493.324 304.18,493.324 C303.112,493.324 302.32,493.624 301.636,494.104 L301.756,494.932 C302.428,494.44 303.208,494.104 304.132,494.104 C305.308,494.104 305.92,494.704 305.92,495.52 C305.92,496.516 305.128,497.116 303.604,497.116 L303.016,497.116 L303.124,497.92 L303.52,497.92 C305.296,497.92 306.088,498.604 306.088,499.708 C306.088,500.728 305.296,501.376 304.024,501.376 C303.088,501.376 302.404,501.124 301.648,500.632 L301.492,501.496 C302.14,501.892 303.028,502.168 303.988,502.168 C305.764,502.168 306.988,501.148 306.988,499.696 L306.988,499.696 Z M310.144,500.68 L309.052,500.68 L308.32,503.668 L308.812,503.788 L310.144,500.68 Z M320.404,502 L320.296,501.232 L316,501.232 L318.724,498.508 C319.804,497.416 320.26,496.696 320.26,495.652 C320.26,494.248 319.288,493.324 317.644,493.324 C316.564,493.324 315.712,493.732 315.052,494.26 L315.184,495.136 C315.88,494.548 316.684,494.116 317.596,494.116 C318.7,494.116 319.348,494.68 319.348,495.7 C319.348,496.492 319.024,497.068 318.076,498.016 L314.824,501.352 L314.824,502 L320.404,502 Z M324.532,502 L324.532,493.444 L323.824,493.444 L321.652,494.404 L321.76,495.112 L323.668,494.392 L323.668,502 L324.532,502 Z M327.796,501.376 L327.928,502.18 C330.784,501.52 332.668,499.816 332.668,496.924 C332.668,494.668 331.396,493.324 329.56,493.324 C327.82,493.324 326.656,494.512 326.656,496.108 C326.656,497.728 327.724,498.736 329.356,498.736 C330.22,498.736 331,498.46 331.708,498.004 C331.324,499.876 329.884,500.932 327.796,501.376 L327.796,501.376 Z M329.5,497.956 C328.204,497.956 327.544,497.212 327.544,496.072 C327.544,494.86 328.312,494.08 329.548,494.08 C330.88,494.08 331.816,495.232 331.816,496.984 L331.816,497.128 C331.132,497.644 330.328,497.956 329.5,497.956 L329.5,497.956 Z M335.848,500.68 L334.756,500.68 L334.024,503.668 L334.516,503.788 L335.848,500.68 Z M343.132,502 L343.132,493.444 L342.424,493.444 L340.252,494.404 L340.36,495.112 L342.268,494.392 L342.268,502 L343.132,502 Z M351.904,497.74 C351.904,495.016 350.656,493.324 348.664,493.324 C346.66,493.324 345.4,495.028 345.4,497.752 C345.4,500.464 346.648,502.168 348.652,502.168 C350.656,502.168 351.904,500.452 351.904,497.74 L351.904,497.74 Z M351.004,497.74 C351.004,499.96 350.176,501.388 348.664,501.388 C347.14,501.388 346.3,499.96 346.3,497.74 C346.3,495.52 347.14,494.092 348.664,494.092 C350.176,494.092 351.004,495.52 351.004,497.74 L351.004,497.74 Z M360.064,497.74 C360.064,495.016 358.816,493.324 356.824,493.324 C354.82,493.324 353.56,495.028 353.56,497.752 C353.56,500.464 354.808,502.168 356.812,502.168 C358.816,502.168 360.064,500.452 360.064,497.74 L360.064,497.74 Z M359.164,497.74 C359.164,499.96 358.336,501.388 356.824,501.388 C355.3,501.388 354.46,499.96 354.46,497.74 C354.46,495.52 355.3,494.092 356.824,494.092 C358.336,494.092 359.164,495.52 359.164,497.74 L359.164,497.74 Z M361.552,492.484 C363.448,494.092 364.48,495.772 364.48,497.728 C364.48,499.804 363.592,501.268 361.732,502.504 L361.888,503.344 C364.18,501.928 365.428,500.128 365.428,497.752 C365.428,495.484 364.24,493.816 362.452,492.292 L361.552,492.484 Z" id="rgba(178,-223,-219," stroke="none" fill="#303030" fill-rule="evenodd"></path>
    <path d="M234.5,520.348 L234.356,519.508 C233.264,519.532 232.496,520.228 232.004,520.948 L231.788,519.64 L231.14,519.64 L231.14,526 L232.028,526 L232.028,522.016 C232.472,521.164 233.408,520.408 234.5,520.348 L234.5,520.348 Z M241.556,522.82 C241.556,520.72 240.272,519.508 238.568,519.508 C236.9,519.508 235.604,520.72 235.604,522.82 C235.604,524.92 236.876,526.132 238.568,526.132 C240.248,526.132 241.556,524.92 241.556,522.82 L241.556,522.82 Z M240.644,522.82 C240.644,524.416 239.816,525.376 238.568,525.376 C237.356,525.376 236.528,524.368 236.528,522.82 C236.528,521.236 237.332,520.264 238.568,520.264 C239.804,520.264 240.644,521.272 240.644,522.82 L240.644,522.82 Z M244.4,526 L244.4,516.352 L243.512,516.508 L243.512,526 L244.4,526 Z M251.828,525.232 L251.696,524.428 C251.024,524.98 250.244,525.364 249.38,525.364 C248.036,525.364 247.28,524.452 247.256,522.88 L251.84,522.88 L251.84,522.688 C251.84,520.924 250.964,519.508 249.176,519.508 C247.544,519.508 246.344,520.78 246.344,522.808 C246.344,525.004 247.592,526.132 249.32,526.132 C250.328,526.132 251.18,525.772 251.828,525.232 L251.828,525.232 Z M249.164,520.216 C250.244,520.216 250.844,521.032 250.928,522.184 L247.292,522.184 C247.46,520.912 248.18,520.216 249.164,520.216 L249.164,520.216 Z M254.732,520.96 L254.732,519.64 L253.676,519.64 L253.676,520.96 L254.732,520.96 Z M254.732,526 L254.732,524.68 L253.676,524.68 L253.676,526 L254.732,526 Z" id="role:" stroke="none" fill="#303030" fill-rule="evenodd"></path>
    <polygon id="#F4F4F4" stroke="none" fill="#FFB939" fill-rule="evenodd" points="435 29 615 29 615 159 435 159"></polygon>
    <path d="M435.644,180 L436.75,180 L438.038,176.752 L442.63,176.752 L443.988,180.098 L445.038,179.874 L440.894,169.808 L439.802,169.808 L435.644,180 Z M440.334,171.026 L442.252,175.814 L438.402,175.814 L440.334,171.026 Z M457.904,180 L457.904,174.68 C457.904,173.266 457.19,172.426 455.65,172.426 C454.586,172.426 453.69,172.972 452.836,173.714 C452.556,172.888 451.898,172.426 450.722,172.426 C449.686,172.426 448.832,172.958 447.992,173.658 L447.81,172.58 L447.012,172.58 L447.012,180 L448.048,180 L448.048,174.61 C448.902,173.84 449.714,173.364 450.512,173.364 C451.52,173.364 451.94,173.938 451.94,174.89 L451.94,180 L452.976,180 L452.976,174.624 C453.83,173.84 454.642,173.364 455.44,173.364 C456.434,173.364 456.854,173.938 456.854,174.89 L456.854,180 L457.904,180 Z M467.004,176.08 C467.004,173.602 465.59,172.426 463.896,172.426 C462.832,172.426 462.076,172.972 461.516,173.546 L461.516,168.744 L460.48,168.926 L460.48,179.608 C461.32,179.902 462.202,180.098 463.266,180.098 C465.394,180.098 467.004,178.782 467.004,176.08 L467.004,176.08 Z M465.94,176.122 C465.94,178.25 464.848,179.202 463.322,179.202 C462.524,179.202 462.006,179.076 461.516,178.894 L461.516,174.652 C462.216,173.868 462.93,173.364 463.798,173.364 C465.044,173.364 465.94,174.33 465.94,176.122 L465.94,176.122 Z M475.11,179.104 L474.956,178.166 C474.172,178.81 473.262,179.258 472.254,179.258 C470.686,179.258 469.804,178.194 469.776,176.36 L475.124,176.36 L475.124,176.136 C475.124,174.078 474.102,172.426 472.016,172.426 C470.112,172.426 468.712,173.91 468.712,176.276 C468.712,178.838 470.168,180.154 472.184,180.154 C473.36,180.154 474.354,179.734 475.11,179.104 L475.11,179.104 Z M472.002,173.252 C473.262,173.252 473.962,174.204 474.06,175.548 L469.818,175.548 C470.014,174.064 470.854,173.252 472.002,173.252 L472.002,173.252 Z M481.228,173.406 L481.06,172.426 C479.786,172.454 478.89,173.266 478.316,174.106 L478.064,172.58 L477.308,172.58 L477.308,180 L478.344,180 L478.344,175.352 C478.862,174.358 479.954,173.476 481.228,173.406 L481.228,173.406 Z" id="Amber" stroke="none" fill="#303030" fill-rule="evenodd"></path>
    <path d="M438.288,201.48 L440.712,201.48 L440.304,204 L437.868,204 L438.288,201.48 Z M441.9,198.54 L441.228,198.396 L440.832,200.736 L438.408,200.736 L438.78,198.456 L438.084,198.456 L437.7,200.736 L435.888,200.736 L436.008,201.48 L437.58,201.48 L437.172,204 L435.624,204 L435.624,204.744 L437.052,204.744 L436.692,206.94 L437.364,207.084 L437.736,204.744 L440.172,204.744 L439.8,207.024 L440.496,207.024 L440.868,204.744 L442.692,204.744 L442.572,204 L441,204 L441.408,201.48 L442.956,201.48 L442.956,200.736 L441.54,200.736 L441.9,198.54 Z M449.88,207 L449.772,206.232 L445.476,206.232 L448.2,203.508 C449.28,202.416 449.736,201.696 449.736,200.652 C449.736,199.248 448.764,198.324 447.12,198.324 C446.04,198.324 445.188,198.732 444.528,199.26 L444.66,200.136 C445.356,199.548 446.16,199.116 447.072,199.116 C448.176,199.116 448.824,199.68 448.824,200.7 C448.824,201.492 448.5,202.068 447.552,203.016 L444.3,206.352 L444.3,207 L449.88,207 Z M456.492,199.14 L456.492,198.3 L451.956,198.3 L451.956,207 L452.856,207 L452.856,203.004 L455.892,203.004 L455.76,202.176 L452.856,202.176 L452.856,199.14 L456.492,199.14 Z M463.164,204.696 C463.164,203.496 462.456,202.812 461.304,202.5 C462.24,202.2 462.996,201.588 462.996,200.484 C462.996,199.332 462.156,198.324 460.356,198.324 C459.288,198.324 458.496,198.624 457.812,199.104 L457.932,199.932 C458.604,199.44 459.384,199.104 460.308,199.104 C461.484,199.104 462.096,199.704 462.096,200.52 C462.096,201.516 461.304,202.116 459.78,202.116 L459.192,202.116 L459.3,202.92 L459.696,202.92 C461.472,202.92 462.264,203.604 462.264,204.708 C462.264,205.728 461.472,206.376 460.2,206.376 C459.264,206.376 458.58,206.124 457.824,205.632 L457.668,206.496 C458.316,206.892 459.204,207.168 460.164,207.168 C461.94,207.168 463.164,206.148 463.164,204.696 L463.164,204.696 Z M470.28,207 L470.172,206.232 L465.876,206.232 L468.6,203.508 C469.68,202.416 470.136,201.696 470.136,200.652 C470.136,199.248 469.164,198.324 467.52,198.324 C466.44,198.324 465.588,198.732 464.928,199.26 L465.06,200.136 C465.756,199.548 466.56,199.116 467.472,199.116 C468.576,199.116 469.224,199.68 469.224,200.7 C469.224,201.492 468.9,202.068 467.952,203.016 L464.7,206.352 L464.7,207 L470.28,207 Z M477.216,204.696 C477.216,203.496 476.508,202.812 475.356,202.5 C476.292,202.2 477.048,201.588 477.048,200.484 C477.048,199.332 476.208,198.324 474.408,198.324 C473.34,198.324 472.548,198.624 471.864,199.104 L471.984,199.932 C472.656,199.44 473.436,199.104 474.36,199.104 C475.536,199.104 476.148,199.704 476.148,200.52 C476.148,201.516 475.356,202.116 473.832,202.116 L473.244,202.116 L473.352,202.92 L473.748,202.92 C475.524,202.92 476.316,203.604 476.316,204.708 C476.316,205.728 475.524,206.376 474.252,206.376 C473.316,206.376 472.632,206.124 471.876,205.632 L471.72,206.496 C472.368,206.892 473.256,207.168 474.216,207.168 C475.992,207.168 477.216,206.148 477.216,204.696 L477.216,204.696 Z M484.356,199.14 L484.356,198.48 L478.692,198.48 L478.812,199.272 L483.372,199.272 L479.844,206.892 L480.696,207.084 L484.356,199.14 Z" id="#2F3237" stroke="none" fill="#303030" fill-rule="evenodd"></path>
    <path d="M439.5,225.348 L439.356,224.508 C438.264,224.532 437.496,225.228 437.004,225.948 L436.788,224.64 L436.14,224.64 L436.14,231 L437.028,231 L437.028,227.016 C437.472,226.164 438.408,225.408 439.5,225.348 L439.5,225.348 Z M444.78,226.668 C444.78,227.52 444.168,228.18 443.184,228.18 C442.212,228.18 441.612,227.52 441.612,226.692 C441.612,225.828 442.212,225.18 443.172,225.18 C444.12,225.18 444.78,225.828 444.78,226.668 L444.78,226.668 Z M446.412,231.504 C446.412,230.568 445.608,230.16 444.144,229.896 L443.652,229.8 C442.44,229.584 442.164,229.5 442.164,229.236 C442.164,229.092 442.308,228.936 442.596,228.792 C442.788,228.828 442.992,228.84 443.196,228.84 C444.504,228.84 445.656,228.024 445.656,226.68 C445.656,226.248 445.524,225.876 445.308,225.552 L446.628,225.408 L446.484,224.544 L444.828,225.048 C444.384,224.7 443.808,224.508 443.172,224.508 C441.888,224.508 440.724,225.336 440.724,226.68 C440.724,227.556 441.216,228.228 441.948,228.576 C441.504,228.828 441.276,229.092 441.276,229.404 C441.276,229.656 441.432,229.884 441.768,230.088 C440.772,230.568 440.256,231.132 440.256,231.768 C440.256,232.86 441.576,233.412 443.268,233.412 C444.984,233.412 446.412,232.74 446.412,231.504 L446.412,231.504 Z M443.304,230.532 L443.928,230.64 C445.116,230.856 445.548,231.132 445.548,231.624 C445.548,232.248 444.672,232.74 443.328,232.74 C442.032,232.74 441.144,232.368 441.144,231.708 C441.144,231.204 441.576,230.76 442.5,230.364 C442.752,230.424 442.968,230.472 443.304,230.532 L443.304,230.532 Z M453.732,227.64 C453.732,225.516 452.52,224.508 451.068,224.508 C450.156,224.508 449.508,224.976 449.028,225.468 L449.028,221.352 L448.14,221.508 L448.14,230.664 C448.86,230.916 449.616,231.084 450.528,231.084 C452.352,231.084 453.732,229.956 453.732,227.64 L453.732,227.64 Z M452.82,227.676 C452.82,229.5 451.884,230.316 450.576,230.316 C449.892,230.316 449.448,230.208 449.028,230.052 L449.028,226.416 C449.628,225.744 450.24,225.312 450.984,225.312 C452.052,225.312 452.82,226.14 452.82,227.676 L452.82,227.676 Z M459.432,229.416 C458.784,230.004 457.992,230.376 457.284,230.376 C456.588,230.376 456.084,230.016 456.084,229.344 C456.084,228.48 456.828,227.892 459.432,227.628 L459.432,229.416 Z M460.32,231 L460.32,226.464 C460.32,225.156 459.576,224.508 458.124,224.508 C457.188,224.508 456.432,224.736 455.664,225.06 L455.784,225.852 C456.516,225.516 457.284,225.3 458.052,225.3 C458.904,225.3 459.432,225.66 459.432,226.512 L459.432,226.932 C456.432,227.208 455.184,227.904 455.184,229.404 C455.184,230.52 456.024,231.132 457.164,231.132 C458.1,231.132 458.868,230.7 459.492,230.148 L459.648,231 L460.32,231 Z M466.308,232.092 C464.412,230.472 463.38,228.804 463.38,226.836 C463.38,224.772 464.28,223.308 466.128,222.072 L465.972,221.232 C463.68,222.636 462.432,224.448 462.432,226.824 C462.432,229.092 463.62,230.76 465.408,232.284 L466.308,232.092 Z M474.3,226.74 C474.3,224.016 473.052,222.324 471.06,222.324 C469.056,222.324 467.796,224.028 467.796,226.752 C467.796,229.464 469.044,231.168 471.048,231.168 C473.052,231.168 474.3,229.452 474.3,226.74 L474.3,226.74 Z M473.4,226.74 C473.4,228.96 472.572,230.388 471.06,230.388 C469.536,230.388 468.696,228.96 468.696,226.74 C468.696,224.52 469.536,223.092 471.06,223.092 C472.572,223.092 473.4,224.52 473.4,226.74 L473.4,226.74 Z M477.456,229.68 L476.364,229.68 L475.632,232.668 L476.124,232.788 L477.456,229.68 Z M484.74,231 L484.74,222.444 L484.032,222.444 L481.86,223.404 L481.968,224.112 L483.876,223.392 L483.876,231 L484.74,231 Z M486.972,228.852 C486.972,230.124 488.1,231.168 489.972,231.168 C491.724,231.168 492.972,230.136 492.972,228.84 C492.972,227.676 492.276,227.016 491.112,226.536 C492,226.056 492.684,225.396 492.684,224.424 C492.684,223.236 491.664,222.324 490.032,222.324 C488.448,222.324 487.308,223.236 487.308,224.448 C487.308,225.432 487.872,226.068 488.844,226.512 C487.704,227.052 486.972,227.82 486.972,228.852 L486.972,228.852 Z M488.184,224.436 C488.184,223.716 488.844,223.044 490.008,223.044 C491.1,223.044 491.808,223.656 491.808,224.472 C491.808,225.204 491.22,225.828 490.308,226.248 C488.688,225.708 488.184,225.264 488.184,224.436 L488.184,224.436 Z M487.848,228.804 C487.848,227.952 488.568,227.244 489.66,226.812 C491.52,227.436 492.096,227.892 492.096,228.816 C492.096,229.764 491.172,230.436 489.996,230.436 C488.736,230.436 487.848,229.764 487.848,228.804 L487.848,228.804 Z M495.576,230.376 L495.708,231.18 C498.564,230.52 500.448,228.816 500.448,225.924 C500.448,223.668 499.176,222.324 497.34,222.324 C495.6,222.324 494.436,223.512 494.436,225.108 C494.436,226.728 495.504,227.736 497.136,227.736 C498,227.736 498.78,227.46 499.488,227.004 C499.104,228.876 497.664,229.932 495.576,230.376 L495.576,230.376 Z M497.28,226.956 C495.984,226.956 495.324,226.212 495.324,225.072 C495.324,223.86 496.092,223.08 497.328,223.08 C498.66,223.08 499.596,224.232 499.596,225.984 L499.596,226.128 C498.912,226.644 498.108,226.956 497.28,226.956 L497.28,226.956 Z M503.628,229.68 L502.536,229.68 L501.804,232.668 L502.296,232.788 L503.628,229.68 Z M510.912,231 L510.912,222.444 L510.204,222.444 L508.032,223.404 L508.14,224.112 L510.048,223.392 L510.048,231 L510.912,231 Z M513.144,228.852 C513.144,230.124 514.272,231.168 516.144,231.168 C517.896,231.168 519.144,230.136 519.144,228.84 C519.144,227.676 518.448,227.016 517.284,226.536 C518.172,226.056 518.856,225.396 518.856,224.424 C518.856,223.236 517.836,222.324 516.204,222.324 C514.62,222.324 513.48,223.236 513.48,224.448 C513.48,225.432 514.044,226.068 515.016,226.512 C513.876,227.052 513.144,227.82 513.144,228.852 L513.144,228.852 Z M514.356,224.436 C514.356,223.716 515.016,223.044 516.18,223.044 C517.272,223.044 517.98,223.656 517.98,224.472 C517.98,225.204 517.392,225.828 516.48,226.248 C514.86,225.708 514.356,225.264 514.356,224.436 L514.356,224.436 Z M514.02,228.804 C514.02,227.952 514.74,227.244 515.832,226.812 C517.692,227.436 518.268,227.892 518.268,228.816 C518.268,229.764 517.344,230.436 516.168,230.436 C514.908,230.436 514.02,229.764 514.02,228.804 L514.02,228.804 Z M527.256,226.74 C527.256,224.016 526.008,222.324 524.016,222.324 C522.012,222.324 520.752,224.028 520.752,226.752 C520.752,229.464 522,231.168 524.004,231.168 C526.008,231.168 527.256,229.452 527.256,226.74 L527.256,226.74 Z M526.356,226.74 C526.356,228.96 525.528,230.388 524.016,230.388 C522.492,230.388 521.652,228.96 521.652,226.74 C521.652,224.52 522.492,223.092 524.016,223.092 C525.528,223.092 526.356,224.52 526.356,226.74 L526.356,226.74 Z M530.412,229.68 L529.32,229.68 L528.588,232.668 L529.08,232.788 L530.412,229.68 Z M537.696,231 L537.696,222.444 L536.988,222.444 L534.816,223.404 L534.924,224.112 L536.832,223.392 L536.832,231 L537.696,231 Z M546.468,226.74 C546.468,224.016 545.22,222.324 543.228,222.324 C541.224,222.324 539.964,224.028 539.964,226.752 C539.964,229.464 541.212,231.168 543.216,231.168 C545.22,231.168 546.468,229.452 546.468,226.74 L546.468,226.74 Z M545.568,226.74 C545.568,228.96 544.74,230.388 543.228,230.388 C541.704,230.388 540.864,228.96 540.864,226.74 C540.864,224.52 541.704,223.092 543.228,223.092 C544.74,223.092 545.568,224.52 545.568,226.74 L545.568,226.74 Z M554.628,226.74 C554.628,224.016 553.38,222.324 551.388,222.324 C549.384,222.324 548.124,224.028 548.124,226.752 C548.124,229.464 549.372,231.168 551.376,231.168 C553.38,231.168 554.628,229.452 554.628,226.74 L554.628,226.74 Z M553.728,226.74 C553.728,228.96 552.9,230.388 551.388,230.388 C549.864,230.388 549.024,228.96 549.024,226.74 C549.024,224.52 549.864,223.092 551.388,223.092 C552.9,223.092 553.728,224.52 553.728,226.74 L553.728,226.74 Z M556.116,221.484 C558.012,223.092 559.044,224.772 559.044,226.728 C559.044,228.804 558.156,230.268 556.296,231.504 L556.452,232.344 C558.744,230.928 559.992,229.128 559.992,226.752 C559.992,224.484 558.804,222.816 557.016,221.292 L556.116,221.484 Z" id="rgba(0,-189,-180,-10" stroke="none" fill="#303030" fill-rule="evenodd"></path>
    <path d="M440.5,249.348 L440.356,248.508 C439.264,248.532 438.496,249.228 438.004,249.948 L437.788,248.64 L437.14,248.64 L437.14,255 L438.028,255 L438.028,251.016 C438.472,250.164 439.408,249.408 440.5,249.348 L440.5,249.348 Z M447.556,251.82 C447.556,249.72 446.272,248.508 444.568,248.508 C442.9,248.508 441.604,249.72 441.604,251.82 C441.604,253.92 442.876,255.132 444.568,255.132 C446.248,255.132 447.556,253.92 447.556,251.82 L447.556,251.82 Z M446.644,251.82 C446.644,253.416 445.816,254.376 444.568,254.376 C443.356,254.376 442.528,253.368 442.528,251.82 C442.528,250.236 443.332,249.264 444.568,249.264 C445.804,249.264 446.644,250.272 446.644,251.82 L446.644,251.82 Z M450.4,255 L450.4,245.352 L449.512,245.508 L449.512,255 L450.4,255 Z M457.828,254.232 L457.696,253.428 C457.024,253.98 456.244,254.364 455.38,254.364 C454.036,254.364 453.28,253.452 453.256,251.88 L457.84,251.88 L457.84,251.688 C457.84,249.924 456.964,248.508 455.176,248.508 C453.544,248.508 452.344,249.78 452.344,251.808 C452.344,254.004 453.592,255.132 455.32,255.132 C456.328,255.132 457.18,254.772 457.828,254.232 L457.828,254.232 Z M455.164,249.216 C456.244,249.216 456.844,250.032 456.928,251.184 L453.292,251.184 C453.46,249.912 454.18,249.216 455.164,249.216 L455.164,249.216 Z M460.732,249.96 L460.732,248.64 L459.676,248.64 L459.676,249.96 L460.732,249.96 Z M460.732,255 L460.732,253.68 L459.676,253.68 L459.676,255 L460.732,255 Z" id="role:" stroke="none" fill="#303030" fill-rule="evenodd"></path>
    <polygon id="#F4F4F4" stroke="none" fill="#9575CD" fill-rule="evenodd" points="435 300 615 300 615 430 435 430"></polygon>
    <path d="M444.828,445.918 C444.828,442.908 442.854,440.85 439.34,440.85 L436.47,440.85 L436.47,451 L439.284,451 C442.7,451 444.828,449.012 444.828,445.918 L444.828,445.918 Z M443.736,445.932 C443.736,448.676 442.028,450.048 439.354,450.048 L437.52,450.048 L437.52,441.816 L439.354,441.816 C441.972,441.816 443.736,443.23 443.736,445.932 L443.736,445.932 Z M453.06,450.104 L452.906,449.166 C452.122,449.81 451.212,450.258 450.204,450.258 C448.636,450.258 447.754,449.194 447.726,447.36 L453.074,447.36 L453.074,447.136 C453.074,445.078 452.052,443.426 449.966,443.426 C448.062,443.426 446.662,444.91 446.662,447.276 C446.662,449.838 448.118,451.154 450.134,451.154 C451.31,451.154 452.304,450.734 453.06,450.104 L453.06,450.104 Z M449.952,444.252 C451.212,444.252 451.912,445.204 452.01,446.548 L447.768,446.548 C447.964,445.064 448.804,444.252 449.952,444.252 L449.952,444.252 Z M461.166,450.104 L461.012,449.166 C460.228,449.81 459.318,450.258 458.31,450.258 C456.742,450.258 455.86,449.194 455.832,447.36 L461.18,447.36 L461.18,447.136 C461.18,445.078 460.158,443.426 458.072,443.426 C456.168,443.426 454.768,444.91 454.768,447.276 C454.768,449.838 456.224,451.154 458.24,451.154 C459.416,451.154 460.41,450.734 461.166,450.104 L461.166,450.104 Z M458.058,444.252 C459.318,444.252 460.018,445.204 460.116,446.548 L455.874,446.548 C456.07,445.064 456.91,444.252 458.058,444.252 L458.058,444.252 Z M468.866,447.122 C468.866,449.194 467.788,450.202 466.374,450.202 C465.59,450.202 465.002,450.062 464.4,449.768 L464.4,445.694 C465.114,444.868 465.814,444.364 466.724,444.364 C467.97,444.364 468.866,445.33 468.866,447.122 L468.866,447.122 Z M469.944,447.08 C469.944,444.602 468.516,443.426 466.822,443.426 C465.702,443.426 464.946,443.986 464.344,444.658 L464.162,443.58 L463.364,443.58 L463.364,453.87 L464.4,453.702 L464.4,450.734 C464.96,450.958 465.646,451.098 466.416,451.098 C468.292,451.098 469.944,449.782 469.944,447.08 L469.944,447.08 Z M482.012,443.72 C482.012,441.886 480.696,440.85 478.54,440.85 L475.95,440.85 L475.95,451 L477,451 L477,446.744 L478.302,446.744 C480.472,446.744 482.012,445.722 482.012,443.72 L482.012,443.72 Z M480.934,443.762 C480.934,445.134 479.968,445.806 478.358,445.806 L477,445.806 L477,441.788 L478.484,441.788 C480.08,441.788 480.934,442.46 480.934,443.762 L480.934,443.762 Z M490.02,451 L490.02,443.58 L488.984,443.58 L488.984,448.942 C488.13,449.74 487.29,450.216 486.464,450.216 C485.47,450.216 485.008,449.642 485.008,448.69 L485.008,443.58 L483.958,443.58 L483.958,448.886 C483.958,450.3 484.728,451.154 486.268,451.154 C487.304,451.154 488.186,450.622 489.04,449.908 L489.222,451 L490.02,451 Z M496.6,444.406 L496.432,443.426 C495.158,443.454 494.262,444.266 493.688,445.106 L493.436,443.58 L492.68,443.58 L492.68,451 L493.716,451 L493.716,446.352 C494.234,445.358 495.326,444.476 496.6,444.406 L496.6,444.406 Z M503.88,447.122 C503.88,449.194 502.802,450.202 501.388,450.202 C500.604,450.202 500.016,450.062 499.414,449.768 L499.414,445.694 C500.128,444.868 500.828,444.364 501.738,444.364 C502.984,444.364 503.88,445.33 503.88,447.122 L503.88,447.122 Z M504.958,447.08 C504.958,444.602 503.53,443.426 501.836,443.426 C500.716,443.426 499.96,443.986 499.358,444.658 L499.176,443.58 L498.378,443.58 L498.378,453.87 L499.414,453.702 L499.414,450.734 C499.974,450.958 500.66,451.098 501.43,451.098 C503.306,451.098 504.958,449.782 504.958,447.08 L504.958,447.08 Z M508.29,451 L508.29,439.744 L507.254,439.926 L507.254,451 L508.29,451 Z M516.956,450.104 L516.802,449.166 C516.018,449.81 515.108,450.258 514.1,450.258 C512.532,450.258 511.65,449.194 511.622,447.36 L516.97,447.36 L516.97,447.136 C516.97,445.078 515.948,443.426 513.862,443.426 C511.958,443.426 510.558,444.91 510.558,447.276 C510.558,449.838 512.014,451.154 514.03,451.154 C515.206,451.154 516.2,450.734 516.956,450.104 L516.956,450.104 Z M513.848,444.252 C515.108,444.252 515.808,445.204 515.906,446.548 L511.664,446.548 C511.86,445.064 512.7,444.252 513.848,444.252 L513.848,444.252 Z" id="Deep-Purple" stroke="none" fill="#303030" fill-rule="evenodd"></path>
    <path d="M438.288,472.48 L440.712,472.48 L440.304,475 L437.868,475 L438.288,472.48 Z M441.9,469.54 L441.228,469.396 L440.832,471.736 L438.408,471.736 L438.78,469.456 L438.084,469.456 L437.7,471.736 L435.888,471.736 L436.008,472.48 L437.58,472.48 L437.172,475 L435.624,475 L435.624,475.744 L437.052,475.744 L436.692,477.94 L437.364,478.084 L437.736,475.744 L440.172,475.744 L439.8,478.024 L440.496,478.024 L440.868,475.744 L442.692,475.744 L442.572,475 L441,475 L441.408,472.48 L442.956,472.48 L442.956,471.736 L441.54,471.736 L441.9,469.54 Z M449.88,478 L449.772,477.232 L445.476,477.232 L448.2,474.508 C449.28,473.416 449.736,472.696 449.736,471.652 C449.736,470.248 448.764,469.324 447.12,469.324 C446.04,469.324 445.188,469.732 444.528,470.26 L444.66,471.136 C445.356,470.548 446.16,470.116 447.072,470.116 C448.176,470.116 448.824,470.68 448.824,471.7 C448.824,472.492 448.5,473.068 447.552,474.016 L444.3,477.352 L444.3,478 L449.88,478 Z M456.492,470.14 L456.492,469.3 L451.956,469.3 L451.956,478 L452.856,478 L452.856,474.004 L455.892,474.004 L455.76,473.176 L452.856,473.176 L452.856,470.14 L456.492,470.14 Z M463.164,475.696 C463.164,474.496 462.456,473.812 461.304,473.5 C462.24,473.2 462.996,472.588 462.996,471.484 C462.996,470.332 462.156,469.324 460.356,469.324 C459.288,469.324 458.496,469.624 457.812,470.104 L457.932,470.932 C458.604,470.44 459.384,470.104 460.308,470.104 C461.484,470.104 462.096,470.704 462.096,471.52 C462.096,472.516 461.304,473.116 459.78,473.116 L459.192,473.116 L459.3,473.92 L459.696,473.92 C461.472,473.92 462.264,474.604 462.264,475.708 C462.264,476.728 461.472,477.376 460.2,477.376 C459.264,477.376 458.58,477.124 457.824,476.632 L457.668,477.496 C458.316,477.892 459.204,478.168 460.164,478.168 C461.94,478.168 463.164,477.148 463.164,475.696 L463.164,475.696 Z M470.28,478 L470.172,477.232 L465.876,477.232 L468.6,474.508 C469.68,473.416 470.136,472.696 470.136,471.652 C470.136,470.248 469.164,469.324 467.52,469.324 C466.44,469.324 465.588,469.732 464.928,470.26 L465.06,471.136 C465.756,470.548 466.56,470.116 467.472,470.116 C468.576,470.116 469.224,470.68 469.224,471.7 C469.224,472.492 468.9,473.068 467.952,474.016 L464.7,477.352 L464.7,478 L470.28,478 Z M477.216,475.696 C477.216,474.496 476.508,473.812 475.356,473.5 C476.292,473.2 477.048,472.588 477.048,471.484 C477.048,470.332 476.208,469.324 474.408,469.324 C473.34,469.324 472.548,469.624 471.864,470.104 L471.984,470.932 C472.656,470.44 473.436,470.104 474.36,470.104 C475.536,470.104 476.148,470.704 476.148,471.52 C476.148,472.516 475.356,473.116 473.832,473.116 L473.244,473.116 L473.352,473.92 L473.748,473.92 C475.524,473.92 476.316,474.604 476.316,475.708 C476.316,476.728 475.524,477.376 474.252,477.376 C473.316,477.376 472.632,477.124 471.876,476.632 L471.72,477.496 C472.368,477.892 473.256,478.168 474.216,478.168 C475.992,478.168 477.216,477.148 477.216,475.696 L477.216,475.696 Z M484.356,470.14 L484.356,469.48 L478.692,469.48 L478.812,470.272 L483.372,470.272 L479.844,477.892 L480.696,478.084 L484.356,470.14 Z" id="#2F3237" stroke="none" fill="#303030" fill-rule="evenodd"></path>
    <path d="M439.5,496.348 L439.356,495.508 C438.264,495.532 437.496,496.228 437.004,496.948 L436.788,495.64 L436.14,495.64 L436.14,502 L437.028,502 L437.028,498.016 C437.472,497.164 438.408,496.408 439.5,496.348 L439.5,496.348 Z M444.78,497.668 C444.78,498.52 444.168,499.18 443.184,499.18 C442.212,499.18 441.612,498.52 441.612,497.692 C441.612,496.828 442.212,496.18 443.172,496.18 C444.12,496.18 444.78,496.828 444.78,497.668 L444.78,497.668 Z M446.412,502.504 C446.412,501.568 445.608,501.16 444.144,500.896 L443.652,500.8 C442.44,500.584 442.164,500.5 442.164,500.236 C442.164,500.092 442.308,499.936 442.596,499.792 C442.788,499.828 442.992,499.84 443.196,499.84 C444.504,499.84 445.656,499.024 445.656,497.68 C445.656,497.248 445.524,496.876 445.308,496.552 L446.628,496.408 L446.484,495.544 L444.828,496.048 C444.384,495.7 443.808,495.508 443.172,495.508 C441.888,495.508 440.724,496.336 440.724,497.68 C440.724,498.556 441.216,499.228 441.948,499.576 C441.504,499.828 441.276,500.092 441.276,500.404 C441.276,500.656 441.432,500.884 441.768,501.088 C440.772,501.568 440.256,502.132 440.256,502.768 C440.256,503.86 441.576,504.412 443.268,504.412 C444.984,504.412 446.412,503.74 446.412,502.504 L446.412,502.504 Z M443.304,501.532 L443.928,501.64 C445.116,501.856 445.548,502.132 445.548,502.624 C445.548,503.248 444.672,503.74 443.328,503.74 C442.032,503.74 441.144,503.368 441.144,502.708 C441.144,502.204 441.576,501.76 442.5,501.364 C442.752,501.424 442.968,501.472 443.304,501.532 L443.304,501.532 Z M453.732,498.64 C453.732,496.516 452.52,495.508 451.068,495.508 C450.156,495.508 449.508,495.976 449.028,496.468 L449.028,492.352 L448.14,492.508 L448.14,501.664 C448.86,501.916 449.616,502.084 450.528,502.084 C452.352,502.084 453.732,500.956 453.732,498.64 L453.732,498.64 Z M452.82,498.676 C452.82,500.5 451.884,501.316 450.576,501.316 C449.892,501.316 449.448,501.208 449.028,501.052 L449.028,497.416 C449.628,496.744 450.24,496.312 450.984,496.312 C452.052,496.312 452.82,497.14 452.82,498.676 L452.82,498.676 Z M459.432,500.416 C458.784,501.004 457.992,501.376 457.284,501.376 C456.588,501.376 456.084,501.016 456.084,500.344 C456.084,499.48 456.828,498.892 459.432,498.628 L459.432,500.416 Z M460.32,502 L460.32,497.464 C460.32,496.156 459.576,495.508 458.124,495.508 C457.188,495.508 456.432,495.736 455.664,496.06 L455.784,496.852 C456.516,496.516 457.284,496.3 458.052,496.3 C458.904,496.3 459.432,496.66 459.432,497.512 L459.432,497.932 C456.432,498.208 455.184,498.904 455.184,500.404 C455.184,501.52 456.024,502.132 457.164,502.132 C458.1,502.132 458.868,501.7 459.492,501.148 L459.648,502 L460.32,502 Z M466.308,503.092 C464.412,501.472 463.38,499.804 463.38,497.836 C463.38,495.772 464.28,494.308 466.128,493.072 L465.972,492.232 C463.68,493.636 462.432,495.448 462.432,497.824 C462.432,500.092 463.62,501.76 465.408,503.284 L466.308,503.092 Z M474.3,497.74 C474.3,495.016 473.052,493.324 471.06,493.324 C469.056,493.324 467.796,495.028 467.796,497.752 C467.796,500.464 469.044,502.168 471.048,502.168 C473.052,502.168 474.3,500.452 474.3,497.74 L474.3,497.74 Z M473.4,497.74 C473.4,499.96 472.572,501.388 471.06,501.388 C469.536,501.388 468.696,499.96 468.696,497.74 C468.696,495.52 469.536,494.092 471.06,494.092 C472.572,494.092 473.4,495.52 473.4,497.74 L473.4,497.74 Z M477.456,500.68 L476.364,500.68 L475.632,503.668 L476.124,503.788 L477.456,500.68 Z M484.74,502 L484.74,493.444 L484.032,493.444 L481.86,494.404 L481.968,495.112 L483.876,494.392 L483.876,502 L484.74,502 Z M486.972,499.852 C486.972,501.124 488.1,502.168 489.972,502.168 C491.724,502.168 492.972,501.136 492.972,499.84 C492.972,498.676 492.276,498.016 491.112,497.536 C492,497.056 492.684,496.396 492.684,495.424 C492.684,494.236 491.664,493.324 490.032,493.324 C488.448,493.324 487.308,494.236 487.308,495.448 C487.308,496.432 487.872,497.068 488.844,497.512 C487.704,498.052 486.972,498.82 486.972,499.852 L486.972,499.852 Z M488.184,495.436 C488.184,494.716 488.844,494.044 490.008,494.044 C491.1,494.044 491.808,494.656 491.808,495.472 C491.808,496.204 491.22,496.828 490.308,497.248 C488.688,496.708 488.184,496.264 488.184,495.436 L488.184,495.436 Z M487.848,499.804 C487.848,498.952 488.568,498.244 489.66,497.812 C491.52,498.436 492.096,498.892 492.096,499.816 C492.096,500.764 491.172,501.436 489.996,501.436 C488.736,501.436 487.848,500.764 487.848,499.804 L487.848,499.804 Z M495.576,501.376 L495.708,502.18 C498.564,501.52 500.448,499.816 500.448,496.924 C500.448,494.668 499.176,493.324 497.34,493.324 C495.6,493.324 494.436,494.512 494.436,496.108 C494.436,497.728 495.504,498.736 497.136,498.736 C498,498.736 498.78,498.46 499.488,498.004 C499.104,499.876 497.664,500.932 495.576,501.376 L495.576,501.376 Z M497.28,497.956 C495.984,497.956 495.324,497.212 495.324,496.072 C495.324,494.86 496.092,494.08 497.328,494.08 C498.66,494.08 499.596,495.232 499.596,496.984 L499.596,497.128 C498.912,497.644 498.108,497.956 497.28,497.956 L497.28,497.956 Z M503.628,500.68 L502.536,500.68 L501.804,503.668 L502.296,503.788 L503.628,500.68 Z M510.912,502 L510.912,493.444 L510.204,493.444 L508.032,494.404 L508.14,495.112 L510.048,494.392 L510.048,502 L510.912,502 Z M513.144,499.852 C513.144,501.124 514.272,502.168 516.144,502.168 C517.896,502.168 519.144,501.136 519.144,499.84 C519.144,498.676 518.448,498.016 517.284,497.536 C518.172,497.056 518.856,496.396 518.856,495.424 C518.856,494.236 517.836,493.324 516.204,493.324 C514.62,493.324 513.48,494.236 513.48,495.448 C513.48,496.432 514.044,497.068 515.016,497.512 C513.876,498.052 513.144,498.82 513.144,499.852 L513.144,499.852 Z M514.356,495.436 C514.356,494.716 515.016,494.044 516.18,494.044 C517.272,494.044 517.98,494.656 517.98,495.472 C517.98,496.204 517.392,496.828 516.48,497.248 C514.86,496.708 514.356,496.264 514.356,495.436 L514.356,495.436 Z M514.02,499.804 C514.02,498.952 514.74,498.244 515.832,497.812 C517.692,498.436 518.268,498.892 518.268,499.816 C518.268,500.764 517.344,501.436 516.168,501.436 C514.908,501.436 514.02,500.764 514.02,499.804 L514.02,499.804 Z M527.256,497.74 C527.256,495.016 526.008,493.324 524.016,493.324 C522.012,493.324 520.752,495.028 520.752,497.752 C520.752,500.464 522,502.168 524.004,502.168 C526.008,502.168 527.256,500.452 527.256,497.74 L527.256,497.74 Z M526.356,497.74 C526.356,499.96 525.528,501.388 524.016,501.388 C522.492,501.388 521.652,499.96 521.652,497.74 C521.652,495.52 522.492,494.092 524.016,494.092 C525.528,494.092 526.356,495.52 526.356,497.74 L526.356,497.74 Z M530.412,500.68 L529.32,500.68 L528.588,503.668 L529.08,503.788 L530.412,500.68 Z M537.696,502 L537.696,493.444 L536.988,493.444 L534.816,494.404 L534.924,495.112 L536.832,494.392 L536.832,502 L537.696,502 Z M546.468,497.74 C546.468,495.016 545.22,493.324 543.228,493.324 C541.224,493.324 539.964,495.028 539.964,497.752 C539.964,500.464 541.212,502.168 543.216,502.168 C545.22,502.168 546.468,500.452 546.468,497.74 L546.468,497.74 Z M545.568,497.74 C545.568,499.96 544.74,501.388 543.228,501.388 C541.704,501.388 540.864,499.96 540.864,497.74 C540.864,495.52 541.704,494.092 543.228,494.092 C544.74,494.092 545.568,495.52 545.568,497.74 L545.568,497.74 Z M554.628,497.74 C554.628,495.016 553.38,493.324 551.388,493.324 C549.384,493.324 548.124,495.028 548.124,497.752 C548.124,500.464 549.372,502.168 551.376,502.168 C553.38,502.168 554.628,500.452 554.628,497.74 L554.628,497.74 Z M553.728,497.74 C553.728,499.96 552.9,501.388 551.388,501.388 C549.864,501.388 549.024,499.96 549.024,497.74 C549.024,495.52 549.864,494.092 551.388,494.092 C552.9,494.092 553.728,495.52 553.728,497.74 L553.728,497.74 Z M556.116,492.484 C558.012,494.092 559.044,495.772 559.044,497.728 C559.044,499.804 558.156,501.268 556.296,502.504 L556.452,503.344 C558.744,501.928 559.992,500.128 559.992,497.752 C559.992,495.484 558.804,493.816 557.016,492.292 L556.116,492.484 Z" id="rgba(0,-189,-180,-10" stroke="none" fill="#303030" fill-rule="evenodd"></path>
    <path d="M440.5,520.348 L440.356,519.508 C439.264,519.532 438.496,520.228 438.004,520.948 L437.788,519.64 L437.14,519.64 L437.14,526 L438.028,526 L438.028,522.016 C438.472,521.164 439.408,520.408 440.5,520.348 L440.5,520.348 Z M447.556,522.82 C447.556,520.72 446.272,519.508 444.568,519.508 C442.9,519.508 441.604,520.72 441.604,522.82 C441.604,524.92 442.876,526.132 444.568,526.132 C446.248,526.132 447.556,524.92 447.556,522.82 L447.556,522.82 Z M446.644,522.82 C446.644,524.416 445.816,525.376 444.568,525.376 C443.356,525.376 442.528,524.368 442.528,522.82 C442.528,521.236 443.332,520.264 444.568,520.264 C445.804,520.264 446.644,521.272 446.644,522.82 L446.644,522.82 Z M450.4,526 L450.4,516.352 L449.512,516.508 L449.512,526 L450.4,526 Z M457.828,525.232 L457.696,524.428 C457.024,524.98 456.244,525.364 455.38,525.364 C454.036,525.364 453.28,524.452 453.256,522.88 L457.84,522.88 L457.84,522.688 C457.84,520.924 456.964,519.508 455.176,519.508 C453.544,519.508 452.344,520.78 452.344,522.808 C452.344,525.004 453.592,526.132 455.32,526.132 C456.328,526.132 457.18,525.772 457.828,525.232 L457.828,525.232 Z M455.164,520.216 C456.244,520.216 456.844,521.032 456.928,522.184 L453.292,522.184 C453.46,520.912 454.18,520.216 455.164,520.216 L455.164,520.216 Z M460.732,520.96 L460.732,519.64 L459.676,519.64 L459.676,520.96 L460.732,520.96 Z M460.732,526 L460.732,524.68 L459.676,524.68 L459.676,526 L460.732,526 Z" id="role:" stroke="none" fill="#303030" fill-rule="evenodd"></path>
</svg>
