
<svg width="1230px" height="174px" viewBox="921 755 1230 174" version="1.1" xmlns="http://www.w3.org/2000/svg" xmlns:xlink="http://www.w3.org/1999/xlink">
    <!-- Generator: Sketch 40.3 (33839) - http://www.bohemiancoding.com/sketch -->
    <desc>Created with Sketch.</desc>
    <defs>
        <rect id="path-1" x="0" y="0" width="1200" height="64"></rect>
        <filter x="-50%" y="-50%" width="200%" height="200%" filterUnits="objectBoundingBox" id="filter-2">
            <feOffset dx="0" dy="2" in="SourceAlpha" result="shadowOffsetOuter1"></feOffset>
            <feGaussianBlur stdDeviation="5" in="shadowOffsetOuter1" result="shadowBlurOuter1"></feGaussianBlur>
            <feColorMatrix values="0 0 0 0 0   0 0 0 0 0   0 0 0 0 0  0 0 0 0.12 0" type="matrix" in="shadowBlurOuter1" result="shadowMatrixOuter1"></feColorMatrix>
            <feOffset dx="0" dy="2" in="SourceAlpha" result="shadowOffsetOuter2"></feOffset>
            <feGaussianBlur stdDeviation="2.5" in="shadowOffsetOuter2" result="shadowBlurOuter2"></feGaussianBlur>
            <feColorMatrix values="0 0 0 0 0   0 0 0 0 0   0 0 0 0 0  0 0 0 0.16 0" type="matrix" in="shadowBlurOuter2" result="shadowMatrixOuter2"></feColorMatrix>
            <feMerge>
                <feMergeNode in="shadowMatrixOuter1"></feMergeNode>
                <feMergeNode in="shadowMatrixOuter2"></feMergeNode>
            </feMerge>
        </filter>
        <rect id="path-3" x="0" y="0" width="1200" height="64"></rect>
        <filter x="-50%" y="-50%" width="200%" height="200%" filterUnits="objectBoundingBox" id="filter-4">
            <feOffset dx="0" dy="2" in="SourceAlpha" result="shadowOffsetOuter1"></feOffset>
            <feGaussianBlur stdDeviation="5" in="shadowOffsetOuter1" result="shadowBlurOuter1"></feGaussianBlur>
            <feColorMatrix values="0 0 0 0 0   0 0 0 0 0   0 0 0 0 0  0 0 0 0.12 0" type="matrix" in="shadowBlurOuter1" result="shadowMatrixOuter1"></feColorMatrix>
            <feOffset dx="0" dy="2" in="SourceAlpha" result="shadowOffsetOuter2"></feOffset>
            <feGaussianBlur stdDeviation="2.5" in="shadowOffsetOuter2" result="shadowBlurOuter2"></feGaussianBlur>
            <feColorMatrix values="0 0 0 0 0   0 0 0 0 0   0 0 0 0 0  0 0 0 0.16 0" type="matrix" in="shadowBlurOuter2" result="shadowMatrixOuter2"></feColorMatrix>
            <feMerge>
                <feMergeNode in="shadowMatrixOuter1"></feMergeNode>
                <feMergeNode in="shadowMatrixOuter2"></feMergeNode>
            </feMerge>
        </filter>
    </defs>
    <g id="notification--neutral-copy-2" stroke="none" stroke-width="1" fill="none" fill-rule="evenodd" transform="translate(936.000000, 766.000000)">
        <g id="MUI-&gt;-Panel-Copy-5">
            <use fill="black" fill-opacity="1" filter="url(#filter-2)" xlink:href="#path-1"></use>
            <use fill="#FFFFFF" fill-rule="evenodd" xlink:href="#path-1"></use>
        </g>
        <polygon id="#F4F4F4-Copy-7" fill="#FFEE7E" points="0 0 1200 0 1200 64 0 64"></polygon>
        <path d="M32.08,34.444 C32.08,32.732 31.168,31.9 28.928,30.956 C27.072,30.156 26.496,29.676 26.496,28.636 C26.496,27.644 27.28,26.844 28.704,26.844 C29.696,26.844 30.544,27.164 31.232,27.596 L31.408,26.396 C30.768,26.028 29.888,25.772 28.736,25.772 C26.752,25.772 25.28,26.956 25.28,28.716 C25.28,30.348 26.112,31.084 28.432,32.06 C30.256,32.844 30.864,33.388 30.864,34.524 C30.864,35.804 29.792,36.572 28.384,36.572 C27.152,36.572 26.048,36.14 25.296,35.676 L25.12,36.908 C25.936,37.324 27.04,37.628 28.336,37.628 C30.448,37.628 32.08,36.428 32.08,34.444 L32.08,34.444 Z M38.496,37.5 L38.336,36.508 C38.128,36.556 37.792,36.588 37.504,36.588 C36.544,36.588 36.176,36.22 36.176,35.356 L36.176,30.028 L38.384,30.028 L38.24,29.02 L36.176,29.02 L36.176,25.884 L35.008,26.092 L35.008,29.02 L33.648,29.02 L33.648,30.028 L35.008,30.028 L35.008,35.564 C35.008,37.132 35.904,37.644 37.28,37.644 C37.808,37.644 38.256,37.564 38.496,37.5 L38.496,37.5 Z M47.76,29.02 L46.528,29.02 L43.904,36.108 L41.168,28.908 L39.968,29.132 L43.312,37.548 L42.944,38.428 C42.576,39.356 42.128,39.676 41.376,39.676 C41.12,39.676 40.88,39.644 40.688,39.612 L40.864,40.668 C41.008,40.7 41.168,40.716 41.392,40.716 C42.624,40.716 43.392,40.236 44.016,38.604 L47.76,29.02 Z M51.216,37.5 L51.216,24.636 L50.032,24.844 L50.032,37.5 L51.216,37.5 Z M61.12,36.476 L60.944,35.404 C60.048,36.14 59.008,36.652 57.856,36.652 C56.064,36.652 55.056,35.436 55.024,33.34 L61.136,33.34 L61.136,33.084 C61.136,30.732 59.968,28.844 57.584,28.844 C55.408,28.844 53.808,30.54 53.808,33.244 C53.808,36.172 55.472,37.676 57.776,37.676 C59.12,37.676 60.256,37.196 61.12,36.476 L61.12,36.476 Z M57.568,29.788 C59.008,29.788 59.808,30.876 59.92,32.412 L55.072,32.412 C55.296,30.716 56.256,29.788 57.568,29.788 L57.568,29.788 Z M69.456,35.196 C69.456,33.692 68.448,33.052 66.368,32.524 C64.864,32.14 64.384,31.788 64.384,31.1 C64.384,30.396 64.96,29.884 66.176,29.884 C67.056,29.884 67.952,30.14 68.736,30.556 L68.928,29.42 C68.176,29.068 67.248,28.844 66.224,28.844 C64.4,28.844 63.232,29.82 63.232,31.132 C63.232,32.54 64.08,33.148 66.016,33.644 C67.792,34.076 68.304,34.46 68.304,35.292 C68.304,36.156 67.536,36.636 66.288,36.636 C65.12,36.636 64.048,36.236 63.216,35.74 L63.024,36.876 C63.792,37.292 65.008,37.66 66.176,37.66 C68.192,37.66 69.456,36.748 69.456,35.196 L69.456,35.196 Z M83.04,37.5 L83.04,31.42 C83.04,29.804 82.16,28.844 80.4,28.844 C79.2,28.844 78.224,29.452 77.296,30.22 L77.296,24.636 L76.112,24.844 L76.112,37.5 L77.296,37.5 L77.296,31.372 C78.272,30.46 79.232,29.916 80.176,29.916 C81.312,29.916 81.84,30.572 81.84,31.66 L81.84,37.5 L83.04,37.5 Z M91.072,35.388 C90.208,36.172 89.152,36.668 88.208,36.668 C87.28,36.668 86.608,36.188 86.608,35.292 C86.608,34.14 87.6,33.356 91.072,33.004 L91.072,35.388 Z M92.256,37.5 L92.256,31.452 C92.256,29.708 91.264,28.844 89.328,28.844 C88.08,28.844 87.072,29.148 86.048,29.58 L86.208,30.636 C87.184,30.188 88.208,29.9 89.232,29.9 C90.368,29.9 91.072,30.38 91.072,31.516 L91.072,32.076 C87.072,32.444 85.408,33.372 85.408,35.372 C85.408,36.86 86.528,37.676 88.048,37.676 C89.296,37.676 90.32,37.1 91.152,36.364 L91.36,37.5 L92.256,37.5 Z M101.936,29.02 L100.704,29.02 L98.144,36.108 L95.536,28.908 L94.336,29.132 L97.552,37.58 L98.688,37.58 L101.936,29.02 Z M110.848,36.476 L110.672,35.404 C109.776,36.14 108.736,36.652 107.584,36.652 C105.792,36.652 104.784,35.436 104.752,33.34 L110.864,33.34 L110.864,33.084 C110.864,30.732 109.696,28.844 107.312,28.844 C105.136,28.844 103.536,30.54 103.536,33.244 C103.536,36.172 105.2,37.676 107.504,37.676 C108.848,37.676 109.984,37.196 110.848,36.476 L110.848,36.476 Z M107.296,29.788 C108.736,29.788 109.536,30.876 109.648,32.412 L104.8,32.412 C105.024,30.716 105.984,29.788 107.296,29.788 L107.296,29.788 Z M125.024,33.02 C125.024,30.188 123.408,28.844 121.472,28.844 C120.256,28.844 119.392,29.468 118.752,30.124 L118.752,24.636 L117.568,24.844 L117.568,37.052 C118.528,37.388 119.536,37.612 120.752,37.612 C123.184,37.612 125.024,36.108 125.024,33.02 L125.024,33.02 Z M123.808,33.068 C123.808,35.5 122.56,36.588 120.816,36.588 C119.904,36.588 119.312,36.444 118.752,36.236 L118.752,31.388 C119.552,30.492 120.368,29.916 121.36,29.916 C122.784,29.916 123.808,31.02 123.808,33.068 L123.808,33.068 Z M134.288,36.476 L134.112,35.404 C133.216,36.14 132.176,36.652 131.024,36.652 C129.232,36.652 128.224,35.436 128.192,33.34 L134.304,33.34 L134.304,33.084 C134.304,30.732 133.136,28.844 130.752,28.844 C128.576,28.844 126.976,30.54 126.976,33.244 C126.976,36.172 128.64,37.676 130.944,37.676 C132.288,37.676 133.424,37.196 134.288,36.476 L134.288,36.476 Z M130.736,29.788 C132.176,29.788 132.976,30.876 133.088,32.412 L128.24,32.412 C128.464,30.716 129.424,29.788 130.736,29.788 L130.736,29.788 Z M143.552,36.476 L143.376,35.404 C142.48,36.14 141.44,36.652 140.288,36.652 C138.496,36.652 137.488,35.436 137.456,33.34 L143.568,33.34 L143.568,33.084 C143.568,30.732 142.4,28.844 140.016,28.844 C137.84,28.844 136.24,30.54 136.24,33.244 C136.24,36.172 137.904,37.676 140.208,37.676 C141.552,37.676 142.688,37.196 143.552,36.476 L143.552,36.476 Z M140,29.788 C141.44,29.788 142.24,30.876 142.352,32.412 L137.504,32.412 C137.728,30.716 138.688,29.788 140,29.788 L140,29.788 Z M152.992,37.5 L152.992,31.436 C152.992,29.82 152.112,28.844 150.352,28.844 C149.152,28.844 148.16,29.452 147.184,30.268 L146.976,29.02 L146.064,29.02 L146.064,37.5 L147.248,37.5 L147.248,31.372 C148.224,30.46 149.184,29.916 150.128,29.916 C151.264,29.916 151.792,30.572 151.792,31.66 L151.792,37.5 L152.992,37.5 Z M164.624,29.964 L164.432,28.844 C162.976,28.876 161.952,29.804 161.296,30.764 L161.008,29.02 L160.144,29.02 L160.144,37.5 L161.328,37.5 L161.328,32.188 C161.92,31.052 163.168,30.044 164.624,29.964 L164.624,29.964 Z M173.408,36.476 L173.232,35.404 C172.336,36.14 171.296,36.652 170.144,36.652 C168.352,36.652 167.344,35.436 167.312,33.34 L173.424,33.34 L173.424,33.084 C173.424,30.732 172.256,28.844 169.872,28.844 C167.696,28.844 166.096,30.54 166.096,33.244 C166.096,36.172 167.76,37.676 170.064,37.676 C171.408,37.676 172.544,37.196 173.408,36.476 L173.408,36.476 Z M169.856,29.788 C171.296,29.788 172.096,30.876 172.208,32.412 L167.36,32.412 C167.584,30.716 168.544,29.788 169.856,29.788 L169.856,29.788 Z M180.128,33.02 L180.128,31.82 L175.6,31.82 L175.6,33.02 L180.128,33.02 Z M184.432,26.14 C184.432,25.676 184.048,25.292 183.568,25.292 C183.088,25.292 182.688,25.676 182.688,26.14 C182.688,26.604 183.088,27.004 183.568,27.004 C184.048,27.004 184.432,26.604 184.432,26.14 L184.432,26.14 Z M184.16,37.5 L184.16,29.02 L182.976,29.02 L182.976,37.5 L184.16,37.5 Z M194.24,37.5 L194.24,31.436 C194.24,29.82 193.36,28.844 191.6,28.844 C190.4,28.844 189.408,29.452 188.432,30.268 L188.224,29.02 L187.312,29.02 L187.312,37.5 L188.496,37.5 L188.496,31.372 C189.472,30.46 190.432,29.916 191.376,29.916 C192.512,29.916 193.04,30.572 193.04,31.66 L193.04,37.5 L194.24,37.5 Z M202.976,35.084 C202.176,36.012 201.36,36.604 200.32,36.604 C198.912,36.604 197.872,35.5 197.872,33.452 C197.872,31.068 199.12,29.916 200.704,29.916 C201.616,29.916 202.288,30.092 202.976,30.428 L202.976,35.084 Z M204.176,37.5 L204.176,24.636 L202.976,24.844 L202.976,29.324 C202.336,29.068 201.568,28.908 200.672,28.908 C198.544,28.908 196.656,30.412 196.656,33.5 C196.656,36.348 198.288,37.676 200.208,37.676 C201.488,37.676 202.368,37.036 203.04,36.268 L203.264,37.5 L204.176,37.5 Z M213.952,36.476 L213.776,35.404 C212.88,36.14 211.84,36.652 210.688,36.652 C208.896,36.652 207.888,35.436 207.856,33.34 L213.968,33.34 L213.968,33.084 C213.968,30.732 212.8,28.844 210.416,28.844 C208.24,28.844 206.64,30.54 206.64,33.244 C206.64,36.172 208.304,37.676 210.608,37.676 C211.952,37.676 213.088,37.196 213.952,36.476 L213.952,36.476 Z M210.4,29.788 C211.84,29.788 212.64,30.876 212.752,32.412 L207.904,32.412 C208.128,30.716 209.088,29.788 210.4,29.788 L210.4,29.788 Z M223.104,37.404 L220.032,33.116 L222.928,29.02 L221.648,29.02 L219.392,32.284 L217.04,28.892 L215.856,29.116 L218.72,33.148 L215.664,37.5 L216.96,37.5 L219.36,33.964 L221.92,37.628 L223.104,37.404 Z M232.096,36.476 L231.92,35.404 C231.024,36.14 229.984,36.652 228.832,36.652 C227.04,36.652 226.032,35.436 226,33.34 L232.112,33.34 L232.112,33.084 C232.112,30.732 230.944,28.844 228.56,28.844 C226.384,28.844 224.784,30.54 224.784,33.244 C224.784,36.172 226.448,37.676 228.752,37.676 C230.096,37.676 231.232,37.196 232.096,36.476 L232.096,36.476 Z M228.544,29.788 C229.984,29.788 230.784,30.876 230.896,32.412 L226.048,32.412 C226.272,30.716 227.232,29.788 228.544,29.788 L228.544,29.788 Z M240.4,35.084 C239.6,36.012 238.784,36.604 237.744,36.604 C236.336,36.604 235.296,35.5 235.296,33.452 C235.296,31.068 236.544,29.916 238.128,29.916 C239.04,29.916 239.712,30.092 240.4,30.428 L240.4,35.084 Z M241.6,37.5 L241.6,24.636 L240.4,24.844 L240.4,29.324 C239.76,29.068 238.992,28.908 238.096,28.908 C235.968,28.908 234.08,30.412 234.08,33.5 C234.08,36.348 235.712,37.676 237.632,37.676 C238.912,37.676 239.792,37.036 240.464,36.268 L240.688,37.5 L241.6,37.5 Z M246.208,35.74 L244.752,35.74 L243.776,39.724 L244.432,39.884 L246.208,35.74 Z M258.848,35.196 C258.848,33.692 257.84,33.052 255.76,32.524 C254.256,32.14 253.776,31.788 253.776,31.1 C253.776,30.396 254.352,29.884 255.568,29.884 C256.448,29.884 257.344,30.14 258.128,30.556 L258.32,29.42 C257.568,29.068 256.64,28.844 255.616,28.844 C253.792,28.844 252.624,29.82 252.624,31.132 C252.624,32.54 253.472,33.148 255.408,33.644 C257.184,34.076 257.696,34.46 257.696,35.292 C257.696,36.156 256.928,36.636 255.68,36.636 C254.512,36.636 253.44,36.236 252.608,35.74 L252.416,36.876 C253.184,37.292 254.4,37.66 255.568,37.66 C257.584,37.66 258.848,36.748 258.848,35.196 L258.848,35.196 Z M268.672,33.26 C268.672,30.46 266.96,28.844 264.688,28.844 C262.464,28.844 260.736,30.46 260.736,33.26 C260.736,36.06 262.432,37.676 264.688,37.676 C266.928,37.676 268.672,36.06 268.672,33.26 L268.672,33.26 Z M267.456,33.26 C267.456,35.388 266.352,36.668 264.688,36.668 C263.072,36.668 261.968,35.324 261.968,33.26 C261.968,31.148 263.04,29.852 264.688,29.852 C266.336,29.852 267.456,31.196 267.456,33.26 L267.456,33.26 Z M282.272,29.02 L281.04,29.02 L278.416,36.108 L275.68,28.908 L274.48,29.132 L277.824,37.548 L277.456,38.428 C277.088,39.356 276.64,39.676 275.888,39.676 C275.632,39.676 275.392,39.644 275.2,39.612 L275.376,40.668 C275.52,40.7 275.68,40.716 275.904,40.716 C277.136,40.716 277.904,40.236 278.528,38.604 L282.272,29.02 Z M291.792,33.26 C291.792,30.46 290.08,28.844 287.808,28.844 C285.584,28.844 283.856,30.46 283.856,33.26 C283.856,36.06 285.552,37.676 287.808,37.676 C290.048,37.676 291.792,36.06 291.792,33.26 L291.792,33.26 Z M290.576,33.26 C290.576,35.388 289.472,36.668 287.808,36.668 C286.192,36.668 285.088,35.324 285.088,33.26 C285.088,31.148 286.16,29.852 287.808,29.852 C289.456,29.852 290.576,31.196 290.576,33.26 L290.576,33.26 Z M301.104,37.5 L301.104,29.02 L299.92,29.02 L299.92,35.148 C298.944,36.06 297.984,36.604 297.04,36.604 C295.904,36.604 295.376,35.948 295.376,34.86 L295.376,29.02 L294.176,29.02 L294.176,35.084 C294.176,36.7 295.056,37.676 296.816,37.676 C298,37.676 299.008,37.068 299.984,36.252 L300.192,37.5 L301.104,37.5 Z M320.8,37.5 L320.8,31.42 C320.8,29.804 319.984,28.844 318.224,28.844 C317.008,28.844 315.984,29.468 315.008,30.316 C314.688,29.372 313.936,28.844 312.592,28.844 C311.408,28.844 310.432,29.452 309.472,30.252 L309.264,29.02 L308.352,29.02 L308.352,37.5 L309.536,37.5 L309.536,31.34 C310.512,30.46 311.44,29.916 312.352,29.916 C313.504,29.916 313.984,30.572 313.984,31.66 L313.984,37.5 L315.168,37.5 L315.168,31.356 C316.144,30.46 317.072,29.916 317.984,29.916 C319.12,29.916 319.6,30.572 319.6,31.66 L319.6,37.5 L320.8,37.5 Z M328.832,35.388 C327.968,36.172 326.912,36.668 325.968,36.668 C325.04,36.668 324.368,36.188 324.368,35.292 C324.368,34.14 325.36,33.356 328.832,33.004 L328.832,35.388 Z M330.016,37.5 L330.016,31.452 C330.016,29.708 329.024,28.844 327.088,28.844 C325.84,28.844 324.832,29.148 323.808,29.58 L323.968,30.636 C324.944,30.188 325.968,29.9 326.992,29.9 C328.128,29.9 328.832,30.38 328.832,31.516 L328.832,32.076 C324.832,32.444 323.168,33.372 323.168,35.372 C323.168,36.86 324.288,37.676 325.808,37.676 C327.056,37.676 328.08,37.1 328.912,36.364 L329.12,37.5 L330.016,37.5 Z M339.888,29.02 L338.656,29.02 L336.032,36.108 L333.296,28.908 L332.096,29.132 L335.44,37.548 L335.072,38.428 C334.704,39.356 334.256,39.676 333.504,39.676 C333.248,39.676 333.008,39.644 332.816,39.612 L332.992,40.668 C333.136,40.7 333.296,40.716 333.52,40.716 C334.752,40.716 335.52,40.236 336.144,38.604 L339.888,29.02 Z M353.168,37.5 L353.168,31.436 C353.168,29.82 352.288,28.844 350.528,28.844 C349.328,28.844 348.336,29.452 347.36,30.268 L347.152,29.02 L346.24,29.02 L346.24,37.5 L347.424,37.5 L347.424,31.372 C348.4,30.46 349.36,29.916 350.304,29.916 C351.44,29.916 351.968,30.572 351.968,31.66 L351.968,37.5 L353.168,37.5 Z M362.864,36.476 L362.688,35.404 C361.792,36.14 360.752,36.652 359.6,36.652 C357.808,36.652 356.8,35.436 356.768,33.34 L362.88,33.34 L362.88,33.084 C362.88,30.732 361.712,28.844 359.328,28.844 C357.152,28.844 355.552,30.54 355.552,33.244 C355.552,36.172 357.216,37.676 359.52,37.676 C360.864,37.676 362,37.196 362.864,36.476 L362.864,36.476 Z M359.312,29.788 C360.752,29.788 361.552,30.876 361.664,32.412 L356.816,32.412 C357.04,30.716 358,29.788 359.312,29.788 L359.312,29.788 Z M372.128,36.476 L371.952,35.404 C371.056,36.14 370.016,36.652 368.864,36.652 C367.072,36.652 366.064,35.436 366.032,33.34 L372.144,33.34 L372.144,33.084 C372.144,30.732 370.976,28.844 368.592,28.844 C366.416,28.844 364.816,30.54 364.816,33.244 C364.816,36.172 366.48,37.676 368.784,37.676 C370.128,37.676 371.264,37.196 372.128,36.476 L372.128,36.476 Z M368.576,29.788 C370.016,29.788 370.816,30.876 370.928,32.412 L366.08,32.412 C366.304,30.716 367.264,29.788 368.576,29.788 L368.576,29.788 Z M380.432,35.084 C379.632,36.012 378.816,36.604 377.776,36.604 C376.368,36.604 375.328,35.5 375.328,33.452 C375.328,31.068 376.576,29.916 378.16,29.916 C379.072,29.916 379.744,30.092 380.432,30.428 L380.432,35.084 Z M381.632,37.5 L381.632,24.636 L380.432,24.844 L380.432,29.324 C379.792,29.068 379.024,28.908 378.128,28.908 C376,28.908 374.112,30.412 374.112,33.5 C374.112,36.348 375.744,37.676 377.664,37.676 C378.944,37.676 379.824,37.036 380.496,36.268 L380.72,37.5 L381.632,37.5 Z M392.768,37.5 L392.608,36.508 C392.4,36.556 392.064,36.588 391.776,36.588 C390.816,36.588 390.448,36.22 390.448,35.356 L390.448,30.028 L392.656,30.028 L392.512,29.02 L390.448,29.02 L390.448,25.884 L389.28,26.092 L389.28,29.02 L387.92,29.02 L387.92,30.028 L389.28,30.028 L389.28,35.564 C389.28,37.132 390.176,37.644 391.552,37.644 C392.08,37.644 392.528,37.564 392.768,37.5 L392.768,37.5 Z M402.496,33.26 C402.496,30.46 400.784,28.844 398.512,28.844 C396.288,28.844 394.56,30.46 394.56,33.26 C394.56,36.06 396.256,37.676 398.512,37.676 C400.752,37.676 402.496,36.06 402.496,33.26 L402.496,33.26 Z M401.28,33.26 C401.28,35.388 400.176,36.668 398.512,36.668 C396.896,36.668 395.792,35.324 395.792,33.26 C395.792,31.148 396.864,29.852 398.512,29.852 C400.16,29.852 401.28,31.196 401.28,33.26 L401.28,33.26 Z M415.584,36.716 L415.424,35.628 C414.512,36.364 413.648,36.636 412.72,36.636 C411.04,36.636 409.856,35.388 409.856,33.26 C409.856,31.084 411.024,29.884 412.656,29.884 C413.664,29.884 414.48,30.236 415.312,30.892 L415.504,29.708 C414.816,29.212 413.856,28.844 412.672,28.844 C410.416,28.844 408.624,30.412 408.624,33.26 C408.624,36.076 410.352,37.676 412.608,37.676 C413.808,37.676 414.768,37.34 415.584,36.716 L415.584,36.716 Z M419.296,37.5 L419.296,24.636 L418.112,24.844 L418.112,37.5 L419.296,37.5 Z M429.2,36.476 L429.024,35.404 C428.128,36.14 427.088,36.652 425.936,36.652 C424.144,36.652 423.136,35.436 423.104,33.34 L429.216,33.34 L429.216,33.084 C429.216,30.732 428.048,28.844 425.664,28.844 C423.488,28.844 421.888,30.54 421.888,33.244 C421.888,36.172 423.552,37.676 425.856,37.676 C427.2,37.676 428.336,37.196 429.2,36.476 L429.2,36.476 Z M425.648,29.788 C427.088,29.788 427.888,30.876 428,32.412 L423.152,32.412 C423.376,30.716 424.336,29.788 425.648,29.788 L425.648,29.788 Z M436.8,35.388 C435.936,36.172 434.88,36.668 433.936,36.668 C433.008,36.668 432.336,36.188 432.336,35.292 C432.336,34.14 433.328,33.356 436.8,33.004 L436.8,35.388 Z M437.984,37.5 L437.984,31.452 C437.984,29.708 436.992,28.844 435.056,28.844 C433.808,28.844 432.8,29.148 431.776,29.58 L431.936,30.636 C432.912,30.188 433.936,29.9 434.96,29.9 C436.096,29.9 436.8,30.38 436.8,31.516 L436.8,32.076 C432.8,32.444 431.136,33.372 431.136,35.372 C431.136,36.86 432.256,37.676 433.776,37.676 C435.024,37.676 436.048,37.1 436.88,36.364 L437.088,37.5 L437.984,37.5 Z M445.424,29.964 L445.232,28.844 C443.776,28.876 442.752,29.804 442.096,30.764 L441.808,29.02 L440.944,29.02 L440.944,37.5 L442.128,37.5 L442.128,32.188 C442.72,31.052 443.968,30.044 445.424,29.964 L445.424,29.964 Z M458.576,29.02 L457.344,29.02 L454.72,36.108 L451.984,28.908 L450.784,29.132 L454.128,37.548 L453.76,38.428 C453.392,39.356 452.944,39.676 452.192,39.676 C451.936,39.676 451.696,39.644 451.504,39.612 L451.68,40.668 C451.824,40.7 451.984,40.716 452.208,40.716 C453.44,40.716 454.208,40.236 454.832,38.604 L458.576,29.02 Z M468.096,33.26 C468.096,30.46 466.384,28.844 464.112,28.844 C461.888,28.844 460.16,30.46 460.16,33.26 C460.16,36.06 461.856,37.676 464.112,37.676 C466.352,37.676 468.096,36.06 468.096,33.26 L468.096,33.26 Z M466.88,33.26 C466.88,35.388 465.776,36.668 464.112,36.668 C462.496,36.668 461.392,35.324 461.392,33.26 C461.392,31.148 462.464,29.852 464.112,29.852 C465.76,29.852 466.88,31.196 466.88,33.26 L466.88,33.26 Z M477.408,37.5 L477.408,29.02 L476.224,29.02 L476.224,35.148 C475.248,36.06 474.288,36.604 473.344,36.604 C472.208,36.604 471.68,35.948 471.68,34.86 L471.68,29.02 L470.48,29.02 L470.48,35.084 C470.48,36.7 471.36,37.676 473.12,37.676 C474.304,37.676 475.312,37.068 476.288,36.252 L476.496,37.5 L477.408,37.5 Z M484.928,29.964 L484.736,28.844 C483.28,28.876 482.256,29.804 481.6,30.764 L481.312,29.02 L480.448,29.02 L480.448,37.5 L481.632,37.5 L481.632,32.188 C482.224,31.052 483.472,30.044 484.928,29.964 L484.928,29.964 Z M497.568,36.716 L497.408,35.628 C496.496,36.364 495.632,36.636 494.704,36.636 C493.024,36.636 491.84,35.388 491.84,33.26 C491.84,31.084 493.008,29.884 494.64,29.884 C495.648,29.884 496.464,30.236 497.296,30.892 L497.488,29.708 C496.8,29.212 495.84,28.844 494.656,28.844 C492.4,28.844 490.608,30.412 490.608,33.26 C490.608,36.076 492.336,37.676 494.592,37.676 C495.792,37.676 496.752,37.34 497.568,36.716 L497.568,36.716 Z M505.056,35.388 C504.192,36.172 503.136,36.668 502.192,36.668 C501.264,36.668 500.592,36.188 500.592,35.292 C500.592,34.14 501.584,33.356 505.056,33.004 L505.056,35.388 Z M506.24,37.5 L506.24,31.452 C506.24,29.708 505.248,28.844 503.312,28.844 C502.064,28.844 501.056,29.148 500.032,29.58 L500.192,30.636 C501.168,30.188 502.192,29.9 503.216,29.9 C504.352,29.9 505.056,30.38 505.056,31.516 L505.056,32.076 C501.056,32.444 499.392,33.372 499.392,35.372 C499.392,36.86 500.512,37.676 502.032,37.676 C503.28,37.676 504.304,37.1 505.136,36.364 L505.344,37.5 L506.24,37.5 Z M515.6,36.716 L515.44,35.628 C514.528,36.364 513.664,36.636 512.736,36.636 C511.056,36.636 509.872,35.388 509.872,33.26 C509.872,31.084 511.04,29.884 512.672,29.884 C513.68,29.884 514.496,30.236 515.328,30.892 L515.52,29.708 C514.832,29.212 513.872,28.844 512.688,28.844 C510.432,28.844 508.64,30.412 508.64,33.26 C508.64,36.076 510.368,37.676 512.624,37.676 C513.824,37.676 514.784,37.34 515.6,36.716 L515.6,36.716 Z M524.928,37.5 L524.928,31.42 C524.928,29.804 524.048,28.844 522.288,28.844 C521.088,28.844 520.112,29.452 519.184,30.22 L519.184,24.636 L518,24.844 L518,37.5 L519.184,37.5 L519.184,31.372 C520.16,30.46 521.12,29.916 522.064,29.916 C523.2,29.916 523.728,30.572 523.728,31.66 L523.728,37.5 L524.928,37.5 Z M534.624,36.476 L534.448,35.404 C533.552,36.14 532.512,36.652 531.36,36.652 C529.568,36.652 528.56,35.436 528.528,33.34 L534.64,33.34 L534.64,33.084 C534.64,30.732 533.472,28.844 531.088,28.844 C528.912,28.844 527.312,30.54 527.312,33.244 C527.312,36.172 528.976,37.676 531.28,37.676 C532.624,37.676 533.76,37.196 534.624,36.476 L534.624,36.476 Z M531.072,29.788 C532.512,29.788 533.312,30.876 533.424,32.412 L528.576,32.412 C528.8,30.716 529.76,29.788 531.072,29.788 L531.072,29.788 Z M545.248,37.5 L545.088,36.508 C544.88,36.556 544.544,36.588 544.256,36.588 C543.296,36.588 542.928,36.22 542.928,35.356 L542.928,30.028 L545.136,30.028 L544.992,29.02 L542.928,29.02 L542.928,25.884 L541.76,26.092 L541.76,29.02 L540.4,29.02 L540.4,30.028 L541.76,30.028 L541.76,35.564 C541.76,37.132 542.656,37.644 544.032,37.644 C544.56,37.644 545.008,37.564 545.248,37.5 L545.248,37.5 Z M554.976,33.26 C554.976,30.46 553.264,28.844 550.992,28.844 C548.768,28.844 547.04,30.46 547.04,33.26 C547.04,36.06 548.736,37.676 550.992,37.676 C553.232,37.676 554.976,36.06 554.976,33.26 L554.976,33.26 Z M553.76,33.26 C553.76,35.388 552.656,36.668 550.992,36.668 C549.376,36.668 548.272,35.324 548.272,33.26 C548.272,31.148 549.344,29.852 550.992,29.852 C552.64,29.852 553.76,31.196 553.76,33.26 L553.76,33.26 Z M567.488,35.196 C567.488,33.692 566.48,33.052 564.4,32.524 C562.896,32.14 562.416,31.788 562.416,31.1 C562.416,30.396 562.992,29.884 564.208,29.884 C565.088,29.884 565.984,30.14 566.768,30.556 L566.96,29.42 C566.208,29.068 565.28,28.844 564.256,28.844 C562.432,28.844 561.264,29.82 561.264,31.132 C561.264,32.54 562.112,33.148 564.048,33.644 C565.824,34.076 566.336,34.46 566.336,35.292 C566.336,36.156 565.568,36.636 564.32,36.636 C563.152,36.636 562.08,36.236 561.248,35.74 L561.056,36.876 C561.824,37.292 563.04,37.66 564.208,37.66 C566.224,37.66 567.488,36.748 567.488,35.196 L567.488,35.196 Z M576.688,36.476 L576.512,35.404 C575.616,36.14 574.576,36.652 573.424,36.652 C571.632,36.652 570.624,35.436 570.592,33.34 L576.704,33.34 L576.704,33.084 C576.704,30.732 575.536,28.844 573.152,28.844 C570.976,28.844 569.376,30.54 569.376,33.244 C569.376,36.172 571.04,37.676 573.344,37.676 C574.688,37.676 575.824,37.196 576.688,36.476 L576.688,36.476 Z M573.136,29.788 C574.576,29.788 575.376,30.876 575.488,32.412 L570.64,32.412 C570.864,30.716 571.824,29.788 573.136,29.788 L573.136,29.788 Z M585.952,36.476 L585.776,35.404 C584.88,36.14 583.84,36.652 582.688,36.652 C580.896,36.652 579.888,35.436 579.856,33.34 L585.968,33.34 L585.968,33.084 C585.968,30.732 584.8,28.844 582.416,28.844 C580.24,28.844 578.64,30.54 578.64,33.244 C578.64,36.172 580.304,37.676 582.608,37.676 C583.952,37.676 585.088,37.196 585.952,36.476 L585.952,36.476 Z M582.4,29.788 C583.84,29.788 584.64,30.876 584.752,32.412 L579.904,32.412 C580.128,30.716 581.088,29.788 582.4,29.788 L582.4,29.788 Z M596.576,37.5 L596.416,36.508 C596.208,36.556 595.872,36.588 595.584,36.588 C594.624,36.588 594.256,36.22 594.256,35.356 L594.256,30.028 L596.464,30.028 L596.32,29.02 L594.256,29.02 L594.256,25.884 L593.088,26.092 L593.088,29.02 L591.728,29.02 L591.728,30.028 L593.088,30.028 L593.088,35.564 C593.088,37.132 593.984,37.644 595.36,37.644 C595.888,37.644 596.336,37.564 596.576,37.5 L596.576,37.5 Z M605.856,37.5 L605.856,31.42 C605.856,29.804 604.976,28.844 603.216,28.844 C602.016,28.844 601.04,29.452 600.112,30.22 L600.112,24.636 L598.928,24.844 L598.928,37.5 L600.112,37.5 L600.112,31.372 C601.088,30.46 602.048,29.916 602.992,29.916 C604.128,29.916 604.656,30.572 604.656,31.66 L604.656,37.5 L605.856,37.5 Z M615.552,36.476 L615.376,35.404 C614.48,36.14 613.44,36.652 612.288,36.652 C610.496,36.652 609.488,35.436 609.456,33.34 L615.568,33.34 L615.568,33.084 C615.568,30.732 614.4,28.844 612.016,28.844 C609.84,28.844 608.24,30.54 608.24,33.244 C608.24,36.172 609.904,37.676 612.208,37.676 C613.552,37.676 614.688,37.196 615.552,36.476 L615.552,36.476 Z M612,29.788 C613.44,29.788 614.24,30.876 614.352,32.412 L609.504,32.412 C609.728,30.716 610.688,29.788 612,29.788 L612,29.788 Z M628.672,36.716 L628.512,35.628 C627.6,36.364 626.736,36.636 625.808,36.636 C624.128,36.636 622.944,35.388 622.944,33.26 C622.944,31.084 624.112,29.884 625.744,29.884 C626.752,29.884 627.568,30.236 628.4,30.892 L628.592,29.708 C627.904,29.212 626.944,28.844 625.76,28.844 C623.504,28.844 621.712,30.412 621.712,33.26 C621.712,36.076 623.44,37.676 625.696,37.676 C626.896,37.676 627.856,37.34 628.672,36.716 L628.672,36.716 Z M638,37.5 L638,31.42 C638,29.804 637.12,28.844 635.36,28.844 C634.16,28.844 633.184,29.452 632.256,30.22 L632.256,24.636 L631.072,24.844 L631.072,37.5 L632.256,37.5 L632.256,31.372 C633.232,30.46 634.192,29.916 635.136,29.916 C636.272,29.916 636.8,30.572 636.8,31.66 L636.8,37.5 L638,37.5 Z M646.032,35.388 C645.168,36.172 644.112,36.668 643.168,36.668 C642.24,36.668 641.568,36.188 641.568,35.292 C641.568,34.14 642.56,33.356 646.032,33.004 L646.032,35.388 Z M647.216,37.5 L647.216,31.452 C647.216,29.708 646.224,28.844 644.288,28.844 C643.04,28.844 642.032,29.148 641.008,29.58 L641.168,30.636 C642.144,30.188 643.168,29.9 644.192,29.9 C645.328,29.9 646.032,30.38 646.032,31.516 L646.032,32.076 C642.032,32.444 640.368,33.372 640.368,35.372 C640.368,36.86 641.488,37.676 643.008,37.676 C644.256,37.676 645.28,37.1 646.112,36.364 L646.32,37.5 L647.216,37.5 Z M657.104,37.5 L657.104,31.436 C657.104,29.82 656.224,28.844 654.464,28.844 C653.264,28.844 652.272,29.452 651.296,30.268 L651.088,29.02 L650.176,29.02 L650.176,37.5 L651.36,37.5 L651.36,31.372 C652.336,30.46 653.296,29.916 654.24,29.916 C655.376,29.916 655.904,30.572 655.904,31.66 L655.904,37.5 L657.104,37.5 Z M665.056,31.724 C665.056,32.86 664.24,33.74 662.928,33.74 C661.632,33.74 660.832,32.86 660.832,31.756 C660.832,30.604 661.632,29.74 662.912,29.74 C664.176,29.74 665.056,30.604 665.056,31.724 L665.056,31.724 Z M667.232,38.172 C667.232,36.924 666.16,36.38 664.208,36.028 L663.552,35.9 C661.936,35.612 661.568,35.5 661.568,35.148 C661.568,34.956 661.76,34.748 662.144,34.556 C662.4,34.604 662.672,34.62 662.944,34.62 C664.688,34.62 666.224,33.532 666.224,31.74 C666.224,31.164 666.048,30.668 665.76,30.236 L667.52,30.044 L667.328,28.892 L665.12,29.564 C664.528,29.1 663.76,28.844 662.912,28.844 C661.2,28.844 659.648,29.948 659.648,31.74 C659.648,32.908 660.304,33.804 661.28,34.268 C660.688,34.604 660.384,34.956 660.384,35.372 C660.384,35.708 660.592,36.012 661.04,36.284 C659.712,36.924 659.024,37.676 659.024,38.524 C659.024,39.98 660.784,40.716 663.04,40.716 C665.328,40.716 667.232,39.82 667.232,38.172 L667.232,38.172 Z M663.088,36.876 L663.92,37.02 C665.504,37.308 666.08,37.676 666.08,38.332 C666.08,39.164 664.912,39.82 663.12,39.82 C661.392,39.82 660.208,39.324 660.208,38.444 C660.208,37.772 660.784,37.18 662.016,36.652 C662.352,36.732 662.64,36.796 663.088,36.876 L663.088,36.876 Z M676.288,36.476 L676.112,35.404 C675.216,36.14 674.176,36.652 673.024,36.652 C671.232,36.652 670.224,35.436 670.192,33.34 L676.304,33.34 L676.304,33.084 C676.304,30.732 675.136,28.844 672.752,28.844 C670.576,28.844 668.976,30.54 668.976,33.244 C668.976,36.172 670.64,37.676 672.944,37.676 C674.288,37.676 675.424,37.196 676.288,36.476 L676.288,36.476 Z M672.736,29.788 C674.176,29.788 674.976,30.876 675.088,32.412 L670.24,32.412 C670.464,30.716 671.424,29.788 672.736,29.788 L672.736,29.788 Z M684.624,35.196 C684.624,33.692 683.616,33.052 681.536,32.524 C680.032,32.14 679.552,31.788 679.552,31.1 C679.552,30.396 680.128,29.884 681.344,29.884 C682.224,29.884 683.12,30.14 683.904,30.556 L684.096,29.42 C683.344,29.068 682.416,28.844 681.392,28.844 C679.568,28.844 678.4,29.82 678.4,31.132 C678.4,32.54 679.248,33.148 681.184,33.644 C682.96,34.076 683.472,34.46 683.472,35.292 C683.472,36.156 682.704,36.636 681.456,36.636 C680.288,36.636 679.216,36.236 678.384,35.74 L678.192,36.876 C678.96,37.292 680.176,37.66 681.344,37.66 C683.36,37.66 684.624,36.748 684.624,35.196 L684.624,35.196 Z M688.352,37.5 L688.352,35.74 L686.944,35.74 L686.944,37.5 L688.352,37.5 Z" id="This-is-a-warning-or" fill="#303030"></path>
    </g>
    <g id="notification--neutral-copy-5" stroke="none" stroke-width="1" fill="none" fill-rule="evenodd" transform="translate(936.000000, 846.000000)">
        <g id="MUI-&gt;-Panel-Copy-5">
            <use fill="black" fill-opacity="1" filter="url(#filter-4)" xlink:href="#path-3"></use>
            <use fill="#FFFFFF" fill-rule="evenodd" xlink:href="#path-3"></use>
        </g>
        <polygon id="#F4F4F4-Copy-7" fill="#FFEE7E" points="0 0 1200 0 1200 64 0 64"></polygon>
        <path d="M32.608,29.18 C32.608,27.084 31.104,25.9 28.64,25.9 L25.68,25.9 L25.68,37.5 L26.88,37.5 L26.88,32.636 L28.368,32.636 C30.848,32.636 32.608,31.468 32.608,29.18 L32.608,29.18 Z M31.376,29.228 C31.376,30.796 30.272,31.564 28.432,31.564 L26.88,31.564 L26.88,26.972 L28.576,26.972 C30.4,26.972 31.376,27.74 31.376,29.228 L31.376,29.228 Z M36.24,37.5 L36.24,24.636 L35.056,24.844 L35.056,37.5 L36.24,37.5 Z M46.144,36.476 L45.968,35.404 C45.072,36.14 44.032,36.652 42.88,36.652 C41.088,36.652 40.08,35.436 40.048,33.34 L46.16,33.34 L46.16,33.084 C46.16,30.732 44.992,28.844 42.608,28.844 C40.432,28.844 38.832,30.54 38.832,33.244 C38.832,36.172 40.496,37.676 42.8,37.676 C44.144,37.676 45.28,37.196 46.144,36.476 L46.144,36.476 Z M42.592,29.788 C44.032,29.788 44.832,30.876 44.944,32.412 L40.096,32.412 C40.32,30.716 41.28,29.788 42.592,29.788 L42.592,29.788 Z M53.744,35.388 C52.88,36.172 51.824,36.668 50.88,36.668 C49.952,36.668 49.28,36.188 49.28,35.292 C49.28,34.14 50.272,33.356 53.744,33.004 L53.744,35.388 Z M54.928,37.5 L54.928,31.452 C54.928,29.708 53.936,28.844 52,28.844 C50.752,28.844 49.744,29.148 48.72,29.58 L48.88,30.636 C49.856,30.188 50.88,29.9 51.904,29.9 C53.04,29.9 53.744,30.38 53.744,31.516 L53.744,32.076 C49.744,32.444 48.08,33.372 48.08,35.372 C48.08,36.86 49.2,37.676 50.72,37.676 C51.968,37.676 52.992,37.1 53.824,36.364 L54.032,37.5 L54.928,37.5 Z M63.712,35.196 C63.712,33.692 62.704,33.052 60.624,32.524 C59.12,32.14 58.64,31.788 58.64,31.1 C58.64,30.396 59.216,29.884 60.432,29.884 C61.312,29.884 62.208,30.14 62.992,30.556 L63.184,29.42 C62.432,29.068 61.504,28.844 60.48,28.844 C58.656,28.844 57.488,29.82 57.488,31.132 C57.488,32.54 58.336,33.148 60.272,33.644 C62.048,34.076 62.56,34.46 62.56,35.292 C62.56,36.156 61.792,36.636 60.544,36.636 C59.376,36.636 58.304,36.236 57.472,35.74 L57.28,36.876 C58.048,37.292 59.264,37.66 60.432,37.66 C62.448,37.66 63.712,36.748 63.712,35.196 L63.712,35.196 Z M72.912,36.476 L72.736,35.404 C71.84,36.14 70.8,36.652 69.648,36.652 C67.856,36.652 66.848,35.436 66.816,33.34 L72.928,33.34 L72.928,33.084 C72.928,30.732 71.76,28.844 69.376,28.844 C67.2,28.844 65.6,30.54 65.6,33.244 C65.6,36.172 67.264,37.676 69.568,37.676 C70.912,37.676 72.048,37.196 72.912,36.476 L72.912,36.476 Z M69.36,29.788 C70.8,29.788 71.6,30.876 71.712,32.412 L66.864,32.412 C67.088,30.716 68.048,29.788 69.36,29.788 L69.36,29.788 Z M83.536,37.5 L83.376,36.508 C83.168,36.556 82.832,36.588 82.544,36.588 C81.584,36.588 81.216,36.22 81.216,35.356 L81.216,30.028 L83.424,30.028 L83.28,29.02 L81.216,29.02 L81.216,25.884 L80.048,26.092 L80.048,29.02 L78.688,29.02 L78.688,30.028 L80.048,30.028 L80.048,35.564 C80.048,37.132 80.944,37.644 82.32,37.644 C82.848,37.644 83.296,37.564 83.536,37.5 L83.536,37.5 Z M90.976,35.388 C90.112,36.172 89.056,36.668 88.112,36.668 C87.184,36.668 86.512,36.188 86.512,35.292 C86.512,34.14 87.504,33.356 90.976,33.004 L90.976,35.388 Z M92.16,37.5 L92.16,31.452 C92.16,29.708 91.168,28.844 89.232,28.844 C87.984,28.844 86.976,29.148 85.952,29.58 L86.112,30.636 C87.088,30.188 88.112,29.9 89.136,29.9 C90.272,29.9 90.976,30.38 90.976,31.516 L90.976,32.076 C86.976,32.444 85.312,33.372 85.312,35.372 C85.312,36.86 86.432,37.676 87.952,37.676 C89.2,37.676 90.224,37.1 91.056,36.364 L91.264,37.5 L92.16,37.5 Z M102.016,37.388 L97.584,32.796 L101.728,29.02 L100.176,29.02 L96.304,32.668 L96.304,24.636 L95.12,24.844 L95.12,37.5 L96.304,37.5 L96.304,33.004 L100.704,37.628 L102.016,37.388 Z M110.656,36.476 L110.48,35.404 C109.584,36.14 108.544,36.652 107.392,36.652 C105.6,36.652 104.592,35.436 104.56,33.34 L110.672,33.34 L110.672,33.084 C110.672,30.732 109.504,28.844 107.12,28.844 C104.944,28.844 103.344,30.54 103.344,33.244 C103.344,36.172 105.008,37.676 107.312,37.676 C108.656,37.676 109.792,37.196 110.656,36.476 L110.656,36.476 Z M107.104,29.788 C108.544,29.788 109.344,30.876 109.456,32.412 L104.608,32.412 C104.832,30.716 105.792,29.788 107.104,29.788 L107.104,29.788 Z" id="This-is-a-warning-or" fill="#303030"></path>
    </g>
    <path d="M1061.16,880.864 C1061.16,879.12 1060.344,878.352 1058.024,877.328 C1056.184,876.512 1055.72,876.096 1055.72,875.216 C1055.72,874.368 1056.344,873.664 1057.72,873.664 C1058.696,873.664 1059.592,874.048 1060.264,874.528 L1060.52,872.928 C1059.816,872.544 1058.952,872.272 1057.784,872.272 C1055.608,872.272 1054.136,873.472 1054.136,875.344 C1054.136,877.008 1054.984,877.728 1057.256,878.72 C1059.08,879.504 1059.576,879.936 1059.576,880.992 C1059.576,882.112 1058.664,882.736 1057.4,882.736 C1056.184,882.736 1055.048,882.272 1054.248,881.744 L1054.008,883.376 C1054.888,883.84 1056.056,884.128 1057.352,884.128 C1059.608,884.128 1061.16,882.864 1061.16,880.864 L1061.16,880.864 Z M1070.664,884 L1070.664,877.792 C1070.664,876.24 1069.768,875.28 1068.072,875.28 C1066.824,875.28 1065.8,875.952 1065.048,876.592 L1065.048,871.072 L1063.464,871.312 L1063.464,884 L1065.048,884 L1065.048,878.08 C1065.88,877.248 1066.776,876.688 1067.672,876.688 C1068.664,876.688 1069.08,877.28 1069.08,878.176 L1069.08,884 L1070.664,884 Z M1075.336,872.72 C1075.336,872.176 1074.888,871.712 1074.328,871.712 C1073.768,871.712 1073.304,872.176 1073.304,872.72 C1073.304,873.28 1073.768,873.712 1074.328,873.712 C1074.888,873.712 1075.336,873.28 1075.336,872.72 L1075.336,872.72 Z M1075.112,884 L1075.112,875.456 L1073.528,875.456 L1073.528,884 L1075.112,884 Z M1084.28,879.552 C1084.28,881.68 1083.224,882.784 1081.784,882.784 C1080.84,882.784 1080.28,882.64 1079.608,882.32 L1079.608,878.176 C1080.328,877.264 1081.112,876.672 1082.12,876.672 C1083.384,876.672 1084.28,877.68 1084.28,879.552 L1084.28,879.552 Z M1085.88,879.488 C1085.88,876.64 1084.28,875.28 1082.36,875.28 C1081.064,875.28 1080.152,875.936 1079.48,876.688 L1079.272,875.456 L1078.024,875.456 L1078.024,887.328 L1079.608,887.104 L1079.608,883.728 C1080.168,883.952 1080.968,884.112 1081.848,884.112 C1084.008,884.112 1085.88,882.608 1085.88,879.488 L1085.88,879.488 Z M1100.744,884 L1100.744,877.792 C1100.744,876.24 1099.928,875.28 1098.216,875.28 C1096.968,875.28 1095.896,875.952 1095.064,876.688 C1094.744,875.808 1094.024,875.28 1092.712,875.28 C1091.464,875.28 1090.472,875.952 1089.608,876.688 L1089.4,875.456 L1088.152,875.456 L1088.152,884 L1089.736,884 L1089.736,878.08 C1090.568,877.248 1091.416,876.688 1092.296,876.688 C1093.304,876.688 1093.656,877.28 1093.656,878.176 L1093.656,884 L1095.24,884 L1095.24,878.08 C1096.072,877.248 1096.92,876.688 1097.8,876.688 C1098.808,876.688 1099.16,877.28 1099.16,878.176 L1099.16,884 L1100.744,884 Z M1110.584,883.024 L1110.36,881.616 C1109.4,882.352 1108.44,882.832 1107.176,882.832 C1105.592,882.832 1104.616,881.904 1104.552,879.888 L1110.6,879.888 L1110.6,879.552 C1110.6,877.2 1109.416,875.28 1106.856,875.28 C1104.632,875.28 1102.968,876.96 1102.968,879.696 C1102.968,882.832 1104.744,884.176 1107.064,884.176 C1108.504,884.176 1109.656,883.744 1110.584,883.024 L1110.584,883.024 Z M1106.84,876.512 C1108.152,876.512 1108.824,877.312 1109,878.704 L1104.632,878.704 C1104.888,877.248 1105.768,876.512 1106.84,876.512 L1106.84,876.512 Z M1120.072,884 L1120.072,877.792 C1120.072,876.24 1119.176,875.28 1117.48,875.28 C1116.232,875.28 1115.192,875.952 1114.328,876.688 L1114.12,875.456 L1112.872,875.456 L1112.872,884 L1114.456,884 L1114.456,878.08 C1115.288,877.248 1116.184,876.688 1117.08,876.688 C1118.072,876.688 1118.488,877.28 1118.488,878.176 L1118.488,884 L1120.072,884 Z M1127.016,884.032 L1126.808,882.688 C1126.6,882.736 1126.328,882.752 1126.024,882.752 C1125.096,882.752 1124.776,882.32 1124.776,881.616 L1124.776,876.784 L1126.936,876.784 L1126.728,875.456 L1124.776,875.456 L1124.776,872.368 L1123.24,872.608 L1123.24,875.456 L1121.896,875.456 L1121.896,876.784 L1123.24,876.784 L1123.24,881.888 C1123.24,883.6 1124.248,884.144 1125.768,884.144 C1126.344,884.144 1126.744,884.096 1127.016,884.032 L1127.016,884.032 Z M1136.536,884 L1136.536,872.608 L1135.208,872.608 L1132.376,873.872 L1132.536,875.088 L1135.016,874.208 L1135.016,884 L1136.536,884 Z M1146.808,884 L1146.6,882.64 L1141.192,882.64 L1144.568,879.36 C1146.024,877.936 1146.632,877.024 1146.632,875.648 C1146.632,873.68 1145.24,872.432 1142.952,872.432 C1141.496,872.432 1140.312,872.976 1139.432,873.696 L1139.656,875.184 C1140.584,874.4 1141.656,873.84 1142.872,873.84 C1144.264,873.84 1145.048,874.464 1145.048,875.744 C1145.048,876.656 1144.568,877.376 1143.496,878.448 L1139.128,882.816 L1139.128,884 L1146.808,884 Z M1155.976,880.896 C1155.976,879.312 1155.096,878.448 1153.576,878.032 C1154.84,877.632 1155.736,876.816 1155.736,875.408 C1155.736,873.872 1154.632,872.432 1152.008,872.432 C1150.552,872.432 1149.496,872.832 1148.584,873.472 L1148.808,874.896 C1149.688,874.224 1150.712,873.808 1151.944,873.808 C1153.432,873.808 1154.168,874.512 1154.168,875.472 C1154.168,876.688 1153.24,877.36 1151.272,877.36 L1150.392,877.36 L1150.616,878.752 L1151.144,878.752 C1153.432,878.752 1154.408,879.536 1154.408,880.912 C1154.408,882.176 1153.432,882.832 1151.864,882.832 C1150.616,882.832 1149.656,882.48 1148.648,881.824 L1148.392,883.328 C1149.304,883.872 1150.536,884.224 1151.784,884.224 C1154.344,884.224 1155.976,882.896 1155.976,880.896 L1155.976,880.896 Z M1166.776,881.44 L1166.776,880.176 L1164.872,880.176 L1164.872,872.608 L1163.048,872.608 L1157.544,880.304 L1157.544,881.44 L1163.464,881.44 L1163.464,884 L1164.872,884 L1164.872,881.44 L1166.776,881.44 Z M1163.464,880.176 L1159.176,880.176 L1163.464,874.336 L1163.464,880.176 Z M1175.832,880.432 C1175.832,878.384 1174.344,877.008 1171.944,877.008 C1171.096,877.008 1170.504,877.152 1170.04,877.296 L1170.312,874 L1175.432,874 L1175.224,872.64 L1169.032,872.64 L1168.616,878.464 L1169.752,878.72 C1170.296,878.496 1170.888,878.352 1171.768,878.352 C1173.416,878.352 1174.296,879.2 1174.296,880.528 C1174.296,882.112 1173.112,882.88 1171.56,882.88 C1170.264,882.88 1169.192,882.464 1168.36,881.904 L1168.12,883.344 C1168.952,883.856 1170.04,884.224 1171.512,884.224 C1173.944,884.224 1175.832,882.864 1175.832,880.432 L1175.832,880.432 Z M1184.168,873.792 L1183.96,872.432 C1180.216,873.312 1177.592,875.472 1177.592,879.408 C1177.592,882.56 1179.368,884.224 1181.832,884.224 C1184.152,884.224 1185.88,882.672 1185.88,880.528 C1185.88,878.384 1184.472,877.04 1182.216,877.04 C1181.048,877.04 1180.056,877.408 1179.208,877.936 C1179.736,875.52 1181.736,874.368 1184.168,873.792 L1184.168,873.792 Z M1181.88,878.384 C1183.576,878.384 1184.344,879.216 1184.344,880.592 C1184.344,882.032 1183.32,882.88 1181.88,882.88 C1180.168,882.896 1179.08,881.488 1179.08,879.376 L1179.08,879.36 C1179.896,878.736 1180.808,878.384 1181.88,878.384 L1181.88,878.384 Z M1189.72,882.24 L1188.264,882.24 L1187.288,886.224 L1187.944,886.384 L1189.72,882.24 Z M1203.176,880.864 C1203.176,879.12 1202.36,878.352 1200.04,877.328 C1198.2,876.512 1197.736,876.096 1197.736,875.216 C1197.736,874.368 1198.36,873.664 1199.736,873.664 C1200.712,873.664 1201.608,874.048 1202.28,874.528 L1202.536,872.928 C1201.832,872.544 1200.968,872.272 1199.8,872.272 C1197.624,872.272 1196.152,873.472 1196.152,875.344 C1196.152,877.008 1197,877.728 1199.272,878.72 C1201.096,879.504 1201.592,879.936 1201.592,880.992 C1201.592,882.112 1200.68,882.736 1199.416,882.736 C1198.2,882.736 1197.064,882.272 1196.264,881.744 L1196.024,883.376 C1196.904,883.84 1198.072,884.128 1199.368,884.128 C1201.624,884.128 1203.176,882.864 1203.176,880.864 L1203.176,880.864 Z M1212.68,884 L1212.68,877.792 C1212.68,876.24 1211.784,875.28 1210.088,875.28 C1208.84,875.28 1207.816,875.952 1207.064,876.592 L1207.064,871.072 L1205.48,871.312 L1205.48,884 L1207.064,884 L1207.064,878.08 C1207.896,877.248 1208.792,876.688 1209.688,876.688 C1210.68,876.688 1211.096,877.28 1211.096,878.176 L1211.096,884 L1212.68,884 Z M1217.352,872.72 C1217.352,872.176 1216.904,871.712 1216.344,871.712 C1215.784,871.712 1215.32,872.176 1215.32,872.72 C1215.32,873.28 1215.784,873.712 1216.344,873.712 C1216.904,873.712 1217.352,873.28 1217.352,872.72 L1217.352,872.72 Z M1217.128,884 L1217.128,875.456 L1215.544,875.456 L1215.544,884 L1217.128,884 Z M1226.296,879.552 C1226.296,881.68 1225.24,882.784 1223.8,882.784 C1222.856,882.784 1222.296,882.64 1221.624,882.32 L1221.624,878.176 C1222.344,877.264 1223.128,876.672 1224.136,876.672 C1225.4,876.672 1226.296,877.68 1226.296,879.552 L1226.296,879.552 Z M1227.896,879.488 C1227.896,876.64 1226.296,875.28 1224.376,875.28 C1223.08,875.28 1222.168,875.936 1221.496,876.688 L1221.288,875.456 L1220.04,875.456 L1220.04,887.328 L1221.624,887.104 L1221.624,883.728 C1222.184,883.952 1222.984,884.112 1223.864,884.112 C1226.024,884.112 1227.896,882.608 1227.896,879.488 L1227.896,879.488 Z M1242.76,884 L1242.76,877.792 C1242.76,876.24 1241.944,875.28 1240.232,875.28 C1238.984,875.28 1237.912,875.952 1237.08,876.688 C1236.76,875.808 1236.04,875.28 1234.728,875.28 C1233.48,875.28 1232.488,875.952 1231.624,876.688 L1231.416,875.456 L1230.168,875.456 L1230.168,884 L1231.752,884 L1231.752,878.08 C1232.584,877.248 1233.432,876.688 1234.312,876.688 C1235.32,876.688 1235.672,877.28 1235.672,878.176 L1235.672,884 L1237.256,884 L1237.256,878.08 C1238.088,877.248 1238.936,876.688 1239.816,876.688 C1240.824,876.688 1241.176,877.28 1241.176,878.176 L1241.176,884 L1242.76,884 Z M1252.6,883.024 L1252.376,881.616 C1251.416,882.352 1250.456,882.832 1249.192,882.832 C1247.608,882.832 1246.632,881.904 1246.568,879.888 L1252.616,879.888 L1252.616,879.552 C1252.616,877.2 1251.432,875.28 1248.872,875.28 C1246.648,875.28 1244.984,876.96 1244.984,879.696 C1244.984,882.832 1246.76,884.176 1249.08,884.176 C1250.52,884.176 1251.672,883.744 1252.6,883.024 L1252.6,883.024 Z M1248.856,876.512 C1250.168,876.512 1250.84,877.312 1251.016,878.704 L1246.648,878.704 C1246.904,877.248 1247.784,876.512 1248.856,876.512 L1248.856,876.512 Z M1262.088,884 L1262.088,877.792 C1262.088,876.24 1261.192,875.28 1259.496,875.28 C1258.248,875.28 1257.208,875.952 1256.344,876.688 L1256.136,875.456 L1254.888,875.456 L1254.888,884 L1256.472,884 L1256.472,878.08 C1257.304,877.248 1258.2,876.688 1259.096,876.688 C1260.088,876.688 1260.504,877.28 1260.504,878.176 L1260.504,884 L1262.088,884 Z M1269.032,884.032 L1268.824,882.688 C1268.616,882.736 1268.344,882.752 1268.04,882.752 C1267.112,882.752 1266.792,882.32 1266.792,881.616 L1266.792,876.784 L1268.952,876.784 L1268.744,875.456 L1266.792,875.456 L1266.792,872.368 L1265.256,872.608 L1265.256,875.456 L1263.912,875.456 L1263.912,876.784 L1265.256,876.784 L1265.256,881.888 C1265.256,883.6 1266.264,884.144 1267.784,884.144 C1268.36,884.144 1268.76,884.096 1269.032,884.032 L1269.032,884.032 Z M1281.464,873.792 L1281.256,872.432 C1277.512,873.312 1274.888,875.472 1274.888,879.408 C1274.888,882.56 1276.664,884.224 1279.128,884.224 C1281.448,884.224 1283.176,882.672 1283.176,880.528 C1283.176,878.384 1281.768,877.04 1279.512,877.04 C1278.344,877.04 1277.352,877.408 1276.504,877.936 C1277.032,875.52 1279.032,874.368 1281.464,873.792 L1281.464,873.792 Z M1279.176,878.384 C1280.872,878.384 1281.64,879.216 1281.64,880.592 C1281.64,882.032 1280.616,882.88 1279.176,882.88 C1277.464,882.896 1276.376,881.488 1276.376,879.376 L1276.376,879.36 C1277.192,878.736 1278.104,878.384 1279.176,878.384 L1279.176,878.384 Z M1292.456,880.432 C1292.456,878.384 1290.968,877.008 1288.568,877.008 C1287.72,877.008 1287.128,877.152 1286.664,877.296 L1286.936,874 L1292.056,874 L1291.848,872.64 L1285.656,872.64 L1285.24,878.464 L1286.376,878.72 C1286.92,878.496 1287.512,878.352 1288.392,878.352 C1290.04,878.352 1290.92,879.2 1290.92,880.528 C1290.92,882.112 1289.736,882.88 1288.184,882.88 C1286.888,882.88 1285.816,882.464 1284.984,881.904 L1284.744,883.344 C1285.576,883.856 1286.664,884.224 1288.136,884.224 C1290.568,884.224 1292.456,882.864 1292.456,880.432 L1292.456,880.432 Z M1303.176,881.44 L1303.176,880.176 L1301.272,880.176 L1301.272,872.608 L1299.448,872.608 L1293.944,880.304 L1293.944,881.44 L1299.864,881.44 L1299.864,884 L1301.272,884 L1301.272,881.44 L1303.176,881.44 Z M1299.864,880.176 L1295.576,880.176 L1299.864,874.336 L1299.864,880.176 Z M1311.928,880.896 C1311.928,879.312 1311.048,878.448 1309.528,878.032 C1310.792,877.632 1311.688,876.816 1311.688,875.408 C1311.688,873.872 1310.584,872.432 1307.96,872.432 C1306.504,872.432 1305.448,872.832 1304.536,873.472 L1304.76,874.896 C1305.64,874.224 1306.664,873.808 1307.896,873.808 C1309.384,873.808 1310.12,874.512 1310.12,875.472 C1310.12,876.688 1309.192,877.36 1307.224,877.36 L1306.344,877.36 L1306.568,878.752 L1307.096,878.752 C1309.384,878.752 1310.36,879.536 1310.36,880.912 C1310.36,882.176 1309.384,882.832 1307.816,882.832 C1306.568,882.832 1305.608,882.48 1304.6,881.824 L1304.344,883.328 C1305.256,883.872 1306.488,884.224 1307.736,884.224 C1310.296,884.224 1311.928,882.896 1311.928,880.896 L1311.928,880.896 Z M1321.336,884 L1321.128,882.64 L1315.72,882.64 L1319.096,879.36 C1320.552,877.936 1321.16,877.024 1321.16,875.648 C1321.16,873.68 1319.768,872.432 1317.48,872.432 C1316.024,872.432 1314.84,872.976 1313.96,873.696 L1314.184,875.184 C1315.112,874.4 1316.184,873.84 1317.4,873.84 C1318.792,873.84 1319.576,874.464 1319.576,875.744 C1319.576,876.656 1319.096,877.376 1318.024,878.448 L1313.656,882.816 L1313.656,884 L1321.336,884 Z M1326.888,884 L1326.888,872.608 L1325.56,872.608 L1322.728,873.872 L1322.888,875.088 L1325.368,874.208 L1325.368,884 L1326.888,884 Z M1331.736,882.24 L1330.28,882.24 L1329.304,886.224 L1329.96,886.384 L1331.736,882.24 Z M1343.64,881.888 C1342.776,882.672 1341.72,883.168 1340.776,883.168 C1339.848,883.168 1339.176,882.688 1339.176,881.792 C1339.176,880.64 1340.168,879.856 1343.64,879.504 L1343.64,881.888 Z M1344.824,884 L1344.824,877.952 C1344.824,876.208 1343.832,875.344 1341.896,875.344 C1340.648,875.344 1339.64,875.648 1338.616,876.08 L1338.776,877.136 C1339.752,876.688 1340.776,876.4 1341.8,876.4 C1342.936,876.4 1343.64,876.88 1343.64,878.016 L1343.64,878.576 C1339.64,878.944 1337.976,879.872 1337.976,881.872 C1337.976,883.36 1339.096,884.176 1340.616,884.176 C1341.864,884.176 1342.888,883.6 1343.72,882.864 L1343.928,884 L1344.824,884 Z M1354.712,884 L1354.712,877.936 C1354.712,876.32 1353.832,875.344 1352.072,875.344 C1350.872,875.344 1349.88,875.952 1348.904,876.768 L1348.696,875.52 L1347.784,875.52 L1347.784,884 L1348.968,884 L1348.968,877.872 C1349.944,876.96 1350.904,876.416 1351.848,876.416 C1352.984,876.416 1353.512,877.072 1353.512,878.16 L1353.512,884 L1354.712,884 Z M1363.448,881.584 C1362.648,882.512 1361.832,883.104 1360.792,883.104 C1359.384,883.104 1358.344,882 1358.344,879.952 C1358.344,877.568 1359.592,876.416 1361.176,876.416 C1362.088,876.416 1362.76,876.592 1363.448,876.928 L1363.448,881.584 Z M1364.648,884 L1364.648,871.136 L1363.448,871.344 L1363.448,875.824 C1362.808,875.568 1362.04,875.408 1361.144,875.408 C1359.016,875.408 1357.128,876.912 1357.128,880 C1357.128,882.848 1358.76,884.176 1360.68,884.176 C1361.96,884.176 1362.84,883.536 1363.512,882.768 L1363.736,884 L1364.648,884 Z M1378.52,880.864 C1378.52,879.12 1377.704,878.352 1375.384,877.328 C1373.544,876.512 1373.08,876.096 1373.08,875.216 C1373.08,874.368 1373.704,873.664 1375.08,873.664 C1376.056,873.664 1376.952,874.048 1377.624,874.528 L1377.88,872.928 C1377.176,872.544 1376.312,872.272 1375.144,872.272 C1372.968,872.272 1371.496,873.472 1371.496,875.344 C1371.496,877.008 1372.344,877.728 1374.616,878.72 C1376.44,879.504 1376.936,879.936 1376.936,880.992 C1376.936,882.112 1376.024,882.736 1374.76,882.736 C1373.544,882.736 1372.408,882.272 1371.608,881.744 L1371.368,883.376 C1372.248,883.84 1373.416,884.128 1374.712,884.128 C1376.968,884.128 1378.52,882.864 1378.52,880.864 L1378.52,880.864 Z M1388.024,884 L1388.024,877.792 C1388.024,876.24 1387.128,875.28 1385.432,875.28 C1384.184,875.28 1383.16,875.952 1382.408,876.592 L1382.408,871.072 L1380.824,871.312 L1380.824,884 L1382.408,884 L1382.408,878.08 C1383.24,877.248 1384.136,876.688 1385.032,876.688 C1386.024,876.688 1386.44,877.28 1386.44,878.176 L1386.44,884 L1388.024,884 Z M1392.696,872.72 C1392.696,872.176 1392.248,871.712 1391.688,871.712 C1391.128,871.712 1390.664,872.176 1390.664,872.72 C1390.664,873.28 1391.128,873.712 1391.688,873.712 C1392.248,873.712 1392.696,873.28 1392.696,872.72 L1392.696,872.72 Z M1392.472,884 L1392.472,875.456 L1390.888,875.456 L1390.888,884 L1392.472,884 Z M1401.64,879.552 C1401.64,881.68 1400.584,882.784 1399.144,882.784 C1398.2,882.784 1397.64,882.64 1396.968,882.32 L1396.968,878.176 C1397.688,877.264 1398.472,876.672 1399.48,876.672 C1400.744,876.672 1401.64,877.68 1401.64,879.552 L1401.64,879.552 Z M1403.24,879.488 C1403.24,876.64 1401.64,875.28 1399.72,875.28 C1398.424,875.28 1397.512,875.936 1396.84,876.688 L1396.632,875.456 L1395.384,875.456 L1395.384,887.328 L1396.968,887.104 L1396.968,883.728 C1397.528,883.952 1398.328,884.112 1399.208,884.112 C1401.368,884.112 1403.24,882.608 1403.24,879.488 L1403.24,879.488 Z M1418.104,884 L1418.104,877.792 C1418.104,876.24 1417.288,875.28 1415.576,875.28 C1414.328,875.28 1413.256,875.952 1412.424,876.688 C1412.104,875.808 1411.384,875.28 1410.072,875.28 C1408.824,875.28 1407.832,875.952 1406.968,876.688 L1406.76,875.456 L1405.512,875.456 L1405.512,884 L1407.096,884 L1407.096,878.08 C1407.928,877.248 1408.776,876.688 1409.656,876.688 C1410.664,876.688 1411.016,877.28 1411.016,878.176 L1411.016,884 L1412.6,884 L1412.6,878.08 C1413.432,877.248 1414.28,876.688 1415.16,876.688 C1416.168,876.688 1416.52,877.28 1416.52,878.176 L1416.52,884 L1418.104,884 Z M1427.944,883.024 L1427.72,881.616 C1426.76,882.352 1425.8,882.832 1424.536,882.832 C1422.952,882.832 1421.976,881.904 1421.912,879.888 L1427.96,879.888 L1427.96,879.552 C1427.96,877.2 1426.776,875.28 1424.216,875.28 C1421.992,875.28 1420.328,876.96 1420.328,879.696 C1420.328,882.832 1422.104,884.176 1424.424,884.176 C1425.864,884.176 1427.016,883.744 1427.944,883.024 L1427.944,883.024 Z M1424.2,876.512 C1425.512,876.512 1426.184,877.312 1426.36,878.704 L1421.992,878.704 C1422.248,877.248 1423.128,876.512 1424.2,876.512 L1424.2,876.512 Z M1437.432,884 L1437.432,877.792 C1437.432,876.24 1436.536,875.28 1434.84,875.28 C1433.592,875.28 1432.552,875.952 1431.688,876.688 L1431.48,875.456 L1430.232,875.456 L1430.232,884 L1431.816,884 L1431.816,878.08 C1432.648,877.248 1433.544,876.688 1434.44,876.688 C1435.432,876.688 1435.848,877.28 1435.848,878.176 L1435.848,884 L1437.432,884 Z M1444.376,884.032 L1444.168,882.688 C1443.96,882.736 1443.688,882.752 1443.384,882.752 C1442.456,882.752 1442.136,882.32 1442.136,881.616 L1442.136,876.784 L1444.296,876.784 L1444.088,875.456 L1442.136,875.456 L1442.136,872.368 L1440.6,872.608 L1440.6,875.456 L1439.256,875.456 L1439.256,876.784 L1440.6,876.784 L1440.6,881.888 C1440.6,883.6 1441.608,884.144 1443.128,884.144 C1443.704,884.144 1444.104,884.096 1444.376,884.032 L1444.376,884.032 Z M1456.808,873.792 L1456.6,872.432 C1452.856,873.312 1450.232,875.472 1450.232,879.408 C1450.232,882.56 1452.008,884.224 1454.472,884.224 C1456.792,884.224 1458.52,882.672 1458.52,880.528 C1458.52,878.384 1457.112,877.04 1454.856,877.04 C1453.688,877.04 1452.696,877.408 1451.848,877.936 C1452.376,875.52 1454.376,874.368 1456.808,873.792 L1456.808,873.792 Z M1454.52,878.384 C1456.216,878.384 1456.984,879.216 1456.984,880.592 C1456.984,882.032 1455.96,882.88 1454.52,882.88 C1452.808,882.896 1451.72,881.488 1451.72,879.376 L1451.72,879.36 C1452.536,878.736 1453.448,878.384 1454.52,878.384 L1454.52,878.384 Z M1467.8,880.432 C1467.8,878.384 1466.312,877.008 1463.912,877.008 C1463.064,877.008 1462.472,877.152 1462.008,877.296 L1462.28,874 L1467.4,874 L1467.192,872.64 L1461,872.64 L1460.584,878.464 L1461.72,878.72 C1462.264,878.496 1462.856,878.352 1463.736,878.352 C1465.384,878.352 1466.264,879.2 1466.264,880.528 C1466.264,882.112 1465.08,882.88 1463.528,882.88 C1462.232,882.88 1461.16,882.464 1460.328,881.904 L1460.088,883.344 C1460.92,883.856 1462.008,884.224 1463.48,884.224 C1465.912,884.224 1467.8,882.864 1467.8,880.432 L1467.8,880.432 Z M1478.52,881.44 L1478.52,880.176 L1476.616,880.176 L1476.616,872.608 L1474.792,872.608 L1469.288,880.304 L1469.288,881.44 L1475.208,881.44 L1475.208,884 L1476.616,884 L1476.616,881.44 L1478.52,881.44 Z M1475.208,880.176 L1470.92,880.176 L1475.208,874.336 L1475.208,880.176 Z M1486.568,873.792 L1486.36,872.432 C1482.616,873.312 1479.992,875.472 1479.992,879.408 C1479.992,882.56 1481.768,884.224 1484.232,884.224 C1486.552,884.224 1488.28,882.672 1488.28,880.528 C1488.28,878.384 1486.872,877.04 1484.616,877.04 C1483.448,877.04 1482.456,877.408 1481.608,877.936 C1482.136,875.52 1484.136,874.368 1486.568,873.792 L1486.568,873.792 Z M1484.28,878.384 C1485.976,878.384 1486.744,879.216 1486.744,880.592 C1486.744,882.032 1485.72,882.88 1484.28,882.88 C1482.568,882.896 1481.48,881.488 1481.48,879.376 L1481.48,879.36 C1482.296,878.736 1483.208,878.384 1484.28,878.384 L1484.28,878.384 Z M1497.56,880.432 C1497.56,878.384 1496.072,877.008 1493.672,877.008 C1492.824,877.008 1492.232,877.152 1491.768,877.296 L1492.04,874 L1497.16,874 L1496.952,872.64 L1490.76,872.64 L1490.344,878.464 L1491.48,878.72 C1492.024,878.496 1492.616,878.352 1493.496,878.352 C1495.144,878.352 1496.024,879.2 1496.024,880.528 C1496.024,882.112 1494.84,882.88 1493.288,882.88 C1491.992,882.88 1490.92,882.464 1490.088,881.904 L1489.848,883.344 C1490.68,883.856 1491.768,884.224 1493.24,884.224 C1495.672,884.224 1497.56,882.864 1497.56,880.432 L1497.56,880.432 Z M1508.28,881.44 L1508.28,880.176 L1506.376,880.176 L1506.376,872.608 L1504.552,872.608 L1499.048,880.304 L1499.048,881.44 L1504.968,881.44 L1504.968,884 L1506.376,884 L1506.376,881.44 L1508.28,881.44 Z M1504.968,880.176 L1500.68,880.176 L1504.968,874.336 L1504.968,880.176 Z M1518.424,884 L1518.264,883.008 C1518.056,883.056 1517.72,883.088 1517.432,883.088 C1516.472,883.088 1516.104,882.72 1516.104,881.856 L1516.104,876.528 L1518.312,876.528 L1518.168,875.52 L1516.104,875.52 L1516.104,872.384 L1514.936,872.592 L1514.936,875.52 L1513.576,875.52 L1513.576,876.528 L1514.936,876.528 L1514.936,882.064 C1514.936,883.632 1515.832,884.144 1517.208,884.144 C1517.736,884.144 1518.184,884.064 1518.424,884 L1518.424,884 Z M1528.152,879.76 C1528.152,876.96 1526.44,875.344 1524.168,875.344 C1521.944,875.344 1520.216,876.96 1520.216,879.76 C1520.216,882.56 1521.912,884.176 1524.168,884.176 C1526.408,884.176 1528.152,882.56 1528.152,879.76 L1528.152,879.76 Z M1526.936,879.76 C1526.936,881.888 1525.832,883.168 1524.168,883.168 C1522.552,883.168 1521.448,881.824 1521.448,879.76 C1521.448,877.648 1522.52,876.352 1524.168,876.352 C1525.816,876.352 1526.936,877.696 1526.936,879.76 L1526.936,879.76 Z M1538.744,884 L1538.584,883.008 C1538.376,883.056 1538.04,883.088 1537.752,883.088 C1536.792,883.088 1536.424,882.72 1536.424,881.856 L1536.424,876.528 L1538.632,876.528 L1538.488,875.52 L1536.424,875.52 L1536.424,872.384 L1535.256,872.592 L1535.256,875.52 L1533.896,875.52 L1533.896,876.528 L1535.256,876.528 L1535.256,882.064 C1535.256,883.632 1536.152,884.144 1537.528,884.144 C1538.056,884.144 1538.504,884.064 1538.744,884 L1538.744,884 Z M1548.024,884 L1548.024,877.92 C1548.024,876.304 1547.144,875.344 1545.384,875.344 C1544.184,875.344 1543.208,875.952 1542.28,876.72 L1542.28,871.136 L1541.096,871.344 L1541.096,884 L1542.28,884 L1542.28,877.872 C1543.256,876.96 1544.216,876.416 1545.16,876.416 C1546.296,876.416 1546.824,877.072 1546.824,878.16 L1546.824,884 L1548.024,884 Z M1557.72,882.976 L1557.544,881.904 C1556.648,882.64 1555.608,883.152 1554.456,883.152 C1552.664,883.152 1551.656,881.936 1551.624,879.84 L1557.736,879.84 L1557.736,879.584 C1557.736,877.232 1556.568,875.344 1554.184,875.344 C1552.008,875.344 1550.408,877.04 1550.408,879.744 C1550.408,882.672 1552.072,884.176 1554.376,884.176 C1555.72,884.176 1556.856,883.696 1557.72,882.976 L1557.72,882.976 Z M1554.168,876.288 C1555.608,876.288 1556.408,877.376 1556.52,878.912 L1551.672,878.912 C1551.896,877.216 1552.856,876.288 1554.168,876.288 L1554.168,876.288 Z M1572.488,883.84 L1568.712,878.816 C1570.28,878.464 1571.528,877.408 1571.528,875.616 C1571.528,873.6 1570.056,872.4 1567.64,872.4 L1564.6,872.4 L1564.6,884 L1565.8,884 L1565.8,878.96 L1567.384,878.96 L1571.224,884.112 L1572.488,883.84 Z M1570.296,875.68 C1570.296,877.12 1569.16,877.936 1567.384,877.936 L1565.8,877.936 L1565.8,873.472 L1567.576,873.472 C1569.384,873.472 1570.296,874.304 1570.296,875.68 L1570.296,875.68 Z M1581.224,882.976 L1581.048,881.904 C1580.152,882.64 1579.112,883.152 1577.96,883.152 C1576.168,883.152 1575.16,881.936 1575.128,879.84 L1581.24,879.84 L1581.24,879.584 C1581.24,877.232 1580.072,875.344 1577.688,875.344 C1575.512,875.344 1573.912,877.04 1573.912,879.744 C1573.912,882.672 1575.576,884.176 1577.88,884.176 C1579.224,884.176 1580.36,883.696 1581.224,882.976 L1581.224,882.976 Z M1577.672,876.288 C1579.112,876.288 1579.912,877.376 1580.024,878.912 L1575.176,878.912 C1575.4,877.216 1576.36,876.288 1577.672,876.288 L1577.672,876.288 Z M1587.496,872.336 L1587.32,871.232 C1587.128,871.216 1586.968,871.2 1586.696,871.2 C1585.192,871.2 1584.232,871.904 1584.232,873.472 L1584.232,875.52 L1582.872,875.52 L1582.872,876.528 L1584.232,876.528 L1584.232,884 L1585.4,884 L1585.4,876.528 L1587.384,876.528 L1587.224,875.52 L1585.4,875.52 L1585.4,873.568 C1585.4,872.64 1585.912,872.272 1586.744,872.272 C1587.096,872.272 1587.32,872.304 1587.496,872.336 L1587.496,872.336 Z M1590.984,872.64 C1590.984,872.176 1590.6,871.792 1590.12,871.792 C1589.64,871.792 1589.24,872.176 1589.24,872.64 C1589.24,873.104 1589.64,873.504 1590.12,873.504 C1590.6,873.504 1590.984,873.104 1590.984,872.64 L1590.984,872.64 Z M1590.712,884 L1590.712,875.52 L1589.528,875.52 L1589.528,884 L1590.712,884 Z M1600.504,883.904 L1597.432,879.616 L1600.328,875.52 L1599.048,875.52 L1596.792,878.784 L1594.44,875.392 L1593.256,875.616 L1596.12,879.648 L1593.064,884 L1594.36,884 L1596.76,880.464 L1599.32,884.128 L1600.504,883.904 Z M1612.776,881.696 C1612.776,880.192 1611.768,879.552 1609.688,879.024 C1608.184,878.64 1607.704,878.288 1607.704,877.6 C1607.704,876.896 1608.28,876.384 1609.496,876.384 C1610.376,876.384 1611.272,876.64 1612.056,877.056 L1612.248,875.92 C1611.496,875.568 1610.568,875.344 1609.544,875.344 C1607.72,875.344 1606.552,876.32 1606.552,877.632 C1606.552,879.04 1607.4,879.648 1609.336,880.144 C1611.112,880.576 1611.624,880.96 1611.624,881.792 C1611.624,882.656 1610.856,883.136 1609.608,883.136 C1608.44,883.136 1607.368,882.736 1606.536,882.24 L1606.344,883.376 C1607.112,883.792 1608.328,884.16 1609.496,884.16 C1611.512,884.16 1612.776,883.248 1612.776,881.696 L1612.776,881.696 Z M1619.128,884 L1618.968,883.008 C1618.76,883.056 1618.424,883.088 1618.136,883.088 C1617.176,883.088 1616.808,882.72 1616.808,881.856 L1616.808,876.528 L1619.016,876.528 L1618.872,875.52 L1616.808,875.52 L1616.808,872.384 L1615.64,872.592 L1615.64,875.52 L1614.28,875.52 L1614.28,876.528 L1615.64,876.528 L1615.64,882.064 C1615.64,883.632 1616.536,884.144 1617.912,884.144 C1618.44,884.144 1618.888,884.064 1619.128,884 L1619.128,884 Z M1626.568,881.888 C1625.704,882.672 1624.648,883.168 1623.704,883.168 C1622.776,883.168 1622.104,882.688 1622.104,881.792 C1622.104,880.64 1623.096,879.856 1626.568,879.504 L1626.568,881.888 Z M1627.752,884 L1627.752,877.952 C1627.752,876.208 1626.76,875.344 1624.824,875.344 C1623.576,875.344 1622.568,875.648 1621.544,876.08 L1621.704,877.136 C1622.68,876.688 1623.704,876.4 1624.728,876.4 C1625.864,876.4 1626.568,876.88 1626.568,878.016 L1626.568,878.576 C1622.568,878.944 1620.904,879.872 1620.904,881.872 C1620.904,883.36 1622.024,884.176 1623.544,884.176 C1624.792,884.176 1625.816,883.6 1626.648,882.864 L1626.856,884 L1627.752,884 Z M1634.616,884 L1634.456,883.008 C1634.248,883.056 1633.912,883.088 1633.624,883.088 C1632.664,883.088 1632.296,882.72 1632.296,881.856 L1632.296,876.528 L1634.504,876.528 L1634.36,875.52 L1632.296,875.52 L1632.296,872.384 L1631.128,872.592 L1631.128,875.52 L1629.768,875.52 L1629.768,876.528 L1631.128,876.528 L1631.128,882.064 C1631.128,883.632 1632.024,884.144 1633.4,884.144 C1633.928,884.144 1634.376,884.064 1634.616,884 L1634.616,884 Z M1638.552,872.64 C1638.552,872.176 1638.168,871.792 1637.688,871.792 C1637.208,871.792 1636.808,872.176 1636.808,872.64 C1636.808,873.104 1637.208,873.504 1637.688,873.504 C1638.168,873.504 1638.552,873.104 1638.552,872.64 L1638.552,872.64 Z M1638.28,884 L1638.28,875.52 L1637.096,875.52 L1637.096,884 L1638.28,884 Z M1648.808,879.76 C1648.808,876.96 1647.096,875.344 1644.824,875.344 C1642.6,875.344 1640.872,876.96 1640.872,879.76 C1640.872,882.56 1642.568,884.176 1644.824,884.176 C1647.064,884.176 1648.808,882.56 1648.808,879.76 L1648.808,879.76 Z M1647.592,879.76 C1647.592,881.888 1646.488,883.168 1644.824,883.168 C1643.208,883.168 1642.104,881.824 1642.104,879.76 C1642.104,877.648 1643.176,876.352 1644.824,876.352 C1646.472,876.352 1647.592,877.696 1647.592,879.76 L1647.592,879.76 Z M1658.216,884 L1658.216,877.936 C1658.216,876.32 1657.336,875.344 1655.576,875.344 C1654.376,875.344 1653.384,875.952 1652.408,876.768 L1652.2,875.52 L1651.288,875.52 L1651.288,884 L1652.472,884 L1652.472,877.872 C1653.448,876.96 1654.408,876.416 1655.352,876.416 C1656.488,876.416 1657.016,877.072 1657.016,878.16 L1657.016,884 L1658.216,884 Z M1662.44,884 L1662.44,882.24 L1661.032,882.24 L1661.032,884 L1662.44,884 Z" id="Shipment-123456,-Shi-Copy" stroke="none" fill="#303030" fill-rule="evenodd"></path>
</svg>
