
<svg width="1230px" height="94px" viewBox="925 1155 1230 94" version="1.1" xmlns="http://www.w3.org/2000/svg" xmlns:xlink="http://www.w3.org/1999/xlink">
    <!-- Generator: Sketch 40.3 (33839) - http://www.bohemiancoding.com/sketch -->
    <desc>Created with Sketch.</desc>
    <defs>
        <rect id="path-1" x="940" y="1166" width="1200" height="64"></rect>
        <filter x="-50%" y="-50%" width="200%" height="200%" filterUnits="objectBoundingBox" id="filter-2">
            <feOffset dx="0" dy="2" in="SourceAlpha" result="shadowOffsetOuter1"></feOffset>
            <feGaussianBlur stdDeviation="5" in="shadowOffsetOuter1" result="shadowBlurOuter1"></feGaussianBlur>
            <feColorMatrix values="0 0 0 0 0   0 0 0 0 0   0 0 0 0 0  0 0 0 0.12 0" type="matrix" in="shadowBlurOuter1" result="shadowMatrixOuter1"></feColorMatrix>
            <feOffset dx="0" dy="2" in="SourceAlpha" result="shadowOffsetOuter2"></feOffset>
            <feGaussianBlur stdDeviation="2.5" in="shadowOffsetOuter2" result="shadowBlurOuter2"></feGaussianBlur>
            <feColorMatrix values="0 0 0 0 0   0 0 0 0 0   0 0 0 0 0  0 0 0 0.16 0" type="matrix" in="shadowBlurOuter2" result="shadowMatrixOuter2"></feColorMatrix>
            <feMerge>
                <feMergeNode in="shadowMatrixOuter1"></feMergeNode>
                <feMergeNode in="shadowMatrixOuter2"></feMergeNode>
            </feMerge>
        </filter>
    </defs>
    <g id="MUI-&gt;-Panel-Copy-5" stroke="none" fill="none">
        <use fill="black" fill-opacity="1" filter="url(#filter-2)" xlink:href="#path-1"></use>
        <use fill="#FFFFFF" fill-rule="evenodd" xlink:href="#path-1"></use>
    </g>
    <polygon id="#F4F4F4-Copy-7" stroke="none" fill="#00A19A" fill-rule="evenodd" points="940 1166 2140 1166 2140 1230 940 1230"></polygon>
    <path d="M972.08,1200.944 C972.08,1199.232 971.168,1198.4 968.928,1197.456 C967.072,1196.656 966.496,1196.176 966.496,1195.136 C966.496,1194.144 967.28,1193.344 968.704,1193.344 C969.696,1193.344 970.544,1193.664 971.232,1194.096 L971.408,1192.896 C970.768,1192.528 969.888,1192.272 968.736,1192.272 C966.752,1192.272 965.28,1193.456 965.28,1195.216 C965.28,1196.848 966.112,1197.584 968.432,1198.56 C970.256,1199.344 970.864,1199.888 970.864,1201.024 C970.864,1202.304 969.792,1203.072 968.384,1203.072 C967.152,1203.072 966.048,1202.64 965.296,1202.176 L965.12,1203.408 C965.936,1203.824 967.04,1204.128 968.336,1204.128 C970.448,1204.128 972.08,1202.928 972.08,1200.944 L972.08,1200.944 Z M981.424,1204 L981.424,1195.52 L980.24,1195.52 L980.24,1201.648 C979.264,1202.56 978.304,1203.104 977.36,1203.104 C976.224,1203.104 975.696,1202.448 975.696,1201.36 L975.696,1195.52 L974.496,1195.52 L974.496,1201.584 C974.496,1203.2 975.376,1204.176 977.136,1204.176 C978.32,1204.176 979.328,1203.568 980.304,1202.752 L980.512,1204 L981.424,1204 Z M990.864,1203.216 L990.704,1202.128 C989.792,1202.864 988.928,1203.136 988,1203.136 C986.32,1203.136 985.136,1201.888 985.136,1199.76 C985.136,1197.584 986.304,1196.384 987.936,1196.384 C988.944,1196.384 989.76,1196.736 990.592,1197.392 L990.784,1196.208 C990.096,1195.712 989.136,1195.344 987.952,1195.344 C985.696,1195.344 983.904,1196.912 983.904,1199.76 C983.904,1202.576 985.632,1204.176 987.888,1204.176 C989.088,1204.176 990.048,1203.84 990.864,1203.216 L990.864,1203.216 Z M999.664,1203.216 L999.504,1202.128 C998.592,1202.864 997.728,1203.136 996.8,1203.136 C995.12,1203.136 993.936,1201.888 993.936,1199.76 C993.936,1197.584 995.104,1196.384 996.736,1196.384 C997.744,1196.384 998.56,1196.736 999.392,1197.392 L999.584,1196.208 C998.896,1195.712 997.936,1195.344 996.752,1195.344 C994.496,1195.344 992.704,1196.912 992.704,1199.76 C992.704,1202.576 994.432,1204.176 996.688,1204.176 C997.888,1204.176 998.848,1203.84 999.664,1203.216 L999.664,1203.216 Z M1008.816,1202.976 L1008.64,1201.904 C1007.744,1202.64 1006.704,1203.152 1005.552,1203.152 C1003.76,1203.152 1002.752,1201.936 1002.72,1199.84 L1008.832,1199.84 L1008.832,1199.584 C1008.832,1197.232 1007.664,1195.344 1005.28,1195.344 C1003.104,1195.344 1001.504,1197.04 1001.504,1199.744 C1001.504,1202.672 1003.168,1204.176 1005.472,1204.176 C1006.816,1204.176 1007.952,1203.696 1008.816,1202.976 L1008.816,1202.976 Z M1005.264,1196.288 C1006.704,1196.288 1007.504,1197.376 1007.616,1198.912 L1002.768,1198.912 C1002.992,1197.216 1003.952,1196.288 1005.264,1196.288 L1005.264,1196.288 Z M1017.152,1201.696 C1017.152,1200.192 1016.144,1199.552 1014.064,1199.024 C1012.56,1198.64 1012.08,1198.288 1012.08,1197.6 C1012.08,1196.896 1012.656,1196.384 1013.872,1196.384 C1014.752,1196.384 1015.648,1196.64 1016.432,1197.056 L1016.624,1195.92 C1015.872,1195.568 1014.944,1195.344 1013.92,1195.344 C1012.096,1195.344 1010.928,1196.32 1010.928,1197.632 C1010.928,1199.04 1011.776,1199.648 1013.712,1200.144 C1015.488,1200.576 1016,1200.96 1016,1201.792 C1016,1202.656 1015.232,1203.136 1013.984,1203.136 C1012.816,1203.136 1011.744,1202.736 1010.912,1202.24 L1010.72,1203.376 C1011.488,1203.792 1012.704,1204.16 1013.872,1204.16 C1015.888,1204.16 1017.152,1203.248 1017.152,1201.696 L1017.152,1201.696 Z M1025.424,1201.696 C1025.424,1200.192 1024.416,1199.552 1022.336,1199.024 C1020.832,1198.64 1020.352,1198.288 1020.352,1197.6 C1020.352,1196.896 1020.928,1196.384 1022.144,1196.384 C1023.024,1196.384 1023.92,1196.64 1024.704,1197.056 L1024.896,1195.92 C1024.144,1195.568 1023.216,1195.344 1022.192,1195.344 C1020.368,1195.344 1019.2,1196.32 1019.2,1197.632 C1019.2,1199.04 1020.048,1199.648 1021.984,1200.144 C1023.76,1200.576 1024.272,1200.96 1024.272,1201.792 C1024.272,1202.656 1023.504,1203.136 1022.256,1203.136 C1021.088,1203.136 1020.016,1202.736 1019.184,1202.24 L1018.992,1203.376 C1019.76,1203.792 1020.976,1204.16 1022.144,1204.16 C1024.16,1204.16 1025.424,1203.248 1025.424,1201.696 L1025.424,1201.696 Z M1031.632,1192.336 L1031.456,1191.232 C1031.264,1191.216 1031.104,1191.2 1030.832,1191.2 C1029.328,1191.2 1028.368,1191.904 1028.368,1193.472 L1028.368,1195.52 L1027.008,1195.52 L1027.008,1196.528 L1028.368,1196.528 L1028.368,1204 L1029.536,1204 L1029.536,1196.528 L1031.52,1196.528 L1031.36,1195.52 L1029.536,1195.52 L1029.536,1193.568 C1029.536,1192.64 1030.048,1192.272 1030.88,1192.272 C1031.232,1192.272 1031.456,1192.304 1031.632,1192.336 L1031.632,1192.336 Z M1040.368,1204 L1040.368,1195.52 L1039.184,1195.52 L1039.184,1201.648 C1038.208,1202.56 1037.248,1203.104 1036.304,1203.104 C1035.168,1203.104 1034.64,1202.448 1034.64,1201.36 L1034.64,1195.52 L1033.44,1195.52 L1033.44,1201.584 C1033.44,1203.2 1034.32,1204.176 1036.08,1204.176 C1037.264,1204.176 1038.272,1203.568 1039.248,1202.752 L1039.456,1204 L1040.368,1204 Z M1044.72,1204 L1044.72,1191.136 L1043.536,1191.344 L1043.536,1204 L1044.72,1204 Z M1049.184,1204 L1049.184,1191.136 L1048,1191.344 L1048,1204 L1049.184,1204 Z M1059.248,1195.52 L1058.016,1195.52 L1055.392,1202.608 L1052.656,1195.408 L1051.456,1195.632 L1054.8,1204.048 L1054.432,1204.928 C1054.064,1205.856 1053.616,1206.176 1052.864,1206.176 C1052.608,1206.176 1052.368,1206.144 1052.176,1206.112 L1052.352,1207.168 C1052.496,1207.2 1052.656,1207.216 1052.88,1207.216 C1054.112,1207.216 1054.88,1206.736 1055.504,1205.104 L1059.248,1195.52 Z M1071.424,1201.696 C1071.424,1200.192 1070.416,1199.552 1068.336,1199.024 C1066.832,1198.64 1066.352,1198.288 1066.352,1197.6 C1066.352,1196.896 1066.928,1196.384 1068.144,1196.384 C1069.024,1196.384 1069.92,1196.64 1070.704,1197.056 L1070.896,1195.92 C1070.144,1195.568 1069.216,1195.344 1068.192,1195.344 C1066.368,1195.344 1065.2,1196.32 1065.2,1197.632 C1065.2,1199.04 1066.048,1199.648 1067.984,1200.144 C1069.76,1200.576 1070.272,1200.96 1070.272,1201.792 C1070.272,1202.656 1069.504,1203.136 1068.256,1203.136 C1067.088,1203.136 1066.016,1202.736 1065.184,1202.24 L1064.992,1203.376 C1065.76,1203.792 1066.976,1204.16 1068.144,1204.16 C1070.16,1204.16 1071.424,1203.248 1071.424,1201.696 L1071.424,1201.696 Z M1075.456,1192.64 C1075.456,1192.176 1075.072,1191.792 1074.592,1191.792 C1074.112,1191.792 1073.712,1192.176 1073.712,1192.64 C1073.712,1193.104 1074.112,1193.504 1074.592,1193.504 C1075.072,1193.504 1075.456,1193.104 1075.456,1192.64 L1075.456,1192.64 Z M1075.184,1204 L1075.184,1195.52 L1074,1195.52 L1074,1204 L1075.184,1204 Z M1083.344,1198.224 C1083.344,1199.36 1082.528,1200.24 1081.216,1200.24 C1079.92,1200.24 1079.12,1199.36 1079.12,1198.256 C1079.12,1197.104 1079.92,1196.24 1081.2,1196.24 C1082.464,1196.24 1083.344,1197.104 1083.344,1198.224 L1083.344,1198.224 Z M1085.52,1204.672 C1085.52,1203.424 1084.448,1202.88 1082.496,1202.528 L1081.84,1202.4 C1080.224,1202.112 1079.856,1202 1079.856,1201.648 C1079.856,1201.456 1080.048,1201.248 1080.432,1201.056 C1080.688,1201.104 1080.96,1201.12 1081.232,1201.12 C1082.976,1201.12 1084.512,1200.032 1084.512,1198.24 C1084.512,1197.664 1084.336,1197.168 1084.048,1196.736 L1085.808,1196.544 L1085.616,1195.392 L1083.408,1196.064 C1082.816,1195.6 1082.048,1195.344 1081.2,1195.344 C1079.488,1195.344 1077.936,1196.448 1077.936,1198.24 C1077.936,1199.408 1078.592,1200.304 1079.568,1200.768 C1078.976,1201.104 1078.672,1201.456 1078.672,1201.872 C1078.672,1202.208 1078.88,1202.512 1079.328,1202.784 C1078,1203.424 1077.312,1204.176 1077.312,1205.024 C1077.312,1206.48 1079.072,1207.216 1081.328,1207.216 C1083.616,1207.216 1085.52,1206.32 1085.52,1204.672 L1085.52,1204.672 Z M1081.376,1203.376 L1082.208,1203.52 C1083.792,1203.808 1084.368,1204.176 1084.368,1204.832 C1084.368,1205.664 1083.2,1206.32 1081.408,1206.32 C1079.68,1206.32 1078.496,1205.824 1078.496,1204.944 C1078.496,1204.272 1079.072,1203.68 1080.304,1203.152 C1080.64,1203.232 1080.928,1203.296 1081.376,1203.376 L1081.376,1203.376 Z M1094.752,1204 L1094.752,1197.936 C1094.752,1196.32 1093.872,1195.344 1092.112,1195.344 C1090.912,1195.344 1089.92,1195.952 1088.944,1196.768 L1088.736,1195.52 L1087.824,1195.52 L1087.824,1204 L1089.008,1204 L1089.008,1197.872 C1089.984,1196.96 1090.944,1196.416 1091.888,1196.416 C1093.024,1196.416 1093.552,1197.072 1093.552,1198.16 L1093.552,1204 L1094.752,1204 Z M1104.448,1202.976 L1104.272,1201.904 C1103.376,1202.64 1102.336,1203.152 1101.184,1203.152 C1099.392,1203.152 1098.384,1201.936 1098.352,1199.84 L1104.464,1199.84 L1104.464,1199.584 C1104.464,1197.232 1103.296,1195.344 1100.912,1195.344 C1098.736,1195.344 1097.136,1197.04 1097.136,1199.744 C1097.136,1202.672 1098.8,1204.176 1101.104,1204.176 C1102.448,1204.176 1103.584,1203.696 1104.448,1202.976 L1104.448,1202.976 Z M1100.896,1196.288 C1102.336,1196.288 1103.136,1197.376 1103.248,1198.912 L1098.4,1198.912 C1098.624,1197.216 1099.584,1196.288 1100.896,1196.288 L1100.896,1196.288 Z M1112.752,1201.584 C1111.952,1202.512 1111.136,1203.104 1110.096,1203.104 C1108.688,1203.104 1107.648,1202 1107.648,1199.952 C1107.648,1197.568 1108.896,1196.416 1110.48,1196.416 C1111.392,1196.416 1112.064,1196.592 1112.752,1196.928 L1112.752,1201.584 Z M1113.952,1204 L1113.952,1191.136 L1112.752,1191.344 L1112.752,1195.824 C1112.112,1195.568 1111.344,1195.408 1110.448,1195.408 C1108.32,1195.408 1106.432,1196.912 1106.432,1200 C1106.432,1202.848 1108.064,1204.176 1109.984,1204.176 C1111.264,1204.176 1112.144,1203.536 1112.816,1202.768 L1113.04,1204 L1113.952,1204 Z M1128.56,1199.76 C1128.56,1196.96 1126.848,1195.344 1124.576,1195.344 C1122.352,1195.344 1120.624,1196.96 1120.624,1199.76 C1120.624,1202.56 1122.32,1204.176 1124.576,1204.176 C1126.816,1204.176 1128.56,1202.56 1128.56,1199.76 L1128.56,1199.76 Z M1127.344,1199.76 C1127.344,1201.888 1126.24,1203.168 1124.576,1203.168 C1122.96,1203.168 1121.856,1201.824 1121.856,1199.76 C1121.856,1197.648 1122.928,1196.352 1124.576,1196.352 C1126.224,1196.352 1127.344,1197.696 1127.344,1199.76 L1127.344,1199.76 Z M1137.872,1204 L1137.872,1195.52 L1136.688,1195.52 L1136.688,1201.648 C1135.712,1202.56 1134.752,1203.104 1133.808,1203.104 C1132.672,1203.104 1132.144,1202.448 1132.144,1201.36 L1132.144,1195.52 L1130.944,1195.52 L1130.944,1201.584 C1130.944,1203.2 1131.824,1204.176 1133.584,1204.176 C1134.768,1204.176 1135.776,1203.568 1136.752,1202.752 L1136.96,1204 L1137.872,1204 Z M1144.816,1204 L1144.656,1203.008 C1144.448,1203.056 1144.112,1203.088 1143.824,1203.088 C1142.864,1203.088 1142.496,1202.72 1142.496,1201.856 L1142.496,1196.528 L1144.704,1196.528 L1144.56,1195.52 L1142.496,1195.52 L1142.496,1192.384 L1141.328,1192.592 L1141.328,1195.52 L1139.968,1195.52 L1139.968,1196.528 L1141.328,1196.528 L1141.328,1202.064 C1141.328,1203.632 1142.224,1204.144 1143.6,1204.144 C1144.128,1204.144 1144.576,1204.064 1144.816,1204 L1144.816,1204 Z M1148.752,1192.4 L1147.344,1192.4 L1147.696,1200.768 L1148.4,1200.608 L1148.752,1192.4 Z M1148.736,1204 L1148.736,1202.304 L1147.36,1202.304 L1147.36,1204 L1148.736,1204 Z" id="Your-action-caused-s" stroke="none" fill="#FFFFFF" fill-rule="evenodd"></path>
</svg>
