
<svg width="389px" height="144px" viewBox="362 728 389 144" version="1.1" xmlns="http://www.w3.org/2000/svg" xmlns:xlink="http://www.w3.org/1999/xlink">
    <!-- Generator: Sketch 40.3 (33839) - http://www.bohemiancoding.com/sketch -->
    <desc>Created with Sketch.</desc>
    <defs></defs>
    <rect id="Rectangle-Copy-5" stroke="none" fill-opacity="0.75" fill="#000000" fill-rule="evenodd" x="362" y="728" width="389" height="64" rx="2"></rect>
    <path d="M401.152,762.792 C401.152,761.048 400.336,760.28 398.016,759.256 C396.176,758.44 395.712,758.024 395.712,757.144 C395.712,756.296 396.336,755.592 397.712,755.592 C398.688,755.592 399.584,755.976 400.256,756.456 L400.512,754.856 C399.808,754.472 398.944,754.2 397.776,754.2 C395.6,754.2 394.128,755.4 394.128,757.272 C394.128,758.936 394.976,759.656 397.248,760.648 C399.072,761.432 399.568,761.864 399.568,762.92 C399.568,764.04 398.656,764.664 397.392,764.664 C396.176,764.664 395.04,764.2 394.24,763.672 L394,765.304 C394.88,765.768 396.048,766.056 397.344,766.056 C399.6,766.056 401.152,764.792 401.152,762.792 L401.152,762.792 Z M408.528,763.592 C407.76,764.328 406.816,764.792 405.84,764.792 C404.992,764.792 404.48,764.344 404.48,763.64 C404.48,762.744 405.216,761.896 408.528,761.576 L408.528,763.592 Z M410.112,765.928 L410.112,759.944 C410.112,758.056 409.072,757.208 406.944,757.208 C405.6,757.208 404.592,757.512 403.536,757.928 L403.744,759.288 C404.72,758.872 405.744,758.552 406.816,758.552 C407.856,758.552 408.528,758.936 408.528,760.008 L408.528,760.376 C404.768,760.76 402.912,761.608 402.912,763.736 C402.912,765.176 403.936,766.104 405.52,766.104 C406.944,766.104 407.92,765.48 408.656,764.776 L408.848,765.928 L410.112,765.928 Z M425.44,765.928 L425.44,759.72 C425.44,758.168 424.624,757.208 422.912,757.208 C421.664,757.208 420.592,757.88 419.76,758.616 C419.44,757.736 418.72,757.208 417.408,757.208 C416.16,757.208 415.168,757.88 414.304,758.616 L414.096,757.384 L412.848,757.384 L412.848,765.928 L414.432,765.928 L414.432,760.008 C415.264,759.176 416.112,758.616 416.992,758.616 C418,758.616 418.352,759.208 418.352,760.104 L418.352,765.928 L419.936,765.928 L419.936,760.008 C420.768,759.176 421.616,758.616 422.496,758.616 C423.504,758.616 423.856,759.208 423.856,760.104 L423.856,765.928 L425.44,765.928 Z M434.432,761.48 C434.432,763.608 433.376,764.712 431.936,764.712 C430.992,764.712 430.432,764.568 429.76,764.248 L429.76,760.104 C430.48,759.192 431.264,758.6 432.272,758.6 C433.536,758.6 434.432,759.608 434.432,761.48 L434.432,761.48 Z M436.032,761.416 C436.032,758.568 434.432,757.208 432.512,757.208 C431.216,757.208 430.304,757.864 429.632,758.616 L429.424,757.384 L428.176,757.384 L428.176,769.256 L429.76,769.032 L429.76,765.656 C430.32,765.88 431.12,766.04 432,766.04 C434.16,766.04 436.032,764.536 436.032,761.416 L436.032,761.416 Z M440.016,765.928 L440.016,753 L438.432,753.24 L438.432,765.928 L440.016,765.928 Z M450.032,764.952 L449.808,763.544 C448.848,764.28 447.888,764.76 446.624,764.76 C445.04,764.76 444.064,763.832 444,761.816 L450.048,761.816 L450.048,761.48 C450.048,759.128 448.864,757.208 446.304,757.208 C444.08,757.208 442.416,758.888 442.416,761.624 C442.416,764.76 444.192,766.104 446.512,766.104 C447.952,766.104 449.104,765.672 450.032,764.952 L450.032,764.952 Z M446.288,758.44 C447.6,758.44 448.272,759.24 448.448,760.632 L444.08,760.632 C444.336,759.176 445.216,758.44 446.288,758.44 L446.288,758.44 Z M459.616,758.744 L462.576,758.744 L462.08,761.752 L459.12,761.752 L459.616,758.744 Z M464.464,754.712 L463.296,754.456 L462.8,757.448 L459.84,757.448 L460.32,754.536 L459.104,754.536 L458.624,757.448 L456.176,757.448 L456.4,758.744 L458.416,758.744 L457.92,761.752 L455.824,761.752 L455.824,763.048 L457.712,763.048 L457.264,765.784 L458.416,766.04 L458.912,763.048 L461.872,763.048 L461.392,765.96 L462.608,765.96 L463.088,763.048 L465.552,763.048 L465.328,761.752 L463.296,761.752 L463.792,758.744 L465.888,758.744 L465.888,757.448 L464.016,757.448 L464.464,754.712 Z M471.312,765.928 L471.312,754.536 L469.984,754.536 L467.152,755.8 L467.312,757.016 L469.792,756.136 L469.792,765.928 L471.312,765.928 Z M481.584,765.928 L481.376,764.568 L475.968,764.568 L479.344,761.288 C480.8,759.864 481.408,758.952 481.408,757.576 C481.408,755.608 480.016,754.36 477.728,754.36 C476.272,754.36 475.088,754.904 474.208,755.624 L474.432,757.112 C475.36,756.328 476.432,755.768 477.648,755.768 C479.04,755.768 479.824,756.392 479.824,757.672 C479.824,758.584 479.344,759.304 478.272,760.376 L473.904,764.744 L473.904,765.928 L481.584,765.928 Z M490.752,762.824 C490.752,761.24 489.872,760.376 488.352,759.96 C489.616,759.56 490.512,758.744 490.512,757.336 C490.512,755.8 489.408,754.36 486.784,754.36 C485.328,754.36 484.272,754.76 483.36,755.4 L483.584,756.824 C484.464,756.152 485.488,755.736 486.72,755.736 C488.208,755.736 488.944,756.44 488.944,757.4 C488.944,758.616 488.016,759.288 486.048,759.288 L485.168,759.288 L485.392,760.68 L485.92,760.68 C488.208,760.68 489.184,761.464 489.184,762.84 C489.184,764.104 488.208,764.76 486.64,764.76 C485.392,764.76 484.432,764.408 483.424,763.752 L483.168,765.256 C484.08,765.8 485.312,766.152 486.56,766.152 C489.12,766.152 490.752,764.824 490.752,762.824 L490.752,762.824 Z M501.552,763.368 L501.552,762.104 L499.648,762.104 L499.648,754.536 L497.824,754.536 L492.32,762.232 L492.32,763.368 L498.24,763.368 L498.24,765.928 L499.648,765.928 L499.648,763.368 L501.552,763.368 Z M498.24,762.104 L493.952,762.104 L498.24,756.264 L498.24,762.104 Z M510.608,762.36 C510.608,760.312 509.12,758.936 506.72,758.936 C505.872,758.936 505.28,759.08 504.816,759.224 L505.088,755.928 L510.208,755.928 L510,754.568 L503.808,754.568 L503.392,760.392 L504.528,760.648 C505.072,760.424 505.664,760.28 506.544,760.28 C508.192,760.28 509.072,761.128 509.072,762.456 C509.072,764.04 507.888,764.808 506.336,764.808 C505.04,764.808 503.968,764.392 503.136,763.832 L502.896,765.272 C503.728,765.784 504.816,766.152 506.288,766.152 C508.72,766.152 510.608,764.792 510.608,762.36 L510.608,762.36 Z M518.944,755.72 L518.736,754.36 C514.992,755.24 512.368,757.4 512.368,761.336 C512.368,764.488 514.144,766.152 516.608,766.152 C518.928,766.152 520.656,764.6 520.656,762.456 C520.656,760.312 519.248,758.968 516.992,758.968 C515.824,758.968 514.832,759.336 513.984,759.864 C514.512,757.448 516.512,756.296 518.944,755.72 L518.944,755.72 Z M516.656,760.312 C518.352,760.312 519.12,761.144 519.12,762.52 C519.12,763.96 518.096,764.808 516.656,764.808 C514.944,764.824 513.856,763.416 513.856,761.304 L513.856,761.288 C514.672,760.664 515.584,760.312 516.656,760.312 L516.656,760.312 Z M529.888,755.768 L529.888,754.568 L522.08,754.568 L522.288,755.944 L528.16,755.944 L523.632,765.704 L525.136,766.04 L529.888,755.768 Z M531.616,763.016 C531.616,764.712 533.072,766.152 535.76,766.152 C538.336,766.152 539.936,764.712 539.936,763.08 C539.936,761.464 539.04,760.632 537.52,759.96 C538.656,759.336 539.52,758.456 539.52,757.224 C539.52,755.56 538.16,754.36 535.84,754.36 C533.632,754.36 532.08,755.544 532.08,757.224 C532.08,758.44 532.656,759.288 534.032,759.976 C532.576,760.696 531.616,761.72 531.616,763.016 L531.616,763.016 Z M533.568,757.208 C533.568,756.312 534.4,755.592 535.808,755.592 C537.184,755.592 538.032,756.312 538.032,757.272 C538.032,758.136 537.296,758.904 536.208,759.432 C534.256,758.728 533.568,758.232 533.568,757.208 L533.568,757.208 Z M533.12,762.952 C533.12,761.944 534.032,761.048 535.392,760.52 C537.68,761.32 538.432,761.832 538.432,763.016 C538.432,764.056 537.376,764.888 535.792,764.888 C534.24,764.888 533.12,764.072 533.12,762.952 L533.12,762.952 Z M551.392,763.592 C550.624,764.328 549.68,764.792 548.704,764.792 C547.856,764.792 547.344,764.344 547.344,763.64 C547.344,762.744 548.08,761.896 551.392,761.576 L551.392,763.592 Z M552.976,765.928 L552.976,759.944 C552.976,758.056 551.936,757.208 549.808,757.208 C548.464,757.208 547.456,757.512 546.4,757.928 L546.608,759.288 C547.584,758.872 548.608,758.552 549.68,758.552 C550.72,758.552 551.392,758.936 551.392,760.008 L551.392,760.376 C547.632,760.76 545.776,761.608 545.776,763.736 C545.776,765.176 546.8,766.104 548.384,766.104 C549.808,766.104 550.784,765.48 551.52,764.776 L551.712,765.928 L552.976,765.928 Z M561.968,761.48 C561.968,763.608 560.912,764.712 559.472,764.712 C558.528,764.712 557.968,764.568 557.296,764.248 L557.296,760.104 C558.016,759.192 558.8,758.6 559.808,758.6 C561.072,758.6 561.968,759.608 561.968,761.48 L561.968,761.48 Z M563.568,761.416 C563.568,758.568 561.968,757.208 560.048,757.208 C558.752,757.208 557.84,757.864 557.168,758.616 L556.96,757.384 L555.712,757.384 L555.712,769.256 L557.296,769.032 L557.296,765.656 C557.856,765.88 558.656,766.04 559.536,766.04 C561.696,766.04 563.568,764.536 563.568,761.416 L563.568,761.416 Z M572.096,761.48 C572.096,763.608 571.04,764.712 569.6,764.712 C568.656,764.712 568.096,764.568 567.424,764.248 L567.424,760.104 C568.144,759.192 568.928,758.6 569.936,758.6 C571.2,758.6 572.096,759.608 572.096,761.48 L572.096,761.48 Z M573.696,761.416 C573.696,758.568 572.096,757.208 570.176,757.208 C568.88,757.208 567.968,757.864 567.296,758.616 L567.088,757.384 L565.84,757.384 L565.84,769.256 L567.424,769.032 L567.424,765.656 C567.984,765.88 568.784,766.04 569.664,766.04 C571.824,766.04 573.696,764.536 573.696,761.416 L573.696,761.416 Z M580.864,758.712 L580.608,757.208 C579.152,757.272 578.128,758.152 577.488,759.128 L577.216,757.384 L575.968,757.384 L575.968,765.928 L577.552,765.928 L577.552,760.856 C578.144,759.736 579.392,758.776 580.864,758.712 L580.864,758.712 Z M590.384,761.672 C590.384,758.856 588.64,757.208 586.272,757.208 C583.936,757.208 582.208,758.856 582.208,761.672 C582.208,764.472 583.92,766.104 586.272,766.104 C588.624,766.104 590.384,764.472 590.384,761.672 L590.384,761.672 Z M588.784,761.672 C588.784,763.48 587.92,764.792 586.272,764.792 C584.688,764.792 583.808,763.432 583.808,761.672 C583.808,759.848 584.656,758.52 586.272,758.52 C587.872,758.52 588.784,759.896 588.784,761.672 L588.784,761.672 Z M599.648,757.384 L598,757.384 L595.744,764.04 L593.408,757.256 L591.792,757.512 L594.944,765.976 L596.48,765.976 L599.648,757.384 Z M608.656,764.952 L608.432,763.544 C607.472,764.28 606.512,764.76 605.248,764.76 C603.664,764.76 602.688,763.832 602.624,761.816 L608.672,761.816 L608.672,761.48 C608.672,759.128 607.488,757.208 604.928,757.208 C602.704,757.208 601.04,758.888 601.04,761.624 C601.04,764.76 602.816,766.104 605.136,766.104 C606.576,766.104 607.728,765.672 608.656,764.952 L608.656,764.952 Z M604.912,758.44 C606.224,758.44 606.896,759.24 607.072,760.632 L602.704,760.632 C602.96,759.176 603.84,758.44 604.912,758.44 L604.912,758.44 Z M616.72,763.208 C615.984,764.12 615.2,764.712 614.176,764.712 C612.944,764.712 612.032,763.72 612.032,761.832 C612.032,759.704 613.088,758.6 614.512,758.6 C615.456,758.6 616.016,758.744 616.72,759.08 L616.72,763.208 Z M618.288,765.928 L618.288,753 L616.72,753.24 L616.72,757.656 C616.144,757.432 615.344,757.272 614.464,757.272 C612.304,757.272 610.432,758.776 610.432,761.896 C610.432,764.76 612.032,766.104 613.952,766.104 C615.248,766.104 616.16,765.464 616.832,764.696 L617.04,765.928 L618.288,765.928 Z M623.04,754.328 L621.216,754.328 L621.632,762.472 L622.608,762.248 L623.04,754.328 Z M622.976,765.928 L622.976,763.912 L621.264,763.912 L621.264,765.928 L622.976,765.928 Z" id="This-is-a-snackbar:" stroke="none" fill="#F7F7F7" fill-rule="evenodd"></path>
    <path d="M687.608,761.536 L687.608,754.4 L686.008,754.4 L686.008,761.456 C686.008,763.552 684.968,764.752 682.904,764.752 C680.824,764.752 679.864,763.424 679.864,761.408 L679.864,754.4 L678.248,754.4 L678.248,761.616 C678.248,764.448 679.992,766.224 682.904,766.224 C685.816,766.224 687.608,764.464 687.608,761.536 L687.608,761.536 Z M699.896,766 L699.896,754.4 L698.424,754.4 L698.424,763.056 L691.976,754.4 L690.552,754.4 L690.552,766 L692.024,766 L692.024,757.024 L698.696,766 L699.896,766 Z M712.776,760.192 C712.776,756.8 710.616,754.4 706.44,754.4 L702.968,754.4 L702.968,766 L706.36,766 C710.488,766 712.776,763.632 712.776,760.192 L712.776,760.192 Z M711.112,760.208 C711.112,763.152 709.352,764.544 706.44,764.544 L704.568,764.544 L704.568,755.856 L706.488,755.856 C709.272,755.856 711.112,757.312 711.112,760.208 L711.112,760.208 Z M725.96,760.192 C725.96,756.608 723.816,754.192 720.424,754.192 C717.048,754.192 714.872,756.624 714.872,760.224 C714.872,763.808 717.016,766.224 720.392,766.224 C723.784,766.224 725.96,763.76 725.96,760.192 L725.96,760.192 Z M724.312,760.208 C724.312,762.976 722.824,764.752 720.408,764.752 C718.024,764.752 716.52,762.976 716.52,760.208 C716.52,757.424 718.008,755.664 720.408,755.664 C722.808,755.664 724.312,757.424 724.312,760.208 L724.312,760.208 Z" id="ACTION" stroke="none" fill="#0099E0" fill-rule="evenodd"></path>
    <rect id="Rectangle-Copy-5" stroke="none" fill-opacity="0.75" fill="#000000" fill-rule="evenodd" x="362" y="808" width="282" height="64" rx="2"></rect>
    <path d="M401.248,837.688 C401.248,835.528 399.712,834.328 397.168,834.328 L394,834.328 L394,845.928 L395.6,845.928 L395.6,841.24 L396.896,841.24 C399.504,841.24 401.248,840.056 401.248,837.688 L401.248,837.688 Z M399.632,837.736 C399.632,839.176 398.64,839.816 396.976,839.816 L395.6,839.816 L395.6,835.752 L397.088,835.752 C398.736,835.752 399.632,836.424 399.632,837.736 L399.632,837.736 Z M408.24,838.712 L407.984,837.208 C406.528,837.272 405.504,838.152 404.864,839.128 L404.592,837.384 L403.344,837.384 L403.344,845.928 L404.928,845.928 L404.928,840.856 C405.52,839.736 406.768,838.776 408.24,838.712 L408.24,838.712 Z M417.76,841.672 C417.76,838.856 416.016,837.208 413.648,837.208 C411.312,837.208 409.584,838.856 409.584,841.672 C409.584,844.472 411.296,846.104 413.648,846.104 C416,846.104 417.76,844.472 417.76,841.672 L417.76,841.672 Z M416.16,841.672 C416.16,843.48 415.296,844.792 413.648,844.792 C412.064,844.792 411.184,843.432 411.184,841.672 C411.184,839.848 412.032,838.52 413.648,838.52 C415.248,838.52 416.16,839.896 416.16,841.672 L416.16,841.672 Z M424.928,840.152 C424.928,841.192 424.192,841.992 423.024,841.992 C421.904,841.992 421.168,841.224 421.168,840.232 C421.168,839.176 421.872,838.36 423.024,838.36 C424.16,838.36 424.928,839.128 424.928,840.152 L424.928,840.152 Z M427.488,846.552 C427.488,845.24 426.336,844.664 424.432,844.344 L423.792,844.232 C422.224,843.96 421.904,843.88 421.904,843.576 C421.904,843.416 422.08,843.224 422.368,843.064 C422.592,843.096 422.816,843.112 423.056,843.112 C424.864,843.112 426.448,842.008 426.448,840.168 C426.448,839.672 426.32,839.24 426.096,838.84 L427.792,838.68 L427.552,837.256 L425.312,837.928 C424.704,837.464 423.904,837.208 423.024,837.208 C421.232,837.208 419.648,838.328 419.648,840.168 C419.648,841.336 420.304,842.248 421.296,842.728 C420.704,843.064 420.368,843.464 420.368,843.88 C420.368,844.216 420.544,844.52 420.944,844.776 C419.68,845.432 419.04,846.104 419.04,846.984 C419.04,848.488 420.864,849.192 423.168,849.192 C425.472,849.192 427.488,848.344 427.488,846.552 L427.488,846.552 Z M423.216,845.464 L424.24,845.64 C425.552,845.864 426,846.232 426,846.76 C426,847.48 424.992,848.056 423.248,848.056 C421.52,848.056 420.56,847.56 420.56,846.856 C420.56,846.264 421.024,845.752 422.096,845.256 C422.448,845.336 422.736,845.384 423.216,845.464 L423.216,845.464 Z M434.448,838.712 L434.192,837.208 C432.736,837.272 431.712,838.152 431.072,839.128 L430.8,837.384 L429.552,837.384 L429.552,845.928 L431.136,845.928 L431.136,840.856 C431.728,839.736 432.976,838.776 434.448,838.712 L434.448,838.712 Z M443.408,844.952 L443.184,843.544 C442.224,844.28 441.264,844.76 440,844.76 C438.416,844.76 437.44,843.832 437.376,841.816 L443.424,841.816 L443.424,841.48 C443.424,839.128 442.24,837.208 439.68,837.208 C437.456,837.208 435.792,838.888 435.792,841.624 C435.792,844.76 437.568,846.104 439.888,846.104 C441.328,846.104 442.48,845.672 443.408,844.952 L443.408,844.952 Z M439.664,838.44 C440.976,838.44 441.648,839.24 441.824,840.632 L437.456,840.632 C437.712,839.176 438.592,838.44 439.664,838.44 L439.664,838.44 Z M451.84,843.544 C451.84,841.928 450.848,841.32 448.672,840.776 C447.248,840.44 446.8,840.104 446.8,839.528 C446.8,838.92 447.328,838.536 448.368,838.536 C449.296,838.536 450.272,838.84 451.056,839.256 L451.296,837.784 C450.48,837.416 449.504,837.208 448.416,837.208 C446.496,837.208 445.312,838.2 445.312,839.56 C445.312,841.08 446.144,841.688 448.208,842.2 C449.84,842.568 450.352,842.872 450.352,843.656 C450.352,844.376 449.664,844.792 448.496,844.792 C447.296,844.792 446.224,844.376 445.376,843.816 L445.152,845.304 C445.92,845.72 447.2,846.104 448.368,846.104 C450.624,846.104 451.84,845.112 451.84,843.544 L451.84,843.544 Z M460.192,843.544 C460.192,841.928 459.2,841.32 457.024,840.776 C455.6,840.44 455.152,840.104 455.152,839.528 C455.152,838.92 455.68,838.536 456.72,838.536 C457.648,838.536 458.624,838.84 459.408,839.256 L459.648,837.784 C458.832,837.416 457.856,837.208 456.768,837.208 C454.848,837.208 453.664,838.2 453.664,839.56 C453.664,841.08 454.496,841.688 456.56,842.2 C458.192,842.568 458.704,842.872 458.704,843.656 C458.704,844.376 458.016,844.792 456.848,844.792 C455.648,844.792 454.576,844.376 453.728,843.816 L453.504,845.304 C454.272,845.72 455.552,846.104 456.72,846.104 C458.976,846.104 460.192,845.112 460.192,843.544 L460.192,843.544 Z M473.28,842.792 C473.28,841.048 472.464,840.28 470.144,839.256 C468.304,838.44 467.84,838.024 467.84,837.144 C467.84,836.296 468.464,835.592 469.84,835.592 C470.816,835.592 471.712,835.976 472.384,836.456 L472.64,834.856 C471.936,834.472 471.072,834.2 469.904,834.2 C467.728,834.2 466.256,835.4 466.256,837.272 C466.256,838.936 467.104,839.656 469.376,840.648 C471.2,841.432 471.696,841.864 471.696,842.92 C471.696,844.04 470.784,844.664 469.52,844.664 C468.304,844.664 467.168,844.2 466.368,843.672 L466.128,845.304 C467.008,845.768 468.176,846.056 469.472,846.056 C471.728,846.056 473.28,844.792 473.28,842.792 L473.28,842.792 Z M480.656,843.592 C479.888,844.328 478.944,844.792 477.968,844.792 C477.12,844.792 476.608,844.344 476.608,843.64 C476.608,842.744 477.344,841.896 480.656,841.576 L480.656,843.592 Z M482.24,845.928 L482.24,839.944 C482.24,838.056 481.2,837.208 479.072,837.208 C477.728,837.208 476.72,837.512 475.664,837.928 L475.872,839.288 C476.848,838.872 477.872,838.552 478.944,838.552 C479.984,838.552 480.656,838.936 480.656,840.008 L480.656,840.376 C476.896,840.76 475.04,841.608 475.04,843.736 C475.04,845.176 476.064,846.104 477.648,846.104 C479.072,846.104 480.048,845.48 480.784,844.776 L480.976,845.928 L482.24,845.928 Z M491.968,837.384 L490.32,837.384 L488.064,844.04 L485.728,837.256 L484.112,837.512 L487.264,845.976 L488.8,845.976 L491.968,837.384 Z M500.976,844.952 L500.752,843.544 C499.792,844.28 498.832,844.76 497.568,844.76 C495.984,844.76 495.008,843.832 494.944,841.816 L500.992,841.816 L500.992,841.48 C500.992,839.128 499.808,837.208 497.248,837.208 C495.024,837.208 493.36,838.888 493.36,841.624 C493.36,844.76 495.136,846.104 497.456,846.104 C498.896,846.104 500.048,845.672 500.976,844.952 L500.976,844.952 Z M497.232,838.44 C498.544,838.44 499.216,839.24 499.392,840.632 L495.024,840.632 C495.28,839.176 496.16,838.44 497.232,838.44 L497.232,838.44 Z M509.04,843.208 C508.304,844.12 507.52,844.712 506.496,844.712 C505.264,844.712 504.352,843.72 504.352,841.832 C504.352,839.704 505.408,838.6 506.832,838.6 C507.776,838.6 508.336,838.744 509.04,839.08 L509.04,843.208 Z M510.608,845.928 L510.608,833 L509.04,833.24 L509.04,837.656 C508.464,837.432 507.664,837.272 506.784,837.272 C504.624,837.272 502.752,838.776 502.752,841.896 C502.752,844.76 504.352,846.104 506.272,846.104 C507.568,846.104 508.48,845.464 509.152,844.696 L509.36,845.928 L510.608,845.928 Z M515.36,834.328 L513.536,834.328 L513.952,842.472 L514.928,842.248 L515.36,834.328 Z M515.296,845.928 L515.296,843.912 L513.584,843.912 L513.584,845.928 L515.296,845.928 Z" id="This-is-a-snackbar:" stroke="none" fill="#F7F7F7" fill-rule="evenodd"></path>
    <path id="ACTION" stroke="none" fill="#0099E0" fill-rule="evenodd"></path>
</svg>
