
<svg width="1230px" height="94px" viewBox="899 1023 1230 94" version="1.1" xmlns="http://www.w3.org/2000/svg" xmlns:xlink="http://www.w3.org/1999/xlink">
    <!-- Generator: Sketch 40.3 (33839) - http://www.bohemiancoding.com/sketch -->
    <desc>Created with Sketch.</desc>
    <defs>
        <rect id="path-1" x="914" y="1034" width="1200" height="64"></rect>
        <filter x="-50%" y="-50%" width="200%" height="200%" filterUnits="objectBoundingBox" id="filter-2">
            <feOffset dx="0" dy="2" in="SourceAlpha" result="shadowOffsetOuter1"></feOffset>
            <feGaussianBlur stdDeviation="5" in="shadowOffsetOuter1" result="shadowBlurOuter1"></feGaussianBlur>
            <feColorMatrix values="0 0 0 0 0   0 0 0 0 0   0 0 0 0 0  0 0 0 0.12 0" type="matrix" in="shadowBlurOuter1" result="shadowMatrixOuter1"></feColorMatrix>
            <feOffset dx="0" dy="2" in="SourceAlpha" result="shadowOffsetOuter2"></feOffset>
            <feGaussianBlur stdDeviation="2.5" in="shadowOffsetOuter2" result="shadowBlurOuter2"></feGaussianBlur>
            <feColorMatrix values="0 0 0 0 0   0 0 0 0 0   0 0 0 0 0  0 0 0 0.16 0" type="matrix" in="shadowBlurOuter2" result="shadowMatrixOuter2"></feColorMatrix>
            <feMerge>
                <feMergeNode in="shadowMatrixOuter1"></feMergeNode>
                <feMergeNode in="shadowMatrixOuter2"></feMergeNode>
            </feMerge>
        </filter>
    </defs>
    <g id="MUI-&gt;-Panel-Copy-5" stroke="none" fill="none">
        <use fill="black" fill-opacity="1" filter="url(#filter-2)" xlink:href="#path-1"></use>
        <use fill="#FFFFFF" fill-rule="evenodd" xlink:href="#path-1"></use>
    </g>
    <polygon id="#F4F4F4-Copy-7" stroke="none" fill="#DDF9F7" fill-rule="evenodd" points="914 1034 2114 1034 2114 1098 914 1098"></polygon>
    <path d="M947.696,1061.52 L947.52,1060.4 L938.64,1060.4 L938.64,1061.52 L942.528,1061.52 L942.528,1072 L943.728,1072 L943.728,1061.52 L947.696,1061.52 Z M956.704,1072 L956.704,1065.92 C956.704,1064.304 955.824,1063.344 954.064,1063.344 C952.864,1063.344 951.888,1063.952 950.96,1064.72 L950.96,1059.136 L949.776,1059.344 L949.776,1072 L950.96,1072 L950.96,1065.872 C951.936,1064.96 952.896,1064.416 953.84,1064.416 C954.976,1064.416 955.504,1065.072 955.504,1066.16 L955.504,1072 L956.704,1072 Z M966.4,1070.976 L966.224,1069.904 C965.328,1070.64 964.288,1071.152 963.136,1071.152 C961.344,1071.152 960.336,1069.936 960.304,1067.84 L966.416,1067.84 L966.416,1067.584 C966.416,1065.232 965.248,1063.344 962.864,1063.344 C960.688,1063.344 959.088,1065.04 959.088,1067.744 C959.088,1070.672 960.752,1072.176 963.056,1072.176 C964.4,1072.176 965.536,1071.696 966.4,1070.976 L966.4,1070.976 Z M962.848,1064.288 C964.288,1064.288 965.088,1065.376 965.2,1066.912 L960.352,1066.912 C960.576,1065.216 961.536,1064.288 962.848,1064.288 L962.848,1064.288 Z M973.392,1064.464 L973.2,1063.344 C971.744,1063.376 970.72,1064.304 970.064,1065.264 L969.776,1063.52 L968.912,1063.52 L968.912,1072 L970.096,1072 L970.096,1066.688 C970.688,1065.552 971.936,1064.544 973.392,1064.464 L973.392,1064.464 Z M982.176,1070.976 L982,1069.904 C981.104,1070.64 980.064,1071.152 978.912,1071.152 C977.12,1071.152 976.112,1069.936 976.08,1067.84 L982.192,1067.84 L982.192,1067.584 C982.192,1065.232 981.024,1063.344 978.64,1063.344 C976.464,1063.344 974.864,1065.04 974.864,1067.744 C974.864,1070.672 976.528,1072.176 978.832,1072.176 C980.176,1072.176 981.312,1071.696 982.176,1070.976 L982.176,1070.976 Z M978.624,1064.288 C980.064,1064.288 980.864,1065.376 980.976,1066.912 L976.128,1066.912 C976.352,1065.216 977.312,1064.288 978.624,1064.288 L978.624,1064.288 Z M993.984,1069.888 C993.12,1070.672 992.064,1071.168 991.12,1071.168 C990.192,1071.168 989.52,1070.688 989.52,1069.792 C989.52,1068.64 990.512,1067.856 993.984,1067.504 L993.984,1069.888 Z M995.168,1072 L995.168,1065.952 C995.168,1064.208 994.176,1063.344 992.24,1063.344 C990.992,1063.344 989.984,1063.648 988.96,1064.08 L989.12,1065.136 C990.096,1064.688 991.12,1064.4 992.144,1064.4 C993.28,1064.4 993.984,1064.88 993.984,1066.016 L993.984,1066.576 C989.984,1066.944 988.32,1067.872 988.32,1069.872 C988.32,1071.36 989.44,1072.176 990.96,1072.176 C992.208,1072.176 993.232,1071.6 994.064,1070.864 L994.272,1072 L995.168,1072 Z M1002.608,1064.464 L1002.416,1063.344 C1000.96,1063.376 999.936,1064.304 999.28,1065.264 L998.992,1063.52 L998.128,1063.52 L998.128,1072 L999.312,1072 L999.312,1066.688 C999.904,1065.552 1001.152,1064.544 1002.608,1064.464 L1002.608,1064.464 Z M1011.392,1070.976 L1011.216,1069.904 C1010.32,1070.64 1009.28,1071.152 1008.128,1071.152 C1006.336,1071.152 1005.328,1069.936 1005.296,1067.84 L1011.408,1067.84 L1011.408,1067.584 C1011.408,1065.232 1010.24,1063.344 1007.856,1063.344 C1005.68,1063.344 1004.08,1065.04 1004.08,1067.744 C1004.08,1070.672 1005.744,1072.176 1008.048,1072.176 C1009.392,1072.176 1010.528,1071.696 1011.392,1070.976 L1011.392,1070.976 Z M1007.84,1064.288 C1009.28,1064.288 1010.08,1065.376 1010.192,1066.912 L1005.344,1066.912 C1005.568,1065.216 1006.528,1064.288 1007.84,1064.288 L1007.84,1064.288 Z M1025.04,1072 L1025.04,1065.936 C1025.04,1064.32 1024.16,1063.344 1022.4,1063.344 C1021.2,1063.344 1020.208,1063.952 1019.232,1064.768 L1019.024,1063.52 L1018.112,1063.52 L1018.112,1072 L1019.296,1072 L1019.296,1065.872 C1020.272,1064.96 1021.232,1064.416 1022.176,1064.416 C1023.312,1064.416 1023.84,1065.072 1023.84,1066.16 L1023.84,1072 L1025.04,1072 Z M1035.36,1067.76 C1035.36,1064.96 1033.648,1063.344 1031.376,1063.344 C1029.152,1063.344 1027.424,1064.96 1027.424,1067.76 C1027.424,1070.56 1029.12,1072.176 1031.376,1072.176 C1033.616,1072.176 1035.36,1070.56 1035.36,1067.76 L1035.36,1067.76 Z M1034.144,1067.76 C1034.144,1069.888 1033.04,1071.168 1031.376,1071.168 C1029.76,1071.168 1028.656,1069.824 1028.656,1067.76 C1028.656,1065.648 1029.728,1064.352 1031.376,1064.352 C1033.024,1064.352 1034.144,1065.696 1034.144,1067.76 L1034.144,1067.76 Z M1048.976,1072 L1048.976,1065.936 C1048.976,1064.32 1048.096,1063.344 1046.336,1063.344 C1045.136,1063.344 1044.144,1063.952 1043.168,1064.768 L1042.96,1063.52 L1042.048,1063.52 L1042.048,1072 L1043.232,1072 L1043.232,1065.872 C1044.208,1064.96 1045.168,1064.416 1046.112,1064.416 C1047.248,1064.416 1047.776,1065.072 1047.776,1066.16 L1047.776,1072 L1048.976,1072 Z M1058.672,1070.976 L1058.496,1069.904 C1057.6,1070.64 1056.56,1071.152 1055.408,1071.152 C1053.616,1071.152 1052.608,1069.936 1052.576,1067.84 L1058.688,1067.84 L1058.688,1067.584 C1058.688,1065.232 1057.52,1063.344 1055.136,1063.344 C1052.96,1063.344 1051.36,1065.04 1051.36,1067.744 C1051.36,1070.672 1053.024,1072.176 1055.328,1072.176 C1056.672,1072.176 1057.808,1071.696 1058.672,1070.976 L1058.672,1070.976 Z M1055.12,1064.288 C1056.56,1064.288 1057.36,1065.376 1057.472,1066.912 L1052.624,1066.912 C1052.848,1065.216 1053.808,1064.288 1055.12,1064.288 L1055.12,1064.288 Z M1072.688,1063.52 L1071.488,1063.52 L1069.28,1070.48 L1067.056,1063.488 L1066.016,1063.488 L1063.792,1070.48 L1061.488,1063.392 L1060.32,1063.6 L1063.264,1072.064 L1064.288,1072.064 L1066.496,1065.136 L1068.72,1072.064 L1069.76,1072.064 L1072.688,1063.52 Z M1091.536,1072 L1091.536,1065.92 C1091.536,1064.304 1090.72,1063.344 1088.96,1063.344 C1087.744,1063.344 1086.72,1063.968 1085.744,1064.816 C1085.424,1063.872 1084.672,1063.344 1083.328,1063.344 C1082.144,1063.344 1081.168,1063.952 1080.208,1064.752 L1080,1063.52 L1079.088,1063.52 L1079.088,1072 L1080.272,1072 L1080.272,1065.84 C1081.248,1064.96 1082.176,1064.416 1083.088,1064.416 C1084.24,1064.416 1084.72,1065.072 1084.72,1066.16 L1084.72,1072 L1085.904,1072 L1085.904,1065.856 C1086.88,1064.96 1087.808,1064.416 1088.72,1064.416 C1089.856,1064.416 1090.336,1065.072 1090.336,1066.16 L1090.336,1072 L1091.536,1072 Z M1101.232,1070.976 L1101.056,1069.904 C1100.16,1070.64 1099.12,1071.152 1097.968,1071.152 C1096.176,1071.152 1095.168,1069.936 1095.136,1067.84 L1101.248,1067.84 L1101.248,1067.584 C1101.248,1065.232 1100.08,1063.344 1097.696,1063.344 C1095.52,1063.344 1093.92,1065.04 1093.92,1067.744 C1093.92,1070.672 1095.584,1072.176 1097.888,1072.176 C1099.232,1072.176 1100.368,1071.696 1101.232,1070.976 L1101.232,1070.976 Z M1097.68,1064.288 C1099.12,1064.288 1099.92,1065.376 1100.032,1066.912 L1095.184,1066.912 C1095.408,1065.216 1096.368,1064.288 1097.68,1064.288 L1097.68,1064.288 Z M1109.568,1069.696 C1109.568,1068.192 1108.56,1067.552 1106.48,1067.024 C1104.976,1066.64 1104.496,1066.288 1104.496,1065.6 C1104.496,1064.896 1105.072,1064.384 1106.288,1064.384 C1107.168,1064.384 1108.064,1064.64 1108.848,1065.056 L1109.04,1063.92 C1108.288,1063.568 1107.36,1063.344 1106.336,1063.344 C1104.512,1063.344 1103.344,1064.32 1103.344,1065.632 C1103.344,1067.04 1104.192,1067.648 1106.128,1068.144 C1107.904,1068.576 1108.416,1068.96 1108.416,1069.792 C1108.416,1070.656 1107.648,1071.136 1106.4,1071.136 C1105.232,1071.136 1104.16,1070.736 1103.328,1070.24 L1103.136,1071.376 C1103.904,1071.792 1105.12,1072.16 1106.288,1072.16 C1108.304,1072.16 1109.568,1071.248 1109.568,1069.696 L1109.568,1069.696 Z M1117.84,1069.696 C1117.84,1068.192 1116.832,1067.552 1114.752,1067.024 C1113.248,1066.64 1112.768,1066.288 1112.768,1065.6 C1112.768,1064.896 1113.344,1064.384 1114.56,1064.384 C1115.44,1064.384 1116.336,1064.64 1117.12,1065.056 L1117.312,1063.92 C1116.56,1063.568 1115.632,1063.344 1114.608,1063.344 C1112.784,1063.344 1111.616,1064.32 1111.616,1065.632 C1111.616,1067.04 1112.464,1067.648 1114.4,1068.144 C1116.176,1068.576 1116.688,1068.96 1116.688,1069.792 C1116.688,1070.656 1115.92,1071.136 1114.672,1071.136 C1113.504,1071.136 1112.432,1070.736 1111.6,1070.24 L1111.408,1071.376 C1112.176,1071.792 1113.392,1072.16 1114.56,1072.16 C1116.576,1072.16 1117.84,1071.248 1117.84,1069.696 L1117.84,1069.696 Z M1125.376,1069.888 C1124.512,1070.672 1123.456,1071.168 1122.512,1071.168 C1121.584,1071.168 1120.912,1070.688 1120.912,1069.792 C1120.912,1068.64 1121.904,1067.856 1125.376,1067.504 L1125.376,1069.888 Z M1126.56,1072 L1126.56,1065.952 C1126.56,1064.208 1125.568,1063.344 1123.632,1063.344 C1122.384,1063.344 1121.376,1063.648 1120.352,1064.08 L1120.512,1065.136 C1121.488,1064.688 1122.512,1064.4 1123.536,1064.4 C1124.672,1064.4 1125.376,1064.88 1125.376,1066.016 L1125.376,1066.576 C1121.376,1066.944 1119.712,1067.872 1119.712,1069.872 C1119.712,1071.36 1120.832,1072.176 1122.352,1072.176 C1123.6,1072.176 1124.624,1071.6 1125.456,1070.864 L1125.664,1072 L1126.56,1072 Z M1134.528,1066.224 C1134.528,1067.36 1133.712,1068.24 1132.4,1068.24 C1131.104,1068.24 1130.304,1067.36 1130.304,1066.256 C1130.304,1065.104 1131.104,1064.24 1132.384,1064.24 C1133.648,1064.24 1134.528,1065.104 1134.528,1066.224 L1134.528,1066.224 Z M1136.704,1072.672 C1136.704,1071.424 1135.632,1070.88 1133.68,1070.528 L1133.024,1070.4 C1131.408,1070.112 1131.04,1070 1131.04,1069.648 C1131.04,1069.456 1131.232,1069.248 1131.616,1069.056 C1131.872,1069.104 1132.144,1069.12 1132.416,1069.12 C1134.16,1069.12 1135.696,1068.032 1135.696,1066.24 C1135.696,1065.664 1135.52,1065.168 1135.232,1064.736 L1136.992,1064.544 L1136.8,1063.392 L1134.592,1064.064 C1134,1063.6 1133.232,1063.344 1132.384,1063.344 C1130.672,1063.344 1129.12,1064.448 1129.12,1066.24 C1129.12,1067.408 1129.776,1068.304 1130.752,1068.768 C1130.16,1069.104 1129.856,1069.456 1129.856,1069.872 C1129.856,1070.208 1130.064,1070.512 1130.512,1070.784 C1129.184,1071.424 1128.496,1072.176 1128.496,1073.024 C1128.496,1074.48 1130.256,1075.216 1132.512,1075.216 C1134.8,1075.216 1136.704,1074.32 1136.704,1072.672 L1136.704,1072.672 Z M1132.56,1071.376 L1133.392,1071.52 C1134.976,1071.808 1135.552,1072.176 1135.552,1072.832 C1135.552,1073.664 1134.384,1074.32 1132.592,1074.32 C1130.864,1074.32 1129.68,1073.824 1129.68,1072.944 C1129.68,1072.272 1130.256,1071.68 1131.488,1071.152 C1131.824,1071.232 1132.112,1071.296 1132.56,1071.376 L1132.56,1071.376 Z M1145.76,1070.976 L1145.584,1069.904 C1144.688,1070.64 1143.648,1071.152 1142.496,1071.152 C1140.704,1071.152 1139.696,1069.936 1139.664,1067.84 L1145.776,1067.84 L1145.776,1067.584 C1145.776,1065.232 1144.608,1063.344 1142.224,1063.344 C1140.048,1063.344 1138.448,1065.04 1138.448,1067.744 C1138.448,1070.672 1140.112,1072.176 1142.416,1072.176 C1143.76,1072.176 1144.896,1071.696 1145.76,1070.976 L1145.76,1070.976 Z M1142.208,1064.288 C1143.648,1064.288 1144.448,1065.376 1144.56,1066.912 L1139.712,1066.912 C1139.936,1065.216 1140.896,1064.288 1142.208,1064.288 L1142.208,1064.288 Z M1154.096,1069.696 C1154.096,1068.192 1153.088,1067.552 1151.008,1067.024 C1149.504,1066.64 1149.024,1066.288 1149.024,1065.6 C1149.024,1064.896 1149.6,1064.384 1150.816,1064.384 C1151.696,1064.384 1152.592,1064.64 1153.376,1065.056 L1153.568,1063.92 C1152.816,1063.568 1151.888,1063.344 1150.864,1063.344 C1149.04,1063.344 1147.872,1064.32 1147.872,1065.632 C1147.872,1067.04 1148.72,1067.648 1150.656,1068.144 C1152.432,1068.576 1152.944,1068.96 1152.944,1069.792 C1152.944,1070.656 1152.176,1071.136 1150.928,1071.136 C1149.76,1071.136 1148.688,1070.736 1147.856,1070.24 L1147.664,1071.376 C1148.432,1071.792 1149.648,1072.16 1150.816,1072.16 C1152.832,1072.16 1154.096,1071.248 1154.096,1069.696 L1154.096,1069.696 Z M1164.656,1072 L1164.496,1071.008 C1164.288,1071.056 1163.952,1071.088 1163.664,1071.088 C1162.704,1071.088 1162.336,1070.72 1162.336,1069.856 L1162.336,1064.528 L1164.544,1064.528 L1164.4,1063.52 L1162.336,1063.52 L1162.336,1060.384 L1161.168,1060.592 L1161.168,1063.52 L1159.808,1063.52 L1159.808,1064.528 L1161.168,1064.528 L1161.168,1070.064 C1161.168,1071.632 1162.064,1072.144 1163.44,1072.144 C1163.968,1072.144 1164.416,1072.064 1164.656,1072 L1164.656,1072 Z M1174.384,1067.76 C1174.384,1064.96 1172.672,1063.344 1170.4,1063.344 C1168.176,1063.344 1166.448,1064.96 1166.448,1067.76 C1166.448,1070.56 1168.144,1072.176 1170.4,1072.176 C1172.64,1072.176 1174.384,1070.56 1174.384,1067.76 L1174.384,1067.76 Z M1173.168,1067.76 C1173.168,1069.888 1172.064,1071.168 1170.4,1071.168 C1168.784,1071.168 1167.68,1069.824 1167.68,1067.76 C1167.68,1065.648 1168.752,1064.352 1170.4,1064.352 C1172.048,1064.352 1173.168,1065.696 1173.168,1067.76 L1173.168,1067.76 Z M1186.896,1069.696 C1186.896,1068.192 1185.888,1067.552 1183.808,1067.024 C1182.304,1066.64 1181.824,1066.288 1181.824,1065.6 C1181.824,1064.896 1182.4,1064.384 1183.616,1064.384 C1184.496,1064.384 1185.392,1064.64 1186.176,1065.056 L1186.368,1063.92 C1185.616,1063.568 1184.688,1063.344 1183.664,1063.344 C1181.84,1063.344 1180.672,1064.32 1180.672,1065.632 C1180.672,1067.04 1181.52,1067.648 1183.456,1068.144 C1185.232,1068.576 1185.744,1068.96 1185.744,1069.792 C1185.744,1070.656 1184.976,1071.136 1183.728,1071.136 C1182.56,1071.136 1181.488,1070.736 1180.656,1070.24 L1180.464,1071.376 C1181.232,1071.792 1182.448,1072.16 1183.616,1072.16 C1185.632,1072.16 1186.896,1071.248 1186.896,1069.696 L1186.896,1069.696 Z M1196.272,1072 L1196.272,1065.92 C1196.272,1064.304 1195.392,1063.344 1193.632,1063.344 C1192.432,1063.344 1191.456,1063.952 1190.528,1064.72 L1190.528,1059.136 L1189.344,1059.344 L1189.344,1072 L1190.528,1072 L1190.528,1065.872 C1191.504,1064.96 1192.464,1064.416 1193.408,1064.416 C1194.544,1064.416 1195.072,1065.072 1195.072,1066.16 L1195.072,1072 L1196.272,1072 Z M1206.592,1067.76 C1206.592,1064.96 1204.88,1063.344 1202.608,1063.344 C1200.384,1063.344 1198.656,1064.96 1198.656,1067.76 C1198.656,1070.56 1200.352,1072.176 1202.608,1072.176 C1204.848,1072.176 1206.592,1070.56 1206.592,1067.76 L1206.592,1067.76 Z M1205.376,1067.76 C1205.376,1069.888 1204.272,1071.168 1202.608,1071.168 C1200.992,1071.168 1199.888,1069.824 1199.888,1067.76 C1199.888,1065.648 1200.96,1064.352 1202.608,1064.352 C1204.256,1064.352 1205.376,1065.696 1205.376,1067.76 L1205.376,1067.76 Z M1220.576,1063.52 L1219.376,1063.52 L1217.168,1070.48 L1214.944,1063.488 L1213.904,1063.488 L1211.68,1070.48 L1209.376,1063.392 L1208.208,1063.6 L1211.152,1072.064 L1212.176,1072.064 L1214.384,1065.136 L1216.608,1072.064 L1217.648,1072.064 L1220.576,1063.52 Z M1232.8,1069.696 C1232.8,1068.192 1231.792,1067.552 1229.712,1067.024 C1228.208,1066.64 1227.728,1066.288 1227.728,1065.6 C1227.728,1064.896 1228.304,1064.384 1229.52,1064.384 C1230.4,1064.384 1231.296,1064.64 1232.08,1065.056 L1232.272,1063.92 C1231.52,1063.568 1230.592,1063.344 1229.568,1063.344 C1227.744,1063.344 1226.576,1064.32 1226.576,1065.632 C1226.576,1067.04 1227.424,1067.648 1229.36,1068.144 C1231.136,1068.576 1231.648,1068.96 1231.648,1069.792 C1231.648,1070.656 1230.88,1071.136 1229.632,1071.136 C1228.464,1071.136 1227.392,1070.736 1226.56,1070.24 L1226.368,1071.376 C1227.136,1071.792 1228.352,1072.16 1229.52,1072.16 C1231.536,1072.16 1232.8,1071.248 1232.8,1069.696 L1232.8,1069.696 Z M1236.832,1060.64 C1236.832,1060.176 1236.448,1059.792 1235.968,1059.792 C1235.488,1059.792 1235.088,1060.176 1235.088,1060.64 C1235.088,1061.104 1235.488,1061.504 1235.968,1061.504 C1236.448,1061.504 1236.832,1061.104 1236.832,1060.64 L1236.832,1060.64 Z M1236.56,1072 L1236.56,1063.52 L1235.376,1063.52 L1235.376,1072 L1236.56,1072 Z M1246.64,1072 L1246.64,1065.936 C1246.64,1064.32 1245.76,1063.344 1244,1063.344 C1242.8,1063.344 1241.808,1063.952 1240.832,1064.768 L1240.624,1063.52 L1239.712,1063.52 L1239.712,1072 L1240.896,1072 L1240.896,1065.872 C1241.872,1064.96 1242.832,1064.416 1243.776,1064.416 C1244.912,1064.416 1245.44,1065.072 1245.44,1066.16 L1245.44,1072 L1246.64,1072 Z M1255.984,1071.216 L1255.824,1070.128 C1254.912,1070.864 1254.048,1071.136 1253.12,1071.136 C1251.44,1071.136 1250.256,1069.888 1250.256,1067.76 C1250.256,1065.584 1251.424,1064.384 1253.056,1064.384 C1254.064,1064.384 1254.88,1064.736 1255.712,1065.392 L1255.904,1064.208 C1255.216,1063.712 1254.256,1063.344 1253.072,1063.344 C1250.816,1063.344 1249.024,1064.912 1249.024,1067.76 C1249.024,1070.576 1250.752,1072.176 1253.008,1072.176 C1254.208,1072.176 1255.168,1071.84 1255.984,1071.216 L1255.984,1071.216 Z M1265.136,1070.976 L1264.96,1069.904 C1264.064,1070.64 1263.024,1071.152 1261.872,1071.152 C1260.08,1071.152 1259.072,1069.936 1259.04,1067.84 L1265.152,1067.84 L1265.152,1067.584 C1265.152,1065.232 1263.984,1063.344 1261.6,1063.344 C1259.424,1063.344 1257.824,1065.04 1257.824,1067.744 C1257.824,1070.672 1259.488,1072.176 1261.792,1072.176 C1263.136,1072.176 1264.272,1071.696 1265.136,1070.976 L1265.136,1070.976 Z M1261.584,1064.288 C1263.024,1064.288 1263.824,1065.376 1263.936,1066.912 L1259.088,1066.912 C1259.312,1065.216 1260.272,1064.288 1261.584,1064.288 L1261.584,1064.288 Z M1278.768,1063.52 L1277.536,1063.52 L1274.912,1070.608 L1272.176,1063.408 L1270.976,1063.632 L1274.32,1072.048 L1273.952,1072.928 C1273.584,1073.856 1273.136,1074.176 1272.384,1074.176 C1272.128,1074.176 1271.888,1074.144 1271.696,1074.112 L1271.872,1075.168 C1272.016,1075.2 1272.176,1075.216 1272.4,1075.216 C1273.632,1075.216 1274.4,1074.736 1275.024,1073.104 L1278.768,1063.52 Z M1288.288,1067.76 C1288.288,1064.96 1286.576,1063.344 1284.304,1063.344 C1282.08,1063.344 1280.352,1064.96 1280.352,1067.76 C1280.352,1070.56 1282.048,1072.176 1284.304,1072.176 C1286.544,1072.176 1288.288,1070.56 1288.288,1067.76 L1288.288,1067.76 Z M1287.072,1067.76 C1287.072,1069.888 1285.968,1071.168 1284.304,1071.168 C1282.688,1071.168 1281.584,1069.824 1281.584,1067.76 C1281.584,1065.648 1282.656,1064.352 1284.304,1064.352 C1285.952,1064.352 1287.072,1065.696 1287.072,1067.76 L1287.072,1067.76 Z M1297.6,1072 L1297.6,1063.52 L1296.416,1063.52 L1296.416,1069.648 C1295.44,1070.56 1294.48,1071.104 1293.536,1071.104 C1292.4,1071.104 1291.872,1070.448 1291.872,1069.36 L1291.872,1063.52 L1290.672,1063.52 L1290.672,1069.584 C1290.672,1071.2 1291.552,1072.176 1293.312,1072.176 C1294.496,1072.176 1295.504,1071.568 1296.48,1070.752 L1296.688,1072 L1297.6,1072 Z M1305.12,1064.464 L1304.928,1063.344 C1303.472,1063.376 1302.448,1064.304 1301.792,1065.264 L1301.504,1063.52 L1300.64,1063.52 L1300.64,1072 L1301.824,1072 L1301.824,1066.688 C1302.416,1065.552 1303.664,1064.544 1305.12,1064.464 L1305.12,1064.464 Z M1312.672,1072 L1312.672,1059.136 L1311.488,1059.344 L1311.488,1072 L1312.672,1072 Z M1320.912,1069.888 C1320.048,1070.672 1318.992,1071.168 1318.048,1071.168 C1317.12,1071.168 1316.448,1070.688 1316.448,1069.792 C1316.448,1068.64 1317.44,1067.856 1320.912,1067.504 L1320.912,1069.888 Z M1322.096,1072 L1322.096,1065.952 C1322.096,1064.208 1321.104,1063.344 1319.168,1063.344 C1317.92,1063.344 1316.912,1063.648 1315.888,1064.08 L1316.048,1065.136 C1317.024,1064.688 1318.048,1064.4 1319.072,1064.4 C1320.208,1064.4 1320.912,1064.88 1320.912,1066.016 L1320.912,1066.576 C1316.912,1066.944 1315.248,1067.872 1315.248,1069.872 C1315.248,1071.36 1316.368,1072.176 1317.888,1072.176 C1319.136,1072.176 1320.16,1071.6 1320.992,1070.864 L1321.2,1072 L1322.096,1072 Z M1330.88,1069.696 C1330.88,1068.192 1329.872,1067.552 1327.792,1067.024 C1326.288,1066.64 1325.808,1066.288 1325.808,1065.6 C1325.808,1064.896 1326.384,1064.384 1327.6,1064.384 C1328.48,1064.384 1329.376,1064.64 1330.16,1065.056 L1330.352,1063.92 C1329.6,1063.568 1328.672,1063.344 1327.648,1063.344 C1325.824,1063.344 1324.656,1064.32 1324.656,1065.632 C1324.656,1067.04 1325.504,1067.648 1327.44,1068.144 C1329.216,1068.576 1329.728,1068.96 1329.728,1069.792 C1329.728,1070.656 1328.96,1071.136 1327.712,1071.136 C1326.544,1071.136 1325.472,1070.736 1324.64,1070.24 L1324.448,1071.376 C1325.216,1071.792 1326.432,1072.16 1327.6,1072.16 C1329.616,1072.16 1330.88,1071.248 1330.88,1069.696 L1330.88,1069.696 Z M1337.232,1072 L1337.072,1071.008 C1336.864,1071.056 1336.528,1071.088 1336.24,1071.088 C1335.28,1071.088 1334.912,1070.72 1334.912,1069.856 L1334.912,1064.528 L1337.12,1064.528 L1336.976,1063.52 L1334.912,1063.52 L1334.912,1060.384 L1333.744,1060.592 L1333.744,1063.52 L1332.384,1063.52 L1332.384,1064.528 L1333.744,1064.528 L1333.744,1070.064 C1333.744,1071.632 1334.64,1072.144 1336.016,1072.144 C1336.544,1072.144 1336.992,1072.064 1337.232,1072 L1337.232,1072 Z M1345.104,1072 L1345.104,1059.136 L1343.92,1059.344 L1343.92,1072 L1345.104,1072 Z M1355.632,1067.76 C1355.632,1064.96 1353.92,1063.344 1351.648,1063.344 C1349.424,1063.344 1347.696,1064.96 1347.696,1067.76 C1347.696,1070.56 1349.392,1072.176 1351.648,1072.176 C1353.888,1072.176 1355.632,1070.56 1355.632,1067.76 L1355.632,1067.76 Z M1354.416,1067.76 C1354.416,1069.888 1353.312,1071.168 1351.648,1071.168 C1350.032,1071.168 1348.928,1069.824 1348.928,1067.76 C1348.928,1065.648 1350,1064.352 1351.648,1064.352 C1353.296,1064.352 1354.416,1065.696 1354.416,1067.76 L1354.416,1067.76 Z M1363.12,1066.224 C1363.12,1067.36 1362.304,1068.24 1360.992,1068.24 C1359.696,1068.24 1358.896,1067.36 1358.896,1066.256 C1358.896,1065.104 1359.696,1064.24 1360.976,1064.24 C1362.24,1064.24 1363.12,1065.104 1363.12,1066.224 L1363.12,1066.224 Z M1365.296,1072.672 C1365.296,1071.424 1364.224,1070.88 1362.272,1070.528 L1361.616,1070.4 C1360,1070.112 1359.632,1070 1359.632,1069.648 C1359.632,1069.456 1359.824,1069.248 1360.208,1069.056 C1360.464,1069.104 1360.736,1069.12 1361.008,1069.12 C1362.752,1069.12 1364.288,1068.032 1364.288,1066.24 C1364.288,1065.664 1364.112,1065.168 1363.824,1064.736 L1365.584,1064.544 L1365.392,1063.392 L1363.184,1064.064 C1362.592,1063.6 1361.824,1063.344 1360.976,1063.344 C1359.264,1063.344 1357.712,1064.448 1357.712,1066.24 C1357.712,1067.408 1358.368,1068.304 1359.344,1068.768 C1358.752,1069.104 1358.448,1069.456 1358.448,1069.872 C1358.448,1070.208 1358.656,1070.512 1359.104,1070.784 C1357.776,1071.424 1357.088,1072.176 1357.088,1073.024 C1357.088,1074.48 1358.848,1075.216 1361.104,1075.216 C1363.392,1075.216 1365.296,1074.32 1365.296,1072.672 L1365.296,1072.672 Z M1361.152,1071.376 L1361.984,1071.52 C1363.568,1071.808 1364.144,1072.176 1364.144,1072.832 C1364.144,1073.664 1362.976,1074.32 1361.184,1074.32 C1359.456,1074.32 1358.272,1073.824 1358.272,1072.944 C1358.272,1072.272 1358.848,1071.68 1360.08,1071.152 C1360.416,1071.232 1360.704,1071.296 1361.152,1071.376 L1361.152,1071.376 Z M1369.184,1060.64 C1369.184,1060.176 1368.8,1059.792 1368.32,1059.792 C1367.84,1059.792 1367.44,1060.176 1367.44,1060.64 C1367.44,1061.104 1367.84,1061.504 1368.32,1061.504 C1368.8,1061.504 1369.184,1061.104 1369.184,1060.64 L1369.184,1060.64 Z M1368.912,1072 L1368.912,1063.52 L1367.728,1063.52 L1367.728,1072 L1368.912,1072 Z M1378.992,1072 L1378.992,1065.936 C1378.992,1064.32 1378.112,1063.344 1376.352,1063.344 C1375.152,1063.344 1374.16,1063.952 1373.184,1064.768 L1372.976,1063.52 L1372.064,1063.52 L1372.064,1072 L1373.248,1072 L1373.248,1065.872 C1374.224,1064.96 1375.184,1064.416 1376.128,1064.416 C1377.264,1064.416 1377.792,1065.072 1377.792,1066.16 L1377.792,1072 L1378.992,1072 Z M1383.216,1072 L1383.216,1070.24 L1381.808,1070.24 L1381.808,1072 L1383.216,1072 Z" id="Here’s-a-bit-of-info" stroke="none" fill="#303030" fill-rule="evenodd"></path>
</svg>
