
<svg width="870px" height="398px" viewBox="-1233 351 870 398" version="1.1" xmlns="http://www.w3.org/2000/svg" xmlns:xlink="http://www.w3.org/1999/xlink">
    <!-- Generator: Sketch 40.3 (33839) - http://www.bohemiancoding.com/sketch -->
    <desc>Created with Sketch.</desc>
    <defs>
        <rect id="path-1" x="-1150" y="393" width="336" height="232" rx="3"></rect>
        <filter x="-50%" y="-50%" width="200%" height="200%" filterUnits="objectBoundingBox" id="filter-2">
            <feOffset dx="0" dy="25" in="SourceAlpha" result="shadowOffsetOuter1"></feOffset>
            <feGaussianBlur stdDeviation="27.5" in="shadowOffsetOuter1" result="shadowBlurOuter1"></feGaussianBlur>
            <feColorMatrix values="0 0 0 0 0   0 0 0 0 0   0 0 0 0 0  0 0 0 0.21 0" type="matrix" in="shadowBlurOuter1" result="shadowMatrixOuter1"></feColorMatrix>
            <feOffset dx="0" dy="16" in="SourceAlpha" result="shadowOffsetOuter2"></feOffset>
            <feGaussianBlur stdDeviation="14" in="shadowOffsetOuter2" result="shadowBlurOuter2"></feGaussianBlur>
            <feColorMatrix values="0 0 0 0 0   0 0 0 0 0   0 0 0 0 0  0 0 0 0.22 0" type="matrix" in="shadowBlurOuter2" result="shadowMatrixOuter2"></feColorMatrix>
            <feMerge>
                <feMergeNode in="shadowMatrixOuter1"></feMergeNode>
                <feMergeNode in="shadowMatrixOuter2"></feMergeNode>
            </feMerge>
        </filter>
        <rect id="path-3" x="-782" y="393" width="336" height="128" rx="3"></rect>
        <filter x="-50%" y="-50%" width="200%" height="200%" filterUnits="objectBoundingBox" id="filter-4">
            <feOffset dx="0" dy="25" in="SourceAlpha" result="shadowOffsetOuter1"></feOffset>
            <feGaussianBlur stdDeviation="27.5" in="shadowOffsetOuter1" result="shadowBlurOuter1"></feGaussianBlur>
            <feColorMatrix values="0 0 0 0 0   0 0 0 0 0   0 0 0 0 0  0 0 0 0.21 0" type="matrix" in="shadowBlurOuter1" result="shadowMatrixOuter1"></feColorMatrix>
            <feOffset dx="0" dy="16" in="SourceAlpha" result="shadowOffsetOuter2"></feOffset>
            <feGaussianBlur stdDeviation="14" in="shadowOffsetOuter2" result="shadowBlurOuter2"></feGaussianBlur>
            <feColorMatrix values="0 0 0 0 0   0 0 0 0 0   0 0 0 0 0  0 0 0 0.22 0" type="matrix" in="shadowBlurOuter2" result="shadowMatrixOuter2"></feColorMatrix>
            <feMerge>
                <feMergeNode in="shadowMatrixOuter1"></feMergeNode>
                <feMergeNode in="shadowMatrixOuter2"></feMergeNode>
            </feMerge>
        </filter>
    </defs>
    <rect id="Modal-BG-Copy" stroke="none" fill-opacity="0.5" fill="#000000" fill-rule="evenodd" x="-1182" y="361" width="768" height="296"></rect>
    <g id="Rectangle-7" stroke="none" fill="none">
        <use fill="black" fill-opacity="1" filter="url(#filter-2)" xlink:href="#path-1"></use>
        <use fill="#FFFFFF" fill-rule="evenodd" xlink:href="#path-1"></use>
    </g>
    <path d="M-1109.53,430.55 C-1109.53,426.5 -1112.41,424.25 -1117.18,424.25 L-1123.12,424.25 L-1123.12,446 L-1120.12,446 L-1120.12,437.21 L-1117.69,437.21 C-1112.8,437.21 -1109.53,434.99 -1109.53,430.55 L-1109.53,430.55 Z M-1112.56,430.64 C-1112.56,433.34 -1114.42,434.54 -1117.54,434.54 L-1120.12,434.54 L-1120.12,426.92 L-1117.33,426.92 C-1114.24,426.92 -1112.56,428.18 -1112.56,430.64 L-1112.56,430.64 Z M-1097.40625,432.47 L-1097.88625,429.65 C-1100.61625,429.77 -1102.53625,431.42 -1103.73625,433.25 L-1104.24625,429.98 L-1106.58625,429.98 L-1106.58625,446 L-1103.61625,446 L-1103.61625,436.49 C-1102.50625,434.39 -1100.16625,432.59 -1097.40625,432.47 L-1097.40625,432.47 Z M-1080.8125,438.02 C-1080.8125,432.74 -1084.0825,429.65 -1088.5225,429.65 C-1092.9025,429.65 -1096.1425,432.74 -1096.1425,438.02 C-1096.1425,443.27 -1092.9325,446.33 -1088.5225,446.33 C-1084.1125,446.33 -1080.8125,443.27 -1080.8125,438.02 L-1080.8125,438.02 Z M-1083.8125,438.02 C-1083.8125,441.41 -1085.4325,443.87 -1088.5225,443.87 C-1091.4925,443.87 -1093.1425,441.32 -1093.1425,438.02 C-1093.1425,434.6 -1091.5525,432.11 -1088.5225,432.11 C-1085.5225,432.11 -1083.8125,434.69 -1083.8125,438.02 L-1083.8125,438.02 Z M-1064.78875,444.68 L-1065.20875,441.95 C-1066.85875,443.3 -1068.50875,443.75 -1070.18875,443.75 C-1073.03875,443.75 -1075.16875,441.89 -1075.16875,437.96 C-1075.16875,434.27 -1073.18875,432.23 -1070.30875,432.23 C-1068.38875,432.23 -1066.85875,432.89 -1065.38875,434 L-1064.93875,431.12 C-1066.10875,430.34 -1067.87875,429.65 -1070.24875,429.65 C-1074.68875,429.65 -1078.16875,432.56 -1078.16875,438.02 C-1078.16875,443.33 -1074.89875,446.33 -1070.45875,446.33 C-1068.11875,446.33 -1066.31875,445.79 -1064.78875,444.68 L-1064.78875,444.68 Z M-1048.285,444.17 L-1048.705,441.53 C-1050.505,442.91 -1052.305,443.81 -1054.675,443.81 C-1057.645,443.81 -1059.475,442.07 -1059.595,438.29 L-1048.255,438.29 L-1048.255,437.66 C-1048.255,433.25 -1050.475,429.65 -1055.275,429.65 C-1059.445,429.65 -1062.565,432.8 -1062.565,437.93 C-1062.565,443.81 -1059.235,446.33 -1054.885,446.33 C-1052.185,446.33 -1050.025,445.52 -1048.285,444.17 L-1048.285,444.17 Z M-1055.305,431.96 C-1052.845,431.96 -1051.585,433.46 -1051.255,436.07 L-1059.445,436.07 C-1058.965,433.34 -1057.315,431.96 -1055.305,431.96 L-1055.305,431.96 Z M-1033.13125,441.53 C-1033.13125,438.5 -1034.99125,437.36 -1039.07125,436.34 C-1041.74125,435.71 -1042.58125,435.08 -1042.58125,434 C-1042.58125,432.86 -1041.59125,432.14 -1039.64125,432.14 C-1037.90125,432.14 -1036.07125,432.71 -1034.60125,433.49 L-1034.15125,430.73 C-1035.68125,430.04 -1037.51125,429.65 -1039.55125,429.65 C-1043.15125,429.65 -1045.37125,431.51 -1045.37125,434.06 C-1045.37125,436.91 -1043.81125,438.05 -1039.94125,439.01 C-1036.88125,439.7 -1035.92125,440.27 -1035.92125,441.74 C-1035.92125,443.09 -1037.21125,443.87 -1039.40125,443.87 C-1041.65125,443.87 -1043.66125,443.09 -1045.25125,442.04 L-1045.67125,444.83 C-1044.23125,445.61 -1041.83125,446.33 -1039.64125,446.33 C-1035.41125,446.33 -1033.13125,444.47 -1033.13125,441.53 L-1033.13125,441.53 Z M-1018.3075,441.53 C-1018.3075,438.5 -1020.1675,437.36 -1024.2475,436.34 C-1026.9175,435.71 -1027.7575,435.08 -1027.7575,434 C-1027.7575,432.86 -1026.7675,432.14 -1024.8175,432.14 C-1023.0775,432.14 -1021.2475,432.71 -1019.7775,433.49 L-1019.3275,430.73 C-1020.8575,430.04 -1022.6875,429.65 -1024.7275,429.65 C-1028.3275,429.65 -1030.5475,431.51 -1030.5475,434.06 C-1030.5475,436.91 -1028.9875,438.05 -1025.1175,439.01 C-1022.0575,439.7 -1021.0975,440.27 -1021.0975,441.74 C-1021.0975,443.09 -1022.3875,443.87 -1024.5775,443.87 C-1026.8275,443.87 -1028.8375,443.09 -1030.4275,442.04 L-1030.8475,444.83 C-1029.4075,445.61 -1027.0075,446.33 -1024.8175,446.33 C-1020.5875,446.33 -1018.3075,444.47 -1018.3075,441.53 L-1018.3075,441.53 Z M-999.88,446.06 L-1000.27,443.54 C-1000.66,443.63 -1001.17,443.66 -1001.74,443.66 C-1003.48,443.66 -1004.08,442.85 -1004.08,441.53 L-1004.08,432.47 L-1000.03,432.47 L-1000.42,429.98 L-1004.08,429.98 L-1004.08,424.19 L-1006.96,424.64 L-1006.96,429.98 L-1009.48,429.98 L-1009.48,432.47 L-1006.96,432.47 L-1006.96,442.04 C-1006.96,445.25 -1005.07,446.27 -1002.22,446.27 C-1001.14,446.27 -1000.39,446.18 -999.88,446.06 L-999.88,446.06 Z M-982.956249,446 L-982.956249,434.36 C-982.956249,431.45 -984.636249,429.65 -987.816249,429.65 C-990.156249,429.65 -992.076249,430.91 -993.486249,432.11 L-993.486249,421.76 L-996.456249,422.21 L-996.456249,446 L-993.486249,446 L-993.486249,434.9 C-991.926249,433.34 -990.246249,432.29 -988.566249,432.29 C-986.706249,432.29 -985.926249,433.4 -985.926249,435.08 L-985.926249,446 L-982.956249,446 Z M-974.852499,424.85 C-974.852499,423.83 -975.692499,422.96 -976.742499,422.96 C-977.792499,422.96 -978.662499,423.83 -978.662499,424.85 C-978.662499,425.9 -977.792499,426.71 -976.742499,426.71 C-975.692499,426.71 -974.852499,425.9 -974.852499,424.85 L-974.852499,424.85 Z M-975.272499,446 L-975.272499,429.98 L-978.242499,429.98 L-978.242499,446 L-975.272499,446 Z M-958.948749,441.53 C-958.948749,438.5 -960.808749,437.36 -964.888749,436.34 C-967.558749,435.71 -968.398749,435.08 -968.398749,434 C-968.398749,432.86 -967.408749,432.14 -965.458749,432.14 C-963.718749,432.14 -961.888749,432.71 -960.418749,433.49 L-959.968749,430.73 C-961.498749,430.04 -963.328749,429.65 -965.368749,429.65 C-968.968749,429.65 -971.188749,431.51 -971.188749,434.06 C-971.188749,436.91 -969.628749,438.05 -965.758749,439.01 C-962.698749,439.7 -961.738749,440.27 -961.738749,441.74 C-961.738749,443.09 -963.028749,443.87 -965.218749,443.87 C-967.468749,443.87 -969.478749,443.09 -971.068749,442.04 L-971.488749,444.83 C-970.048749,445.61 -967.648749,446.33 -965.458749,446.33 C-961.228749,446.33 -958.948749,444.47 -958.948749,441.53 L-958.948749,441.53 Z M-932.781249,445.55 L-939.531249,436.46 C-936.591249,435.71 -934.551249,433.76 -934.551249,430.46 C-934.551249,426.47 -937.431249,424.25 -942.051249,424.25 L-948.141249,424.25 L-948.141249,446 L-945.141249,446 L-945.141249,436.85 L-942.801249,436.85 L-935.931249,446.21 L-932.781249,445.55 Z M-937.551249,430.61 C-937.551249,433.04 -939.471249,434.33 -942.501249,434.33 L-945.141249,434.33 L-945.141249,426.92 L-942.171249,426.92 C-939.111249,426.92 -937.551249,428.27 -937.551249,430.61 L-937.551249,430.61 Z M-917.447499,444.17 L-917.867499,441.53 C-919.667499,442.91 -921.467499,443.81 -923.837499,443.81 C-926.807499,443.81 -928.637499,442.07 -928.757499,438.29 L-917.417499,438.29 L-917.417499,437.66 C-917.417499,433.25 -919.637499,429.65 -924.437499,429.65 C-928.607499,429.65 -931.727499,432.8 -931.727499,437.93 C-931.727499,443.81 -928.397499,446.33 -924.047499,446.33 C-921.347499,446.33 -919.187499,445.52 -917.447499,444.17 L-917.447499,444.17 Z M-924.467499,431.96 C-922.007499,431.96 -920.747499,433.46 -920.417499,436.07 L-928.607499,436.07 C-928.127499,433.34 -926.477499,431.96 -924.467499,431.96 L-924.467499,431.96 Z M-905.923749,446.06 L-906.313749,443.54 C-906.703749,443.63 -907.213749,443.66 -907.783749,443.66 C-909.523749,443.66 -910.123749,442.85 -910.123749,441.53 L-910.123749,432.47 L-906.073749,432.47 L-906.463749,429.98 L-910.123749,429.98 L-910.123749,424.19 L-913.003749,424.64 L-913.003749,429.98 L-915.523749,429.98 L-915.523749,432.47 L-913.003749,432.47 L-913.003749,442.04 C-913.003749,445.25 -911.113749,446.27 -908.263749,446.27 C-907.183749,446.27 -906.433749,446.18 -905.923749,446.06 L-905.923749,446.06 Z M-889.089999,446 L-889.089999,429.98 L-892.059999,429.98 L-892.059999,441.08 C-893.619999,442.64 -895.299999,443.69 -896.979999,443.69 C-898.839999,443.69 -899.619999,442.58 -899.619999,440.9 L-899.619999,429.98 L-902.589999,429.98 L-902.589999,441.62 C-902.589999,444.53 -900.939999,446.33 -897.729999,446.33 C-895.419999,446.33 -893.439999,445.1 -891.819999,443.69 L-891.429999,446 L-889.089999,446 Z M-875.346249,432.47 L-875.826249,429.65 C-878.556249,429.77 -880.476249,431.42 -881.676249,433.25 L-882.186249,429.98 L-884.526249,429.98 L-884.526249,446 L-881.556249,446 L-881.556249,436.49 C-880.446249,434.39 -878.106249,432.59 -875.346249,432.47 L-875.346249,432.47 Z M-859.022499,446 L-859.022499,434.36 C-859.022499,431.45 -860.702499,429.65 -863.882499,429.65 C-866.222499,429.65 -868.172499,430.91 -869.792499,432.29 L-870.182499,429.98 L-872.522499,429.98 L-872.522499,446 L-869.552499,446 L-869.552499,434.9 C-867.992499,433.34 -866.312499,432.29 -864.632499,432.29 C-862.772499,432.29 -861.992499,433.4 -861.992499,435.08 L-861.992499,446 L-859.022499,446 Z M-843.088749,429.44 C-843.088749,425.99 -845.788749,423.86 -849.778749,423.86 C-852.448749,423.86 -854.758749,424.76 -856.738749,426.2 L-856.318749,429.14 C-854.488749,427.67 -852.448749,426.56 -849.928749,426.56 C-847.708749,426.56 -846.088749,427.67 -846.088749,429.56 C-846.088749,431.57 -847.438749,432.59 -850.588749,433.79 L-851.878749,434.33 L-851.458749,439.52 L-849.598749,439.1 L-849.298749,436.01 C-845.428749,434.33 -843.088749,432.86 -843.088749,429.44 L-843.088749,429.44 Z M-848.938749,446 L-848.938749,442.22 L-852.148749,442.22 L-852.148749,446 L-848.938749,446 Z" id="Header" stroke="none" fill="#424242" fill-rule="evenodd"></path>
    <path d="M-1118.468,478.72 C-1118.468,476.886 -1119.784,475.85 -1121.94,475.85 L-1124.53,475.85 L-1124.53,486 L-1123.48,486 L-1123.48,481.744 L-1122.178,481.744 C-1120.008,481.744 -1118.468,480.722 -1118.468,478.72 L-1118.468,478.72 Z M-1119.546,478.762 C-1119.546,480.134 -1120.512,480.806 -1122.122,480.806 L-1123.48,480.806 L-1123.48,476.788 L-1121.996,476.788 C-1120.4,476.788 -1119.546,477.46 -1119.546,478.762 L-1119.546,478.762 Z M-1112.518,479.406 L-1112.686,478.426 C-1113.96,478.454 -1114.856,479.266 -1115.43,480.106 L-1115.682,478.58 L-1116.438,478.58 L-1116.438,486 L-1115.402,486 L-1115.402,481.352 C-1114.884,480.358 -1113.792,479.476 -1112.518,479.406 L-1112.518,479.406 Z M-1104.286,482.29 C-1104.286,479.84 -1105.784,478.426 -1107.772,478.426 C-1109.718,478.426 -1111.23,479.84 -1111.23,482.29 C-1111.23,484.74 -1109.746,486.154 -1107.772,486.154 C-1105.812,486.154 -1104.286,484.74 -1104.286,482.29 L-1104.286,482.29 Z M-1105.35,482.29 C-1105.35,484.152 -1106.316,485.272 -1107.772,485.272 C-1109.186,485.272 -1110.152,484.096 -1110.152,482.29 C-1110.152,480.442 -1109.214,479.308 -1107.772,479.308 C-1106.33,479.308 -1105.35,480.484 -1105.35,482.29 L-1105.35,482.29 Z M-1096.516,485.314 L-1096.656,484.362 C-1097.454,485.006 -1098.21,485.244 -1099.022,485.244 C-1100.492,485.244 -1101.528,484.152 -1101.528,482.29 C-1101.528,480.386 -1100.506,479.336 -1099.078,479.336 C-1098.196,479.336 -1097.482,479.644 -1096.754,480.218 L-1096.586,479.182 C-1097.188,478.748 -1098.028,478.426 -1099.064,478.426 C-1101.038,478.426 -1102.606,479.798 -1102.606,482.29 C-1102.606,484.754 -1101.094,486.154 -1099.12,486.154 C-1098.07,486.154 -1097.23,485.86 -1096.516,485.314 L-1096.516,485.314 Z M-1088.508,485.104 L-1088.662,484.166 C-1089.446,484.81 -1090.356,485.258 -1091.364,485.258 C-1092.932,485.258 -1093.814,484.194 -1093.842,482.36 L-1088.494,482.36 L-1088.494,482.136 C-1088.494,480.078 -1089.516,478.426 -1091.602,478.426 C-1093.506,478.426 -1094.906,479.91 -1094.906,482.276 C-1094.906,484.838 -1093.45,486.154 -1091.434,486.154 C-1090.258,486.154 -1089.264,485.734 -1088.508,485.104 L-1088.508,485.104 Z M-1091.616,479.252 C-1090.356,479.252 -1089.656,480.204 -1089.558,481.548 L-1093.8,481.548 C-1093.604,480.064 -1092.764,479.252 -1091.616,479.252 L-1091.616,479.252 Z M-1081.214,483.984 C-1081.214,482.668 -1082.096,482.108 -1083.916,481.646 C-1085.232,481.31 -1085.652,481.002 -1085.652,480.4 C-1085.652,479.784 -1085.148,479.336 -1084.084,479.336 C-1083.314,479.336 -1082.53,479.56 -1081.844,479.924 L-1081.676,478.93 C-1082.334,478.622 -1083.146,478.426 -1084.042,478.426 C-1085.638,478.426 -1086.66,479.28 -1086.66,480.428 C-1086.66,481.66 -1085.918,482.192 -1084.224,482.626 C-1082.67,483.004 -1082.222,483.34 -1082.222,484.068 C-1082.222,484.824 -1082.894,485.244 -1083.986,485.244 C-1085.008,485.244 -1085.946,484.894 -1086.674,484.46 L-1086.842,485.454 C-1086.17,485.818 -1085.106,486.14 -1084.084,486.14 C-1082.32,486.14 -1081.214,485.342 -1081.214,483.984 L-1081.214,483.984 Z M-1073.976,483.984 C-1073.976,482.668 -1074.858,482.108 -1076.678,481.646 C-1077.994,481.31 -1078.414,481.002 -1078.414,480.4 C-1078.414,479.784 -1077.91,479.336 -1076.846,479.336 C-1076.076,479.336 -1075.292,479.56 -1074.606,479.924 L-1074.438,478.93 C-1075.096,478.622 -1075.908,478.426 -1076.804,478.426 C-1078.4,478.426 -1079.422,479.28 -1079.422,480.428 C-1079.422,481.66 -1078.68,482.192 -1076.986,482.626 C-1075.432,483.004 -1074.984,483.34 -1074.984,484.068 C-1074.984,484.824 -1075.656,485.244 -1076.748,485.244 C-1077.77,485.244 -1078.708,484.894 -1079.436,484.46 L-1079.604,485.454 C-1078.932,485.818 -1077.868,486.14 -1076.846,486.14 C-1075.082,486.14 -1073.976,485.342 -1073.976,483.984 L-1073.976,483.984 Z M-1070.448,476.06 C-1070.448,475.654 -1070.784,475.318 -1071.204,475.318 C-1071.624,475.318 -1071.974,475.654 -1071.974,476.06 C-1071.974,476.466 -1071.624,476.816 -1071.204,476.816 C-1070.784,476.816 -1070.448,476.466 -1070.448,476.06 L-1070.448,476.06 Z M-1070.686,486 L-1070.686,478.58 L-1071.722,478.58 L-1071.722,486 L-1070.686,486 Z M-1061.866,486 L-1061.866,480.694 C-1061.866,479.28 -1062.636,478.426 -1064.176,478.426 C-1065.226,478.426 -1066.094,478.958 -1066.948,479.672 L-1067.13,478.58 L-1067.928,478.58 L-1067.928,486 L-1066.892,486 L-1066.892,480.638 C-1066.038,479.84 -1065.198,479.364 -1064.372,479.364 C-1063.378,479.364 -1062.916,479.938 -1062.916,480.89 L-1062.916,486 L-1061.866,486 Z M-1054.908,480.946 C-1054.908,481.94 -1055.622,482.71 -1056.77,482.71 C-1057.904,482.71 -1058.604,481.94 -1058.604,480.974 C-1058.604,479.966 -1057.904,479.21 -1056.784,479.21 C-1055.678,479.21 -1054.908,479.966 -1054.908,480.946 L-1054.908,480.946 Z M-1053.004,486.588 C-1053.004,485.496 -1053.942,485.02 -1055.65,484.712 L-1056.224,484.6 C-1057.638,484.348 -1057.96,484.25 -1057.96,483.942 C-1057.96,483.774 -1057.792,483.592 -1057.456,483.424 C-1057.232,483.466 -1056.994,483.48 -1056.756,483.48 C-1055.23,483.48 -1053.886,482.528 -1053.886,480.96 C-1053.886,480.456 -1054.04,480.022 -1054.292,479.644 L-1052.752,479.476 L-1052.92,478.468 L-1054.852,479.056 C-1055.37,478.65 -1056.042,478.426 -1056.784,478.426 C-1058.282,478.426 -1059.64,479.392 -1059.64,480.96 C-1059.64,481.982 -1059.066,482.766 -1058.212,483.172 C-1058.73,483.466 -1058.996,483.774 -1058.996,484.138 C-1058.996,484.432 -1058.814,484.698 -1058.422,484.936 C-1059.584,485.496 -1060.186,486.154 -1060.186,486.896 C-1060.186,488.17 -1058.646,488.814 -1056.672,488.814 C-1054.67,488.814 -1053.004,488.03 -1053.004,486.588 L-1053.004,486.588 Z M-1056.63,485.454 L-1055.902,485.58 C-1054.516,485.832 -1054.012,486.154 -1054.012,486.728 C-1054.012,487.456 -1055.034,488.03 -1056.602,488.03 C-1058.114,488.03 -1059.15,487.596 -1059.15,486.826 C-1059.15,486.238 -1058.646,485.72 -1057.568,485.258 C-1057.274,485.328 -1057.022,485.384 -1056.63,485.454 L-1056.63,485.454 Z M-1043.89,486 L-1044.03,485.132 C-1044.212,485.174 -1044.506,485.202 -1044.758,485.202 C-1045.598,485.202 -1045.92,484.88 -1045.92,484.124 L-1045.92,479.462 L-1043.988,479.462 L-1044.114,478.58 L-1045.92,478.58 L-1045.92,475.836 L-1046.942,476.018 L-1046.942,478.58 L-1048.132,478.58 L-1048.132,479.462 L-1046.942,479.462 L-1046.942,484.306 C-1046.942,485.678 -1046.158,486.126 -1044.954,486.126 C-1044.492,486.126 -1044.1,486.056 -1043.89,486 L-1043.89,486 Z M-1035.77,486 L-1035.77,480.68 C-1035.77,479.266 -1036.54,478.426 -1038.08,478.426 C-1039.13,478.426 -1039.984,478.958 -1040.796,479.63 L-1040.796,474.744 L-1041.832,474.926 L-1041.832,486 L-1040.796,486 L-1040.796,480.638 C-1039.942,479.84 -1039.102,479.364 -1038.276,479.364 C-1037.282,479.364 -1036.82,479.938 -1036.82,480.89 L-1036.82,486 L-1035.77,486 Z M-1031.808,476.06 C-1031.808,475.654 -1032.144,475.318 -1032.564,475.318 C-1032.984,475.318 -1033.334,475.654 -1033.334,476.06 C-1033.334,476.466 -1032.984,476.816 -1032.564,476.816 C-1032.144,476.816 -1031.808,476.466 -1031.808,476.06 L-1031.808,476.06 Z M-1032.046,486 L-1032.046,478.58 L-1033.082,478.58 L-1033.082,486 L-1032.046,486 Z M-1024.192,483.984 C-1024.192,482.668 -1025.074,482.108 -1026.894,481.646 C-1028.21,481.31 -1028.63,481.002 -1028.63,480.4 C-1028.63,479.784 -1028.126,479.336 -1027.062,479.336 C-1026.292,479.336 -1025.508,479.56 -1024.822,479.924 L-1024.654,478.93 C-1025.312,478.622 -1026.124,478.426 -1027.02,478.426 C-1028.616,478.426 -1029.638,479.28 -1029.638,480.428 C-1029.638,481.66 -1028.896,482.192 -1027.202,482.626 C-1025.648,483.004 -1025.2,483.34 -1025.2,484.068 C-1025.2,484.824 -1025.872,485.244 -1026.964,485.244 C-1027.986,485.244 -1028.924,484.894 -1029.652,484.46 L-1029.82,485.454 C-1029.148,485.818 -1028.084,486.14 -1027.062,486.14 C-1025.298,486.14 -1024.192,485.342 -1024.192,483.984 L-1024.192,483.984 Z M-1011.326,485.86 L-1014.63,481.464 C-1013.258,481.156 -1012.166,480.232 -1012.166,478.664 C-1012.166,476.9 -1013.454,475.85 -1015.568,475.85 L-1018.228,475.85 L-1018.228,486 L-1017.178,486 L-1017.178,481.59 L-1015.792,481.59 L-1012.432,486.098 L-1011.326,485.86 Z M-1013.244,478.72 C-1013.244,479.98 -1014.238,480.694 -1015.792,480.694 L-1017.178,480.694 L-1017.178,476.788 L-1015.624,476.788 C-1014.042,476.788 -1013.244,477.516 -1013.244,478.72 L-1013.244,478.72 Z M-1003.682,485.104 L-1003.836,484.166 C-1004.62,484.81 -1005.53,485.258 -1006.538,485.258 C-1008.106,485.258 -1008.988,484.194 -1009.016,482.36 L-1003.668,482.36 L-1003.668,482.136 C-1003.668,480.078 -1004.69,478.426 -1006.776,478.426 C-1008.68,478.426 -1010.08,479.91 -1010.08,482.276 C-1010.08,484.838 -1008.624,486.154 -1006.608,486.154 C-1005.432,486.154 -1004.438,485.734 -1003.682,485.104 L-1003.682,485.104 Z M-1006.79,479.252 C-1005.53,479.252 -1004.83,480.204 -1004.732,481.548 L-1008.974,481.548 C-1008.778,480.064 -1007.938,479.252 -1006.79,479.252 L-1006.79,479.252 Z M-998.068,486 L-998.208,485.132 C-998.39,485.174 -998.684,485.202 -998.936,485.202 C-999.776,485.202 -1000.098,484.88 -1000.098,484.124 L-1000.098,479.462 L-998.166,479.462 L-998.292,478.58 L-1000.098,478.58 L-1000.098,475.836 L-1001.12,476.018 L-1001.12,478.58 L-1002.31,478.58 L-1002.31,479.462 L-1001.12,479.462 L-1001.12,484.306 C-1001.12,485.678 -1000.336,486.126 -999.132,486.126 C-998.67,486.126 -998.278,486.056 -998.068,486 L-998.068,486 Z M-990.032,486 L-990.032,478.58 L-991.068,478.58 L-991.068,483.942 C-991.922,484.74 -992.762,485.216 -993.588,485.216 C-994.582,485.216 -995.044,484.642 -995.044,483.69 L-995.044,478.58 L-996.094,478.58 L-996.094,483.886 C-996.094,485.3 -995.324,486.154 -993.784,486.154 C-992.748,486.154 -991.866,485.622 -991.012,484.908 L-990.83,486 L-990.032,486 Z M-983.452,479.406 L-983.62,478.426 C-984.894,478.454 -985.79,479.266 -986.364,480.106 L-986.616,478.58 L-987.372,478.58 L-987.372,486 L-986.336,486 L-986.336,481.352 C-985.818,480.358 -984.726,479.476 -983.452,479.406 L-983.452,479.406 Z M-975.612,486 L-975.612,480.694 C-975.612,479.28 -976.382,478.426 -977.922,478.426 C-978.972,478.426 -979.84,478.958 -980.694,479.672 L-980.876,478.58 L-981.674,478.58 L-981.674,486 L-980.638,486 L-980.638,480.638 C-979.784,479.84 -978.944,479.364 -978.118,479.364 C-977.124,479.364 -976.662,479.938 -976.662,480.89 L-976.662,486 L-975.612,486 Z M-959.288,478.58 L-960.338,478.58 L-962.27,484.67 L-964.216,478.552 L-965.126,478.552 L-967.072,484.67 L-969.088,478.468 L-970.11,478.65 L-967.534,486.056 L-966.638,486.056 L-964.706,479.994 L-962.76,486.056 L-961.85,486.056 L-959.288,478.58 Z M-955.984,476.06 C-955.984,475.654 -956.32,475.318 -956.74,475.318 C-957.16,475.318 -957.51,475.654 -957.51,476.06 C-957.51,476.466 -957.16,476.816 -956.74,476.816 C-956.32,476.816 -955.984,476.466 -955.984,476.06 L-955.984,476.06 Z M-956.222,486 L-956.222,478.58 L-957.258,478.58 L-957.258,486 L-956.222,486 Z M-952.316,486 L-952.316,474.744 L-953.352,474.926 L-953.352,486 L-952.316,486 Z M-948.41,486 L-948.41,474.744 L-949.446,474.926 L-949.446,486 L-948.41,486 Z M-936.37,485.314 L-936.51,484.362 C-937.308,485.006 -938.064,485.244 -938.876,485.244 C-940.346,485.244 -941.382,484.152 -941.382,482.29 C-941.382,480.386 -940.36,479.336 -938.932,479.336 C-938.05,479.336 -937.336,479.644 -936.608,480.218 L-936.44,479.182 C-937.042,478.748 -937.882,478.426 -938.918,478.426 C-940.892,478.426 -942.46,479.798 -942.46,482.29 C-942.46,484.754 -940.948,486.154 -938.974,486.154 C-937.924,486.154 -937.084,485.86 -936.37,485.314 L-936.37,485.314 Z M-928.208,486 L-928.208,480.68 C-928.208,479.266 -928.978,478.426 -930.518,478.426 C-931.568,478.426 -932.422,478.958 -933.234,479.63 L-933.234,474.744 L-934.27,474.926 L-934.27,486 L-933.234,486 L-933.234,480.638 C-932.38,479.84 -931.54,479.364 -930.714,479.364 C-929.72,479.364 -929.258,479.938 -929.258,480.89 L-929.258,486 L-928.208,486 Z M-921.18,484.152 C-921.936,484.838 -922.86,485.272 -923.686,485.272 C-924.498,485.272 -925.086,484.852 -925.086,484.068 C-925.086,483.06 -924.218,482.374 -921.18,482.066 L-921.18,484.152 Z M-920.144,486 L-920.144,480.708 C-920.144,479.182 -921.012,478.426 -922.706,478.426 C-923.798,478.426 -924.68,478.692 -925.576,479.07 L-925.436,479.994 C-924.582,479.602 -923.686,479.35 -922.79,479.35 C-921.796,479.35 -921.18,479.77 -921.18,480.764 L-921.18,481.254 C-924.68,481.576 -926.136,482.388 -926.136,484.138 C-926.136,485.44 -925.156,486.154 -923.826,486.154 C-922.734,486.154 -921.838,485.65 -921.11,485.006 L-920.928,486 L-920.144,486 Z M-913.634,479.406 L-913.802,478.426 C-915.076,478.454 -915.972,479.266 -916.546,480.106 L-916.798,478.58 L-917.554,478.58 L-917.554,486 L-916.518,486 L-916.518,481.352 C-916,480.358 -914.908,479.476 -913.634,479.406 L-913.634,479.406 Z M-907.474,480.946 C-907.474,481.94 -908.188,482.71 -909.336,482.71 C-910.47,482.71 -911.17,481.94 -911.17,480.974 C-911.17,479.966 -910.47,479.21 -909.35,479.21 C-908.244,479.21 -907.474,479.966 -907.474,480.946 L-907.474,480.946 Z M-905.57,486.588 C-905.57,485.496 -906.508,485.02 -908.216,484.712 L-908.79,484.6 C-910.204,484.348 -910.526,484.25 -910.526,483.942 C-910.526,483.774 -910.358,483.592 -910.022,483.424 C-909.798,483.466 -909.56,483.48 -909.322,483.48 C-907.796,483.48 -906.452,482.528 -906.452,480.96 C-906.452,480.456 -906.606,480.022 -906.858,479.644 L-905.318,479.476 L-905.486,478.468 L-907.418,479.056 C-907.936,478.65 -908.608,478.426 -909.35,478.426 C-910.848,478.426 -912.206,479.392 -912.206,480.96 C-912.206,481.982 -911.632,482.766 -910.778,483.172 C-911.296,483.466 -911.562,483.774 -911.562,484.138 C-911.562,484.432 -911.38,484.698 -910.988,484.936 C-912.15,485.496 -912.752,486.154 -912.752,486.896 C-912.752,488.17 -911.212,488.814 -909.238,488.814 C-907.236,488.814 -905.57,488.03 -905.57,486.588 L-905.57,486.588 Z M-909.196,485.454 L-908.468,485.58 C-907.082,485.832 -906.578,486.154 -906.578,486.728 C-906.578,487.456 -907.6,488.03 -909.168,488.03 C-910.68,488.03 -911.716,487.596 -911.716,486.826 C-911.716,486.238 -911.212,485.72 -910.134,485.258 C-909.84,485.328 -909.588,485.384 -909.196,485.454 L-909.196,485.454 Z M-897.646,485.104 L-897.8,484.166 C-898.584,484.81 -899.494,485.258 -900.502,485.258 C-902.07,485.258 -902.952,484.194 -902.98,482.36 L-897.632,482.36 L-897.632,482.136 C-897.632,480.078 -898.654,478.426 -900.74,478.426 C-902.644,478.426 -904.044,479.91 -904.044,482.276 C-904.044,484.838 -902.588,486.154 -900.572,486.154 C-899.396,486.154 -898.402,485.734 -897.646,485.104 L-897.646,485.104 Z M-900.754,479.252 C-899.494,479.252 -898.794,480.204 -898.696,481.548 L-902.938,481.548 C-902.742,480.064 -901.902,479.252 -900.754,479.252 L-900.754,479.252 Z M-888.35,486 L-888.49,485.132 C-888.672,485.174 -888.966,485.202 -889.218,485.202 C-890.058,485.202 -890.38,484.88 -890.38,484.124 L-890.38,479.462 L-888.448,479.462 L-888.574,478.58 L-890.38,478.58 L-890.38,475.836 L-891.402,476.018 L-891.402,478.58 L-892.592,478.58 L-892.592,479.462 L-891.402,479.462 L-891.402,484.306 C-891.402,485.678 -890.618,486.126 -889.414,486.126 C-888.952,486.126 -888.56,486.056 -888.35,486 L-888.35,486 Z M-880.23,486 L-880.23,480.68 C-880.23,479.266 -881,478.426 -882.54,478.426 C-883.59,478.426 -884.444,478.958 -885.256,479.63 L-885.256,474.744 L-886.292,474.926 L-886.292,486 L-885.256,486 L-885.256,480.638 C-884.402,479.84 -883.562,479.364 -882.736,479.364 C-881.742,479.364 -881.28,479.938 -881.28,480.89 L-881.28,486 L-880.23,486 Z M-871.746,485.104 L-871.9,484.166 C-872.684,484.81 -873.594,485.258 -874.602,485.258 C-876.17,485.258 -877.052,484.194 -877.08,482.36 L-871.732,482.36 L-871.732,482.136 C-871.732,480.078 -872.754,478.426 -874.84,478.426 C-876.744,478.426 -878.144,479.91 -878.144,482.276 C-878.144,484.838 -876.688,486.154 -874.672,486.154 C-873.496,486.154 -872.502,485.734 -871.746,485.104 L-871.746,485.104 Z M-874.854,479.252 C-873.594,479.252 -872.894,480.204 -872.796,481.548 L-877.038,481.548 C-876.842,480.064 -876.002,479.252 -874.854,479.252 L-874.854,479.252 Z M-1119.07,509.314 L-1119.21,508.362 C-1120.008,509.006 -1120.764,509.244 -1121.576,509.244 C-1123.046,509.244 -1124.082,508.152 -1124.082,506.29 C-1124.082,504.386 -1123.06,503.336 -1121.632,503.336 C-1120.75,503.336 -1120.036,503.644 -1119.308,504.218 L-1119.14,503.182 C-1119.742,502.748 -1120.582,502.426 -1121.618,502.426 C-1123.592,502.426 -1125.16,503.798 -1125.16,506.29 C-1125.16,508.754 -1123.648,510.154 -1121.674,510.154 C-1120.624,510.154 -1119.784,509.86 -1119.07,509.314 L-1119.07,509.314 Z M-1115.822,510 L-1115.822,498.744 L-1116.858,498.926 L-1116.858,510 L-1115.822,510 Z M-1111.678,500.06 C-1111.678,499.654 -1112.014,499.318 -1112.434,499.318 C-1112.854,499.318 -1113.204,499.654 -1113.204,500.06 C-1113.204,500.466 -1112.854,500.816 -1112.434,500.816 C-1112.014,500.816 -1111.678,500.466 -1111.678,500.06 L-1111.678,500.06 Z M-1111.916,510 L-1111.916,502.58 L-1112.952,502.58 L-1112.952,510 L-1111.916,510 Z M-1103.25,509.104 L-1103.404,508.166 C-1104.188,508.81 -1105.098,509.258 -1106.106,509.258 C-1107.674,509.258 -1108.556,508.194 -1108.584,506.36 L-1103.236,506.36 L-1103.236,506.136 C-1103.236,504.078 -1104.258,502.426 -1106.344,502.426 C-1108.248,502.426 -1109.648,503.91 -1109.648,506.276 C-1109.648,508.838 -1108.192,510.154 -1106.176,510.154 C-1105,510.154 -1104.006,509.734 -1103.25,509.104 L-1103.25,509.104 Z M-1106.358,503.252 C-1105.098,503.252 -1104.398,504.204 -1104.3,505.548 L-1108.542,505.548 C-1108.346,504.064 -1107.506,503.252 -1106.358,503.252 L-1106.358,503.252 Z M-1094.99,510 L-1094.99,504.694 C-1094.99,503.28 -1095.76,502.426 -1097.3,502.426 C-1098.35,502.426 -1099.218,502.958 -1100.072,503.672 L-1100.254,502.58 L-1101.052,502.58 L-1101.052,510 L-1100.016,510 L-1100.016,504.638 C-1099.162,503.84 -1098.322,503.364 -1097.496,503.364 C-1096.502,503.364 -1096.04,503.938 -1096.04,504.89 L-1096.04,510 L-1094.99,510 Z M-1088.998,510 L-1089.138,509.132 C-1089.32,509.174 -1089.614,509.202 -1089.866,509.202 C-1090.706,509.202 -1091.028,508.88 -1091.028,508.124 L-1091.028,503.462 L-1089.096,503.462 L-1089.222,502.58 L-1091.028,502.58 L-1091.028,499.836 L-1092.05,500.018 L-1092.05,502.58 L-1093.24,502.58 L-1093.24,503.462 L-1092.05,503.462 L-1092.05,508.306 C-1092.05,509.678 -1091.266,510.126 -1090.062,510.126 C-1089.6,510.126 -1089.208,510.056 -1088.998,510 L-1088.998,510 Z M-1085.82,510 L-1085.82,508.46 L-1087.052,508.46 L-1087.052,510 L-1085.82,510 Z M-1073.388,502.72 C-1073.388,500.886 -1074.704,499.85 -1076.86,499.85 L-1079.45,499.85 L-1079.45,510 L-1078.4,510 L-1078.4,505.744 L-1077.098,505.744 C-1074.928,505.744 -1073.388,504.722 -1073.388,502.72 L-1073.388,502.72 Z M-1074.466,502.762 C-1074.466,504.134 -1075.432,504.806 -1077.042,504.806 L-1078.4,504.806 L-1078.4,500.788 L-1076.916,500.788 C-1075.32,500.788 -1074.466,501.46 -1074.466,502.762 L-1074.466,502.762 Z M-1070.21,510 L-1070.21,498.744 L-1071.246,498.926 L-1071.246,510 L-1070.21,510 Z M-1061.544,509.104 L-1061.698,508.166 C-1062.482,508.81 -1063.392,509.258 -1064.4,509.258 C-1065.968,509.258 -1066.85,508.194 -1066.878,506.36 L-1061.53,506.36 L-1061.53,506.136 C-1061.53,504.078 -1062.552,502.426 -1064.638,502.426 C-1066.542,502.426 -1067.942,503.91 -1067.942,506.276 C-1067.942,508.838 -1066.486,510.154 -1064.47,510.154 C-1063.294,510.154 -1062.3,509.734 -1061.544,509.104 L-1061.544,509.104 Z M-1064.652,503.252 C-1063.392,503.252 -1062.692,504.204 -1062.594,505.548 L-1066.836,505.548 C-1066.64,504.064 -1065.8,503.252 -1064.652,503.252 L-1064.652,503.252 Z M-1054.894,508.152 C-1055.65,508.838 -1056.574,509.272 -1057.4,509.272 C-1058.212,509.272 -1058.8,508.852 -1058.8,508.068 C-1058.8,507.06 -1057.932,506.374 -1054.894,506.066 L-1054.894,508.152 Z M-1053.858,510 L-1053.858,504.708 C-1053.858,503.182 -1054.726,502.426 -1056.42,502.426 C-1057.512,502.426 -1058.394,502.692 -1059.29,503.07 L-1059.15,503.994 C-1058.296,503.602 -1057.4,503.35 -1056.504,503.35 C-1055.51,503.35 -1054.894,503.77 -1054.894,504.764 L-1054.894,505.254 C-1058.394,505.576 -1059.85,506.388 -1059.85,508.138 C-1059.85,509.44 -1058.87,510.154 -1057.54,510.154 C-1056.448,510.154 -1055.552,509.65 -1054.824,509.006 L-1054.642,510 L-1053.858,510 Z M-1046.172,507.984 C-1046.172,506.668 -1047.054,506.108 -1048.874,505.646 C-1050.19,505.31 -1050.61,505.002 -1050.61,504.4 C-1050.61,503.784 -1050.106,503.336 -1049.042,503.336 C-1048.272,503.336 -1047.488,503.56 -1046.802,503.924 L-1046.634,502.93 C-1047.292,502.622 -1048.104,502.426 -1049,502.426 C-1050.596,502.426 -1051.618,503.28 -1051.618,504.428 C-1051.618,505.66 -1050.876,506.192 -1049.182,506.626 C-1047.628,507.004 -1047.18,507.34 -1047.18,508.068 C-1047.18,508.824 -1047.852,509.244 -1048.944,509.244 C-1049.966,509.244 -1050.904,508.894 -1051.632,508.46 L-1051.8,509.454 C-1051.128,509.818 -1050.064,510.14 -1049.042,510.14 C-1047.278,510.14 -1046.172,509.342 -1046.172,507.984 L-1046.172,507.984 Z M-1038.122,509.104 L-1038.276,508.166 C-1039.06,508.81 -1039.97,509.258 -1040.978,509.258 C-1042.546,509.258 -1043.428,508.194 -1043.456,506.36 L-1038.108,506.36 L-1038.108,506.136 C-1038.108,504.078 -1039.13,502.426 -1041.216,502.426 C-1043.12,502.426 -1044.52,503.91 -1044.52,506.276 C-1044.52,508.838 -1043.064,510.154 -1041.048,510.154 C-1039.872,510.154 -1038.878,509.734 -1038.122,509.104 L-1038.122,509.104 Z M-1041.23,503.252 C-1039.97,503.252 -1039.27,504.204 -1039.172,505.548 L-1043.414,505.548 C-1043.218,504.064 -1042.378,503.252 -1041.23,503.252 L-1041.23,503.252 Z M-1027.174,507.886 C-1027.874,508.698 -1028.588,509.216 -1029.498,509.216 C-1030.73,509.216 -1031.64,508.25 -1031.64,506.458 C-1031.64,504.372 -1030.548,503.364 -1029.162,503.364 C-1028.364,503.364 -1027.776,503.518 -1027.174,503.812 L-1027.174,507.886 Z M-1026.124,510 L-1026.124,498.744 L-1027.174,498.926 L-1027.174,502.846 C-1027.734,502.622 -1028.406,502.482 -1029.19,502.482 C-1031.052,502.482 -1032.704,503.798 -1032.704,506.5 C-1032.704,508.992 -1031.276,510.154 -1029.596,510.154 C-1028.476,510.154 -1027.706,509.594 -1027.118,508.922 L-1026.922,510 L-1026.124,510 Z M-1017.024,506.29 C-1017.024,503.84 -1018.522,502.426 -1020.51,502.426 C-1022.456,502.426 -1023.968,503.84 -1023.968,506.29 C-1023.968,508.74 -1022.484,510.154 -1020.51,510.154 C-1018.55,510.154 -1017.024,508.74 -1017.024,506.29 L-1017.024,506.29 Z M-1018.088,506.29 C-1018.088,508.152 -1019.054,509.272 -1020.51,509.272 C-1021.924,509.272 -1022.89,508.096 -1022.89,506.29 C-1022.89,504.442 -1021.952,503.308 -1020.51,503.308 C-1019.068,503.308 -1018.088,504.484 -1018.088,506.29 L-1018.088,506.29 Z M-1008.876,510 L-1008.876,502.58 L-1009.912,502.58 L-1009.912,507.942 C-1010.766,508.74 -1011.606,509.216 -1012.432,509.216 C-1013.426,509.216 -1013.888,508.642 -1013.888,507.69 L-1013.888,502.58 L-1014.938,502.58 L-1014.938,507.886 C-1014.938,509.3 -1014.168,510.154 -1012.628,510.154 C-1011.592,510.154 -1010.71,509.622 -1009.856,508.908 L-1009.674,510 L-1008.876,510 Z M-999.692,506.08 C-999.692,503.602 -1001.106,502.426 -1002.8,502.426 C-1003.864,502.426 -1004.62,502.972 -1005.18,503.546 L-1005.18,498.744 L-1006.216,498.926 L-1006.216,509.608 C-1005.376,509.902 -1004.494,510.098 -1003.43,510.098 C-1001.302,510.098 -999.692,508.782 -999.692,506.08 L-999.692,506.08 Z M-1000.756,506.122 C-1000.756,508.25 -1001.848,509.202 -1003.374,509.202 C-1004.172,509.202 -1004.69,509.076 -1005.18,508.894 L-1005.18,504.652 C-1004.48,503.868 -1003.766,503.364 -1002.898,503.364 C-1001.652,503.364 -1000.756,504.33 -1000.756,506.122 L-1000.756,506.122 Z M-996.346,510 L-996.346,498.744 L-997.382,498.926 L-997.382,510 L-996.346,510 Z M-987.68,509.104 L-987.834,508.166 C-988.618,508.81 -989.528,509.258 -990.536,509.258 C-992.104,509.258 -992.986,508.194 -993.014,506.36 L-987.666,506.36 L-987.666,506.136 C-987.666,504.078 -988.688,502.426 -990.774,502.426 C-992.678,502.426 -994.078,503.91 -994.078,506.276 C-994.078,508.838 -992.622,510.154 -990.606,510.154 C-989.43,510.154 -988.436,509.734 -987.68,509.104 L-987.68,509.104 Z M-990.788,503.252 C-989.528,503.252 -988.828,504.204 -988.73,505.548 L-992.972,505.548 C-992.776,504.064 -991.936,503.252 -990.788,503.252 L-990.788,503.252 Z M-981.8,506.08 L-981.8,505.03 L-985.762,505.03 L-985.762,506.08 L-981.8,506.08 Z M-973.82,509.314 L-973.96,508.362 C-974.758,509.006 -975.514,509.244 -976.326,509.244 C-977.796,509.244 -978.832,508.152 -978.832,506.29 C-978.832,504.386 -977.81,503.336 -976.382,503.336 C-975.5,503.336 -974.786,503.644 -974.058,504.218 L-973.89,503.182 C-974.492,502.748 -975.332,502.426 -976.368,502.426 C-978.342,502.426 -979.91,503.798 -979.91,506.29 C-979.91,508.754 -978.398,510.154 -976.424,510.154 C-975.374,510.154 -974.534,509.86 -973.82,509.314 L-973.82,509.314 Z M-965.658,510 L-965.658,504.68 C-965.658,503.266 -966.428,502.426 -967.968,502.426 C-969.018,502.426 -969.872,502.958 -970.684,503.63 L-970.684,498.744 L-971.72,498.926 L-971.72,510 L-970.684,510 L-970.684,504.638 C-969.83,503.84 -968.99,503.364 -968.164,503.364 C-967.17,503.364 -966.708,503.938 -966.708,504.89 L-966.708,510 L-965.658,510 Z M-957.174,509.104 L-957.328,508.166 C-958.112,508.81 -959.022,509.258 -960.03,509.258 C-961.598,509.258 -962.48,508.194 -962.508,506.36 L-957.16,506.36 L-957.16,506.136 C-957.16,504.078 -958.182,502.426 -960.268,502.426 C-962.172,502.426 -963.572,503.91 -963.572,506.276 C-963.572,508.838 -962.116,510.154 -960.1,510.154 C-958.924,510.154 -957.93,509.734 -957.174,509.104 L-957.174,509.104 Z M-960.282,503.252 C-959.022,503.252 -958.322,504.204 -958.224,505.548 L-962.466,505.548 C-962.27,504.064 -961.43,503.252 -960.282,503.252 L-960.282,503.252 Z M-949.376,509.314 L-949.516,508.362 C-950.314,509.006 -951.07,509.244 -951.882,509.244 C-953.352,509.244 -954.388,508.152 -954.388,506.29 C-954.388,504.386 -953.366,503.336 -951.938,503.336 C-951.056,503.336 -950.342,503.644 -949.614,504.218 L-949.446,503.182 C-950.048,502.748 -950.888,502.426 -951.924,502.426 C-953.898,502.426 -955.466,503.798 -955.466,506.29 C-955.466,508.754 -953.954,510.154 -951.98,510.154 C-950.93,510.154 -950.09,509.86 -949.376,509.314 L-949.376,509.314 Z M-941.242,509.902 L-945.12,505.884 L-941.494,502.58 L-942.852,502.58 L-946.24,505.772 L-946.24,498.744 L-947.276,498.926 L-947.276,510 L-946.24,510 L-946.24,506.066 L-942.39,510.112 L-941.242,509.902 Z M-929.86,502.58 L-930.938,502.58 L-933.234,508.782 L-935.628,502.482 L-936.678,502.678 L-933.752,510.042 L-934.074,510.812 C-934.396,511.624 -934.788,511.904 -935.446,511.904 C-935.67,511.904 -935.88,511.876 -936.048,511.848 L-935.894,512.772 C-935.768,512.8 -935.628,512.814 -935.432,512.814 C-934.354,512.814 -933.682,512.394 -933.136,510.966 L-929.86,502.58 Z M-921.53,506.29 C-921.53,503.84 -923.028,502.426 -925.016,502.426 C-926.962,502.426 -928.474,503.84 -928.474,506.29 C-928.474,508.74 -926.99,510.154 -925.016,510.154 C-923.056,510.154 -921.53,508.74 -921.53,506.29 L-921.53,506.29 Z M-922.594,506.29 C-922.594,508.152 -923.56,509.272 -925.016,509.272 C-926.43,509.272 -927.396,508.096 -927.396,506.29 C-927.396,504.442 -926.458,503.308 -925.016,503.308 C-923.574,503.308 -922.594,504.484 -922.594,506.29 L-922.594,506.29 Z M-913.382,510 L-913.382,502.58 L-914.418,502.58 L-914.418,507.942 C-915.272,508.74 -916.112,509.216 -916.938,509.216 C-917.932,509.216 -918.394,508.642 -918.394,507.69 L-918.394,502.58 L-919.444,502.58 L-919.444,507.886 C-919.444,509.3 -918.674,510.154 -917.134,510.154 C-916.098,510.154 -915.216,509.622 -914.362,508.908 L-914.18,510 L-913.382,510 Z M-906.802,503.406 L-906.97,502.426 C-908.244,502.454 -909.14,503.266 -909.714,504.106 L-909.966,502.58 L-910.722,502.58 L-910.722,510 L-909.686,510 L-909.686,505.352 C-909.168,504.358 -908.076,503.476 -906.802,503.406 L-906.802,503.406 Z M-891.276,502.58 L-892.326,502.58 L-894.258,508.67 L-896.204,502.552 L-897.114,502.552 L-899.06,508.67 L-901.076,502.468 L-902.098,502.65 L-899.522,510.056 L-898.626,510.056 L-896.694,503.994 L-894.748,510.056 L-893.838,510.056 L-891.276,502.58 Z M-882.904,506.29 C-882.904,503.84 -884.402,502.426 -886.39,502.426 C-888.336,502.426 -889.848,503.84 -889.848,506.29 C-889.848,508.74 -888.364,510.154 -886.39,510.154 C-884.43,510.154 -882.904,508.74 -882.904,506.29 L-882.904,506.29 Z M-883.968,506.29 C-883.968,508.152 -884.934,509.272 -886.39,509.272 C-887.804,509.272 -888.77,508.096 -888.77,506.29 C-888.77,504.442 -887.832,503.308 -886.39,503.308 C-884.948,503.308 -883.968,504.484 -883.968,506.29 L-883.968,506.29 Z M-876.814,503.406 L-876.982,502.426 C-878.256,502.454 -879.152,503.266 -879.726,504.106 L-879.978,502.58 L-880.734,502.58 L-880.734,510 L-879.698,510 L-879.698,505.352 C-879.18,504.358 -878.088,503.476 -876.814,503.406 L-876.814,503.406 Z M-869.002,509.902 L-872.88,505.884 L-869.254,502.58 L-870.612,502.58 L-874,505.772 L-874,498.744 L-875.036,498.926 L-875.036,510 L-874,510 L-874,506.066 L-870.15,510.112 L-869.002,509.902 Z M-859.216,508.152 C-859.972,508.838 -860.896,509.272 -861.722,509.272 C-862.534,509.272 -863.122,508.852 -863.122,508.068 C-863.122,507.06 -862.254,506.374 -859.216,506.066 L-859.216,508.152 Z M-858.18,510 L-858.18,504.708 C-858.18,503.182 -859.048,502.426 -860.742,502.426 C-861.834,502.426 -862.716,502.692 -863.612,503.07 L-863.472,503.994 C-862.618,503.602 -861.722,503.35 -860.826,503.35 C-859.832,503.35 -859.216,503.77 -859.216,504.764 L-859.216,505.254 C-862.716,505.576 -864.172,506.388 -864.172,508.138 C-864.172,509.44 -863.192,510.154 -861.862,510.154 C-860.77,510.154 -859.874,509.65 -859.146,509.006 L-858.964,510 L-858.18,510 Z M-851.67,503.406 L-851.838,502.426 C-853.112,502.454 -854.008,503.266 -854.582,504.106 L-854.834,502.58 L-855.59,502.58 L-855.59,510 L-854.554,510 L-854.554,505.352 C-854.036,504.358 -852.944,503.476 -851.67,503.406 L-851.67,503.406 Z M-843.984,509.104 L-844.138,508.166 C-844.922,508.81 -845.832,509.258 -846.84,509.258 C-848.408,509.258 -849.29,508.194 -849.318,506.36 L-843.97,506.36 L-843.97,506.136 C-843.97,504.078 -844.992,502.426 -847.078,502.426 C-848.982,502.426 -850.382,503.91 -850.382,506.276 C-850.382,508.838 -848.926,510.154 -846.91,510.154 C-845.734,510.154 -844.74,509.734 -843.984,509.104 L-843.984,509.104 Z M-847.092,503.252 C-845.832,503.252 -845.132,504.204 -845.034,505.548 L-849.276,505.548 C-849.08,504.064 -848.24,503.252 -847.092,503.252 L-847.092,503.252 Z M-1120.218,532.152 C-1120.974,532.838 -1121.898,533.272 -1122.724,533.272 C-1123.536,533.272 -1124.124,532.852 -1124.124,532.068 C-1124.124,531.06 -1123.256,530.374 -1120.218,530.066 L-1120.218,532.152 Z M-1119.182,534 L-1119.182,528.708 C-1119.182,527.182 -1120.05,526.426 -1121.744,526.426 C-1122.836,526.426 -1123.718,526.692 -1124.614,527.07 L-1124.474,527.994 C-1123.62,527.602 -1122.724,527.35 -1121.828,527.35 C-1120.834,527.35 -1120.218,527.77 -1120.218,528.764 L-1120.218,529.254 C-1123.718,529.576 -1125.174,530.388 -1125.174,532.138 C-1125.174,533.44 -1124.194,534.154 -1122.864,534.154 C-1121.772,534.154 -1120.876,533.65 -1120.148,533.006 L-1119.966,534 L-1119.182,534 Z M-1110.53,534 L-1110.53,528.694 C-1110.53,527.28 -1111.3,526.426 -1112.84,526.426 C-1113.89,526.426 -1114.758,526.958 -1115.612,527.672 L-1115.794,526.58 L-1116.592,526.58 L-1116.592,534 L-1115.556,534 L-1115.556,528.638 C-1114.702,527.84 -1113.862,527.364 -1113.036,527.364 C-1112.042,527.364 -1111.58,527.938 -1111.58,528.89 L-1111.58,534 L-1110.53,534 Z M-1102.886,531.886 C-1103.586,532.698 -1104.3,533.216 -1105.21,533.216 C-1106.442,533.216 -1107.352,532.25 -1107.352,530.458 C-1107.352,528.372 -1106.26,527.364 -1104.874,527.364 C-1104.076,527.364 -1103.488,527.518 -1102.886,527.812 L-1102.886,531.886 Z M-1101.836,534 L-1101.836,522.744 L-1102.886,522.926 L-1102.886,526.846 C-1103.446,526.622 -1104.118,526.482 -1104.902,526.482 C-1106.764,526.482 -1108.416,527.798 -1108.416,530.5 C-1108.416,532.992 -1106.988,534.154 -1105.308,534.154 C-1104.188,534.154 -1103.418,533.594 -1102.83,532.922 L-1102.634,534 L-1101.836,534 Z M-1084.616,534 L-1084.616,528.68 C-1084.616,527.266 -1085.33,526.426 -1086.87,526.426 C-1087.934,526.426 -1088.83,526.972 -1089.684,527.714 C-1089.964,526.888 -1090.622,526.426 -1091.798,526.426 C-1092.834,526.426 -1093.688,526.958 -1094.528,527.658 L-1094.71,526.58 L-1095.508,526.58 L-1095.508,534 L-1094.472,534 L-1094.472,528.61 C-1093.618,527.84 -1092.806,527.364 -1092.008,527.364 C-1091,527.364 -1090.58,527.938 -1090.58,528.89 L-1090.58,534 L-1089.544,534 L-1089.544,528.624 C-1088.69,527.84 -1087.878,527.364 -1087.08,527.364 C-1086.086,527.364 -1085.666,527.938 -1085.666,528.89 L-1085.666,534 L-1084.616,534 Z M-1077.588,532.152 C-1078.344,532.838 -1079.268,533.272 -1080.094,533.272 C-1080.906,533.272 -1081.494,532.852 -1081.494,532.068 C-1081.494,531.06 -1080.626,530.374 -1077.588,530.066 L-1077.588,532.152 Z M-1076.552,534 L-1076.552,528.708 C-1076.552,527.182 -1077.42,526.426 -1079.114,526.426 C-1080.206,526.426 -1081.088,526.692 -1081.984,527.07 L-1081.844,527.994 C-1080.99,527.602 -1080.094,527.35 -1079.198,527.35 C-1078.204,527.35 -1077.588,527.77 -1077.588,528.764 L-1077.588,529.254 C-1081.088,529.576 -1082.544,530.388 -1082.544,532.138 C-1082.544,533.44 -1081.564,534.154 -1080.234,534.154 C-1079.142,534.154 -1078.246,533.65 -1077.518,533.006 L-1077.336,534 L-1076.552,534 Z M-1067.928,533.902 L-1071.806,529.884 L-1068.18,526.58 L-1069.538,526.58 L-1072.926,529.772 L-1072.926,522.744 L-1073.962,522.926 L-1073.962,534 L-1072.926,534 L-1072.926,530.066 L-1069.076,534.112 L-1067.928,533.902 Z M-1060.368,533.104 L-1060.522,532.166 C-1061.306,532.81 -1062.216,533.258 -1063.224,533.258 C-1064.792,533.258 -1065.674,532.194 -1065.702,530.36 L-1060.354,530.36 L-1060.354,530.136 C-1060.354,528.078 -1061.376,526.426 -1063.462,526.426 C-1065.366,526.426 -1066.766,527.91 -1066.766,530.276 C-1066.766,532.838 -1065.31,534.154 -1063.294,534.154 C-1062.118,534.154 -1061.124,533.734 -1060.368,533.104 L-1060.368,533.104 Z M-1063.476,527.252 C-1062.216,527.252 -1061.516,528.204 -1061.418,529.548 L-1065.66,529.548 C-1065.464,528.064 -1064.624,527.252 -1063.476,527.252 L-1063.476,527.252 Z M-1049.392,531.984 C-1049.392,530.668 -1050.274,530.108 -1052.094,529.646 C-1053.41,529.31 -1053.83,529.002 -1053.83,528.4 C-1053.83,527.784 -1053.326,527.336 -1052.262,527.336 C-1051.492,527.336 -1050.708,527.56 -1050.022,527.924 L-1049.854,526.93 C-1050.512,526.622 -1051.324,526.426 -1052.22,526.426 C-1053.816,526.426 -1054.838,527.28 -1054.838,528.428 C-1054.838,529.66 -1054.096,530.192 -1052.402,530.626 C-1050.848,531.004 -1050.4,531.34 -1050.4,532.068 C-1050.4,532.824 -1051.072,533.244 -1052.164,533.244 C-1053.186,533.244 -1054.124,532.894 -1054.852,532.46 L-1055.02,533.454 C-1054.348,533.818 -1053.284,534.14 -1052.262,534.14 C-1050.498,534.14 -1049.392,533.342 -1049.392,531.984 L-1049.392,531.984 Z M-1041.272,534 L-1041.272,526.58 L-1042.308,526.58 L-1042.308,531.942 C-1043.162,532.74 -1044.002,533.216 -1044.828,533.216 C-1045.822,533.216 -1046.284,532.642 -1046.284,531.69 L-1046.284,526.58 L-1047.334,526.58 L-1047.334,531.886 C-1047.334,533.3 -1046.564,534.154 -1045.024,534.154 C-1043.988,534.154 -1043.106,533.622 -1042.252,532.908 L-1042.07,534 L-1041.272,534 Z M-1034.692,527.406 L-1034.86,526.426 C-1036.134,526.454 -1037.03,527.266 -1037.604,528.106 L-1037.856,526.58 L-1038.612,526.58 L-1038.612,534 L-1037.576,534 L-1037.576,529.352 C-1037.058,528.358 -1035.966,527.476 -1034.692,527.406 L-1034.692,527.406 Z M-1027.006,533.104 L-1027.16,532.166 C-1027.944,532.81 -1028.854,533.258 -1029.862,533.258 C-1031.43,533.258 -1032.312,532.194 -1032.34,530.36 L-1026.992,530.36 L-1026.992,530.136 C-1026.992,528.078 -1028.014,526.426 -1030.1,526.426 C-1032.004,526.426 -1033.404,527.91 -1033.404,530.276 C-1033.404,532.838 -1031.948,534.154 -1029.932,534.154 C-1028.756,534.154 -1027.762,533.734 -1027.006,533.104 L-1027.006,533.104 Z M-1030.114,527.252 C-1028.854,527.252 -1028.154,528.204 -1028.056,529.548 L-1032.298,529.548 C-1032.102,528.064 -1031.262,527.252 -1030.114,527.252 L-1030.114,527.252 Z M-1016.674,532.152 C-1017.43,532.838 -1018.354,533.272 -1019.18,533.272 C-1019.992,533.272 -1020.58,532.852 -1020.58,532.068 C-1020.58,531.06 -1019.712,530.374 -1016.674,530.066 L-1016.674,532.152 Z M-1015.638,534 L-1015.638,528.708 C-1015.638,527.182 -1016.506,526.426 -1018.2,526.426 C-1019.292,526.426 -1020.174,526.692 -1021.07,527.07 L-1020.93,527.994 C-1020.076,527.602 -1019.18,527.35 -1018.284,527.35 C-1017.29,527.35 -1016.674,527.77 -1016.674,528.764 L-1016.674,529.254 C-1020.174,529.576 -1021.63,530.388 -1021.63,532.138 C-1021.63,533.44 -1020.65,534.154 -1019.32,534.154 C-1018.228,534.154 -1017.332,533.65 -1016.604,533.006 L-1016.422,534 L-1015.638,534 Z M-1011.9,534 L-1011.9,522.744 L-1012.936,522.926 L-1012.936,534 L-1011.9,534 Z M-1007.994,534 L-1007.994,522.744 L-1009.03,522.926 L-1009.03,534 L-1007.994,534 Z M-1000.168,524.06 C-1000.168,523.654 -1000.504,523.318 -1000.924,523.318 C-1001.344,523.318 -1001.694,523.654 -1001.694,524.06 C-1001.694,524.466 -1001.344,524.816 -1000.924,524.816 C-1000.504,524.816 -1000.168,524.466 -1000.168,524.06 L-1000.168,524.06 Z M-1000.406,534 L-1000.406,526.58 L-1001.442,526.58 L-1001.442,534 L-1000.406,534 Z M-994.232,534 L-994.372,533.132 C-994.554,533.174 -994.848,533.202 -995.1,533.202 C-995.94,533.202 -996.262,532.88 -996.262,532.124 L-996.262,527.462 L-994.33,527.462 L-994.456,526.58 L-996.262,526.58 L-996.262,523.836 L-997.284,524.018 L-997.284,526.58 L-998.474,526.58 L-998.474,527.462 L-997.284,527.462 L-997.284,532.306 C-997.284,533.678 -996.5,534.126 -995.296,534.126 C-994.834,534.126 -994.442,534.056 -994.232,534 L-994.232,534 Z M-986.266,533.104 L-986.42,532.166 C-987.204,532.81 -988.114,533.258 -989.122,533.258 C-990.69,533.258 -991.572,532.194 -991.6,530.36 L-986.252,530.36 L-986.252,530.136 C-986.252,528.078 -987.274,526.426 -989.36,526.426 C-991.264,526.426 -992.664,527.91 -992.664,530.276 C-992.664,532.838 -991.208,534.154 -989.192,534.154 C-988.016,534.154 -987.022,533.734 -986.266,533.104 L-986.266,533.104 Z M-989.374,527.252 C-988.114,527.252 -987.414,528.204 -987.316,529.548 L-991.558,529.548 C-991.362,528.064 -990.522,527.252 -989.374,527.252 L-989.374,527.252 Z M-973.176,534 L-973.176,528.68 C-973.176,527.266 -973.89,526.426 -975.43,526.426 C-976.494,526.426 -977.39,526.972 -978.244,527.714 C-978.524,526.888 -979.182,526.426 -980.358,526.426 C-981.394,526.426 -982.248,526.958 -983.088,527.658 L-983.27,526.58 L-984.068,526.58 L-984.068,534 L-983.032,534 L-983.032,528.61 C-982.178,527.84 -981.366,527.364 -980.568,527.364 C-979.56,527.364 -979.14,527.938 -979.14,528.89 L-979.14,534 L-978.104,534 L-978.104,528.624 C-977.25,527.84 -976.438,527.364 -975.64,527.364 C-974.646,527.364 -974.226,527.938 -974.226,528.89 L-974.226,534 L-973.176,534 Z M-965.504,531.984 C-965.504,530.668 -966.386,530.108 -968.206,529.646 C-969.522,529.31 -969.942,529.002 -969.942,528.4 C-969.942,527.784 -969.438,527.336 -968.374,527.336 C-967.604,527.336 -966.82,527.56 -966.134,527.924 L-965.966,526.93 C-966.624,526.622 -967.436,526.426 -968.332,526.426 C-969.928,526.426 -970.95,527.28 -970.95,528.428 C-970.95,529.66 -970.208,530.192 -968.514,530.626 C-966.96,531.004 -966.512,531.34 -966.512,532.068 C-966.512,532.824 -967.184,533.244 -968.276,533.244 C-969.298,533.244 -970.236,532.894 -970.964,532.46 L-971.132,533.454 C-970.46,533.818 -969.396,534.14 -968.374,534.14 C-966.61,534.14 -965.504,533.342 -965.504,531.984 L-965.504,531.984 Z M-949.614,526.58 L-950.664,526.58 L-952.596,532.67 L-954.542,526.552 L-955.452,526.552 L-957.398,532.67 L-959.414,526.468 L-960.436,526.65 L-957.86,534.056 L-956.964,534.056 L-955.032,527.994 L-953.086,534.056 L-952.176,534.056 L-949.614,526.58 Z M-941.788,533.104 L-941.942,532.166 C-942.726,532.81 -943.636,533.258 -944.644,533.258 C-946.212,533.258 -947.094,532.194 -947.122,530.36 L-941.774,530.36 L-941.774,530.136 C-941.774,528.078 -942.796,526.426 -944.882,526.426 C-946.786,526.426 -948.186,527.91 -948.186,530.276 C-948.186,532.838 -946.73,534.154 -944.714,534.154 C-943.538,534.154 -942.544,533.734 -941.788,533.104 L-941.788,533.104 Z M-944.896,527.252 C-943.636,527.252 -942.936,528.204 -942.838,529.548 L-947.08,529.548 C-946.884,528.064 -946.044,527.252 -944.896,527.252 L-944.896,527.252 Z M-935.67,527.406 L-935.838,526.426 C-937.112,526.454 -938.008,527.266 -938.582,528.106 L-938.834,526.58 L-939.59,526.58 L-939.59,534 L-938.554,534 L-938.554,529.352 C-938.036,528.358 -936.944,527.476 -935.67,527.406 L-935.67,527.406 Z M-927.984,533.104 L-928.138,532.166 C-928.922,532.81 -929.832,533.258 -930.84,533.258 C-932.408,533.258 -933.29,532.194 -933.318,530.36 L-927.97,530.36 L-927.97,530.136 C-927.97,528.078 -928.992,526.426 -931.078,526.426 C-932.982,526.426 -934.382,527.91 -934.382,530.276 C-934.382,532.838 -932.926,534.154 -930.91,534.154 C-929.734,534.154 -928.74,533.734 -927.984,533.104 L-927.984,533.104 Z M-931.092,527.252 C-929.832,527.252 -929.132,528.204 -929.034,529.548 L-933.276,529.548 C-933.08,528.064 -932.24,527.252 -931.092,527.252 L-931.092,527.252 Z M-917.008,531.984 C-917.008,530.668 -917.89,530.108 -919.71,529.646 C-921.026,529.31 -921.446,529.002 -921.446,528.4 C-921.446,527.784 -920.942,527.336 -919.878,527.336 C-919.108,527.336 -918.324,527.56 -917.638,527.924 L-917.47,526.93 C-918.128,526.622 -918.94,526.426 -919.836,526.426 C-921.432,526.426 -922.454,527.28 -922.454,528.428 C-922.454,529.66 -921.712,530.192 -920.018,530.626 C-918.464,531.004 -918.016,531.34 -918.016,532.068 C-918.016,532.824 -918.688,533.244 -919.78,533.244 C-920.802,533.244 -921.74,532.894 -922.468,532.46 L-922.636,533.454 C-921.964,533.818 -920.9,534.14 -919.878,534.14 C-918.114,534.14 -917.008,533.342 -917.008,531.984 L-917.008,531.984 Z M-909.266,533.314 L-909.406,532.362 C-910.204,533.006 -910.96,533.244 -911.772,533.244 C-913.242,533.244 -914.278,532.152 -914.278,530.29 C-914.278,528.386 -913.256,527.336 -911.828,527.336 C-910.946,527.336 -910.232,527.644 -909.504,528.218 L-909.336,527.182 C-909.938,526.748 -910.778,526.426 -911.814,526.426 C-913.788,526.426 -915.356,527.798 -915.356,530.29 C-915.356,532.754 -913.844,534.154 -911.87,534.154 C-910.82,534.154 -909.98,533.86 -909.266,533.314 L-909.266,533.314 Z M-902.714,532.152 C-903.47,532.838 -904.394,533.272 -905.22,533.272 C-906.032,533.272 -906.62,532.852 -906.62,532.068 C-906.62,531.06 -905.752,530.374 -902.714,530.066 L-902.714,532.152 Z M-901.678,534 L-901.678,528.708 C-901.678,527.182 -902.546,526.426 -904.24,526.426 C-905.332,526.426 -906.214,526.692 -907.11,527.07 L-906.97,527.994 C-906.116,527.602 -905.22,527.35 -904.324,527.35 C-903.33,527.35 -902.714,527.77 -902.714,528.764 L-902.714,529.254 C-906.214,529.576 -907.67,530.388 -907.67,532.138 C-907.67,533.44 -906.69,534.154 -905.36,534.154 C-904.268,534.154 -903.372,533.65 -902.644,533.006 L-902.462,534 L-901.678,534 Z M-893.026,534 L-893.026,528.694 C-893.026,527.28 -893.796,526.426 -895.336,526.426 C-896.386,526.426 -897.254,526.958 -898.108,527.672 L-898.29,526.58 L-899.088,526.58 L-899.088,534 L-898.052,534 L-898.052,528.638 C-897.198,527.84 -896.358,527.364 -895.532,527.364 C-894.538,527.364 -894.076,527.938 -894.076,528.89 L-894.076,534 L-893.026,534 Z M-884.388,534 L-884.388,528.694 C-884.388,527.28 -885.158,526.426 -886.698,526.426 C-887.748,526.426 -888.616,526.958 -889.47,527.672 L-889.652,526.58 L-890.45,526.58 L-890.45,534 L-889.414,534 L-889.414,528.638 C-888.56,527.84 -887.72,527.364 -886.894,527.364 C-885.9,527.364 -885.438,527.938 -885.438,528.89 L-885.438,534 L-884.388,534 Z M-875.904,533.104 L-876.058,532.166 C-876.842,532.81 -877.752,533.258 -878.76,533.258 C-880.328,533.258 -881.21,532.194 -881.238,530.36 L-875.89,530.36 L-875.89,530.136 C-875.89,528.078 -876.912,526.426 -878.998,526.426 C-880.902,526.426 -882.302,527.91 -882.302,530.276 C-882.302,532.838 -880.846,534.154 -878.83,534.154 C-877.654,534.154 -876.66,533.734 -875.904,533.104 L-875.904,533.104 Z M-879.012,527.252 C-877.752,527.252 -877.052,528.204 -876.954,529.548 L-881.196,529.548 C-881,528.064 -880.16,527.252 -879.012,527.252 L-879.012,527.252 Z M-868.638,531.886 C-869.338,532.698 -870.052,533.216 -870.962,533.216 C-872.194,533.216 -873.104,532.25 -873.104,530.458 C-873.104,528.372 -872.012,527.364 -870.626,527.364 C-869.828,527.364 -869.24,527.518 -868.638,527.812 L-868.638,531.886 Z M-867.588,534 L-867.588,522.744 L-868.638,522.926 L-868.638,526.846 C-869.198,526.622 -869.87,526.482 -870.654,526.482 C-872.516,526.482 -874.168,527.798 -874.168,530.5 C-874.168,532.992 -872.74,534.154 -871.06,534.154 C-869.94,534.154 -869.17,533.594 -868.582,532.922 L-868.386,534 L-867.588,534 Z M-863.822,534 L-863.822,532.46 L-865.054,532.46 L-865.054,534 L-863.822,534 Z" id="Text" stroke="none" fill="#424242" fill-rule="evenodd"></path>
    <rect id="Rectangle-8-Copy-13" stroke="none" fill-opacity="0" fill="#000000" fill-rule="evenodd" x="-1054" y="569" width="108" height="32" rx="2"></rect>
    <path d="M-1019.124,589.202 L-1019.334,587.886 C-1020.174,588.46 -1021.168,588.894 -1022.302,588.894 C-1024.444,588.894 -1025.746,587.354 -1025.746,584.932 C-1025.746,582.496 -1024.458,580.956 -1022.302,580.956 C-1021.182,580.956 -1020.272,581.376 -1019.502,581.936 L-1019.292,580.508 C-1020.104,579.976 -1021.042,579.668 -1022.288,579.668 C-1025.256,579.668 -1027.188,581.796 -1027.188,584.946 C-1027.188,588.068 -1025.284,590.196 -1022.33,590.196 C-1021.112,590.196 -1019.936,589.776 -1019.124,589.202 L-1019.124,589.202 Z M-1017.794,590 L-1016.338,590 L-1015.162,586.976 L-1010.808,586.976 L-1009.576,590.098 L-1008.19,589.804 L-1012.264,579.808 L-1013.664,579.808 L-1017.794,590 Z M-1012.992,581.46 L-1011.298,585.73 L-1014.686,585.73 L-1012.992,581.46 Z M-998.152,590 L-998.152,579.85 L-999.44,579.85 L-999.44,587.424 L-1005.082,579.85 L-1006.328,579.85 L-1006.328,590 L-1005.04,590 L-1005.04,582.146 L-999.202,590 L-998.152,590 Z M-987.834,589.202 L-988.044,587.886 C-988.884,588.46 -989.878,588.894 -991.012,588.894 C-993.154,588.894 -994.456,587.354 -994.456,584.932 C-994.456,582.496 -993.168,580.956 -991.012,580.956 C-989.892,580.956 -988.982,581.376 -988.212,581.936 L-988.002,580.508 C-988.814,579.976 -989.752,579.668 -990.998,579.668 C-993.966,579.668 -995.898,581.796 -995.898,584.946 C-995.898,588.068 -993.994,590.196 -991.04,590.196 C-989.822,590.196 -988.646,589.776 -987.834,589.202 L-987.834,589.202 Z M-979.868,590 L-979.868,588.712 L-984.278,588.712 L-984.278,585.338 L-980.75,585.338 L-980.96,584.05 L-984.278,584.05 L-984.278,581.138 L-980.008,581.138 L-980.008,579.85 L-985.678,579.85 L-985.678,590 L-979.868,590 Z M-972.406,590 L-972.602,588.684 L-976.424,588.684 L-976.424,579.85 L-977.824,579.85 L-977.824,590 L-972.406,590 Z" id="BUTTON-Copy-14" stroke="none" fill="#0079B3" fill-rule="evenodd"></path>
    <rect id="Rectangle-8-Copy-13" stroke="none" fill-opacity="0" fill="#000000" fill-rule="evenodd" x="-946" y="569" width="108" height="32" rx="2"></rect>
    <path d="M-915.394,582.79 C-915.394,580.9 -916.738,579.85 -918.964,579.85 L-921.736,579.85 L-921.736,590 L-920.336,590 L-920.336,585.898 L-919.202,585.898 C-916.92,585.898 -915.394,584.862 -915.394,582.79 L-915.394,582.79 Z M-916.808,582.832 C-916.808,584.092 -917.676,584.652 -919.132,584.652 L-920.336,584.652 L-920.336,581.096 L-919.034,581.096 C-917.592,581.096 -916.808,581.684 -916.808,582.832 L-916.808,582.832 Z M-906.266,589.79 L-909.416,585.548 C-908.044,585.198 -907.092,584.288 -907.092,582.748 C-907.092,580.886 -908.436,579.85 -910.592,579.85 L-913.434,579.85 L-913.434,590 L-912.034,590 L-912.034,585.73 L-910.942,585.73 L-907.736,590.098 L-906.266,589.79 Z M-908.492,582.818 C-908.492,583.952 -909.388,584.554 -910.802,584.554 L-912.034,584.554 L-912.034,581.096 L-910.648,581.096 C-909.22,581.096 -908.492,581.726 -908.492,582.818 L-908.492,582.818 Z M-895.346,584.918 C-895.346,581.782 -897.222,579.668 -900.19,579.668 C-903.144,579.668 -905.048,581.796 -905.048,584.946 C-905.048,588.082 -903.172,590.196 -900.218,590.196 C-897.25,590.196 -895.346,588.04 -895.346,584.918 L-895.346,584.918 Z M-896.788,584.932 C-896.788,587.354 -898.09,588.908 -900.204,588.908 C-902.29,588.908 -903.606,587.354 -903.606,584.932 C-903.606,582.496 -902.304,580.956 -900.204,580.956 C-898.104,580.956 -896.788,582.496 -896.788,584.932 L-896.788,584.932 Z M-885.462,589.202 L-885.672,587.886 C-886.512,588.46 -887.506,588.894 -888.64,588.894 C-890.782,588.894 -892.084,587.354 -892.084,584.932 C-892.084,582.496 -890.796,580.956 -888.64,580.956 C-887.52,580.956 -886.61,581.376 -885.84,581.936 L-885.63,580.508 C-886.442,579.976 -887.38,579.668 -888.626,579.668 C-891.594,579.668 -893.526,581.796 -893.526,584.946 C-893.526,588.068 -891.622,590.196 -888.668,590.196 C-887.45,590.196 -886.274,589.776 -885.462,589.202 L-885.462,589.202 Z M-877.496,590 L-877.496,588.712 L-881.906,588.712 L-881.906,585.338 L-878.378,585.338 L-878.588,584.05 L-881.906,584.05 L-881.906,581.138 L-877.636,581.138 L-877.636,579.85 L-883.306,579.85 L-883.306,590 L-877.496,590 Z M-869.656,587.256 C-869.656,585.73 -870.37,585.058 -872.4,584.162 C-874.01,583.448 -874.416,583.084 -874.416,582.314 C-874.416,581.572 -873.87,580.956 -872.666,580.956 C-871.812,580.956 -871.028,581.292 -870.44,581.712 L-870.216,580.312 C-870.832,579.976 -871.588,579.738 -872.61,579.738 C-874.514,579.738 -875.802,580.788 -875.802,582.426 C-875.802,583.882 -875.06,584.512 -873.072,585.38 C-871.476,586.066 -871.042,586.444 -871.042,587.368 C-871.042,588.348 -871.84,588.894 -872.946,588.894 C-874.01,588.894 -875.004,588.488 -875.704,588.026 L-875.914,589.454 C-875.144,589.86 -874.122,590.112 -872.988,590.112 C-871.014,590.112 -869.656,589.006 -869.656,587.256 L-869.656,587.256 Z M-861.718,587.256 C-861.718,585.73 -862.432,585.058 -864.462,584.162 C-866.072,583.448 -866.478,583.084 -866.478,582.314 C-866.478,581.572 -865.932,580.956 -864.728,580.956 C-863.874,580.956 -863.09,581.292 -862.502,581.712 L-862.278,580.312 C-862.894,579.976 -863.65,579.738 -864.672,579.738 C-866.576,579.738 -867.864,580.788 -867.864,582.426 C-867.864,583.882 -867.122,584.512 -865.134,585.38 C-863.538,586.066 -863.104,586.444 -863.104,587.368 C-863.104,588.348 -863.902,588.894 -865.008,588.894 C-866.072,588.894 -867.066,588.488 -867.766,588.026 L-867.976,589.454 C-867.206,589.86 -866.184,590.112 -865.05,590.112 C-863.076,590.112 -861.718,589.006 -861.718,587.256 L-861.718,587.256 Z" id="BUTTON-Copy-14" stroke="none" fill="#0079B3" fill-rule="evenodd"></path>
    <g id="Rectangle-7" stroke="none" fill="none">
        <use fill="black" fill-opacity="1" filter="url(#filter-4)" xlink:href="#path-3"></use>
        <use fill="#FFFFFF" fill-rule="evenodd" xlink:href="#path-3"></use>
    </g>
    <path d="M-748.172,428.918 C-748.172,425.908 -750.146,423.85 -753.66,423.85 L-756.53,423.85 L-756.53,434 L-753.716,434 C-750.3,434 -748.172,432.012 -748.172,428.918 L-748.172,428.918 Z M-749.264,428.932 C-749.264,431.676 -750.972,433.048 -753.646,433.048 L-755.48,433.048 L-755.48,424.816 L-753.646,424.816 C-751.028,424.816 -749.264,426.23 -749.264,428.932 L-749.264,428.932 Z M-739.94,433.104 L-740.094,432.166 C-740.878,432.81 -741.788,433.258 -742.796,433.258 C-744.364,433.258 -745.246,432.194 -745.274,430.36 L-739.926,430.36 L-739.926,430.136 C-739.926,428.078 -740.948,426.426 -743.034,426.426 C-744.938,426.426 -746.338,427.91 -746.338,430.276 C-746.338,432.838 -744.882,434.154 -742.866,434.154 C-741.69,434.154 -740.696,433.734 -739.94,433.104 L-739.94,433.104 Z M-743.048,427.252 C-741.788,427.252 -741.088,428.204 -740.99,429.548 L-745.232,429.548 C-745.036,428.064 -744.196,427.252 -743.048,427.252 L-743.048,427.252 Z M-736.594,434 L-736.594,422.744 L-737.63,422.926 L-737.63,434 L-736.594,434 Z M-727.928,433.104 L-728.082,432.166 C-728.866,432.81 -729.776,433.258 -730.784,433.258 C-732.352,433.258 -733.234,432.194 -733.262,430.36 L-727.914,430.36 L-727.914,430.136 C-727.914,428.078 -728.936,426.426 -731.022,426.426 C-732.926,426.426 -734.326,427.91 -734.326,430.276 C-734.326,432.838 -732.87,434.154 -730.854,434.154 C-729.678,434.154 -728.684,433.734 -727.928,433.104 L-727.928,433.104 Z M-731.036,427.252 C-729.776,427.252 -729.076,428.204 -728.978,429.548 L-733.22,429.548 C-733.024,428.064 -732.184,427.252 -731.036,427.252 L-731.036,427.252 Z M-722.314,434 L-722.454,433.132 C-722.636,433.174 -722.93,433.202 -723.182,433.202 C-724.022,433.202 -724.344,432.88 -724.344,432.124 L-724.344,427.462 L-722.412,427.462 L-722.538,426.58 L-724.344,426.58 L-724.344,423.836 L-725.366,424.018 L-725.366,426.58 L-726.556,426.58 L-726.556,427.462 L-725.366,427.462 L-725.366,432.306 C-725.366,433.678 -724.582,434.126 -723.378,434.126 C-722.916,434.126 -722.524,434.056 -722.314,434 L-722.314,434 Z M-714.348,433.104 L-714.502,432.166 C-715.286,432.81 -716.196,433.258 -717.204,433.258 C-718.772,433.258 -719.654,432.194 -719.682,430.36 L-714.334,430.36 L-714.334,430.136 C-714.334,428.078 -715.356,426.426 -717.442,426.426 C-719.346,426.426 -720.746,427.91 -720.746,430.276 C-720.746,432.838 -719.29,434.154 -717.274,434.154 C-716.098,434.154 -715.104,433.734 -714.348,433.104 L-714.348,433.104 Z M-717.456,427.252 C-716.196,427.252 -715.496,428.204 -715.398,429.548 L-719.64,429.548 C-719.444,428.064 -718.604,427.252 -717.456,427.252 L-717.456,427.252 Z M-705.052,434 L-705.192,433.132 C-705.374,433.174 -705.668,433.202 -705.92,433.202 C-706.76,433.202 -707.082,432.88 -707.082,432.124 L-707.082,427.462 L-705.15,427.462 L-705.276,426.58 L-707.082,426.58 L-707.082,423.836 L-708.104,424.018 L-708.104,426.58 L-709.294,426.58 L-709.294,427.462 L-708.104,427.462 L-708.104,432.306 C-708.104,433.678 -707.32,434.126 -706.116,434.126 C-705.654,434.126 -705.262,434.056 -705.052,434 L-705.052,434 Z M-696.932,434 L-696.932,428.68 C-696.932,427.266 -697.702,426.426 -699.242,426.426 C-700.292,426.426 -701.146,426.958 -701.958,427.63 L-701.958,422.744 L-702.994,422.926 L-702.994,434 L-701.958,434 L-701.958,428.638 C-701.104,427.84 -700.264,427.364 -699.438,427.364 C-698.444,427.364 -697.982,427.938 -697.982,428.89 L-697.982,434 L-696.932,434 Z M-692.97,424.06 C-692.97,423.654 -693.306,423.318 -693.726,423.318 C-694.146,423.318 -694.496,423.654 -694.496,424.06 C-694.496,424.466 -694.146,424.816 -693.726,424.816 C-693.306,424.816 -692.97,424.466 -692.97,424.06 L-692.97,424.06 Z M-693.208,434 L-693.208,426.58 L-694.244,426.58 L-694.244,434 L-693.208,434 Z M-685.354,431.984 C-685.354,430.668 -686.236,430.108 -688.056,429.646 C-689.372,429.31 -689.792,429.002 -689.792,428.4 C-689.792,427.784 -689.288,427.336 -688.224,427.336 C-687.454,427.336 -686.67,427.56 -685.984,427.924 L-685.816,426.93 C-686.474,426.622 -687.286,426.426 -688.182,426.426 C-689.778,426.426 -690.8,427.28 -690.8,428.428 C-690.8,429.66 -690.058,430.192 -688.364,430.626 C-686.81,431.004 -686.362,431.34 -686.362,432.068 C-686.362,432.824 -687.034,433.244 -688.126,433.244 C-689.148,433.244 -690.086,432.894 -690.814,432.46 L-690.982,433.454 C-690.31,433.818 -689.246,434.14 -688.224,434.14 C-686.46,434.14 -685.354,433.342 -685.354,431.984 L-685.354,431.984 Z M-675.61,427.406 L-675.778,426.426 C-677.052,426.454 -677.948,427.266 -678.522,428.106 L-678.774,426.58 L-679.53,426.58 L-679.53,434 L-678.494,434 L-678.494,429.352 C-677.976,428.358 -676.884,427.476 -675.61,427.406 L-675.61,427.406 Z M-667.924,433.104 L-668.078,432.166 C-668.862,432.81 -669.772,433.258 -670.78,433.258 C-672.348,433.258 -673.23,432.194 -673.258,430.36 L-667.91,430.36 L-667.91,430.136 C-667.91,428.078 -668.932,426.426 -671.018,426.426 C-672.922,426.426 -674.322,427.91 -674.322,430.276 C-674.322,432.838 -672.866,434.154 -670.85,434.154 C-669.674,434.154 -668.68,433.734 -667.924,433.104 L-667.924,433.104 Z M-671.032,427.252 C-669.772,427.252 -669.072,428.204 -668.974,429.548 L-673.216,429.548 C-673.02,428.064 -672.18,427.252 -671.032,427.252 L-671.032,427.252 Z M-660.126,433.314 L-660.266,432.362 C-661.064,433.006 -661.82,433.244 -662.632,433.244 C-664.102,433.244 -665.138,432.152 -665.138,430.29 C-665.138,428.386 -664.116,427.336 -662.688,427.336 C-661.806,427.336 -661.092,427.644 -660.364,428.218 L-660.196,427.182 C-660.798,426.748 -661.638,426.426 -662.674,426.426 C-664.648,426.426 -666.216,427.798 -666.216,430.29 C-666.216,432.754 -664.704,434.154 -662.73,434.154 C-661.68,434.154 -660.84,433.86 -660.126,433.314 L-660.126,433.314 Z M-651.572,430.29 C-651.572,427.84 -653.07,426.426 -655.058,426.426 C-657.004,426.426 -658.516,427.84 -658.516,430.29 C-658.516,432.74 -657.032,434.154 -655.058,434.154 C-653.098,434.154 -651.572,432.74 -651.572,430.29 L-651.572,430.29 Z M-652.636,430.29 C-652.636,432.152 -653.602,433.272 -655.058,433.272 C-656.472,433.272 -657.438,432.096 -657.438,430.29 C-657.438,428.442 -656.5,427.308 -655.058,427.308 C-653.616,427.308 -652.636,428.484 -652.636,430.29 L-652.636,430.29 Z M-645.482,427.406 L-645.65,426.426 C-646.924,426.454 -647.82,427.266 -648.394,428.106 L-648.646,426.58 L-649.402,426.58 L-649.402,434 L-648.366,434 L-648.366,429.352 C-647.848,428.358 -646.756,427.476 -645.482,427.406 L-645.482,427.406 Z M-638.636,431.886 C-639.336,432.698 -640.05,433.216 -640.96,433.216 C-642.192,433.216 -643.102,432.25 -643.102,430.458 C-643.102,428.372 -642.01,427.364 -640.624,427.364 C-639.826,427.364 -639.238,427.518 -638.636,427.812 L-638.636,431.886 Z M-637.586,434 L-637.586,422.744 L-638.636,422.926 L-638.636,426.846 C-639.196,426.622 -639.868,426.482 -640.652,426.482 C-642.514,426.482 -644.166,427.798 -644.166,430.5 C-644.166,432.992 -642.738,434.154 -641.058,434.154 C-639.938,434.154 -639.168,433.594 -638.58,432.922 L-638.384,434 L-637.586,434 Z M-629.452,426.174 C-629.452,424.62 -630.698,423.668 -632.462,423.668 C-633.638,423.668 -634.688,424.088 -635.5,424.69 L-635.346,425.712 C-634.52,425.068 -633.582,424.62 -632.518,424.62 C-631.328,424.62 -630.53,425.222 -630.53,426.216 C-630.53,427.196 -631.104,427.77 -632.812,428.554 L-633.246,428.75 L-633.064,431.172 L-632.392,431.032 L-632.252,429.296 C-630.516,428.442 -629.452,427.714 -629.452,426.174 L-629.452,426.174 Z M-632.126,434 L-632.126,432.516 L-633.33,432.516 L-633.33,434 L-632.126,434 Z" id="Text" stroke="none" fill="#424242" fill-rule="evenodd"></path>
    <rect id="Rectangle-8-Copy-13" stroke="none" fill-opacity="0" fill="#000000" fill-rule="evenodd" x="-686" y="465" width="108" height="32" rx="2"></rect>
    <path d="M-651.124,485.202 L-651.334,483.886 C-652.174,484.46 -653.168,484.894 -654.302,484.894 C-656.444,484.894 -657.746,483.354 -657.746,480.932 C-657.746,478.496 -656.458,476.956 -654.302,476.956 C-653.182,476.956 -652.272,477.376 -651.502,477.936 L-651.292,476.508 C-652.104,475.976 -653.042,475.668 -654.288,475.668 C-657.256,475.668 -659.188,477.796 -659.188,480.946 C-659.188,484.068 -657.284,486.196 -654.33,486.196 C-653.112,486.196 -651.936,485.776 -651.124,485.202 L-651.124,485.202 Z M-649.794,486 L-648.338,486 L-647.162,482.976 L-642.808,482.976 L-641.576,486.098 L-640.19,485.804 L-644.264,475.808 L-645.664,475.808 L-649.794,486 Z M-644.992,477.46 L-643.298,481.73 L-646.686,481.73 L-644.992,477.46 Z M-630.152,486 L-630.152,475.85 L-631.44,475.85 L-631.44,483.424 L-637.082,475.85 L-638.328,475.85 L-638.328,486 L-637.04,486 L-637.04,478.146 L-631.202,486 L-630.152,486 Z M-619.834,485.202 L-620.044,483.886 C-620.884,484.46 -621.878,484.894 -623.012,484.894 C-625.154,484.894 -626.456,483.354 -626.456,480.932 C-626.456,478.496 -625.168,476.956 -623.012,476.956 C-621.892,476.956 -620.982,477.376 -620.212,477.936 L-620.002,476.508 C-620.814,475.976 -621.752,475.668 -622.998,475.668 C-625.966,475.668 -627.898,477.796 -627.898,480.946 C-627.898,484.068 -625.994,486.196 -623.04,486.196 C-621.822,486.196 -620.646,485.776 -619.834,485.202 L-619.834,485.202 Z M-611.868,486 L-611.868,484.712 L-616.278,484.712 L-616.278,481.338 L-612.75,481.338 L-612.96,480.05 L-616.278,480.05 L-616.278,477.138 L-612.008,477.138 L-612.008,475.85 L-617.678,475.85 L-617.678,486 L-611.868,486 Z M-604.406,486 L-604.602,484.684 L-608.424,484.684 L-608.424,475.85 L-609.824,475.85 L-609.824,486 L-604.406,486 Z" id="BUTTON-Copy-14" stroke="none" fill="#0079B3" fill-rule="evenodd"></path>
    <rect id="Rectangle-8-Copy-13" stroke="none" fill-opacity="0" fill="#000000" fill-rule="evenodd" x="-578" y="465" width="108" height="32" rx="2"></rect>
    <path d="M-539.54,480.918 C-539.54,477.95 -541.43,475.85 -545.084,475.85 L-548.122,475.85 L-548.122,486 L-545.154,486 C-541.542,486 -539.54,483.928 -539.54,480.918 L-539.54,480.918 Z M-540.996,480.932 C-540.996,483.508 -542.536,484.726 -545.084,484.726 L-546.722,484.726 L-546.722,477.124 L-545.042,477.124 C-542.606,477.124 -540.996,478.398 -540.996,480.932 L-540.996,480.932 Z M-531.462,486 L-531.462,484.712 L-535.872,484.712 L-535.872,481.338 L-532.344,481.338 L-532.554,480.05 L-535.872,480.05 L-535.872,477.138 L-531.602,477.138 L-531.602,475.85 L-537.272,475.85 L-537.272,486 L-531.462,486 Z M-524,486 L-524.196,484.684 L-528.018,484.684 L-528.018,475.85 L-529.418,475.85 L-529.418,486 L-524,486 Z M-516.342,486 L-516.342,484.712 L-520.752,484.712 L-520.752,481.338 L-517.224,481.338 L-517.434,480.05 L-520.752,480.05 L-520.752,477.138 L-516.482,477.138 L-516.482,475.85 L-522.152,475.85 L-522.152,486 L-516.342,486 Z M-506.864,477.138 L-507.06,475.85 L-515.082,475.85 L-515.082,477.138 L-511.722,477.138 L-511.722,486 L-510.308,486 L-510.308,477.138 L-506.864,477.138 Z M-499.234,486 L-499.234,484.712 L-503.644,484.712 L-503.644,481.338 L-500.116,481.338 L-500.326,480.05 L-503.644,480.05 L-503.644,477.138 L-499.374,477.138 L-499.374,475.85 L-505.044,475.85 L-505.044,486 L-499.234,486 Z" id="BUTTON-Copy-14" stroke="none" fill="#0079B3" fill-rule="evenodd"></path>
</svg>
