
<svg width="120px" height="68px" viewBox="32 480 120 68" version="1.1" xmlns="http://www.w3.org/2000/svg" xmlns:xlink="http://www.w3.org/1999/xlink">
    <!-- Generator: Sketch 40.3 (33839) - http://www.bohemiancoding.com/sketch -->
    <desc>Created with Sketch.</desc>
    <defs></defs>
    <path d="M131.8038,510.515864 C124.545239,509.025195 120.448814,502.393672 121.831265,495.559725 C123.214642,488.72671 129.727809,484.483245 136.511356,485.8769 C143.293976,487.269622 147.654298,493.667003 146.175548,500.979495 L151.619237,502.097031 C153.65356,492.042938 147.332066,482.386232 137.531758,480.374108 C127.73145,478.36105 118.365416,484.669812 116.367205,494.542935 C114.36992,504.416058 120.713638,513.950562 130.694506,516 L131.8038,510.515864 Z" id="spinner----small" stroke="none" fill="#00BDB4" fill-rule="evenodd"></path>
    <path d="M61.8516231,537.641077 C48.1410076,534.825367 40.4033161,522.299159 43.0146121,509.390591 C45.6276571,496.483786 57.9303066,488.468352 70.7436718,491.100811 C83.555288,493.731509 91.7914519,505.81545 88.9982572,519.627935 L99.2807816,521.738836 C103.123392,502.747771 91.1827908,484.507328 72.6710986,480.706648 C54.1594064,476.904206 36.4680074,488.820756 32.6936091,507.469988 C28.9209598,526.119221 40.9035376,544.128839 59.7562899,548 L61.8516231,537.641077 Z" id="spinner----large" stroke="none" fill="#00BDB4" fill-rule="evenodd"></path>
</svg>
