
<svg width="336px" height="186px" viewBox="2248 894 336 186" version="1.1" xmlns="http://www.w3.org/2000/svg" xmlns:xlink="http://www.w3.org/1999/xlink">
    <!-- Generator: Sketch 40.3 (33839) - http://www.bohemiancoding.com/sketch -->
    <desc>Created with Sketch.</desc>
    <defs>
        <polygon id="path-1" points="2248 894 2584 894 2584 998 2248 998"></polygon>
        <filter x="-50%" y="-50%" width="200%" height="200%" filterUnits="objectBoundingBox" id="filter-2">
            <feOffset dx="2" dy="0" in="SourceAlpha" result="shadowOffsetInner1"></feOffset>
            <feComposite in="shadowOffsetInner1" in2="SourceAlpha" operator="arithmetic" k2="-1" k3="1" result="shadowInnerInner1"></feComposite>
            <feColorMatrix values="0 0 0 0 0.941176471   0 0 0 0 0.364705882   0 0 0 0 0.380392157  0 0 0 1 0" type="matrix" in="shadowInnerInner1"></feColorMatrix>
        </filter>
    </defs>
    <path d="M2254.456,1072.76 C2254.456,1071.188 2253.328,1070.3 2251.48,1070.3 L2249.26,1070.3 L2249.26,1079 L2250.16,1079 L2250.16,1075.352 L2251.276,1075.352 C2253.136,1075.352 2254.456,1074.476 2254.456,1072.76 L2254.456,1072.76 Z M2253.532,1072.796 C2253.532,1073.972 2252.704,1074.548 2251.324,1074.548 L2250.16,1074.548 L2250.16,1071.104 L2251.432,1071.104 C2252.8,1071.104 2253.532,1071.68 2253.532,1072.796 L2253.532,1072.796 Z M2257.18,1079 L2257.18,1069.352 L2256.292,1069.508 L2256.292,1079 L2257.18,1079 Z M2264.608,1078.232 L2264.476,1077.428 C2263.804,1077.98 2263.024,1078.364 2262.16,1078.364 C2260.816,1078.364 2260.06,1077.452 2260.036,1075.88 L2264.62,1075.88 L2264.62,1075.688 C2264.62,1073.924 2263.744,1072.508 2261.956,1072.508 C2260.324,1072.508 2259.124,1073.78 2259.124,1075.808 C2259.124,1078.004 2260.372,1079.132 2262.1,1079.132 C2263.108,1079.132 2263.96,1078.772 2264.608,1078.232 L2264.608,1078.232 Z M2261.944,1073.216 C2263.024,1073.216 2263.624,1074.032 2263.708,1075.184 L2260.072,1075.184 C2260.24,1073.912 2260.96,1073.216 2261.944,1073.216 L2261.944,1073.216 Z M2270.308,1077.416 C2269.66,1078.004 2268.868,1078.376 2268.16,1078.376 C2267.464,1078.376 2266.96,1078.016 2266.96,1077.344 C2266.96,1076.48 2267.704,1075.892 2270.308,1075.628 L2270.308,1077.416 Z M2271.196,1079 L2271.196,1074.464 C2271.196,1073.156 2270.452,1072.508 2269,1072.508 C2268.064,1072.508 2267.308,1072.736 2266.54,1073.06 L2266.66,1073.852 C2267.392,1073.516 2268.16,1073.3 2268.928,1073.3 C2269.78,1073.3 2270.308,1073.66 2270.308,1074.512 L2270.308,1074.932 C2267.308,1075.208 2266.06,1075.904 2266.06,1077.404 C2266.06,1078.52 2266.9,1079.132 2268.04,1079.132 C2268.976,1079.132 2269.744,1078.7 2270.368,1078.148 L2270.524,1079 L2271.196,1079 Z M2277.784,1077.272 C2277.784,1076.144 2277.028,1075.664 2275.468,1075.268 C2274.34,1074.98 2273.98,1074.716 2273.98,1074.2 C2273.98,1073.672 2274.412,1073.288 2275.324,1073.288 C2275.984,1073.288 2276.656,1073.48 2277.244,1073.792 L2277.388,1072.94 C2276.824,1072.676 2276.128,1072.508 2275.36,1072.508 C2273.992,1072.508 2273.116,1073.24 2273.116,1074.224 C2273.116,1075.28 2273.752,1075.736 2275.204,1076.108 C2276.536,1076.432 2276.92,1076.72 2276.92,1077.344 C2276.92,1077.992 2276.344,1078.352 2275.408,1078.352 C2274.532,1078.352 2273.728,1078.052 2273.104,1077.68 L2272.96,1078.532 C2273.536,1078.844 2274.448,1079.12 2275.324,1079.12 C2276.836,1079.12 2277.784,1078.436 2277.784,1077.272 L2277.784,1077.272 Z M2284.684,1078.232 L2284.552,1077.428 C2283.88,1077.98 2283.1,1078.364 2282.236,1078.364 C2280.892,1078.364 2280.136,1077.452 2280.112,1075.88 L2284.696,1075.88 L2284.696,1075.688 C2284.696,1073.924 2283.82,1072.508 2282.032,1072.508 C2280.4,1072.508 2279.2,1073.78 2279.2,1075.808 C2279.2,1078.004 2280.448,1079.132 2282.176,1079.132 C2283.184,1079.132 2284.036,1078.772 2284.684,1078.232 L2284.684,1078.232 Z M2282.02,1073.216 C2283.1,1073.216 2283.7,1074.032 2283.784,1075.184 L2280.148,1075.184 C2280.316,1073.912 2281.036,1073.216 2282.02,1073.216 L2282.02,1073.216 Z M2294.788,1078.232 L2294.656,1077.428 C2293.984,1077.98 2293.204,1078.364 2292.34,1078.364 C2290.996,1078.364 2290.24,1077.452 2290.216,1075.88 L2294.8,1075.88 L2294.8,1075.688 C2294.8,1073.924 2293.924,1072.508 2292.136,1072.508 C2290.504,1072.508 2289.304,1073.78 2289.304,1075.808 C2289.304,1078.004 2290.552,1079.132 2292.28,1079.132 C2293.288,1079.132 2294.14,1078.772 2294.788,1078.232 L2294.788,1078.232 Z M2292.124,1073.216 C2293.204,1073.216 2293.804,1074.032 2293.888,1075.184 L2290.252,1075.184 C2290.42,1073.912 2291.14,1073.216 2292.124,1073.216 L2292.124,1073.216 Z M2301.868,1079 L2301.868,1074.452 C2301.868,1073.24 2301.208,1072.508 2299.888,1072.508 C2298.988,1072.508 2298.244,1072.964 2297.512,1073.576 L2297.356,1072.64 L2296.672,1072.64 L2296.672,1079 L2297.56,1079 L2297.56,1074.404 C2298.292,1073.72 2299.012,1073.312 2299.72,1073.312 C2300.572,1073.312 2300.968,1073.804 2300.968,1074.62 L2300.968,1079 L2301.868,1079 Z M2307.004,1079 L2306.884,1078.256 C2306.728,1078.292 2306.476,1078.316 2306.26,1078.316 C2305.54,1078.316 2305.264,1078.04 2305.264,1077.392 L2305.264,1073.396 L2306.92,1073.396 L2306.812,1072.64 L2305.264,1072.64 L2305.264,1070.288 L2304.388,1070.444 L2304.388,1072.64 L2303.368,1072.64 L2303.368,1073.396 L2304.388,1073.396 L2304.388,1077.548 C2304.388,1078.724 2305.06,1079.108 2306.092,1079.108 C2306.488,1079.108 2306.824,1079.048 2307.004,1079 L2307.004,1079 Z M2313.832,1078.232 L2313.7,1077.428 C2313.028,1077.98 2312.248,1078.364 2311.384,1078.364 C2310.04,1078.364 2309.284,1077.452 2309.26,1075.88 L2313.844,1075.88 L2313.844,1075.688 C2313.844,1073.924 2312.968,1072.508 2311.18,1072.508 C2309.548,1072.508 2308.348,1073.78 2308.348,1075.808 C2308.348,1078.004 2309.596,1079.132 2311.324,1079.132 C2312.332,1079.132 2313.184,1078.772 2313.832,1078.232 L2313.832,1078.232 Z M2311.168,1073.216 C2312.248,1073.216 2312.848,1074.032 2312.932,1075.184 L2309.296,1075.184 C2309.464,1073.912 2310.184,1073.216 2311.168,1073.216 L2311.168,1073.216 Z M2319.076,1073.348 L2318.932,1072.508 C2317.84,1072.532 2317.072,1073.228 2316.58,1073.948 L2316.364,1072.64 L2315.716,1072.64 L2315.716,1079 L2316.604,1079 L2316.604,1075.016 C2317.048,1074.164 2317.984,1073.408 2319.076,1073.348 L2319.076,1073.348 Z M2327.572,1077.416 C2326.924,1078.004 2326.132,1078.376 2325.424,1078.376 C2324.728,1078.376 2324.224,1078.016 2324.224,1077.344 C2324.224,1076.48 2324.968,1075.892 2327.572,1075.628 L2327.572,1077.416 Z M2328.46,1079 L2328.46,1074.464 C2328.46,1073.156 2327.716,1072.508 2326.264,1072.508 C2325.328,1072.508 2324.572,1072.736 2323.804,1073.06 L2323.924,1073.852 C2324.656,1073.516 2325.424,1073.3 2326.192,1073.3 C2327.044,1073.3 2327.572,1073.66 2327.572,1074.512 L2327.572,1074.932 C2324.572,1075.208 2323.324,1075.904 2323.324,1077.404 C2323.324,1078.52 2324.164,1079.132 2325.304,1079.132 C2326.24,1079.132 2327.008,1078.7 2327.632,1078.148 L2327.788,1079 L2328.46,1079 Z M2338.876,1072.64 L2337.952,1072.64 L2336.032,1077.956 L2334.076,1072.556 L2333.176,1072.724 L2335.588,1079.06 L2336.44,1079.06 L2338.876,1072.64 Z M2344.312,1077.416 C2343.664,1078.004 2342.872,1078.376 2342.164,1078.376 C2341.468,1078.376 2340.964,1078.016 2340.964,1077.344 C2340.964,1076.48 2341.708,1075.892 2344.312,1075.628 L2344.312,1077.416 Z M2345.2,1079 L2345.2,1074.464 C2345.2,1073.156 2344.456,1072.508 2343.004,1072.508 C2342.068,1072.508 2341.312,1072.736 2340.544,1073.06 L2340.664,1073.852 C2341.396,1073.516 2342.164,1073.3 2342.932,1073.3 C2343.784,1073.3 2344.312,1073.66 2344.312,1074.512 L2344.312,1074.932 C2341.312,1075.208 2340.064,1075.904 2340.064,1077.404 C2340.064,1078.52 2340.904,1079.132 2342.044,1079.132 C2342.98,1079.132 2343.748,1078.7 2344.372,1078.148 L2344.528,1079 L2345.2,1079 Z M2348.404,1079 L2348.404,1069.352 L2347.516,1069.508 L2347.516,1079 L2348.404,1079 Z M2351.956,1070.48 C2351.956,1070.132 2351.668,1069.844 2351.308,1069.844 C2350.948,1069.844 2350.648,1070.132 2350.648,1070.48 C2350.648,1070.828 2350.948,1071.128 2351.308,1071.128 C2351.668,1071.128 2351.956,1070.828 2351.956,1070.48 L2351.956,1070.48 Z M2351.752,1079 L2351.752,1072.64 L2350.864,1072.64 L2350.864,1079 L2351.752,1079 Z M2358.46,1077.188 C2357.86,1077.884 2357.248,1078.328 2356.468,1078.328 C2355.412,1078.328 2354.632,1077.5 2354.632,1075.964 C2354.632,1074.176 2355.568,1073.312 2356.756,1073.312 C2357.44,1073.312 2357.944,1073.444 2358.46,1073.696 L2358.46,1077.188 Z M2359.36,1079 L2359.36,1069.352 L2358.46,1069.508 L2358.46,1072.868 C2357.98,1072.676 2357.404,1072.556 2356.732,1072.556 C2355.136,1072.556 2353.72,1073.684 2353.72,1076 C2353.72,1078.136 2354.944,1079.132 2356.384,1079.132 C2357.344,1079.132 2358.004,1078.652 2358.508,1078.076 L2358.676,1079 L2359.36,1079 Z M2369.848,1078.232 L2369.716,1077.428 C2369.044,1077.98 2368.264,1078.364 2367.4,1078.364 C2366.056,1078.364 2365.3,1077.452 2365.276,1075.88 L2369.86,1075.88 L2369.86,1075.688 C2369.86,1073.924 2368.984,1072.508 2367.196,1072.508 C2365.564,1072.508 2364.364,1073.78 2364.364,1075.808 C2364.364,1078.004 2365.612,1079.132 2367.34,1079.132 C2368.348,1079.132 2369.2,1078.772 2369.848,1078.232 L2369.848,1078.232 Z M2367.184,1073.216 C2368.264,1073.216 2368.864,1074.032 2368.948,1075.184 L2365.312,1075.184 C2365.48,1073.912 2366.2,1073.216 2367.184,1073.216 L2367.184,1073.216 Z M2381.068,1079 L2381.068,1074.44 C2381.068,1073.228 2380.456,1072.508 2379.136,1072.508 C2378.224,1072.508 2377.456,1072.976 2376.724,1073.612 C2376.484,1072.904 2375.92,1072.508 2374.912,1072.508 C2374.024,1072.508 2373.292,1072.964 2372.572,1073.564 L2372.416,1072.64 L2371.732,1072.64 L2371.732,1079 L2372.62,1079 L2372.62,1074.38 C2373.352,1073.72 2374.048,1073.312 2374.732,1073.312 C2375.596,1073.312 2375.956,1073.804 2375.956,1074.62 L2375.956,1079 L2376.844,1079 L2376.844,1074.392 C2377.576,1073.72 2378.272,1073.312 2378.956,1073.312 C2379.808,1073.312 2380.168,1073.804 2380.168,1074.62 L2380.168,1079 L2381.068,1079 Z M2387.092,1077.416 C2386.444,1078.004 2385.652,1078.376 2384.944,1078.376 C2384.248,1078.376 2383.744,1078.016 2383.744,1077.344 C2383.744,1076.48 2384.488,1075.892 2387.092,1075.628 L2387.092,1077.416 Z M2387.98,1079 L2387.98,1074.464 C2387.98,1073.156 2387.236,1072.508 2385.784,1072.508 C2384.848,1072.508 2384.092,1072.736 2383.324,1073.06 L2383.444,1073.852 C2384.176,1073.516 2384.944,1073.3 2385.712,1073.3 C2386.564,1073.3 2387.092,1073.66 2387.092,1074.512 L2387.092,1074.932 C2384.092,1075.208 2382.844,1075.904 2382.844,1077.404 C2382.844,1078.52 2383.684,1079.132 2384.824,1079.132 C2385.76,1079.132 2386.528,1078.7 2387.152,1078.148 L2387.308,1079 L2387.98,1079 Z M2391.388,1070.48 C2391.388,1070.132 2391.1,1069.844 2390.74,1069.844 C2390.38,1069.844 2390.08,1070.132 2390.08,1070.48 C2390.08,1070.828 2390.38,1071.128 2390.74,1071.128 C2391.1,1071.128 2391.388,1070.828 2391.388,1070.48 L2391.388,1070.48 Z M2391.184,1079 L2391.184,1072.64 L2390.296,1072.64 L2390.296,1079 L2391.184,1079 Z M2394.532,1079 L2394.532,1069.352 L2393.644,1069.508 L2393.644,1079 L2394.532,1079 Z M2403.868,1077.416 C2403.22,1078.004 2402.428,1078.376 2401.72,1078.376 C2401.024,1078.376 2400.52,1078.016 2400.52,1077.344 C2400.52,1076.48 2401.264,1075.892 2403.868,1075.628 L2403.868,1077.416 Z M2404.756,1079 L2404.756,1074.464 C2404.756,1073.156 2404.012,1072.508 2402.56,1072.508 C2401.624,1072.508 2400.868,1072.736 2400.1,1073.06 L2400.22,1073.852 C2400.952,1073.516 2401.72,1073.3 2402.488,1073.3 C2403.34,1073.3 2403.868,1073.66 2403.868,1074.512 L2403.868,1074.932 C2400.868,1075.208 2399.62,1075.904 2399.62,1077.404 C2399.62,1078.52 2400.46,1079.132 2401.6,1079.132 C2402.536,1079.132 2403.304,1078.7 2403.928,1078.148 L2404.084,1079 L2404.756,1079 Z M2411.32,1077.188 C2410.72,1077.884 2410.108,1078.328 2409.328,1078.328 C2408.272,1078.328 2407.492,1077.5 2407.492,1075.964 C2407.492,1074.176 2408.428,1073.312 2409.616,1073.312 C2410.3,1073.312 2410.804,1073.444 2411.32,1073.696 L2411.32,1077.188 Z M2412.22,1079 L2412.22,1069.352 L2411.32,1069.508 L2411.32,1072.868 C2410.84,1072.676 2410.264,1072.556 2409.592,1072.556 C2407.996,1072.556 2406.58,1073.684 2406.58,1076 C2406.58,1078.136 2407.804,1079.132 2409.244,1079.132 C2410.204,1079.132 2410.864,1078.652 2411.368,1078.076 L2411.536,1079 L2412.22,1079 Z M2418.832,1077.188 C2418.232,1077.884 2417.62,1078.328 2416.84,1078.328 C2415.784,1078.328 2415.004,1077.5 2415.004,1075.964 C2415.004,1074.176 2415.94,1073.312 2417.128,1073.312 C2417.812,1073.312 2418.316,1073.444 2418.832,1073.696 L2418.832,1077.188 Z M2419.732,1079 L2419.732,1069.352 L2418.832,1069.508 L2418.832,1072.868 C2418.352,1072.676 2417.776,1072.556 2417.104,1072.556 C2415.508,1072.556 2414.092,1073.684 2414.092,1076 C2414.092,1078.136 2415.316,1079.132 2416.756,1079.132 C2417.716,1079.132 2418.376,1078.652 2418.88,1078.076 L2419.048,1079 L2419.732,1079 Z M2425.36,1073.348 L2425.216,1072.508 C2424.124,1072.532 2423.356,1073.228 2422.864,1073.948 L2422.648,1072.64 L2422,1072.64 L2422,1079 L2422.888,1079 L2422.888,1075.016 C2423.332,1074.164 2424.268,1073.408 2425.36,1073.348 L2425.36,1073.348 Z M2431.948,1078.232 L2431.816,1077.428 C2431.144,1077.98 2430.364,1078.364 2429.5,1078.364 C2428.156,1078.364 2427.4,1077.452 2427.376,1075.88 L2431.96,1075.88 L2431.96,1075.688 C2431.96,1073.924 2431.084,1072.508 2429.296,1072.508 C2427.664,1072.508 2426.464,1073.78 2426.464,1075.808 C2426.464,1078.004 2427.712,1079.132 2429.44,1079.132 C2430.448,1079.132 2431.3,1078.772 2431.948,1078.232 L2431.948,1078.232 Z M2429.284,1073.216 C2430.364,1073.216 2430.964,1074.032 2431.048,1075.184 L2427.412,1075.184 C2427.58,1073.912 2428.3,1073.216 2429.284,1073.216 L2429.284,1073.216 Z M2438.2,1077.272 C2438.2,1076.144 2437.444,1075.664 2435.884,1075.268 C2434.756,1074.98 2434.396,1074.716 2434.396,1074.2 C2434.396,1073.672 2434.828,1073.288 2435.74,1073.288 C2436.4,1073.288 2437.072,1073.48 2437.66,1073.792 L2437.804,1072.94 C2437.24,1072.676 2436.544,1072.508 2435.776,1072.508 C2434.408,1072.508 2433.532,1073.24 2433.532,1074.224 C2433.532,1075.28 2434.168,1075.736 2435.62,1076.108 C2436.952,1076.432 2437.336,1076.72 2437.336,1077.344 C2437.336,1077.992 2436.76,1078.352 2435.824,1078.352 C2434.948,1078.352 2434.144,1078.052 2433.52,1077.68 L2433.376,1078.532 C2433.952,1078.844 2434.864,1079.12 2435.74,1079.12 C2437.252,1079.12 2438.2,1078.436 2438.2,1077.272 L2438.2,1077.272 Z M2444.404,1077.272 C2444.404,1076.144 2443.648,1075.664 2442.088,1075.268 C2440.96,1074.98 2440.6,1074.716 2440.6,1074.2 C2440.6,1073.672 2441.032,1073.288 2441.944,1073.288 C2442.604,1073.288 2443.276,1073.48 2443.864,1073.792 L2444.008,1072.94 C2443.444,1072.676 2442.748,1072.508 2441.98,1072.508 C2440.612,1072.508 2439.736,1073.24 2439.736,1074.224 C2439.736,1075.28 2440.372,1075.736 2441.824,1076.108 C2443.156,1076.432 2443.54,1076.72 2443.54,1077.344 C2443.54,1077.992 2442.964,1078.352 2442.028,1078.352 C2441.152,1078.352 2440.348,1078.052 2439.724,1077.68 L2439.58,1078.532 C2440.156,1078.844 2441.068,1079.12 2441.944,1079.12 C2443.456,1079.12 2444.404,1078.436 2444.404,1077.272 L2444.404,1077.272 Z" id="error-message" stroke="none" fill="#F05D61" fill-rule="evenodd"></path>
    <path d="M2255.344,1049.696 C2255.344,1048.192 2254.336,1047.552 2252.256,1047.024 C2250.752,1046.64 2250.272,1046.288 2250.272,1045.6 C2250.272,1044.896 2250.848,1044.384 2252.064,1044.384 C2252.944,1044.384 2253.84,1044.64 2254.624,1045.056 L2254.816,1043.92 C2254.064,1043.568 2253.136,1043.344 2252.112,1043.344 C2250.288,1043.344 2249.12,1044.32 2249.12,1045.632 C2249.12,1047.04 2249.968,1047.648 2251.904,1048.144 C2253.68,1048.576 2254.192,1048.96 2254.192,1049.792 C2254.192,1050.656 2253.424,1051.136 2252.176,1051.136 C2251.008,1051.136 2249.936,1050.736 2249.104,1050.24 L2248.912,1051.376 C2249.68,1051.792 2250.896,1052.16 2252.064,1052.16 C2254.08,1052.16 2255.344,1051.248 2255.344,1049.696 L2255.344,1049.696 Z M2265.168,1047.76 C2265.168,1044.96 2263.456,1043.344 2261.184,1043.344 C2258.96,1043.344 2257.232,1044.96 2257.232,1047.76 C2257.232,1050.56 2258.928,1052.176 2261.184,1052.176 C2263.424,1052.176 2265.168,1050.56 2265.168,1047.76 L2265.168,1047.76 Z M2263.952,1047.76 C2263.952,1049.888 2262.848,1051.168 2261.184,1051.168 C2259.568,1051.168 2258.464,1049.824 2258.464,1047.76 C2258.464,1045.648 2259.536,1044.352 2261.184,1044.352 C2262.832,1044.352 2263.952,1045.696 2263.952,1047.76 L2263.952,1047.76 Z M2280.096,1052 L2280.096,1045.92 C2280.096,1044.304 2279.28,1043.344 2277.52,1043.344 C2276.304,1043.344 2275.28,1043.968 2274.304,1044.816 C2273.984,1043.872 2273.232,1043.344 2271.888,1043.344 C2270.704,1043.344 2269.728,1043.952 2268.768,1044.752 L2268.56,1043.52 L2267.648,1043.52 L2267.648,1052 L2268.832,1052 L2268.832,1045.84 C2269.808,1044.96 2270.736,1044.416 2271.648,1044.416 C2272.8,1044.416 2273.28,1045.072 2273.28,1046.16 L2273.28,1052 L2274.464,1052 L2274.464,1045.856 C2275.44,1044.96 2276.368,1044.416 2277.28,1044.416 C2278.416,1044.416 2278.896,1045.072 2278.896,1046.16 L2278.896,1052 L2280.096,1052 Z M2289.792,1050.976 L2289.616,1049.904 C2288.72,1050.64 2287.68,1051.152 2286.528,1051.152 C2284.736,1051.152 2283.728,1049.936 2283.696,1047.84 L2289.808,1047.84 L2289.808,1047.584 C2289.808,1045.232 2288.64,1043.344 2286.256,1043.344 C2284.08,1043.344 2282.48,1045.04 2282.48,1047.744 C2282.48,1050.672 2284.144,1052.176 2286.448,1052.176 C2287.792,1052.176 2288.928,1051.696 2289.792,1050.976 L2289.792,1050.976 Z M2286.24,1044.288 C2287.68,1044.288 2288.48,1045.376 2288.592,1046.912 L2283.744,1046.912 C2283.968,1045.216 2284.928,1044.288 2286.24,1044.288 L2286.24,1044.288 Z M2297.392,1049.888 C2296.528,1050.672 2295.472,1051.168 2294.528,1051.168 C2293.6,1051.168 2292.928,1050.688 2292.928,1049.792 C2292.928,1048.64 2293.92,1047.856 2297.392,1047.504 L2297.392,1049.888 Z M2298.576,1052 L2298.576,1045.952 C2298.576,1044.208 2297.584,1043.344 2295.648,1043.344 C2294.4,1043.344 2293.392,1043.648 2292.368,1044.08 L2292.528,1045.136 C2293.504,1044.688 2294.528,1044.4 2295.552,1044.4 C2296.688,1044.4 2297.392,1044.88 2297.392,1046.016 L2297.392,1046.576 C2293.392,1046.944 2291.728,1047.872 2291.728,1049.872 C2291.728,1051.36 2292.848,1052.176 2294.368,1052.176 C2295.616,1052.176 2296.64,1051.6 2297.472,1050.864 L2297.68,1052 L2298.576,1052 Z M2307.328,1049.584 C2306.528,1050.512 2305.712,1051.104 2304.672,1051.104 C2303.264,1051.104 2302.224,1050 2302.224,1047.952 C2302.224,1045.568 2303.472,1044.416 2305.056,1044.416 C2305.968,1044.416 2306.64,1044.592 2307.328,1044.928 L2307.328,1049.584 Z M2308.528,1052 L2308.528,1039.136 L2307.328,1039.344 L2307.328,1043.824 C2306.688,1043.568 2305.92,1043.408 2305.024,1043.408 C2302.896,1043.408 2301.008,1044.912 2301.008,1048 C2301.008,1050.848 2302.64,1052.176 2304.56,1052.176 C2305.84,1052.176 2306.72,1051.536 2307.392,1050.768 L2307.616,1052 L2308.528,1052 Z M2317.344,1049.584 C2316.544,1050.512 2315.728,1051.104 2314.688,1051.104 C2313.28,1051.104 2312.24,1050 2312.24,1047.952 C2312.24,1045.568 2313.488,1044.416 2315.072,1044.416 C2315.984,1044.416 2316.656,1044.592 2317.344,1044.928 L2317.344,1049.584 Z M2318.544,1052 L2318.544,1039.136 L2317.344,1039.344 L2317.344,1043.824 C2316.704,1043.568 2315.936,1043.408 2315.04,1043.408 C2312.912,1043.408 2311.024,1044.912 2311.024,1048 C2311.024,1050.848 2312.656,1052.176 2314.576,1052.176 C2315.856,1052.176 2316.736,1051.536 2317.408,1050.768 L2317.632,1052 L2318.544,1052 Z M2326.048,1044.464 L2325.856,1043.344 C2324.4,1043.376 2323.376,1044.304 2322.72,1045.264 L2322.432,1043.52 L2321.568,1043.52 L2321.568,1052 L2322.752,1052 L2322.752,1046.688 C2323.344,1045.552 2324.592,1044.544 2326.048,1044.464 L2326.048,1044.464 Z M2334.832,1050.976 L2334.656,1049.904 C2333.76,1050.64 2332.72,1051.152 2331.568,1051.152 C2329.776,1051.152 2328.768,1049.936 2328.736,1047.84 L2334.848,1047.84 L2334.848,1047.584 C2334.848,1045.232 2333.68,1043.344 2331.296,1043.344 C2329.12,1043.344 2327.52,1045.04 2327.52,1047.744 C2327.52,1050.672 2329.184,1052.176 2331.488,1052.176 C2332.832,1052.176 2333.968,1051.696 2334.832,1050.976 L2334.832,1050.976 Z M2331.28,1044.288 C2332.72,1044.288 2333.52,1045.376 2333.632,1046.912 L2328.784,1046.912 C2329.008,1045.216 2329.968,1044.288 2331.28,1044.288 L2331.28,1044.288 Z M2343.168,1049.696 C2343.168,1048.192 2342.16,1047.552 2340.08,1047.024 C2338.576,1046.64 2338.096,1046.288 2338.096,1045.6 C2338.096,1044.896 2338.672,1044.384 2339.888,1044.384 C2340.768,1044.384 2341.664,1044.64 2342.448,1045.056 L2342.64,1043.92 C2341.888,1043.568 2340.96,1043.344 2339.936,1043.344 C2338.112,1043.344 2336.944,1044.32 2336.944,1045.632 C2336.944,1047.04 2337.792,1047.648 2339.728,1048.144 C2341.504,1048.576 2342.016,1048.96 2342.016,1049.792 C2342.016,1050.656 2341.248,1051.136 2340,1051.136 C2338.832,1051.136 2337.76,1050.736 2336.928,1050.24 L2336.736,1051.376 C2337.504,1051.792 2338.72,1052.16 2339.888,1052.16 C2341.904,1052.16 2343.168,1051.248 2343.168,1049.696 L2343.168,1049.696 Z M2351.44,1049.696 C2351.44,1048.192 2350.432,1047.552 2348.352,1047.024 C2346.848,1046.64 2346.368,1046.288 2346.368,1045.6 C2346.368,1044.896 2346.944,1044.384 2348.16,1044.384 C2349.04,1044.384 2349.936,1044.64 2350.72,1045.056 L2350.912,1043.92 C2350.16,1043.568 2349.232,1043.344 2348.208,1043.344 C2346.384,1043.344 2345.216,1044.32 2345.216,1045.632 C2345.216,1047.04 2346.064,1047.648 2348,1048.144 C2349.776,1048.576 2350.288,1048.96 2350.288,1049.792 C2350.288,1050.656 2349.52,1051.136 2348.272,1051.136 C2347.104,1051.136 2346.032,1050.736 2345.2,1050.24 L2345.008,1051.376 C2345.776,1051.792 2346.992,1052.16 2348.16,1052.16 C2350.176,1052.16 2351.44,1051.248 2351.44,1049.696 L2351.44,1049.696 Z M2363.712,1051.168 C2365.52,1051.168 2367.008,1049.344 2367.008,1046.4 C2367.008,1042.976 2364.816,1040.8 2361.12,1040.8 C2356.8,1040.8 2353.488,1044.208 2353.488,1048.72 C2353.488,1052.432 2355.76,1054.512 2359.488,1054.512 C2361.152,1054.512 2362.624,1054.144 2363.664,1053.648 L2363.568,1053.12 C2362.48,1053.664 2361.088,1053.984 2359.552,1053.984 C2356.32,1053.984 2354.128,1052.272 2354.128,1048.704 C2354.128,1044.352 2357.232,1041.344 2361.056,1041.344 C2364.336,1041.344 2366.384,1043.152 2366.384,1046.432 C2366.384,1049.04 2365.216,1050.496 2363.84,1050.496 C2362.944,1050.496 2362.56,1049.984 2362.56,1049.264 C2362.56,1048.944 2362.608,1048.56 2362.656,1048.304 L2363.312,1044.528 C2362.656,1044.24 2361.872,1044.032 2361.056,1044.032 C2358.928,1044.032 2356.88,1046 2356.88,1048.848 C2356.88,1050.352 2357.76,1051.152 2358.8,1051.152 C2359.744,1051.152 2360.496,1050.56 2361.52,1049.408 C2361.616,1050.496 2362.416,1051.168 2363.712,1051.168 L2363.712,1051.168 Z M2359.072,1050.224 C2358.4,1050.224 2357.968,1049.76 2357.968,1048.72 C2357.968,1046.416 2359.472,1044.928 2360.944,1044.928 C2361.424,1044.928 2361.744,1044.992 2362.16,1045.168 L2361.568,1048.352 C2360.384,1049.696 2359.728,1050.224 2359.072,1050.224 L2359.072,1050.224 Z M2375.52,1049.696 C2375.52,1048.192 2374.512,1047.552 2372.432,1047.024 C2370.928,1046.64 2370.448,1046.288 2370.448,1045.6 C2370.448,1044.896 2371.024,1044.384 2372.24,1044.384 C2373.12,1044.384 2374.016,1044.64 2374.8,1045.056 L2374.992,1043.92 C2374.24,1043.568 2373.312,1043.344 2372.288,1043.344 C2370.464,1043.344 2369.296,1044.32 2369.296,1045.632 C2369.296,1047.04 2370.144,1047.648 2372.08,1048.144 C2373.856,1048.576 2374.368,1048.96 2374.368,1049.792 C2374.368,1050.656 2373.6,1051.136 2372.352,1051.136 C2371.184,1051.136 2370.112,1050.736 2369.28,1050.24 L2369.088,1051.376 C2369.856,1051.792 2371.072,1052.16 2372.24,1052.16 C2374.256,1052.16 2375.52,1051.248 2375.52,1049.696 L2375.52,1049.696 Z M2385.344,1047.76 C2385.344,1044.96 2383.632,1043.344 2381.36,1043.344 C2379.136,1043.344 2377.408,1044.96 2377.408,1047.76 C2377.408,1050.56 2379.104,1052.176 2381.36,1052.176 C2383.6,1052.176 2385.344,1050.56 2385.344,1047.76 L2385.344,1047.76 Z M2384.128,1047.76 C2384.128,1049.888 2383.024,1051.168 2381.36,1051.168 C2379.744,1051.168 2378.64,1049.824 2378.64,1047.76 C2378.64,1045.648 2379.712,1044.352 2381.36,1044.352 C2383.008,1044.352 2384.128,1045.696 2384.128,1047.76 L2384.128,1047.76 Z M2400.272,1052 L2400.272,1045.92 C2400.272,1044.304 2399.456,1043.344 2397.696,1043.344 C2396.48,1043.344 2395.456,1043.968 2394.48,1044.816 C2394.16,1043.872 2393.408,1043.344 2392.064,1043.344 C2390.88,1043.344 2389.904,1043.952 2388.944,1044.752 L2388.736,1043.52 L2387.824,1043.52 L2387.824,1052 L2389.008,1052 L2389.008,1045.84 C2389.984,1044.96 2390.912,1044.416 2391.824,1044.416 C2392.976,1044.416 2393.456,1045.072 2393.456,1046.16 L2393.456,1052 L2394.64,1052 L2394.64,1045.856 C2395.616,1044.96 2396.544,1044.416 2397.456,1044.416 C2398.592,1044.416 2399.072,1045.072 2399.072,1046.16 L2399.072,1052 L2400.272,1052 Z M2409.968,1050.976 L2409.792,1049.904 C2408.896,1050.64 2407.856,1051.152 2406.704,1051.152 C2404.912,1051.152 2403.904,1049.936 2403.872,1047.84 L2409.984,1047.84 L2409.984,1047.584 C2409.984,1045.232 2408.816,1043.344 2406.432,1043.344 C2404.256,1043.344 2402.656,1045.04 2402.656,1047.744 C2402.656,1050.672 2404.32,1052.176 2406.624,1052.176 C2407.968,1052.176 2409.104,1051.696 2409.968,1050.976 L2409.968,1050.976 Z M2406.416,1044.288 C2407.856,1044.288 2408.656,1045.376 2408.768,1046.912 L2403.92,1046.912 C2404.144,1045.216 2405.104,1044.288 2406.416,1044.288 L2406.416,1044.288 Z M2416.384,1052 L2416.224,1051.008 C2416.016,1051.056 2415.68,1051.088 2415.392,1051.088 C2414.432,1051.088 2414.064,1050.72 2414.064,1049.856 L2414.064,1044.528 L2416.272,1044.528 L2416.128,1043.52 L2414.064,1043.52 L2414.064,1040.384 L2412.896,1040.592 L2412.896,1043.52 L2411.536,1043.52 L2411.536,1044.528 L2412.896,1044.528 L2412.896,1050.064 C2412.896,1051.632 2413.792,1052.144 2415.168,1052.144 C2415.696,1052.144 2416.144,1052.064 2416.384,1052 L2416.384,1052 Z M2425.664,1052 L2425.664,1045.92 C2425.664,1044.304 2424.784,1043.344 2423.024,1043.344 C2421.824,1043.344 2420.848,1043.952 2419.92,1044.72 L2419.92,1039.136 L2418.736,1039.344 L2418.736,1052 L2419.92,1052 L2419.92,1045.872 C2420.896,1044.96 2421.856,1044.416 2422.8,1044.416 C2423.936,1044.416 2424.464,1045.072 2424.464,1046.16 L2424.464,1052 L2425.664,1052 Z M2430.192,1040.64 C2430.192,1040.176 2429.808,1039.792 2429.328,1039.792 C2428.848,1039.792 2428.448,1040.176 2428.448,1040.64 C2428.448,1041.104 2428.848,1041.504 2429.328,1041.504 C2429.808,1041.504 2430.192,1041.104 2430.192,1040.64 L2430.192,1040.64 Z M2429.92,1052 L2429.92,1043.52 L2428.736,1043.52 L2428.736,1052 L2429.92,1052 Z M2440,1052 L2440,1045.936 C2440,1044.32 2439.12,1043.344 2437.36,1043.344 C2436.16,1043.344 2435.168,1043.952 2434.192,1044.768 L2433.984,1043.52 L2433.072,1043.52 L2433.072,1052 L2434.256,1052 L2434.256,1045.872 C2435.232,1044.96 2436.192,1044.416 2437.136,1044.416 C2438.272,1044.416 2438.8,1045.072 2438.8,1046.16 L2438.8,1052 L2440,1052 Z M2447.952,1046.224 C2447.952,1047.36 2447.136,1048.24 2445.824,1048.24 C2444.528,1048.24 2443.728,1047.36 2443.728,1046.256 C2443.728,1045.104 2444.528,1044.24 2445.808,1044.24 C2447.072,1044.24 2447.952,1045.104 2447.952,1046.224 L2447.952,1046.224 Z M2450.128,1052.672 C2450.128,1051.424 2449.056,1050.88 2447.104,1050.528 L2446.448,1050.4 C2444.832,1050.112 2444.464,1050 2444.464,1049.648 C2444.464,1049.456 2444.656,1049.248 2445.04,1049.056 C2445.296,1049.104 2445.568,1049.12 2445.84,1049.12 C2447.584,1049.12 2449.12,1048.032 2449.12,1046.24 C2449.12,1045.664 2448.944,1045.168 2448.656,1044.736 L2450.416,1044.544 L2450.224,1043.392 L2448.016,1044.064 C2447.424,1043.6 2446.656,1043.344 2445.808,1043.344 C2444.096,1043.344 2442.544,1044.448 2442.544,1046.24 C2442.544,1047.408 2443.2,1048.304 2444.176,1048.768 C2443.584,1049.104 2443.28,1049.456 2443.28,1049.872 C2443.28,1050.208 2443.488,1050.512 2443.936,1050.784 C2442.608,1051.424 2441.92,1052.176 2441.92,1053.024 C2441.92,1054.48 2443.68,1055.216 2445.936,1055.216 C2448.224,1055.216 2450.128,1054.32 2450.128,1052.672 L2450.128,1052.672 Z M2445.984,1051.376 L2446.816,1051.52 C2448.4,1051.808 2448.976,1052.176 2448.976,1052.832 C2448.976,1053.664 2447.808,1054.32 2446.016,1054.32 C2444.288,1054.32 2443.104,1053.824 2443.104,1052.944 C2443.104,1052.272 2443.68,1051.68 2444.912,1051.152 C2445.248,1051.232 2445.536,1051.296 2445.984,1051.376 L2445.984,1051.376 Z" id="text" stroke="none" fill="#303030" fill-rule="evenodd"></path>
    <rect id="Border-Copy" stroke="none" fill="#FF5C61" fill-rule="evenodd" x="2248" y="1061" width="336" height="2"></rect>
    <path d="M2254.096,1026 L2254.096,1025.172 L2250.16,1025.172 L2250.16,1021.872 L2253.304,1021.872 L2253.172,1021.032 L2250.16,1021.032 L2250.16,1018.14 L2253.964,1018.14 L2253.964,1017.3 L2249.26,1017.3 L2249.26,1026 L2254.096,1026 Z M2265.22,1026 L2265.22,1021.44 C2265.22,1020.228 2264.608,1019.508 2263.288,1019.508 C2262.376,1019.508 2261.608,1019.976 2260.876,1020.612 C2260.636,1019.904 2260.072,1019.508 2259.064,1019.508 C2258.176,1019.508 2257.444,1019.964 2256.724,1020.564 L2256.568,1019.64 L2255.884,1019.64 L2255.884,1026 L2256.772,1026 L2256.772,1021.38 C2257.504,1020.72 2258.2,1020.312 2258.884,1020.312 C2259.748,1020.312 2260.108,1020.804 2260.108,1021.62 L2260.108,1026 L2260.996,1026 L2260.996,1021.392 C2261.728,1020.72 2262.424,1020.312 2263.108,1020.312 C2263.96,1020.312 2264.32,1020.804 2264.32,1021.62 L2264.32,1026 L2265.22,1026 Z M2271.244,1024.416 C2270.596,1025.004 2269.804,1025.376 2269.096,1025.376 C2268.4,1025.376 2267.896,1025.016 2267.896,1024.344 C2267.896,1023.48 2268.64,1022.892 2271.244,1022.628 L2271.244,1024.416 Z M2272.132,1026 L2272.132,1021.464 C2272.132,1020.156 2271.388,1019.508 2269.936,1019.508 C2269,1019.508 2268.244,1019.736 2267.476,1020.06 L2267.596,1020.852 C2268.328,1020.516 2269.096,1020.3 2269.864,1020.3 C2270.716,1020.3 2271.244,1020.66 2271.244,1021.512 L2271.244,1021.932 C2268.244,1022.208 2266.996,1022.904 2266.996,1024.404 C2266.996,1025.52 2267.836,1026.132 2268.976,1026.132 C2269.912,1026.132 2270.68,1025.7 2271.304,1025.148 L2271.46,1026 L2272.132,1026 Z M2275.54,1017.48 C2275.54,1017.132 2275.252,1016.844 2274.892,1016.844 C2274.532,1016.844 2274.232,1017.132 2274.232,1017.48 C2274.232,1017.828 2274.532,1018.128 2274.892,1018.128 C2275.252,1018.128 2275.54,1017.828 2275.54,1017.48 L2275.54,1017.48 Z M2275.336,1026 L2275.336,1019.64 L2274.448,1019.64 L2274.448,1026 L2275.336,1026 Z M2278.684,1026 L2278.684,1016.352 L2277.796,1016.508 L2277.796,1026 L2278.684,1026 Z" id="label" stroke="none" fill="#F05D61" fill-rule="evenodd"></path>
    <g id="#F2F1EF-Copy-3" stroke="none" fill="none">
        <use fill="#FCDADB" fill-rule="evenodd" xlink:href="#path-1"></use>
        <use fill="black" fill-opacity="1" filter="url(#filter-2)" xlink:href="#path-1"></use>
    </g>
    <path d="M2268.667,922.255 L2268.433,920.747 L2267.016,920.513 L2265.599,920.747 L2265.352,922.255 L2265.599,923.763 L2267.016,924.01 L2268.433,923.763 L2268.667,922.255 Z M2280.432,920.24 C2280.432,918.537 2279.21,917.575 2277.208,917.575 L2274.803,917.575 L2274.803,927 L2275.778,927 L2275.778,923.048 L2276.987,923.048 C2279.002,923.048 2280.432,922.099 2280.432,920.24 L2280.432,920.24 Z M2279.431,920.279 C2279.431,921.553 2278.534,922.177 2277.039,922.177 L2275.778,922.177 L2275.778,918.446 L2277.156,918.446 C2278.638,918.446 2279.431,919.07 2279.431,920.279 L2279.431,920.279 Z M2283.383,927 L2283.383,916.548 L2282.421,916.717 L2282.421,927 L2283.383,927 Z M2291.43,926.168 L2291.287,925.297 C2290.559,925.895 2289.714,926.311 2288.778,926.311 C2287.322,926.311 2286.503,925.323 2286.477,923.62 L2291.443,923.62 L2291.443,923.412 C2291.443,921.501 2290.494,919.967 2288.557,919.967 C2286.789,919.967 2285.489,921.345 2285.489,923.542 C2285.489,925.921 2286.841,927.143 2288.713,927.143 C2289.805,927.143 2290.728,926.753 2291.43,926.168 L2291.43,926.168 Z M2288.544,920.734 C2289.714,920.734 2290.364,921.618 2290.455,922.866 L2286.516,922.866 C2286.698,921.488 2287.478,920.734 2288.544,920.734 L2288.544,920.734 Z M2297.605,925.284 C2296.903,925.921 2296.045,926.324 2295.278,926.324 C2294.524,926.324 2293.978,925.934 2293.978,925.206 C2293.978,924.27 2294.784,923.633 2297.605,923.347 L2297.605,925.284 Z M2298.567,927 L2298.567,922.086 C2298.567,920.669 2297.761,919.967 2296.188,919.967 C2295.174,919.967 2294.355,920.214 2293.523,920.565 L2293.653,921.423 C2294.446,921.059 2295.278,920.825 2296.11,920.825 C2297.033,920.825 2297.605,921.215 2297.605,922.138 L2297.605,922.593 C2294.355,922.892 2293.003,923.646 2293.003,925.271 C2293.003,926.48 2293.913,927.143 2295.148,927.143 C2296.162,927.143 2296.994,926.675 2297.67,926.077 L2297.839,927 L2298.567,927 Z M2305.704,925.128 C2305.704,923.906 2304.885,923.386 2303.195,922.957 C2301.973,922.645 2301.583,922.359 2301.583,921.8 C2301.583,921.228 2302.051,920.812 2303.039,920.812 C2303.754,920.812 2304.482,921.02 2305.119,921.358 L2305.275,920.435 C2304.664,920.149 2303.91,919.967 2303.078,919.967 C2301.596,919.967 2300.647,920.76 2300.647,921.826 C2300.647,922.97 2301.336,923.464 2302.909,923.867 C2304.352,924.218 2304.768,924.53 2304.768,925.206 C2304.768,925.908 2304.144,926.298 2303.13,926.298 C2302.181,926.298 2301.31,925.973 2300.634,925.57 L2300.478,926.493 C2301.102,926.831 2302.09,927.13 2303.039,927.13 C2304.677,927.13 2305.704,926.389 2305.704,925.128 L2305.704,925.128 Z M2313.179,926.168 L2313.036,925.297 C2312.308,925.895 2311.463,926.311 2310.527,926.311 C2309.071,926.311 2308.252,925.323 2308.226,923.62 L2313.192,923.62 L2313.192,923.412 C2313.192,921.501 2312.243,919.967 2310.306,919.967 C2308.538,919.967 2307.238,921.345 2307.238,923.542 C2307.238,925.921 2308.59,927.143 2310.462,927.143 C2311.554,927.143 2312.477,926.753 2313.179,926.168 L2313.179,926.168 Z M2310.293,920.734 C2311.463,920.734 2312.113,921.618 2312.204,922.866 L2308.265,922.866 C2308.447,921.488 2309.227,920.734 2310.293,920.734 L2310.293,920.734 Z M2324.125,926.168 L2323.982,925.297 C2323.254,925.895 2322.409,926.311 2321.473,926.311 C2320.017,926.311 2319.198,925.323 2319.172,923.62 L2324.138,923.62 L2324.138,923.412 C2324.138,921.501 2323.189,919.967 2321.252,919.967 C2319.484,919.967 2318.184,921.345 2318.184,923.542 C2318.184,925.921 2319.536,927.143 2321.408,927.143 C2322.5,927.143 2323.423,926.753 2324.125,926.168 L2324.125,926.168 Z M2321.239,920.734 C2322.409,920.734 2323.059,921.618 2323.15,922.866 L2319.211,922.866 C2319.393,921.488 2320.173,920.734 2321.239,920.734 L2321.239,920.734 Z M2331.795,927 L2331.795,922.073 C2331.795,920.76 2331.08,919.967 2329.65,919.967 C2328.675,919.967 2327.869,920.461 2327.076,921.124 L2326.907,920.11 L2326.166,920.11 L2326.166,927 L2327.128,927 L2327.128,922.021 C2327.921,921.28 2328.701,920.838 2329.468,920.838 C2330.391,920.838 2330.82,921.371 2330.82,922.255 L2330.82,927 L2331.795,927 Z M2337.359,927 L2337.229,926.194 C2337.06,926.233 2336.787,926.259 2336.553,926.259 C2335.773,926.259 2335.474,925.96 2335.474,925.258 L2335.474,920.929 L2337.268,920.929 L2337.151,920.11 L2335.474,920.11 L2335.474,917.562 L2334.525,917.731 L2334.525,920.11 L2333.42,920.11 L2333.42,920.929 L2334.525,920.929 L2334.525,925.427 C2334.525,926.701 2335.253,927.117 2336.371,927.117 C2336.8,927.117 2337.164,927.052 2337.359,927 L2337.359,927 Z M2344.756,926.168 L2344.613,925.297 C2343.885,925.895 2343.04,926.311 2342.104,926.311 C2340.648,926.311 2339.829,925.323 2339.803,923.62 L2344.769,923.62 L2344.769,923.412 C2344.769,921.501 2343.82,919.967 2341.883,919.967 C2340.115,919.967 2338.815,921.345 2338.815,923.542 C2338.815,925.921 2340.167,927.143 2342.039,927.143 C2343.131,927.143 2344.054,926.753 2344.756,926.168 L2344.756,926.168 Z M2341.87,920.734 C2343.04,920.734 2343.69,921.618 2343.781,922.866 L2339.842,922.866 C2340.024,921.488 2340.804,920.734 2341.87,920.734 L2341.87,920.734 Z M2350.437,920.877 L2350.281,919.967 C2349.098,919.993 2348.266,920.747 2347.733,921.527 L2347.499,920.11 L2346.797,920.11 L2346.797,927 L2347.759,927 L2347.759,922.684 C2348.24,921.761 2349.254,920.942 2350.437,920.877 L2350.437,920.877 Z M2359.641,925.284 C2358.939,925.921 2358.081,926.324 2357.314,926.324 C2356.56,926.324 2356.014,925.934 2356.014,925.206 C2356.014,924.27 2356.82,923.633 2359.641,923.347 L2359.641,925.284 Z M2360.603,927 L2360.603,922.086 C2360.603,920.669 2359.797,919.967 2358.224,919.967 C2357.21,919.967 2356.391,920.214 2355.559,920.565 L2355.689,921.423 C2356.482,921.059 2357.314,920.825 2358.146,920.825 C2359.069,920.825 2359.641,921.215 2359.641,922.138 L2359.641,922.593 C2356.391,922.892 2355.039,923.646 2355.039,925.271 C2355.039,926.48 2355.949,927.143 2357.184,927.143 C2358.198,927.143 2359.03,926.675 2359.706,926.077 L2359.875,927 L2360.603,927 Z M2371.887,920.11 L2370.886,920.11 L2368.806,925.869 L2366.687,920.019 L2365.712,920.201 L2368.325,927.065 L2369.248,927.065 L2371.887,920.11 Z M2377.776,925.284 C2377.074,925.921 2376.216,926.324 2375.449,926.324 C2374.695,926.324 2374.149,925.934 2374.149,925.206 C2374.149,924.27 2374.955,923.633 2377.776,923.347 L2377.776,925.284 Z M2378.738,927 L2378.738,922.086 C2378.738,920.669 2377.932,919.967 2376.359,919.967 C2375.345,919.967 2374.526,920.214 2373.694,920.565 L2373.824,921.423 C2374.617,921.059 2375.449,920.825 2376.281,920.825 C2377.204,920.825 2377.776,921.215 2377.776,922.138 L2377.776,922.593 C2374.526,922.892 2373.174,923.646 2373.174,925.271 C2373.174,926.48 2374.084,927.143 2375.319,927.143 C2376.333,927.143 2377.165,926.675 2377.841,926.077 L2378.01,927 L2378.738,927 Z M2382.209,927 L2382.209,916.548 L2381.247,916.717 L2381.247,927 L2382.209,927 Z M2386.057,917.77 C2386.057,917.393 2385.745,917.081 2385.355,917.081 C2384.965,917.081 2384.64,917.393 2384.64,917.77 C2384.64,918.147 2384.965,918.472 2385.355,918.472 C2385.745,918.472 2386.057,918.147 2386.057,917.77 L2386.057,917.77 Z M2385.836,927 L2385.836,920.11 L2384.874,920.11 L2384.874,927 L2385.836,927 Z M2393.103,925.037 C2392.453,925.791 2391.79,926.272 2390.945,926.272 C2389.801,926.272 2388.956,925.375 2388.956,923.711 C2388.956,921.774 2389.97,920.838 2391.257,920.838 C2391.998,920.838 2392.544,920.981 2393.103,921.254 L2393.103,925.037 Z M2394.078,927 L2394.078,916.548 L2393.103,916.717 L2393.103,920.357 C2392.583,920.149 2391.959,920.019 2391.231,920.019 C2389.502,920.019 2387.968,921.241 2387.968,923.75 C2387.968,926.064 2389.294,927.143 2390.854,927.143 C2391.894,927.143 2392.609,926.623 2393.155,925.999 L2393.337,927 L2394.078,927 Z M2405.44,926.168 L2405.297,925.297 C2404.569,925.895 2403.724,926.311 2402.788,926.311 C2401.332,926.311 2400.513,925.323 2400.487,923.62 L2405.453,923.62 L2405.453,923.412 C2405.453,921.501 2404.504,919.967 2402.567,919.967 C2400.799,919.967 2399.499,921.345 2399.499,923.542 C2399.499,925.921 2400.851,927.143 2402.723,927.143 C2403.815,927.143 2404.738,926.753 2405.44,926.168 L2405.44,926.168 Z M2402.554,920.734 C2403.724,920.734 2404.374,921.618 2404.465,922.866 L2400.526,922.866 C2400.708,921.488 2401.488,920.734 2402.554,920.734 L2402.554,920.734 Z M2417.595,927 L2417.595,922.06 C2417.595,920.747 2416.932,919.967 2415.502,919.967 C2414.514,919.967 2413.682,920.474 2412.889,921.163 C2412.629,920.396 2412.018,919.967 2410.926,919.967 C2409.964,919.967 2409.171,920.461 2408.391,921.111 L2408.222,920.11 L2407.481,920.11 L2407.481,927 L2408.443,927 L2408.443,921.995 C2409.236,921.28 2409.99,920.838 2410.731,920.838 C2411.667,920.838 2412.057,921.371 2412.057,922.255 L2412.057,927 L2413.019,927 L2413.019,922.008 C2413.812,921.28 2414.566,920.838 2415.307,920.838 C2416.23,920.838 2416.62,921.371 2416.62,922.255 L2416.62,927 L2417.595,927 Z M2424.121,925.284 C2423.419,925.921 2422.561,926.324 2421.794,926.324 C2421.04,926.324 2420.494,925.934 2420.494,925.206 C2420.494,924.27 2421.3,923.633 2424.121,923.347 L2424.121,925.284 Z M2425.083,927 L2425.083,922.086 C2425.083,920.669 2424.277,919.967 2422.704,919.967 C2421.69,919.967 2420.871,920.214 2420.039,920.565 L2420.169,921.423 C2420.962,921.059 2421.794,920.825 2422.626,920.825 C2423.549,920.825 2424.121,921.215 2424.121,922.138 L2424.121,922.593 C2420.871,922.892 2419.519,923.646 2419.519,925.271 C2419.519,926.48 2420.429,927.143 2421.664,927.143 C2422.678,927.143 2423.51,926.675 2424.186,926.077 L2424.355,927 L2425.083,927 Z M2428.775,917.77 C2428.775,917.393 2428.463,917.081 2428.073,917.081 C2427.683,917.081 2427.358,917.393 2427.358,917.77 C2427.358,918.147 2427.683,918.472 2428.073,918.472 C2428.463,918.472 2428.775,918.147 2428.775,917.77 L2428.775,917.77 Z M2428.554,927 L2428.554,920.11 L2427.592,920.11 L2427.592,927 L2428.554,927 Z M2432.181,927 L2432.181,916.548 L2431.219,916.717 L2431.219,927 L2432.181,927 Z M2442.295,925.284 C2441.593,925.921 2440.735,926.324 2439.968,926.324 C2439.214,926.324 2438.668,925.934 2438.668,925.206 C2438.668,924.27 2439.474,923.633 2442.295,923.347 L2442.295,925.284 Z M2443.257,927 L2443.257,922.086 C2443.257,920.669 2442.451,919.967 2440.878,919.967 C2439.864,919.967 2439.045,920.214 2438.213,920.565 L2438.343,921.423 C2439.136,921.059 2439.968,920.825 2440.8,920.825 C2441.723,920.825 2442.295,921.215 2442.295,922.138 L2442.295,922.593 C2439.045,922.892 2437.693,923.646 2437.693,925.271 C2437.693,926.48 2438.603,927.143 2439.838,927.143 C2440.852,927.143 2441.684,926.675 2442.36,926.077 L2442.529,927 L2443.257,927 Z M2450.368,925.037 C2449.718,925.791 2449.055,926.272 2448.21,926.272 C2447.066,926.272 2446.221,925.375 2446.221,923.711 C2446.221,921.774 2447.235,920.838 2448.522,920.838 C2449.263,920.838 2449.809,920.981 2450.368,921.254 L2450.368,925.037 Z M2451.343,927 L2451.343,916.548 L2450.368,916.717 L2450.368,920.357 C2449.848,920.149 2449.224,920.019 2448.496,920.019 C2446.767,920.019 2445.233,921.241 2445.233,923.75 C2445.233,926.064 2446.559,927.143 2448.119,927.143 C2449.159,927.143 2449.874,926.623 2450.42,925.999 L2450.602,927 L2451.343,927 Z M2458.506,925.037 C2457.856,925.791 2457.193,926.272 2456.348,926.272 C2455.204,926.272 2454.359,925.375 2454.359,923.711 C2454.359,921.774 2455.373,920.838 2456.66,920.838 C2457.401,920.838 2457.947,920.981 2458.506,921.254 L2458.506,925.037 Z M2459.481,927 L2459.481,916.548 L2458.506,916.717 L2458.506,920.357 C2457.986,920.149 2457.362,920.019 2456.634,920.019 C2454.905,920.019 2453.371,921.241 2453.371,923.75 C2453.371,926.064 2454.697,927.143 2456.257,927.143 C2457.297,927.143 2458.012,926.623 2458.558,925.999 L2458.74,927 L2459.481,927 Z M2465.578,920.877 L2465.422,919.967 C2464.239,919.993 2463.407,920.747 2462.874,921.527 L2462.64,920.11 L2461.938,920.11 L2461.938,927 L2462.9,927 L2462.9,922.684 C2463.381,921.761 2464.395,920.942 2465.578,920.877 L2465.578,920.877 Z M2472.715,926.168 L2472.572,925.297 C2471.844,925.895 2470.999,926.311 2470.063,926.311 C2468.607,926.311 2467.788,925.323 2467.762,923.62 L2472.728,923.62 L2472.728,923.412 C2472.728,921.501 2471.779,919.967 2469.842,919.967 C2468.074,919.967 2466.774,921.345 2466.774,923.542 C2466.774,925.921 2468.126,927.143 2469.998,927.143 C2471.09,927.143 2472.013,926.753 2472.715,926.168 L2472.715,926.168 Z M2469.829,920.734 C2470.999,920.734 2471.649,921.618 2471.74,922.866 L2467.801,922.866 C2467.983,921.488 2468.763,920.734 2469.829,920.734 L2469.829,920.734 Z M2479.488,925.128 C2479.488,923.906 2478.669,923.386 2476.979,922.957 C2475.757,922.645 2475.367,922.359 2475.367,921.8 C2475.367,921.228 2475.835,920.812 2476.823,920.812 C2477.538,920.812 2478.266,921.02 2478.903,921.358 L2479.059,920.435 C2478.448,920.149 2477.694,919.967 2476.862,919.967 C2475.38,919.967 2474.431,920.76 2474.431,921.826 C2474.431,922.97 2475.12,923.464 2476.693,923.867 C2478.136,924.218 2478.552,924.53 2478.552,925.206 C2478.552,925.908 2477.928,926.298 2476.914,926.298 C2475.965,926.298 2475.094,925.973 2474.418,925.57 L2474.262,926.493 C2474.886,926.831 2475.874,927.13 2476.823,927.13 C2478.461,927.13 2479.488,926.389 2479.488,925.128 L2479.488,925.128 Z M2486.209,925.128 C2486.209,923.906 2485.39,923.386 2483.7,922.957 C2482.478,922.645 2482.088,922.359 2482.088,921.8 C2482.088,921.228 2482.556,920.812 2483.544,920.812 C2484.259,920.812 2484.987,921.02 2485.624,921.358 L2485.78,920.435 C2485.169,920.149 2484.415,919.967 2483.583,919.967 C2482.101,919.967 2481.152,920.76 2481.152,921.826 C2481.152,922.97 2481.841,923.464 2483.414,923.867 C2484.857,924.218 2485.273,924.53 2485.273,925.206 C2485.273,925.908 2484.649,926.298 2483.635,926.298 C2482.686,926.298 2481.815,925.973 2481.139,925.57 L2480.983,926.493 C2481.607,926.831 2482.595,927.13 2483.544,927.13 C2485.182,927.13 2486.209,926.389 2486.209,925.128 L2486.209,925.128 Z M2268.667,946.255 L2268.433,944.747 L2267.016,944.513 L2265.599,944.747 L2265.352,946.255 L2265.599,947.763 L2267.016,948.01 L2268.433,947.763 L2268.667,946.255 Z M2280.432,944.24 C2280.432,942.537 2279.21,941.575 2277.208,941.575 L2274.803,941.575 L2274.803,951 L2275.778,951 L2275.778,947.048 L2276.987,947.048 C2279.002,947.048 2280.432,946.099 2280.432,944.24 L2280.432,944.24 Z M2279.431,944.279 C2279.431,945.553 2278.534,946.177 2277.039,946.177 L2275.778,946.177 L2275.778,942.446 L2277.156,942.446 C2278.638,942.446 2279.431,943.07 2279.431,944.279 L2279.431,944.279 Z M2286.451,949.284 C2285.749,949.921 2284.891,950.324 2284.124,950.324 C2283.37,950.324 2282.824,949.934 2282.824,949.206 C2282.824,948.27 2283.63,947.633 2286.451,947.347 L2286.451,949.284 Z M2287.413,951 L2287.413,946.086 C2287.413,944.669 2286.607,943.967 2285.034,943.967 C2284.02,943.967 2283.201,944.214 2282.369,944.565 L2282.499,945.423 C2283.292,945.059 2284.124,944.825 2284.956,944.825 C2285.879,944.825 2286.451,945.215 2286.451,946.138 L2286.451,946.593 C2283.201,946.892 2281.849,947.646 2281.849,949.271 C2281.849,950.48 2282.759,951.143 2283.994,951.143 C2285.008,951.143 2285.84,950.675 2286.516,950.077 L2286.685,951 L2287.413,951 Z M2294.55,949.128 C2294.55,947.906 2293.731,947.386 2292.041,946.957 C2290.819,946.645 2290.429,946.359 2290.429,945.8 C2290.429,945.228 2290.897,944.812 2291.885,944.812 C2292.6,944.812 2293.328,945.02 2293.965,945.358 L2294.121,944.435 C2293.51,944.149 2292.756,943.967 2291.924,943.967 C2290.442,943.967 2289.493,944.76 2289.493,945.826 C2289.493,946.97 2290.182,947.464 2291.755,947.867 C2293.198,948.218 2293.614,948.53 2293.614,949.206 C2293.614,949.908 2292.99,950.298 2291.976,950.298 C2291.027,950.298 2290.156,949.973 2289.48,949.57 L2289.324,950.493 C2289.948,950.831 2290.936,951.13 2291.885,951.13 C2293.523,951.13 2294.55,950.389 2294.55,949.128 L2294.55,949.128 Z M2301.271,949.128 C2301.271,947.906 2300.452,947.386 2298.762,946.957 C2297.54,946.645 2297.15,946.359 2297.15,945.8 C2297.15,945.228 2297.618,944.812 2298.606,944.812 C2299.321,944.812 2300.049,945.02 2300.686,945.358 L2300.842,944.435 C2300.231,944.149 2299.477,943.967 2298.645,943.967 C2297.163,943.967 2296.214,944.76 2296.214,945.826 C2296.214,946.97 2296.903,947.464 2298.476,947.867 C2299.919,948.218 2300.335,948.53 2300.335,949.206 C2300.335,949.908 2299.711,950.298 2298.697,950.298 C2297.748,950.298 2296.877,949.973 2296.201,949.57 L2296.045,950.493 C2296.669,950.831 2297.657,951.13 2298.606,951.13 C2300.244,951.13 2301.271,950.389 2301.271,949.128 L2301.271,949.128 Z M2312.607,944.11 L2311.632,944.11 L2309.838,949.765 L2308.031,944.084 L2307.186,944.084 L2305.379,949.765 L2303.507,944.006 L2302.558,944.175 L2304.95,951.052 L2305.782,951.052 L2307.576,945.423 L2309.383,951.052 L2310.228,951.052 L2312.607,944.11 Z M2320.381,947.555 C2320.381,945.28 2318.99,943.967 2317.144,943.967 C2315.337,943.967 2313.933,945.28 2313.933,947.555 C2313.933,949.83 2315.311,951.143 2317.144,951.143 C2318.964,951.143 2320.381,949.83 2320.381,947.555 L2320.381,947.555 Z M2319.393,947.555 C2319.393,949.284 2318.496,950.324 2317.144,950.324 C2315.831,950.324 2314.934,949.232 2314.934,947.555 C2314.934,945.839 2315.805,944.786 2317.144,944.786 C2318.483,944.786 2319.393,945.878 2319.393,947.555 L2319.393,947.555 Z M2326.036,944.877 L2325.88,943.967 C2324.697,943.993 2323.865,944.747 2323.332,945.527 L2323.098,944.11 L2322.396,944.11 L2322.396,951 L2323.358,951 L2323.358,946.684 C2323.839,945.761 2324.853,944.942 2326.036,944.877 L2326.036,944.877 Z M2332.393,949.037 C2331.743,949.791 2331.08,950.272 2330.235,950.272 C2329.091,950.272 2328.246,949.375 2328.246,947.711 C2328.246,945.774 2329.26,944.838 2330.547,944.838 C2331.288,944.838 2331.834,944.981 2332.393,945.254 L2332.393,949.037 Z M2333.368,951 L2333.368,940.548 L2332.393,940.717 L2332.393,944.357 C2331.873,944.149 2331.249,944.019 2330.521,944.019 C2328.792,944.019 2327.258,945.241 2327.258,947.75 C2327.258,950.064 2328.584,951.143 2330.144,951.143 C2331.184,951.143 2331.899,950.623 2332.445,949.999 L2332.627,951 L2333.368,951 Z M2340.557,949.128 C2340.557,947.906 2339.738,947.386 2338.048,946.957 C2336.826,946.645 2336.436,946.359 2336.436,945.8 C2336.436,945.228 2336.904,944.812 2337.892,944.812 C2338.607,944.812 2339.335,945.02 2339.972,945.358 L2340.128,944.435 C2339.517,944.149 2338.763,943.967 2337.931,943.967 C2336.449,943.967 2335.5,944.76 2335.5,945.826 C2335.5,946.97 2336.189,947.464 2337.762,947.867 C2339.205,948.218 2339.621,948.53 2339.621,949.206 C2339.621,949.908 2338.997,950.298 2337.983,950.298 C2337.034,950.298 2336.163,949.973 2335.487,949.57 L2335.331,950.493 C2335.955,950.831 2336.943,951.13 2337.892,951.13 C2339.53,951.13 2340.557,950.389 2340.557,949.128 L2340.557,949.128 Z M2356.079,951 L2356.079,946.06 C2356.079,944.747 2355.416,943.967 2353.986,943.967 C2352.998,943.967 2352.166,944.474 2351.373,945.163 C2351.113,944.396 2350.502,943.967 2349.41,943.967 C2348.448,943.967 2347.655,944.461 2346.875,945.111 L2346.706,944.11 L2345.965,944.11 L2345.965,951 L2346.927,951 L2346.927,945.995 C2347.72,945.28 2348.474,944.838 2349.215,944.838 C2350.151,944.838 2350.541,945.371 2350.541,946.255 L2350.541,951 L2351.503,951 L2351.503,946.008 C2352.296,945.28 2353.05,944.838 2353.791,944.838 C2354.714,944.838 2355.104,945.371 2355.104,946.255 L2355.104,951 L2356.079,951 Z M2364.022,951 L2364.022,944.11 L2363.06,944.11 L2363.06,949.089 C2362.267,949.83 2361.487,950.272 2360.72,950.272 C2359.797,950.272 2359.368,949.739 2359.368,948.855 L2359.368,944.11 L2358.393,944.11 L2358.393,949.037 C2358.393,950.35 2359.108,951.143 2360.538,951.143 C2361.5,951.143 2362.319,950.649 2363.112,949.986 L2363.281,951 L2364.022,951 Z M2371.224,949.128 C2371.224,947.906 2370.405,947.386 2368.715,946.957 C2367.493,946.645 2367.103,946.359 2367.103,945.8 C2367.103,945.228 2367.571,944.812 2368.559,944.812 C2369.274,944.812 2370.002,945.02 2370.639,945.358 L2370.795,944.435 C2370.184,944.149 2369.43,943.967 2368.598,943.967 C2367.116,943.967 2366.167,944.76 2366.167,945.826 C2366.167,946.97 2366.856,947.464 2368.429,947.867 C2369.872,948.218 2370.288,948.53 2370.288,949.206 C2370.288,949.908 2369.664,950.298 2368.65,950.298 C2367.701,950.298 2366.83,949.973 2366.154,949.57 L2365.998,950.493 C2366.622,950.831 2367.61,951.13 2368.559,951.13 C2370.197,951.13 2371.224,950.389 2371.224,949.128 L2371.224,949.128 Z M2376.385,951 L2376.255,950.194 C2376.086,950.233 2375.813,950.259 2375.579,950.259 C2374.799,950.259 2374.5,949.96 2374.5,949.258 L2374.5,944.929 L2376.294,944.929 L2376.177,944.11 L2374.5,944.11 L2374.5,941.562 L2373.551,941.731 L2373.551,944.11 L2372.446,944.11 L2372.446,944.929 L2373.551,944.929 L2373.551,949.427 C2373.551,950.701 2374.279,951.117 2375.397,951.117 C2375.826,951.117 2376.19,951.052 2376.385,951 L2376.385,951 Z M2391.829,951 L2391.829,946.06 C2391.829,944.747 2391.166,943.967 2389.736,943.967 C2388.748,943.967 2387.916,944.474 2387.123,945.163 C2386.863,944.396 2386.252,943.967 2385.16,943.967 C2384.198,943.967 2383.405,944.461 2382.625,945.111 L2382.456,944.11 L2381.715,944.11 L2381.715,951 L2382.677,951 L2382.677,945.995 C2383.47,945.28 2384.224,944.838 2384.965,944.838 C2385.901,944.838 2386.291,945.371 2386.291,946.255 L2386.291,951 L2387.253,951 L2387.253,946.008 C2388.046,945.28 2388.8,944.838 2389.541,944.838 C2390.464,944.838 2390.854,945.371 2390.854,946.255 L2390.854,951 L2391.829,951 Z M2398.355,949.284 C2397.653,949.921 2396.795,950.324 2396.028,950.324 C2395.274,950.324 2394.728,949.934 2394.728,949.206 C2394.728,948.27 2395.534,947.633 2398.355,947.347 L2398.355,949.284 Z M2399.317,951 L2399.317,946.086 C2399.317,944.669 2398.511,943.967 2396.938,943.967 C2395.924,943.967 2395.105,944.214 2394.273,944.565 L2394.403,945.423 C2395.196,945.059 2396.028,944.825 2396.86,944.825 C2397.783,944.825 2398.355,945.215 2398.355,946.138 L2398.355,946.593 C2395.105,946.892 2393.753,947.646 2393.753,949.271 C2393.753,950.48 2394.663,951.143 2395.898,951.143 C2396.912,951.143 2397.744,950.675 2398.42,950.077 L2398.589,951 L2399.317,951 Z M2404.894,951 L2404.764,950.194 C2404.595,950.233 2404.322,950.259 2404.088,950.259 C2403.308,950.259 2403.009,949.96 2403.009,949.258 L2403.009,944.929 L2404.803,944.929 L2404.686,944.11 L2403.009,944.11 L2403.009,941.562 L2402.06,941.731 L2402.06,944.11 L2400.955,944.11 L2400.955,944.929 L2402.06,944.929 L2402.06,949.427 C2402.06,950.701 2402.788,951.117 2403.906,951.117 C2404.335,951.117 2404.699,951.052 2404.894,951 L2404.894,951 Z M2412.005,950.363 L2411.875,949.479 C2411.134,950.077 2410.432,950.298 2409.678,950.298 C2408.313,950.298 2407.351,949.284 2407.351,947.555 C2407.351,945.787 2408.3,944.812 2409.626,944.812 C2410.445,944.812 2411.108,945.098 2411.784,945.631 L2411.94,944.669 C2411.381,944.266 2410.601,943.967 2409.639,943.967 C2407.806,943.967 2406.35,945.241 2406.35,947.555 C2406.35,949.843 2407.754,951.143 2409.587,951.143 C2410.562,951.143 2411.342,950.87 2412.005,950.363 L2412.005,950.363 Z M2419.584,951 L2419.584,946.06 C2419.584,944.747 2418.869,943.967 2417.439,943.967 C2416.464,943.967 2415.671,944.461 2414.917,945.085 L2414.917,940.548 L2413.955,940.717 L2413.955,951 L2414.917,951 L2414.917,946.021 C2415.71,945.28 2416.49,944.838 2417.257,944.838 C2418.18,944.838 2418.609,945.371 2418.609,946.255 L2418.609,951 L2419.584,951 Z M2268.667,970.255 L2268.433,968.747 L2267.016,968.513 L2265.599,968.747 L2265.352,970.255 L2265.599,971.763 L2267.016,972.01 L2268.433,971.763 L2268.667,970.255 Z M2274.036,975 L2275.063,975 L2276.259,971.984 L2280.523,971.984 L2281.784,975.091 L2282.759,974.883 L2278.911,965.536 L2277.897,965.536 L2274.036,975 Z M2278.391,966.667 L2280.172,971.113 L2276.597,971.113 L2278.391,966.667 Z M2290.221,975 L2290.221,970.073 C2290.221,968.76 2289.506,967.967 2288.076,967.967 C2287.101,967.967 2286.295,968.461 2285.502,969.124 L2285.333,968.11 L2284.592,968.11 L2284.592,975 L2285.554,975 L2285.554,970.021 C2286.347,969.28 2287.127,968.838 2287.894,968.838 C2288.817,968.838 2289.246,969.371 2289.246,970.255 L2289.246,975 L2290.221,975 Z M2297.319,973.037 C2296.669,973.791 2296.006,974.272 2295.161,974.272 C2294.017,974.272 2293.172,973.375 2293.172,971.711 C2293.172,969.774 2294.186,968.838 2295.473,968.838 C2296.214,968.838 2296.76,968.981 2297.319,969.254 L2297.319,973.037 Z M2298.294,975 L2298.294,964.548 L2297.319,964.717 L2297.319,968.357 C2296.799,968.149 2296.175,968.019 2295.447,968.019 C2293.718,968.019 2292.184,969.241 2292.184,971.75 C2292.184,974.064 2293.51,975.143 2295.07,975.143 C2296.11,975.143 2296.825,974.623 2297.371,973.999 L2297.553,975 L2298.294,975 Z M2308.902,973.128 C2308.902,971.906 2308.083,971.386 2306.393,970.957 C2305.171,970.645 2304.781,970.359 2304.781,969.8 C2304.781,969.228 2305.249,968.812 2306.237,968.812 C2306.952,968.812 2307.68,969.02 2308.317,969.358 L2308.473,968.435 C2307.862,968.149 2307.108,967.967 2306.276,967.967 C2304.794,967.967 2303.845,968.76 2303.845,969.826 C2303.845,970.97 2304.534,971.464 2306.107,971.867 C2307.55,972.218 2307.966,972.53 2307.966,973.206 C2307.966,973.908 2307.342,974.298 2306.328,974.298 C2305.379,974.298 2304.508,973.973 2303.832,973.57 L2303.676,974.493 C2304.3,974.831 2305.288,975.13 2306.237,975.13 C2307.875,975.13 2308.902,974.389 2308.902,973.128 L2308.902,973.128 Z M2316.884,971.555 C2316.884,969.28 2315.493,967.967 2313.647,967.967 C2311.84,967.967 2310.436,969.28 2310.436,971.555 C2310.436,973.83 2311.814,975.143 2313.647,975.143 C2315.467,975.143 2316.884,973.83 2316.884,971.555 L2316.884,971.555 Z M2315.896,971.555 C2315.896,973.284 2314.999,974.324 2313.647,974.324 C2312.334,974.324 2311.437,973.232 2311.437,971.555 C2311.437,969.839 2312.308,968.786 2313.647,968.786 C2314.986,968.786 2315.896,969.878 2315.896,971.555 L2315.896,971.555 Z M2328.311,971.555 C2328.311,969.28 2326.92,967.967 2325.074,967.967 C2323.267,967.967 2321.863,969.28 2321.863,971.555 C2321.863,973.83 2323.241,975.143 2325.074,975.143 C2326.894,975.143 2328.311,973.83 2328.311,971.555 L2328.311,971.555 Z M2327.323,971.555 C2327.323,973.284 2326.426,974.324 2325.074,974.324 C2323.761,974.324 2322.864,973.232 2322.864,971.555 C2322.864,969.839 2323.735,968.786 2325.074,968.786 C2326.413,968.786 2327.323,969.878 2327.323,971.555 L2327.323,971.555 Z M2335.955,975 L2335.955,970.073 C2335.955,968.76 2335.24,967.967 2333.81,967.967 C2332.835,967.967 2332.029,968.461 2331.236,969.124 L2331.067,968.11 L2330.326,968.11 L2330.326,975 L2331.288,975 L2331.288,970.021 C2332.081,969.28 2332.861,968.838 2333.628,968.838 C2334.551,968.838 2334.98,969.371 2334.98,970.255 L2334.98,975 L2335.955,975 Z M2339.387,975 L2339.387,973.57 L2338.243,973.57 L2338.243,975 L2339.387,975 Z M2342.793,975 L2342.793,973.57 L2341.649,973.57 L2341.649,975 L2342.793,975 Z M2346.199,975 L2346.199,973.57 L2345.055,973.57 L2345.055,975 L2346.199,975 Z" id="-Please-enter-a-val-Copy" stroke="none" fill="#303030" fill-rule="evenodd"></path>
</svg>
