
<svg width="768px" height="465px" viewBox="0 0 768 465" version="1.1" xmlns="http://www.w3.org/2000/svg" xmlns:xlink="http://www.w3.org/1999/xlink">
    <!-- Generator: Sketch 40.3 (33839) - http://www.bohemiancoding.com/sketch -->
    <desc>Created with Sketch.</desc>
    <defs></defs>
    <rect id="Rectangle-2" stroke="none" fill="#FFFFFF" fill-rule="evenodd" x="0" y="0" width="768" height="464"></rect>
    <rect id="Rectangle-Copy-2" stroke="none" fill="#B2DFDB" fill-rule="evenodd" x="8" y="16" width="48" height="48"></rect>
    <rect id="Rectangle-Copy-16" stroke="none" fill="#00BCD4" fill-rule="evenodd" x="8" y="80" width="112" height="48"></rect>
    <rect id="Rectangle-Copy-22" stroke="none" fill="#00BCD4" fill-rule="evenodd" x="8" y="144" width="176" height="48"></rect>
    <rect id="Rectangle-Copy-26" stroke="none" fill="#00BCD4" fill-rule="evenodd" x="8" y="208" width="240" height="48"></rect>
    <rect id="Rectangle-Copy-29" stroke="none" fill="#00BCD4" fill-rule="evenodd" x="8" y="272" width="368" height="48"></rect>
    <rect id="Rectangle-Copy-31" stroke="none" fill="#00BCD4" fill-rule="evenodd" x="8" y="336" width="752" height="48"></rect>
    <rect id="Rectangle-Copy-28" stroke="none" fill="#F23C79" fill-rule="evenodd" x="8" y="400" width="240" height="48"></rect>
    <rect id="Rectangle-Copy-32" stroke="none" fill="#F23C79" fill-rule="evenodd" x="264" y="400" width="240" height="48"></rect>
    <text id="1-3-MD" stroke="none" fill="none" font-family="Courier" font-size="16" font-weight="normal">
        <tspan x="99.1953125" y="428" fill="#FFFFFF">1-3 MD</tspan>
    </text>
    <text id="1-3-MD" stroke="none" fill="none" font-family="Courier" font-size="16" font-weight="normal">
        <tspan x="355.195312" y="428" fill="#FFFFFF">1-3 MD</tspan>
    </text>
    <rect id="Rectangle-Copy-30" stroke="none" fill="#00BCD4" fill-rule="evenodd" x="392" y="272" width="368" height="48"></rect>
    <rect id="Rectangle-Copy-27" stroke="none" fill="#00BCD4" fill-rule="evenodd" x="264" y="208" width="240" height="48"></rect>
    <rect id="Rectangle-Copy-28" stroke="none" fill="#00BCD4" fill-rule="evenodd" x="520" y="208" width="240" height="48"></rect>
    <rect id="Rectangle-Copy-23" stroke="none" fill="#00BCD4" fill-rule="evenodd" x="200" y="144" width="176" height="48"></rect>
    <rect id="Rectangle-Copy-24" stroke="none" fill="#00BCD4" fill-rule="evenodd" x="392" y="144" width="176" height="48"></rect>
    <rect id="Rectangle-Copy-25" stroke="none" fill="#00BCD4" fill-rule="evenodd" x="584" y="144" width="176" height="48"></rect>
    <rect id="Rectangle-Copy-17" stroke="none" fill="#00BCD4" fill-rule="evenodd" x="136" y="80" width="112" height="48"></rect>
    <rect id="Rectangle-Copy-18" stroke="none" fill="#00BCD4" fill-rule="evenodd" x="264" y="80" width="112" height="48"></rect>
    <rect id="Rectangle-Copy-19" stroke="none" fill="#00BCD4" fill-rule="evenodd" x="392" y="80" width="112" height="48"></rect>
    <rect id="Rectangle-Copy-20" stroke="none" fill="#00BCD4" fill-rule="evenodd" x="520" y="80" width="112" height="48"></rect>
    <rect id="Rectangle-Copy-21" stroke="none" fill="#00BCD4" fill-rule="evenodd" x="648" y="80" width="112" height="48"></rect>
    <rect id="Rectangle-Copy-3" stroke="none" fill="#B2DFDB" fill-rule="evenodd" x="72" y="16" width="48" height="48"></rect>
    <rect id="Rectangle-Copy-4" stroke="none" fill="#B2DFDB" fill-rule="evenodd" x="136" y="16" width="48" height="48"></rect>
    <rect id="Rectangle-Copy-5" stroke="none" fill="#B2DFDB" fill-rule="evenodd" x="200" y="16" width="48" height="48"></rect>
    <rect id="Rectangle-Copy-6" stroke="none" fill="#B2DFDB" fill-rule="evenodd" x="264" y="16" width="48" height="48"></rect>
    <rect id="Rectangle-Copy-7" stroke="none" fill="#B2DFDB" fill-rule="evenodd" x="328" y="16" width="48" height="48"></rect>
    <rect id="Rectangle-Copy-8" stroke="none" fill="#B2DFDB" fill-rule="evenodd" x="392" y="16" width="48" height="48"></rect>
    <rect id="Rectangle-Copy-9" stroke="none" fill="#B2DFDB" fill-rule="evenodd" x="456" y="16" width="48" height="48"></rect>
    <rect id="Rectangle-Copy-10" stroke="none" fill="#B2DFDB" fill-rule="evenodd" x="520" y="16" width="48" height="48"></rect>
    <rect id="Rectangle-Copy-13" stroke="none" fill="#B2DFDB" fill-rule="evenodd" x="584" y="16" width="48" height="48"></rect>
    <rect id="Rectangle-Copy-14" stroke="none" fill="#B2DFDB" fill-rule="evenodd" x="648" y="16" width="48" height="48"></rect>
    <rect id="Rectangle-Copy-15" stroke="none" fill="#B2DFDB" fill-rule="evenodd" x="712" y="16" width="48" height="48"></rect>
</svg>
