
<svg width="320px" height="465px" viewBox="0 0 320 465" version="1.1" xmlns="http://www.w3.org/2000/svg" xmlns:xlink="http://www.w3.org/1999/xlink">
    <!-- Generator: Sketch 40.3 (33839) - http://www.bohemiancoding.com/sketch -->
    <desc>Created with Sketch.</desc>
    <defs></defs>
    <rect id="Rectangle-2" stroke="none" fill="#FFFFFF" fill-rule="evenodd" x="0" y="0" width="320" height="464"></rect>
    <rect id="Rectangle-Copy-2" stroke="none" fill="#B2DFDB" fill-rule="evenodd" x="8" y="16" width="37" height="48"></rect>
    <rect id="Rectangle-Copy-8" stroke="none" fill="#00BCD4" fill-rule="evenodd" x="8" y="80" width="90" height="48"></rect>
    <rect id="Rectangle-Copy-14" stroke="none" fill="#00BCD4" fill-rule="evenodd" x="8" y="208" width="90" height="48"></rect>
    <rect id="Rectangle-Copy-11" stroke="none" fill="#00BCD4" fill-rule="evenodd" x="8" y="144" width="197" height="48"></rect>
    <rect id="Rectangle-Copy-9" stroke="none" fill="#00BCD4" fill-rule="evenodd" x="115" y="80" width="90" height="48"></rect>
    <rect id="Rectangle-Copy-10" stroke="none" fill="#00BCD4" fill-rule="evenodd" x="222" y="80" width="90" height="48"></rect>
    <rect id="Rectangle-Copy-12" stroke="none" fill="#00BCD4" fill-rule="evenodd" x="222" y="144" width="90" height="48"></rect>
    <rect id="Rectangle-Copy-13" stroke="none" fill="#00BCD4" fill-rule="evenodd" x="115" y="208" width="197" height="48"></rect>
    <rect id="Rectangle-Copy-15" stroke="none" fill="#00BCD4" fill-rule="evenodd" x="8" y="272" width="304" height="48"></rect>
    <rect id="Rectangle-Copy-28" stroke="none" fill="#F23C79" fill-rule="evenodd" x="8" y="336" width="304" height="48"></rect>
    <rect id="Rectangle-Copy-29" stroke="none" fill="#F23C79" fill-rule="evenodd" x="8" y="400" width="304" height="48"></rect>
    <text id="1-1-XS" stroke="none" fill="none" font-family="Courier" font-size="16" font-weight="normal">
        <tspan x="131.195312" y="363" fill="#FFFFFF">1-1 XS</tspan>
    </text>
    <text id="1-1-XS-Copy" stroke="none" fill="none" font-family="Courier" font-size="16" font-weight="normal">
        <tspan x="131.195312" y="427" fill="#FFFFFF">1-1 XS</tspan>
    </text>
    <rect id="Rectangle-Copy-3" stroke="none" fill="#B2DFDB" fill-rule="evenodd" x="61" y="16" width="37" height="48"></rect>
    <rect id="Rectangle-Copy-4" stroke="none" fill="#B2DFDB" fill-rule="evenodd" x="115" y="16" width="37" height="48"></rect>
    <rect id="Rectangle-Copy-5" stroke="none" fill="#B2DFDB" fill-rule="evenodd" x="168" y="16" width="37" height="48"></rect>
    <rect id="Rectangle-Copy-6" stroke="none" fill="#B2DFDB" fill-rule="evenodd" x="222" y="16" width="37" height="48"></rect>
    <rect id="Rectangle-Copy-7" stroke="none" fill="#B2DFDB" fill-rule="evenodd" x="275" y="16" width="37" height="48"></rect>
</svg>
