
<svg width="600px" height="465px" viewBox="0 0 600 465" version="1.1" xmlns="http://www.w3.org/2000/svg" xmlns:xlink="http://www.w3.org/1999/xlink">
    <!-- Generator: Sketch 40.3 (33839) - http://www.bohemiancoding.com/sketch -->
    <desc>Created with Sketch.</desc>
    <defs></defs>
    <rect id="Rectangle-2" stroke="none" fill="#FFFFFF" fill-rule="evenodd" x="0" y="0" width="600" height="464"></rect>
    <rect id="Rectangle-Copy-2" stroke="none" fill="#B2DFDB" fill-rule="evenodd" x="8" y="16" width="34" height="48"></rect>
    <rect id="Rectangle-Copy-14" stroke="none" fill="#00BCD4" fill-rule="evenodd" x="8" y="80" width="84" height="48"></rect>
    <rect id="Rectangle-Copy-20" stroke="none" fill="#00BCD4" fill-rule="evenodd" x="8" y="144" width="134" height="48"></rect>
    <rect id="Rectangle-Copy-24" stroke="none" fill="#00BCD4" fill-rule="evenodd" x="8" y="208" width="184" height="48"></rect>
    <rect id="Rectangle-Copy-27" stroke="none" fill="#00BCD4" fill-rule="evenodd" x="8" y="272" width="284" height="48"></rect>
    <rect id="Rectangle-Copy-29" stroke="none" fill="#00BCD4" fill-rule="evenodd" x="8" y="336" width="584" height="48"></rect>
    <rect id="Rectangle-Copy-28" stroke="none" fill="#F23C79" fill-rule="evenodd" x="8" y="400" width="284" height="48"></rect>
    <rect id="Rectangle-Copy-30" stroke="none" fill="#F23C79" fill-rule="evenodd" x="308" y="400" width="284" height="48"></rect>
    <text id="1-2-SM" stroke="none" fill="none" font-family="Courier" font-size="16" font-weight="normal">
        <tspan x="121.195312" y="428" fill="#FFFFFF">1-2 SM</tspan>
    </text>
    <text id="1-2-SM-Copy" stroke="none" fill="none" font-family="Courier" font-size="16" font-weight="normal">
        <tspan x="421.195312" y="428" fill="#FFFFFF">1-2 SM</tspan>
    </text>
    <rect id="Rectangle-Copy-28" stroke="none" fill="#00BCD4" fill-rule="evenodd" x="308" y="272" width="284" height="48"></rect>
    <rect id="Rectangle-Copy-25" stroke="none" fill="#00BCD4" fill-rule="evenodd" x="208" y="208" width="184" height="48"></rect>
    <rect id="Rectangle-Copy-26" stroke="none" fill="#00BCD4" fill-rule="evenodd" x="408" y="208" width="184" height="48"></rect>
    <rect id="Rectangle-Copy-21" stroke="none" fill="#00BCD4" fill-rule="evenodd" x="158" y="144" width="134" height="48"></rect>
    <rect id="Rectangle-Copy-22" stroke="none" fill="#00BCD4" fill-rule="evenodd" x="308" y="144" width="134" height="48"></rect>
    <rect id="Rectangle-Copy-23" stroke="none" fill="#00BCD4" fill-rule="evenodd" x="458" y="144" width="134" height="48"></rect>
    <rect id="Rectangle-Copy-15" stroke="none" fill="#00BCD4" fill-rule="evenodd" x="108" y="80" width="84" height="48"></rect>
    <rect id="Rectangle-Copy-16" stroke="none" fill="#00BCD4" fill-rule="evenodd" x="208" y="80" width="84" height="48"></rect>
    <rect id="Rectangle-Copy-17" stroke="none" fill="#00BCD4" fill-rule="evenodd" x="308" y="80" width="84" height="48"></rect>
    <rect id="Rectangle-Copy-18" stroke="none" fill="#00BCD4" fill-rule="evenodd" x="408" y="80" width="84" height="48"></rect>
    <rect id="Rectangle-Copy-19" stroke="none" fill="#00BCD4" fill-rule="evenodd" x="508" y="80" width="84" height="48"></rect>
    <rect id="Rectangle-Copy-3" stroke="none" fill="#B2DFDB" fill-rule="evenodd" x="58" y="16" width="34" height="48"></rect>
    <rect id="Rectangle-Copy-4" stroke="none" fill="#B2DFDB" fill-rule="evenodd" x="108" y="16" width="34" height="48"></rect>
    <rect id="Rectangle-Copy-5" stroke="none" fill="#B2DFDB" fill-rule="evenodd" x="158" y="16" width="34" height="48"></rect>
    <rect id="Rectangle-Copy-6" stroke="none" fill="#B2DFDB" fill-rule="evenodd" x="208" y="16" width="34" height="48"></rect>
    <rect id="Rectangle-Copy-7" stroke="none" fill="#B2DFDB" fill-rule="evenodd" x="258" y="16" width="34" height="48"></rect>
    <rect id="Rectangle-Copy-8" stroke="none" fill="#B2DFDB" fill-rule="evenodd" x="308" y="16" width="34" height="48"></rect>
    <rect id="Rectangle-Copy-9" stroke="none" fill="#B2DFDB" fill-rule="evenodd" x="358" y="16" width="34" height="48"></rect>
    <rect id="Rectangle-Copy-10" stroke="none" fill="#B2DFDB" fill-rule="evenodd" x="408" y="16" width="34" height="48"></rect>
    <rect id="Rectangle-Copy-11" stroke="none" fill="#B2DFDB" fill-rule="evenodd" x="458" y="16" width="34" height="48"></rect>
    <rect id="Rectangle-Copy-12" stroke="none" fill="#B2DFDB" fill-rule="evenodd" x="508" y="16" width="34" height="48"></rect>
    <rect id="Rectangle-Copy-13" stroke="none" fill="#B2DFDB" fill-rule="evenodd" x="558" y="16" width="34" height="48"></rect>
</svg>
