
<svg width="738px" height="285px" viewBox="-1080 377 738 285" version="1.1" xmlns="http://www.w3.org/2000/svg" xmlns:xlink="http://www.w3.org/1999/xlink">
    <!-- Generator: Sketch 40.3 (33839) - http://www.bohemiancoding.com/sketch -->
    <desc>Created with Sketch.</desc>
    <defs>
        <rect id="path-1" x="-979" y="414" width="536" height="80"></rect>
        <filter x="-50%" y="-50%" width="200%" height="200%" filterUnits="objectBoundingBox" id="filter-2">
            <feOffset dx="0" dy="40" in="SourceAlpha" result="shadowOffsetOuter1"></feOffset>
            <feGaussianBlur stdDeviation="38.5" in="shadowOffsetOuter1" result="shadowBlurOuter1"></feGaussianBlur>
            <feColorMatrix values="0 0 0 0 0   0 0 0 0 0   0 0 0 0 0  0 0 0 0.22 0" type="matrix" in="shadowBlurOuter1" result="shadowMatrixOuter1"></feColorMatrix>
            <feOffset dx="0" dy="27" in="SourceAlpha" result="shadowOffsetOuter2"></feOffset>
            <feGaussianBlur stdDeviation="12" in="shadowOffsetOuter2" result="shadowBlurOuter2"></feGaussianBlur>
            <feColorMatrix values="0 0 0 0 0   0 0 0 0 0   0 0 0 0 0  0 0 0 0.2 0" type="matrix" in="shadowBlurOuter2" result="shadowMatrixOuter2"></feColorMatrix>
            <feMerge>
                <feMergeNode in="shadowMatrixOuter1"></feMergeNode>
                <feMergeNode in="shadowMatrixOuter2"></feMergeNode>
            </feMerge>
        </filter>
    </defs>
    <g id="MUI-&gt;-Panel-Copy-9" stroke="none" fill="none">
        <use fill="black" fill-opacity="1" filter="url(#filter-2)" xlink:href="#path-1"></use>
        <use fill="#FFFFFF" fill-rule="evenodd" xlink:href="#path-1"></use>
    </g>
    <path d="M-742.3,462 L-742.46,461.008 L-747.724,461.008 L-742.444,454.432 L-742.444,453.52 L-748.796,453.52 L-748.652,454.512 L-743.82,454.512 L-749.1,461.072 L-749.1,462 L-742.3,462 Z M-735.708,457.52 L-735.708,456.32 L-740.236,456.32 L-740.236,457.52 L-735.708,457.52 Z M-727.196,459.584 C-727.996,460.512 -728.812,461.104 -729.852,461.104 C-731.26,461.104 -732.3,460 -732.3,457.952 C-732.3,455.568 -731.052,454.416 -729.468,454.416 C-728.556,454.416 -727.884,454.592 -727.196,454.928 L-727.196,459.584 Z M-725.996,462 L-725.996,449.136 L-727.196,449.344 L-727.196,453.824 C-727.836,453.568 -728.604,453.408 -729.5,453.408 C-731.628,453.408 -733.516,454.912 -733.516,458 C-733.516,460.848 -731.884,462.176 -729.964,462.176 C-728.684,462.176 -727.804,461.536 -727.132,460.768 L-726.908,462 L-725.996,462 Z M-716.22,460.976 L-716.396,459.904 C-717.292,460.64 -718.332,461.152 -719.484,461.152 C-721.276,461.152 -722.284,459.936 -722.316,457.84 L-716.204,457.84 L-716.204,457.584 C-716.204,455.232 -717.372,453.344 -719.756,453.344 C-721.932,453.344 -723.532,455.04 -723.532,457.744 C-723.532,460.672 -721.868,462.176 -719.564,462.176 C-718.22,462.176 -717.084,461.696 -716.22,460.976 L-716.22,460.976 Z M-719.772,454.288 C-718.332,454.288 -717.532,455.376 -717.42,456.912 L-722.268,456.912 C-722.044,455.216 -721.084,454.288 -719.772,454.288 L-719.772,454.288 Z M-707.42,457.568 C-707.42,459.936 -708.652,461.088 -710.268,461.088 C-711.164,461.088 -711.836,460.928 -712.524,460.592 L-712.524,455.936 C-711.708,454.992 -710.908,454.416 -709.868,454.416 C-708.444,454.416 -707.42,455.52 -707.42,457.568 L-707.42,457.568 Z M-706.188,457.52 C-706.188,454.688 -707.82,453.344 -709.756,453.344 C-711.036,453.344 -711.9,453.984 -712.588,454.752 L-712.796,453.52 L-713.708,453.52 L-713.708,465.28 L-712.524,465.088 L-712.524,461.696 C-711.884,461.952 -711.1,462.112 -710.22,462.112 C-708.076,462.112 -706.188,460.608 -706.188,457.52 L-706.188,457.52 Z M-699.788,462 L-699.948,461.008 C-700.156,461.056 -700.492,461.088 -700.78,461.088 C-701.74,461.088 -702.108,460.72 -702.108,459.856 L-702.108,454.528 L-699.9,454.528 L-700.044,453.52 L-702.108,453.52 L-702.108,450.384 L-703.276,450.592 L-703.276,453.52 L-704.636,453.52 L-704.636,454.528 L-703.276,454.528 L-703.276,460.064 C-703.276,461.632 -702.38,462.144 -701.004,462.144 C-700.476,462.144 -700.028,462.064 -699.788,462 L-699.788,462 Z M-690.508,462 L-690.508,455.92 C-690.508,454.304 -691.388,453.344 -693.148,453.344 C-694.348,453.344 -695.324,453.952 -696.252,454.72 L-696.252,449.136 L-697.436,449.344 L-697.436,462 L-696.252,462 L-696.252,455.872 C-695.276,454.96 -694.316,454.416 -693.372,454.416 C-692.236,454.416 -691.708,455.072 -691.708,456.16 L-691.708,462 L-690.508,462 Z M-686.204,455.28 L-686.204,453.52 L-687.612,453.52 L-687.612,455.28 L-686.204,455.28 Z M-686.204,462 L-686.204,460.24 L-687.612,460.24 L-687.612,462 L-686.204,462 Z M-672.06,458.496 C-672.06,456.432 -673.548,455.104 -675.916,455.104 C-676.796,455.104 -677.42,455.264 -677.932,455.44 L-677.644,451.68 L-672.508,451.68 L-672.668,450.64 L-678.636,450.64 L-679.036,456.368 L-678.252,456.56 C-677.644,456.32 -677.004,456.128 -676.028,456.128 C-674.252,456.128 -673.26,457.072 -673.26,458.56 C-673.26,460.288 -674.636,461.184 -676.252,461.184 C-677.532,461.184 -678.508,460.8 -679.388,460.24 L-679.564,461.376 C-678.748,461.856 -677.708,462.208 -676.3,462.208 C-673.964,462.208 -672.06,460.832 -672.06,458.496 L-672.06,458.496 Z" id="z-depth:-5-copy" stroke="none" fill="#727272" fill-rule="evenodd"></path>
</svg>
