
<svg width="666px" height="210px" viewBox="-1044 90 666 210" version="1.1" xmlns="http://www.w3.org/2000/svg" xmlns:xlink="http://www.w3.org/1999/xlink">
    <!-- Generator: Sketch 40.3 (33839) - http://www.bohemiancoding.com/sketch -->
    <desc>Created with Sketch.</desc>
    <defs>
        <rect id="path-1" x="-979" y="126" width="536" height="80"></rect>
        <filter x="-50%" y="-50%" width="200%" height="200%" filterUnits="objectBoundingBox" id="filter-2">
            <feOffset dx="0" dy="17" in="SourceAlpha" result="shadowOffsetOuter1"></feOffset>
            <feGaussianBlur stdDeviation="25" in="shadowOffsetOuter1" result="shadowBlurOuter1"></feGaussianBlur>
            <feColorMatrix values="0 0 0 0 0   0 0 0 0 0   0 0 0 0 0  0 0 0 0.19 0" type="matrix" in="shadowBlurOuter1" result="shadowMatrixOuter1"></feColorMatrix>
            <feOffset dx="0" dy="12" in="SourceAlpha" result="shadowOffsetOuter2"></feOffset>
            <feGaussianBlur stdDeviation="7.5" in="shadowOffsetOuter2" result="shadowBlurOuter2"></feGaussianBlur>
            <feColorMatrix values="0 0 0 0 0   0 0 0 0 0   0 0 0 0 0  0 0 0 0.24 0" type="matrix" in="shadowBlurOuter2" result="shadowMatrixOuter2"></feColorMatrix>
            <feMerge>
                <feMergeNode in="shadowMatrixOuter1"></feMergeNode>
                <feMergeNode in="shadowMatrixOuter2"></feMergeNode>
            </feMerge>
        </filter>
    </defs>
    <g id="MUI-&gt;-Panel-Copy-7" stroke="none" fill="none">
        <use fill="black" fill-opacity="1" filter="url(#filter-2)" xlink:href="#path-1"></use>
        <use fill="#FFFFFF" fill-rule="evenodd" xlink:href="#path-1"></use>
    </g>
    <path d="M-742.204,174 L-742.364,173.008 L-747.628,173.008 L-742.348,166.432 L-742.348,165.52 L-748.7,165.52 L-748.556,166.512 L-743.724,166.512 L-749.004,173.072 L-749.004,174 L-742.204,174 Z M-735.612,169.52 L-735.612,168.32 L-740.14,168.32 L-740.14,169.52 L-735.612,169.52 Z M-727.1,171.584 C-727.9,172.512 -728.716,173.104 -729.756,173.104 C-731.164,173.104 -732.204,172 -732.204,169.952 C-732.204,167.568 -730.956,166.416 -729.372,166.416 C-728.46,166.416 -727.788,166.592 -727.1,166.928 L-727.1,171.584 Z M-725.9,174 L-725.9,161.136 L-727.1,161.344 L-727.1,165.824 C-727.74,165.568 -728.508,165.408 -729.404,165.408 C-731.532,165.408 -733.42,166.912 -733.42,170 C-733.42,172.848 -731.788,174.176 -729.868,174.176 C-728.588,174.176 -727.708,173.536 -727.036,172.768 L-726.812,174 L-725.9,174 Z M-716.124,172.976 L-716.3,171.904 C-717.196,172.64 -718.236,173.152 -719.388,173.152 C-721.18,173.152 -722.188,171.936 -722.22,169.84 L-716.108,169.84 L-716.108,169.584 C-716.108,167.232 -717.276,165.344 -719.66,165.344 C-721.836,165.344 -723.436,167.04 -723.436,169.744 C-723.436,172.672 -721.772,174.176 -719.468,174.176 C-718.124,174.176 -716.988,173.696 -716.124,172.976 L-716.124,172.976 Z M-719.676,166.288 C-718.236,166.288 -717.436,167.376 -717.324,168.912 L-722.172,168.912 C-721.948,167.216 -720.988,166.288 -719.676,166.288 L-719.676,166.288 Z M-707.324,169.568 C-707.324,171.936 -708.556,173.088 -710.172,173.088 C-711.068,173.088 -711.74,172.928 -712.428,172.592 L-712.428,167.936 C-711.612,166.992 -710.812,166.416 -709.772,166.416 C-708.348,166.416 -707.324,167.52 -707.324,169.568 L-707.324,169.568 Z M-706.092,169.52 C-706.092,166.688 -707.724,165.344 -709.66,165.344 C-710.94,165.344 -711.804,165.984 -712.492,166.752 L-712.7,165.52 L-713.612,165.52 L-713.612,177.28 L-712.428,177.088 L-712.428,173.696 C-711.788,173.952 -711.004,174.112 -710.124,174.112 C-707.98,174.112 -706.092,172.608 -706.092,169.52 L-706.092,169.52 Z M-699.692,174 L-699.852,173.008 C-700.06,173.056 -700.396,173.088 -700.684,173.088 C-701.644,173.088 -702.012,172.72 -702.012,171.856 L-702.012,166.528 L-699.804,166.528 L-699.948,165.52 L-702.012,165.52 L-702.012,162.384 L-703.18,162.592 L-703.18,165.52 L-704.54,165.52 L-704.54,166.528 L-703.18,166.528 L-703.18,172.064 C-703.18,173.632 -702.284,174.144 -700.908,174.144 C-700.38,174.144 -699.932,174.064 -699.692,174 L-699.692,174 Z M-690.412,174 L-690.412,167.92 C-690.412,166.304 -691.292,165.344 -693.052,165.344 C-694.252,165.344 -695.228,165.952 -696.156,166.72 L-696.156,161.136 L-697.34,161.344 L-697.34,174 L-696.156,174 L-696.156,167.872 C-695.18,166.96 -694.22,166.416 -693.276,166.416 C-692.14,166.416 -691.612,167.072 -691.612,168.16 L-691.612,174 L-690.412,174 Z M-686.108,167.28 L-686.108,165.52 L-687.516,165.52 L-687.516,167.28 L-686.108,167.28 Z M-686.108,174 L-686.108,172.24 L-687.516,172.24 L-687.516,174 L-686.108,174 Z M-672.268,170.928 C-672.268,169.328 -673.212,168.416 -674.748,168 C-673.5,167.6 -672.492,166.784 -672.492,165.312 C-672.492,163.776 -673.612,162.432 -676.012,162.432 C-677.436,162.432 -678.492,162.832 -679.404,163.472 L-679.244,164.576 C-678.348,163.92 -677.308,163.472 -676.076,163.472 C-674.508,163.472 -673.692,164.272 -673.692,165.36 C-673.692,166.688 -674.748,167.488 -676.78,167.488 L-677.564,167.488 L-677.42,168.56 L-676.892,168.56 C-674.524,168.56 -673.468,169.472 -673.468,170.944 C-673.468,172.304 -674.524,173.168 -676.22,173.168 C-677.468,173.168 -678.38,172.832 -679.388,172.176 L-679.596,173.328 C-678.732,173.856 -677.548,174.224 -676.268,174.224 C-673.9,174.224 -672.268,172.864 -672.268,170.928 L-672.268,170.928 Z" id="z-depth:-3-copy" stroke="none" fill="#727272" fill-rule="evenodd"></path>
</svg>
