
<svg width="610px" height="154px" viewBox="-1016 -41 610 154" version="1.1" xmlns="http://www.w3.org/2000/svg" xmlns:xlink="http://www.w3.org/1999/xlink">
    <!-- Generator: Sketch 40.3 (33839) - http://www.bohemiancoding.com/sketch -->
    <desc>Created with Sketch.</desc>
    <defs>
        <rect id="path-1" x="-979" y="-18" width="536" height="80"></rect>
        <filter x="-50%" y="-50%" width="200%" height="200%" filterUnits="objectBoundingBox" id="filter-2">
            <feOffset dx="0" dy="6" in="SourceAlpha" result="shadowOffsetOuter1"></feOffset>
            <feGaussianBlur stdDeviation="10" in="shadowOffsetOuter1" result="shadowBlurOuter1"></feGaussianBlur>
            <feColorMatrix values="0 0 0 0 0   0 0 0 0 0   0 0 0 0 0  0 0 0 0.19 0" type="matrix" in="shadowBlurOuter1" result="shadowMatrixOuter1"></feColorMatrix>
            <feOffset dx="0" dy="8" in="SourceAlpha" result="shadowOffsetOuter2"></feOffset>
            <feGaussianBlur stdDeviation="8.5" in="shadowOffsetOuter2" result="shadowBlurOuter2"></feGaussianBlur>
            <feColorMatrix values="0 0 0 0 0   0 0 0 0 0   0 0 0 0 0  0 0 0 0.16 0" type="matrix" in="shadowBlurOuter2" result="shadowMatrixOuter2"></feColorMatrix>
            <feMerge>
                <feMergeNode in="shadowMatrixOuter1"></feMergeNode>
                <feMergeNode in="shadowMatrixOuter2"></feMergeNode>
            </feMerge>
        </filter>
    </defs>
    <g id="MUI-&gt;-Panel-Copy-6" stroke="none" fill="none">
        <use fill="black" fill-opacity="1" filter="url(#filter-2)" xlink:href="#path-1"></use>
        <use fill="#FFFFFF" fill-rule="evenodd" xlink:href="#path-1"></use>
    </g>
    <path d="M-742.308,30 L-742.468,29.008 L-747.732,29.008 L-742.452,22.432 L-742.452,21.52 L-748.804,21.52 L-748.66,22.512 L-743.828,22.512 L-749.108,29.072 L-749.108,30 L-742.308,30 Z M-735.716,25.52 L-735.716,24.32 L-740.244,24.32 L-740.244,25.52 L-735.716,25.52 Z M-727.204,27.584 C-728.004,28.512 -728.82,29.104 -729.86,29.104 C-731.268,29.104 -732.308,28 -732.308,25.952 C-732.308,23.568 -731.06,22.416 -729.476,22.416 C-728.564,22.416 -727.892,22.592 -727.204,22.928 L-727.204,27.584 Z M-726.004,30 L-726.004,17.136 L-727.204,17.344 L-727.204,21.824 C-727.844,21.568 -728.612,21.408 -729.508,21.408 C-731.636,21.408 -733.524,22.912 -733.524,26 C-733.524,28.848 -731.892,30.176 -729.972,30.176 C-728.692,30.176 -727.812,29.536 -727.14,28.768 L-726.916,30 L-726.004,30 Z M-716.228,28.976 L-716.404,27.904 C-717.3,28.64 -718.34,29.152 -719.492,29.152 C-721.284,29.152 -722.292,27.936 -722.324,25.84 L-716.212,25.84 L-716.212,25.584 C-716.212,23.232 -717.38,21.344 -719.764,21.344 C-721.94,21.344 -723.54,23.04 -723.54,25.744 C-723.54,28.672 -721.876,30.176 -719.572,30.176 C-718.228,30.176 -717.092,29.696 -716.228,28.976 L-716.228,28.976 Z M-719.78,22.288 C-718.34,22.288 -717.54,23.376 -717.428,24.912 L-722.276,24.912 C-722.052,23.216 -721.092,22.288 -719.78,22.288 L-719.78,22.288 Z M-707.428,25.568 C-707.428,27.936 -708.66,29.088 -710.276,29.088 C-711.172,29.088 -711.844,28.928 -712.532,28.592 L-712.532,23.936 C-711.716,22.992 -710.916,22.416 -709.876,22.416 C-708.452,22.416 -707.428,23.52 -707.428,25.568 L-707.428,25.568 Z M-706.196,25.52 C-706.196,22.688 -707.828,21.344 -709.764,21.344 C-711.044,21.344 -711.908,21.984 -712.596,22.752 L-712.804,21.52 L-713.716,21.52 L-713.716,33.28 L-712.532,33.088 L-712.532,29.696 C-711.892,29.952 -711.108,30.112 -710.228,30.112 C-708.084,30.112 -706.196,28.608 -706.196,25.52 L-706.196,25.52 Z M-699.796,30 L-699.956,29.008 C-700.164,29.056 -700.5,29.088 -700.788,29.088 C-701.748,29.088 -702.116,28.72 -702.116,27.856 L-702.116,22.528 L-699.908,22.528 L-700.052,21.52 L-702.116,21.52 L-702.116,18.384 L-703.284,18.592 L-703.284,21.52 L-704.644,21.52 L-704.644,22.528 L-703.284,22.528 L-703.284,28.064 C-703.284,29.632 -702.388,30.144 -701.012,30.144 C-700.484,30.144 -700.036,30.064 -699.796,30 L-699.796,30 Z M-690.516,30 L-690.516,23.92 C-690.516,22.304 -691.396,21.344 -693.156,21.344 C-694.356,21.344 -695.332,21.952 -696.26,22.72 L-696.26,17.136 L-697.444,17.344 L-697.444,30 L-696.26,30 L-696.26,23.872 C-695.284,22.96 -694.324,22.416 -693.38,22.416 C-692.244,22.416 -691.716,23.072 -691.716,24.16 L-691.716,30 L-690.516,30 Z M-686.212,23.28 L-686.212,21.52 L-687.62,21.52 L-687.62,23.28 L-686.212,23.28 Z M-686.212,30 L-686.212,28.24 L-687.62,28.24 L-687.62,30 L-686.212,30 Z M-672.148,30 L-672.292,28.976 L-678.02,28.976 L-674.388,25.344 C-672.948,23.888 -672.34,22.928 -672.34,21.536 C-672.34,19.664 -673.636,18.432 -675.828,18.432 C-677.268,18.432 -678.404,18.976 -679.284,19.68 L-679.108,20.848 C-678.18,20.064 -677.108,19.488 -675.892,19.488 C-674.42,19.488 -673.556,20.24 -673.556,21.6 C-673.556,22.656 -673.988,23.424 -675.252,24.688 L-679.588,29.136 L-679.588,30 L-672.148,30 Z" id="z-depth:-2-copy" stroke="none" fill="#727272" fill-rule="evenodd"></path>
</svg>
