
<svg width="702px" height="246px" viewBox="-1062 228 702 246" version="1.1" xmlns="http://www.w3.org/2000/svg" xmlns:xlink="http://www.w3.org/1999/xlink">
    <!-- Generator: Sketch 40.3 (33839) - http://www.bohemiancoding.com/sketch -->
    <desc>Created with Sketch.</desc>
    <defs>
        <rect id="path-1" x="-979" y="270" width="536" height="80"></rect>
        <filter x="-50%" y="-50%" width="200%" height="200%" filterUnits="objectBoundingBox" id="filter-2">
            <feOffset dx="0" dy="25" in="SourceAlpha" result="shadowOffsetOuter1"></feOffset>
            <feGaussianBlur stdDeviation="27.5" in="shadowOffsetOuter1" result="shadowBlurOuter1"></feGaussianBlur>
            <feColorMatrix values="0 0 0 0 0   0 0 0 0 0   0 0 0 0 0  0 0 0 0.21 0" type="matrix" in="shadowBlurOuter1" result="shadowMatrixOuter1"></feColorMatrix>
            <feOffset dx="0" dy="16" in="SourceAlpha" result="shadowOffsetOuter2"></feOffset>
            <feGaussianBlur stdDeviation="14" in="shadowOffsetOuter2" result="shadowBlurOuter2"></feGaussianBlur>
            <feColorMatrix values="0 0 0 0 0   0 0 0 0 0   0 0 0 0 0  0 0 0 0.22 0" type="matrix" in="shadowBlurOuter2" result="shadowMatrixOuter2"></feColorMatrix>
            <feMerge>
                <feMergeNode in="shadowMatrixOuter1"></feMergeNode>
                <feMergeNode in="shadowMatrixOuter2"></feMergeNode>
            </feMerge>
        </filter>
    </defs>
    <g id="MUI-&gt;-Panel-Copy-8" stroke="none" fill="none">
        <use fill="black" fill-opacity="1" filter="url(#filter-2)" xlink:href="#path-1"></use>
        <use fill="#FFFFFF" fill-rule="evenodd" xlink:href="#path-1"></use>
    </g>
    <path d="M-743.312,318 L-743.472,317.008 L-748.736,317.008 L-743.456,310.432 L-743.456,309.52 L-749.808,309.52 L-749.664,310.512 L-744.832,310.512 L-750.112,317.072 L-750.112,318 L-743.312,318 Z M-736.72,313.52 L-736.72,312.32 L-741.248,312.32 L-741.248,313.52 L-736.72,313.52 Z M-728.208,315.584 C-729.008,316.512 -729.824,317.104 -730.864,317.104 C-732.272,317.104 -733.312,316 -733.312,313.952 C-733.312,311.568 -732.064,310.416 -730.48,310.416 C-729.568,310.416 -728.896,310.592 -728.208,310.928 L-728.208,315.584 Z M-727.008,318 L-727.008,305.136 L-728.208,305.344 L-728.208,309.824 C-728.848,309.568 -729.616,309.408 -730.512,309.408 C-732.64,309.408 -734.528,310.912 -734.528,314 C-734.528,316.848 -732.896,318.176 -730.976,318.176 C-729.696,318.176 -728.816,317.536 -728.144,316.768 L-727.92,318 L-727.008,318 Z M-717.232,316.976 L-717.408,315.904 C-718.304,316.64 -719.344,317.152 -720.496,317.152 C-722.288,317.152 -723.296,315.936 -723.328,313.84 L-717.216,313.84 L-717.216,313.584 C-717.216,311.232 -718.384,309.344 -720.768,309.344 C-722.944,309.344 -724.544,311.04 -724.544,313.744 C-724.544,316.672 -722.88,318.176 -720.576,318.176 C-719.232,318.176 -718.096,317.696 -717.232,316.976 L-717.232,316.976 Z M-720.784,310.288 C-719.344,310.288 -718.544,311.376 -718.432,312.912 L-723.28,312.912 C-723.056,311.216 -722.096,310.288 -720.784,310.288 L-720.784,310.288 Z M-708.432,313.568 C-708.432,315.936 -709.664,317.088 -711.28,317.088 C-712.176,317.088 -712.848,316.928 -713.536,316.592 L-713.536,311.936 C-712.72,310.992 -711.92,310.416 -710.88,310.416 C-709.456,310.416 -708.432,311.52 -708.432,313.568 L-708.432,313.568 Z M-707.2,313.52 C-707.2,310.688 -708.832,309.344 -710.768,309.344 C-712.048,309.344 -712.912,309.984 -713.6,310.752 L-713.808,309.52 L-714.72,309.52 L-714.72,321.28 L-713.536,321.088 L-713.536,317.696 C-712.896,317.952 -712.112,318.112 -711.232,318.112 C-709.088,318.112 -707.2,316.608 -707.2,313.52 L-707.2,313.52 Z M-700.8,318 L-700.96,317.008 C-701.168,317.056 -701.504,317.088 -701.792,317.088 C-702.752,317.088 -703.12,316.72 -703.12,315.856 L-703.12,310.528 L-700.912,310.528 L-701.056,309.52 L-703.12,309.52 L-703.12,306.384 L-704.288,306.592 L-704.288,309.52 L-705.648,309.52 L-705.648,310.528 L-704.288,310.528 L-704.288,316.064 C-704.288,317.632 -703.392,318.144 -702.016,318.144 C-701.488,318.144 -701.04,318.064 -700.8,318 L-700.8,318 Z M-691.52,318 L-691.52,311.92 C-691.52,310.304 -692.4,309.344 -694.16,309.344 C-695.36,309.344 -696.336,309.952 -697.264,310.72 L-697.264,305.136 L-698.448,305.344 L-698.448,318 L-697.264,318 L-697.264,311.872 C-696.288,310.96 -695.328,310.416 -694.384,310.416 C-693.248,310.416 -692.72,311.072 -692.72,312.16 L-692.72,318 L-691.52,318 Z M-687.216,311.28 L-687.216,309.52 L-688.624,309.52 L-688.624,311.28 L-687.216,311.28 Z M-687.216,318 L-687.216,316.24 L-688.624,316.24 L-688.624,318 L-687.216,318 Z M-671.68,315.328 L-671.68,314.352 L-673.632,314.352 L-673.632,306.592 L-675.04,306.592 L-680.768,314.496 L-680.768,315.328 L-674.72,315.328 L-674.72,318 L-673.632,318 L-673.632,315.328 L-671.68,315.328 Z M-674.72,314.352 L-679.472,314.352 L-674.72,307.888 L-674.72,314.352 Z" id="z-depth:-4-copy" stroke="none" fill="#727272" fill-rule="evenodd"></path>
</svg>
