
<svg width="536px" height="80px" viewBox="-979 -306 536 80" version="1.1" xmlns="http://www.w3.org/2000/svg" xmlns:xlink="http://www.w3.org/1999/xlink">
    <!-- Generator: Sketch 40.3 (33839) - http://www.bohemiancoding.com/sketch -->
    <desc>Created with Sketch.</desc>
    <defs></defs>
    <rect id="MUI-&gt;-Panel-Copy-4" stroke="none" fill="#FFFFFF" fill-rule="evenodd" x="-979" y="-306" width="536" height="80"></rect>
    <path d="M-743.012,-258 L-743.172,-258.992 L-748.436,-258.992 L-743.156,-265.568 L-743.156,-266.48 L-749.508,-266.48 L-749.364,-265.488 L-744.532,-265.488 L-749.812,-258.928 L-749.812,-258 L-743.012,-258 Z M-736.42,-262.48 L-736.42,-263.68 L-740.948,-263.68 L-740.948,-262.48 L-736.42,-262.48 Z M-727.908,-260.416 C-728.708,-259.488 -729.524,-258.896 -730.564,-258.896 C-731.972,-258.896 -733.012,-260 -733.012,-262.048 C-733.012,-264.432 -731.764,-265.584 -730.18,-265.584 C-729.268,-265.584 -728.596,-265.408 -727.908,-265.072 L-727.908,-260.416 Z M-726.708,-258 L-726.708,-270.864 L-727.908,-270.656 L-727.908,-266.176 C-728.548,-266.432 -729.316,-266.592 -730.212,-266.592 C-732.34,-266.592 -734.228,-265.088 -734.228,-262 C-734.228,-259.152 -732.596,-257.824 -730.676,-257.824 C-729.396,-257.824 -728.516,-258.464 -727.844,-259.232 L-727.62,-258 L-726.708,-258 Z M-716.932,-259.024 L-717.108,-260.096 C-718.004,-259.36 -719.044,-258.848 -720.196,-258.848 C-721.988,-258.848 -722.996,-260.064 -723.028,-262.16 L-716.916,-262.16 L-716.916,-262.416 C-716.916,-264.768 -718.084,-266.656 -720.468,-266.656 C-722.644,-266.656 -724.244,-264.96 -724.244,-262.256 C-724.244,-259.328 -722.58,-257.824 -720.276,-257.824 C-718.932,-257.824 -717.796,-258.304 -716.932,-259.024 L-716.932,-259.024 Z M-720.484,-265.712 C-719.044,-265.712 -718.244,-264.624 -718.132,-263.088 L-722.98,-263.088 C-722.756,-264.784 -721.796,-265.712 -720.484,-265.712 L-720.484,-265.712 Z M-708.132,-262.432 C-708.132,-260.064 -709.364,-258.912 -710.98,-258.912 C-711.876,-258.912 -712.548,-259.072 -713.236,-259.408 L-713.236,-264.064 C-712.42,-265.008 -711.62,-265.584 -710.58,-265.584 C-709.156,-265.584 -708.132,-264.48 -708.132,-262.432 L-708.132,-262.432 Z M-706.9,-262.48 C-706.9,-265.312 -708.532,-266.656 -710.468,-266.656 C-711.748,-266.656 -712.612,-266.016 -713.3,-265.248 L-713.508,-266.48 L-714.42,-266.48 L-714.42,-254.72 L-713.236,-254.912 L-713.236,-258.304 C-712.596,-258.048 -711.812,-257.888 -710.932,-257.888 C-708.788,-257.888 -706.9,-259.392 -706.9,-262.48 L-706.9,-262.48 Z M-700.5,-258 L-700.66,-258.992 C-700.868,-258.944 -701.204,-258.912 -701.492,-258.912 C-702.452,-258.912 -702.82,-259.28 -702.82,-260.144 L-702.82,-265.472 L-700.612,-265.472 L-700.756,-266.48 L-702.82,-266.48 L-702.82,-269.616 L-703.988,-269.408 L-703.988,-266.48 L-705.348,-266.48 L-705.348,-265.472 L-703.988,-265.472 L-703.988,-259.936 C-703.988,-258.368 -703.092,-257.856 -701.716,-257.856 C-701.188,-257.856 -700.74,-257.936 -700.5,-258 L-700.5,-258 Z M-691.22,-258 L-691.22,-264.08 C-691.22,-265.696 -692.1,-266.656 -693.86,-266.656 C-695.06,-266.656 -696.036,-266.048 -696.964,-265.28 L-696.964,-270.864 L-698.148,-270.656 L-698.148,-258 L-696.964,-258 L-696.964,-264.128 C-695.988,-265.04 -695.028,-265.584 -694.084,-265.584 C-692.948,-265.584 -692.42,-264.928 -692.42,-263.84 L-692.42,-258 L-691.22,-258 Z M-686.916,-264.72 L-686.916,-266.48 L-688.324,-266.48 L-688.324,-264.72 L-686.916,-264.72 Z M-686.916,-258 L-686.916,-259.76 L-688.324,-259.76 L-688.324,-258 L-686.916,-258 Z M-671.46,-263.68 C-671.46,-267.312 -673.124,-269.568 -675.78,-269.568 C-678.452,-269.568 -680.132,-267.296 -680.132,-263.664 C-680.132,-260.048 -678.468,-257.776 -675.796,-257.776 C-673.124,-257.776 -671.46,-260.064 -671.46,-263.68 L-671.46,-263.68 Z M-672.66,-263.68 C-672.66,-260.72 -673.764,-258.816 -675.78,-258.816 C-677.812,-258.816 -678.932,-260.72 -678.932,-263.68 C-678.932,-266.64 -677.812,-268.544 -675.78,-268.544 C-673.764,-268.544 -672.66,-266.64 -672.66,-263.68 L-672.66,-263.68 Z" id="z-depth:-0-copy" stroke="none" fill="#727272" fill-rule="evenodd"></path>
</svg>
